%TF.GenerationSoftware,KiCad,Pcbnew,7.0.2*%
%TF.CreationDate,2024-01-01T15:15:48-07:00*%
%TF.ProjectId,Temperature Senor Board V2 (2),54656d70-6572-4617-9475-72652053656e,rev?*%
%TF.SameCoordinates,Original*%
%TF.FileFunction,Drillmap*%
%TF.FilePolarity,Positive*%
%FSLAX45Y45*%
G04 Gerber Fmt 4.5, Leading zero omitted, Abs format (unit mm)*
G04 Created by KiCad (PCBNEW 7.0.2) date 2024-01-01 15:15:48*
%MOMM*%
%LPD*%
G01*
G04 APERTURE LIST*
%ADD10C,0.050000*%
%ADD11C,0.200000*%
%ADD12C,0.330000*%
G04 APERTURE END LIST*
D10*
X11976100Y-7632700D02*
X17564100Y-7632700D01*
X17564100Y-9944100D01*
X11976100Y-9944100D01*
X11976100Y-7632700D01*
D11*
D12*
X16573600Y-8166200D02*
X16903600Y-8496200D01*
X16903600Y-8166200D02*
X16573600Y-8496200D01*
X16573600Y-9182200D02*
X16903600Y-9512200D01*
X16903600Y-9182200D02*
X16573600Y-9512200D01*
D11*
X12221219Y-10259124D02*
X12221219Y-10059124D01*
X12221219Y-10059124D02*
X12268838Y-10059124D01*
X12268838Y-10059124D02*
X12297409Y-10068648D01*
X12297409Y-10068648D02*
X12316457Y-10087695D01*
X12316457Y-10087695D02*
X12325981Y-10106743D01*
X12325981Y-10106743D02*
X12335505Y-10144838D01*
X12335505Y-10144838D02*
X12335505Y-10173410D01*
X12335505Y-10173410D02*
X12325981Y-10211505D01*
X12325981Y-10211505D02*
X12316457Y-10230552D01*
X12316457Y-10230552D02*
X12297409Y-10249600D01*
X12297409Y-10249600D02*
X12268838Y-10259124D01*
X12268838Y-10259124D02*
X12221219Y-10259124D01*
X12421219Y-10259124D02*
X12421219Y-10125790D01*
X12421219Y-10163886D02*
X12430743Y-10144838D01*
X12430743Y-10144838D02*
X12440267Y-10135314D01*
X12440267Y-10135314D02*
X12459314Y-10125790D01*
X12459314Y-10125790D02*
X12478362Y-10125790D01*
X12545028Y-10259124D02*
X12545028Y-10125790D01*
X12545028Y-10059124D02*
X12535505Y-10068648D01*
X12535505Y-10068648D02*
X12545028Y-10078171D01*
X12545028Y-10078171D02*
X12554552Y-10068648D01*
X12554552Y-10068648D02*
X12545028Y-10059124D01*
X12545028Y-10059124D02*
X12545028Y-10078171D01*
X12668838Y-10259124D02*
X12649790Y-10249600D01*
X12649790Y-10249600D02*
X12640267Y-10230552D01*
X12640267Y-10230552D02*
X12640267Y-10059124D01*
X12773600Y-10259124D02*
X12754552Y-10249600D01*
X12754552Y-10249600D02*
X12745028Y-10230552D01*
X12745028Y-10230552D02*
X12745028Y-10059124D01*
X13002171Y-10259124D02*
X13002171Y-10059124D01*
X13002171Y-10059124D02*
X13068838Y-10201981D01*
X13068838Y-10201981D02*
X13135505Y-10059124D01*
X13135505Y-10059124D02*
X13135505Y-10259124D01*
X13316457Y-10259124D02*
X13316457Y-10154362D01*
X13316457Y-10154362D02*
X13306933Y-10135314D01*
X13306933Y-10135314D02*
X13287886Y-10125790D01*
X13287886Y-10125790D02*
X13249790Y-10125790D01*
X13249790Y-10125790D02*
X13230743Y-10135314D01*
X13316457Y-10249600D02*
X13297409Y-10259124D01*
X13297409Y-10259124D02*
X13249790Y-10259124D01*
X13249790Y-10259124D02*
X13230743Y-10249600D01*
X13230743Y-10249600D02*
X13221219Y-10230552D01*
X13221219Y-10230552D02*
X13221219Y-10211505D01*
X13221219Y-10211505D02*
X13230743Y-10192457D01*
X13230743Y-10192457D02*
X13249790Y-10182933D01*
X13249790Y-10182933D02*
X13297409Y-10182933D01*
X13297409Y-10182933D02*
X13316457Y-10173410D01*
X13411695Y-10125790D02*
X13411695Y-10325790D01*
X13411695Y-10135314D02*
X13430743Y-10125790D01*
X13430743Y-10125790D02*
X13468838Y-10125790D01*
X13468838Y-10125790D02*
X13487886Y-10135314D01*
X13487886Y-10135314D02*
X13497409Y-10144838D01*
X13497409Y-10144838D02*
X13506933Y-10163886D01*
X13506933Y-10163886D02*
X13506933Y-10221029D01*
X13506933Y-10221029D02*
X13497409Y-10240076D01*
X13497409Y-10240076D02*
X13487886Y-10249600D01*
X13487886Y-10249600D02*
X13468838Y-10259124D01*
X13468838Y-10259124D02*
X13430743Y-10259124D01*
X13430743Y-10259124D02*
X13411695Y-10249600D01*
X13592648Y-10240076D02*
X13602171Y-10249600D01*
X13602171Y-10249600D02*
X13592648Y-10259124D01*
X13592648Y-10259124D02*
X13583124Y-10249600D01*
X13583124Y-10249600D02*
X13592648Y-10240076D01*
X13592648Y-10240076D02*
X13592648Y-10259124D01*
X13592648Y-10135314D02*
X13602171Y-10144838D01*
X13602171Y-10144838D02*
X13592648Y-10154362D01*
X13592648Y-10154362D02*
X13583124Y-10144838D01*
X13583124Y-10144838D02*
X13592648Y-10135314D01*
X13592648Y-10135314D02*
X13592648Y-10154362D01*
X11773600Y-10486600D02*
X11973600Y-10686600D01*
X11973600Y-10486600D02*
X11773600Y-10686600D01*
X12202171Y-10479124D02*
X12325981Y-10479124D01*
X12325981Y-10479124D02*
X12259314Y-10555314D01*
X12259314Y-10555314D02*
X12287886Y-10555314D01*
X12287886Y-10555314D02*
X12306933Y-10564838D01*
X12306933Y-10564838D02*
X12316457Y-10574362D01*
X12316457Y-10574362D02*
X12325981Y-10593410D01*
X12325981Y-10593410D02*
X12325981Y-10641029D01*
X12325981Y-10641029D02*
X12316457Y-10660076D01*
X12316457Y-10660076D02*
X12306933Y-10669600D01*
X12306933Y-10669600D02*
X12287886Y-10679124D01*
X12287886Y-10679124D02*
X12230743Y-10679124D01*
X12230743Y-10679124D02*
X12211695Y-10669600D01*
X12211695Y-10669600D02*
X12202171Y-10660076D01*
X12411695Y-10660076D02*
X12421219Y-10669600D01*
X12421219Y-10669600D02*
X12411695Y-10679124D01*
X12411695Y-10679124D02*
X12402171Y-10669600D01*
X12402171Y-10669600D02*
X12411695Y-10660076D01*
X12411695Y-10660076D02*
X12411695Y-10679124D01*
X12487886Y-10479124D02*
X12611695Y-10479124D01*
X12611695Y-10479124D02*
X12545028Y-10555314D01*
X12545028Y-10555314D02*
X12573600Y-10555314D01*
X12573600Y-10555314D02*
X12592648Y-10564838D01*
X12592648Y-10564838D02*
X12602171Y-10574362D01*
X12602171Y-10574362D02*
X12611695Y-10593410D01*
X12611695Y-10593410D02*
X12611695Y-10641029D01*
X12611695Y-10641029D02*
X12602171Y-10660076D01*
X12602171Y-10660076D02*
X12592648Y-10669600D01*
X12592648Y-10669600D02*
X12573600Y-10679124D01*
X12573600Y-10679124D02*
X12516457Y-10679124D01*
X12516457Y-10679124D02*
X12497409Y-10669600D01*
X12497409Y-10669600D02*
X12487886Y-10660076D01*
X12735505Y-10479124D02*
X12754552Y-10479124D01*
X12754552Y-10479124D02*
X12773600Y-10488648D01*
X12773600Y-10488648D02*
X12783124Y-10498171D01*
X12783124Y-10498171D02*
X12792648Y-10517219D01*
X12792648Y-10517219D02*
X12802171Y-10555314D01*
X12802171Y-10555314D02*
X12802171Y-10602933D01*
X12802171Y-10602933D02*
X12792648Y-10641029D01*
X12792648Y-10641029D02*
X12783124Y-10660076D01*
X12783124Y-10660076D02*
X12773600Y-10669600D01*
X12773600Y-10669600D02*
X12754552Y-10679124D01*
X12754552Y-10679124D02*
X12735505Y-10679124D01*
X12735505Y-10679124D02*
X12716457Y-10669600D01*
X12716457Y-10669600D02*
X12706933Y-10660076D01*
X12706933Y-10660076D02*
X12697409Y-10641029D01*
X12697409Y-10641029D02*
X12687886Y-10602933D01*
X12687886Y-10602933D02*
X12687886Y-10555314D01*
X12687886Y-10555314D02*
X12697409Y-10517219D01*
X12697409Y-10517219D02*
X12706933Y-10498171D01*
X12706933Y-10498171D02*
X12716457Y-10488648D01*
X12716457Y-10488648D02*
X12735505Y-10479124D01*
X12925981Y-10479124D02*
X12945029Y-10479124D01*
X12945029Y-10479124D02*
X12964076Y-10488648D01*
X12964076Y-10488648D02*
X12973600Y-10498171D01*
X12973600Y-10498171D02*
X12983124Y-10517219D01*
X12983124Y-10517219D02*
X12992648Y-10555314D01*
X12992648Y-10555314D02*
X12992648Y-10602933D01*
X12992648Y-10602933D02*
X12983124Y-10641029D01*
X12983124Y-10641029D02*
X12973600Y-10660076D01*
X12973600Y-10660076D02*
X12964076Y-10669600D01*
X12964076Y-10669600D02*
X12945029Y-10679124D01*
X12945029Y-10679124D02*
X12925981Y-10679124D01*
X12925981Y-10679124D02*
X12906933Y-10669600D01*
X12906933Y-10669600D02*
X12897409Y-10660076D01*
X12897409Y-10660076D02*
X12887886Y-10641029D01*
X12887886Y-10641029D02*
X12878362Y-10602933D01*
X12878362Y-10602933D02*
X12878362Y-10555314D01*
X12878362Y-10555314D02*
X12887886Y-10517219D01*
X12887886Y-10517219D02*
X12897409Y-10498171D01*
X12897409Y-10498171D02*
X12906933Y-10488648D01*
X12906933Y-10488648D02*
X12925981Y-10479124D01*
X13078362Y-10679124D02*
X13078362Y-10545790D01*
X13078362Y-10564838D02*
X13087886Y-10555314D01*
X13087886Y-10555314D02*
X13106933Y-10545790D01*
X13106933Y-10545790D02*
X13135505Y-10545790D01*
X13135505Y-10545790D02*
X13154552Y-10555314D01*
X13154552Y-10555314D02*
X13164076Y-10574362D01*
X13164076Y-10574362D02*
X13164076Y-10679124D01*
X13164076Y-10574362D02*
X13173600Y-10555314D01*
X13173600Y-10555314D02*
X13192648Y-10545790D01*
X13192648Y-10545790D02*
X13221219Y-10545790D01*
X13221219Y-10545790D02*
X13240267Y-10555314D01*
X13240267Y-10555314D02*
X13249790Y-10574362D01*
X13249790Y-10574362D02*
X13249790Y-10679124D01*
X13345029Y-10679124D02*
X13345029Y-10545790D01*
X13345029Y-10564838D02*
X13354552Y-10555314D01*
X13354552Y-10555314D02*
X13373600Y-10545790D01*
X13373600Y-10545790D02*
X13402171Y-10545790D01*
X13402171Y-10545790D02*
X13421219Y-10555314D01*
X13421219Y-10555314D02*
X13430743Y-10574362D01*
X13430743Y-10574362D02*
X13430743Y-10679124D01*
X13430743Y-10574362D02*
X13440267Y-10555314D01*
X13440267Y-10555314D02*
X13459314Y-10545790D01*
X13459314Y-10545790D02*
X13487886Y-10545790D01*
X13487886Y-10545790D02*
X13506933Y-10555314D01*
X13506933Y-10555314D02*
X13516457Y-10574362D01*
X13516457Y-10574362D02*
X13516457Y-10679124D01*
X13906933Y-10469600D02*
X13735505Y-10726743D01*
X14164076Y-10479124D02*
X14183124Y-10479124D01*
X14183124Y-10479124D02*
X14202172Y-10488648D01*
X14202172Y-10488648D02*
X14211695Y-10498171D01*
X14211695Y-10498171D02*
X14221219Y-10517219D01*
X14221219Y-10517219D02*
X14230743Y-10555314D01*
X14230743Y-10555314D02*
X14230743Y-10602933D01*
X14230743Y-10602933D02*
X14221219Y-10641029D01*
X14221219Y-10641029D02*
X14211695Y-10660076D01*
X14211695Y-10660076D02*
X14202172Y-10669600D01*
X14202172Y-10669600D02*
X14183124Y-10679124D01*
X14183124Y-10679124D02*
X14164076Y-10679124D01*
X14164076Y-10679124D02*
X14145029Y-10669600D01*
X14145029Y-10669600D02*
X14135505Y-10660076D01*
X14135505Y-10660076D02*
X14125981Y-10641029D01*
X14125981Y-10641029D02*
X14116457Y-10602933D01*
X14116457Y-10602933D02*
X14116457Y-10555314D01*
X14116457Y-10555314D02*
X14125981Y-10517219D01*
X14125981Y-10517219D02*
X14135505Y-10498171D01*
X14135505Y-10498171D02*
X14145029Y-10488648D01*
X14145029Y-10488648D02*
X14164076Y-10479124D01*
X14316457Y-10660076D02*
X14325981Y-10669600D01*
X14325981Y-10669600D02*
X14316457Y-10679124D01*
X14316457Y-10679124D02*
X14306933Y-10669600D01*
X14306933Y-10669600D02*
X14316457Y-10660076D01*
X14316457Y-10660076D02*
X14316457Y-10679124D01*
X14516457Y-10679124D02*
X14402172Y-10679124D01*
X14459314Y-10679124D02*
X14459314Y-10479124D01*
X14459314Y-10479124D02*
X14440267Y-10507695D01*
X14440267Y-10507695D02*
X14421219Y-10526743D01*
X14421219Y-10526743D02*
X14402172Y-10536267D01*
X14592648Y-10498171D02*
X14602172Y-10488648D01*
X14602172Y-10488648D02*
X14621219Y-10479124D01*
X14621219Y-10479124D02*
X14668838Y-10479124D01*
X14668838Y-10479124D02*
X14687886Y-10488648D01*
X14687886Y-10488648D02*
X14697410Y-10498171D01*
X14697410Y-10498171D02*
X14706933Y-10517219D01*
X14706933Y-10517219D02*
X14706933Y-10536267D01*
X14706933Y-10536267D02*
X14697410Y-10564838D01*
X14697410Y-10564838D02*
X14583124Y-10679124D01*
X14583124Y-10679124D02*
X14706933Y-10679124D01*
X14802172Y-10679124D02*
X14840267Y-10679124D01*
X14840267Y-10679124D02*
X14859314Y-10669600D01*
X14859314Y-10669600D02*
X14868838Y-10660076D01*
X14868838Y-10660076D02*
X14887886Y-10631505D01*
X14887886Y-10631505D02*
X14897410Y-10593410D01*
X14897410Y-10593410D02*
X14897410Y-10517219D01*
X14897410Y-10517219D02*
X14887886Y-10498171D01*
X14887886Y-10498171D02*
X14878362Y-10488648D01*
X14878362Y-10488648D02*
X14859314Y-10479124D01*
X14859314Y-10479124D02*
X14821219Y-10479124D01*
X14821219Y-10479124D02*
X14802172Y-10488648D01*
X14802172Y-10488648D02*
X14792648Y-10498171D01*
X14792648Y-10498171D02*
X14783124Y-10517219D01*
X14783124Y-10517219D02*
X14783124Y-10564838D01*
X14783124Y-10564838D02*
X14792648Y-10583886D01*
X14792648Y-10583886D02*
X14802172Y-10593410D01*
X14802172Y-10593410D02*
X14821219Y-10602933D01*
X14821219Y-10602933D02*
X14859314Y-10602933D01*
X14859314Y-10602933D02*
X14878362Y-10593410D01*
X14878362Y-10593410D02*
X14887886Y-10583886D01*
X14887886Y-10583886D02*
X14897410Y-10564838D01*
X14992648Y-10679124D02*
X15030743Y-10679124D01*
X15030743Y-10679124D02*
X15049791Y-10669600D01*
X15049791Y-10669600D02*
X15059314Y-10660076D01*
X15059314Y-10660076D02*
X15078362Y-10631505D01*
X15078362Y-10631505D02*
X15087886Y-10593410D01*
X15087886Y-10593410D02*
X15087886Y-10517219D01*
X15087886Y-10517219D02*
X15078362Y-10498171D01*
X15078362Y-10498171D02*
X15068838Y-10488648D01*
X15068838Y-10488648D02*
X15049791Y-10479124D01*
X15049791Y-10479124D02*
X15011695Y-10479124D01*
X15011695Y-10479124D02*
X14992648Y-10488648D01*
X14992648Y-10488648D02*
X14983124Y-10498171D01*
X14983124Y-10498171D02*
X14973600Y-10517219D01*
X14973600Y-10517219D02*
X14973600Y-10564838D01*
X14973600Y-10564838D02*
X14983124Y-10583886D01*
X14983124Y-10583886D02*
X14992648Y-10593410D01*
X14992648Y-10593410D02*
X15011695Y-10602933D01*
X15011695Y-10602933D02*
X15049791Y-10602933D01*
X15049791Y-10602933D02*
X15068838Y-10593410D01*
X15068838Y-10593410D02*
X15078362Y-10583886D01*
X15078362Y-10583886D02*
X15087886Y-10564838D01*
X15164076Y-10479124D02*
X15164076Y-10517219D01*
X15240267Y-10479124D02*
X15240267Y-10517219D01*
X15535505Y-10755314D02*
X15525981Y-10745790D01*
X15525981Y-10745790D02*
X15506934Y-10717219D01*
X15506934Y-10717219D02*
X15497410Y-10698171D01*
X15497410Y-10698171D02*
X15487886Y-10669600D01*
X15487886Y-10669600D02*
X15478362Y-10621981D01*
X15478362Y-10621981D02*
X15478362Y-10583886D01*
X15478362Y-10583886D02*
X15487886Y-10536267D01*
X15487886Y-10536267D02*
X15497410Y-10507695D01*
X15497410Y-10507695D02*
X15506934Y-10488648D01*
X15506934Y-10488648D02*
X15525981Y-10460076D01*
X15525981Y-10460076D02*
X15535505Y-10450552D01*
X15602172Y-10498171D02*
X15611695Y-10488648D01*
X15611695Y-10488648D02*
X15630743Y-10479124D01*
X15630743Y-10479124D02*
X15678362Y-10479124D01*
X15678362Y-10479124D02*
X15697410Y-10488648D01*
X15697410Y-10488648D02*
X15706934Y-10498171D01*
X15706934Y-10498171D02*
X15716457Y-10517219D01*
X15716457Y-10517219D02*
X15716457Y-10536267D01*
X15716457Y-10536267D02*
X15706934Y-10564838D01*
X15706934Y-10564838D02*
X15592648Y-10679124D01*
X15592648Y-10679124D02*
X15716457Y-10679124D01*
X15954553Y-10679124D02*
X15954553Y-10479124D01*
X16040267Y-10679124D02*
X16040267Y-10574362D01*
X16040267Y-10574362D02*
X16030743Y-10555314D01*
X16030743Y-10555314D02*
X16011696Y-10545790D01*
X16011696Y-10545790D02*
X15983124Y-10545790D01*
X15983124Y-10545790D02*
X15964076Y-10555314D01*
X15964076Y-10555314D02*
X15954553Y-10564838D01*
X16164076Y-10679124D02*
X16145029Y-10669600D01*
X16145029Y-10669600D02*
X16135505Y-10660076D01*
X16135505Y-10660076D02*
X16125981Y-10641029D01*
X16125981Y-10641029D02*
X16125981Y-10583886D01*
X16125981Y-10583886D02*
X16135505Y-10564838D01*
X16135505Y-10564838D02*
X16145029Y-10555314D01*
X16145029Y-10555314D02*
X16164076Y-10545790D01*
X16164076Y-10545790D02*
X16192648Y-10545790D01*
X16192648Y-10545790D02*
X16211696Y-10555314D01*
X16211696Y-10555314D02*
X16221219Y-10564838D01*
X16221219Y-10564838D02*
X16230743Y-10583886D01*
X16230743Y-10583886D02*
X16230743Y-10641029D01*
X16230743Y-10641029D02*
X16221219Y-10660076D01*
X16221219Y-10660076D02*
X16211696Y-10669600D01*
X16211696Y-10669600D02*
X16192648Y-10679124D01*
X16192648Y-10679124D02*
X16164076Y-10679124D01*
X16345029Y-10679124D02*
X16325981Y-10669600D01*
X16325981Y-10669600D02*
X16316457Y-10650552D01*
X16316457Y-10650552D02*
X16316457Y-10479124D01*
X16497410Y-10669600D02*
X16478362Y-10679124D01*
X16478362Y-10679124D02*
X16440267Y-10679124D01*
X16440267Y-10679124D02*
X16421219Y-10669600D01*
X16421219Y-10669600D02*
X16411696Y-10650552D01*
X16411696Y-10650552D02*
X16411696Y-10574362D01*
X16411696Y-10574362D02*
X16421219Y-10555314D01*
X16421219Y-10555314D02*
X16440267Y-10545790D01*
X16440267Y-10545790D02*
X16478362Y-10545790D01*
X16478362Y-10545790D02*
X16497410Y-10555314D01*
X16497410Y-10555314D02*
X16506934Y-10574362D01*
X16506934Y-10574362D02*
X16506934Y-10593410D01*
X16506934Y-10593410D02*
X16411696Y-10612457D01*
X16583124Y-10669600D02*
X16602172Y-10679124D01*
X16602172Y-10679124D02*
X16640267Y-10679124D01*
X16640267Y-10679124D02*
X16659315Y-10669600D01*
X16659315Y-10669600D02*
X16668838Y-10650552D01*
X16668838Y-10650552D02*
X16668838Y-10641029D01*
X16668838Y-10641029D02*
X16659315Y-10621981D01*
X16659315Y-10621981D02*
X16640267Y-10612457D01*
X16640267Y-10612457D02*
X16611696Y-10612457D01*
X16611696Y-10612457D02*
X16592648Y-10602933D01*
X16592648Y-10602933D02*
X16583124Y-10583886D01*
X16583124Y-10583886D02*
X16583124Y-10574362D01*
X16583124Y-10574362D02*
X16592648Y-10555314D01*
X16592648Y-10555314D02*
X16611696Y-10545790D01*
X16611696Y-10545790D02*
X16640267Y-10545790D01*
X16640267Y-10545790D02*
X16659315Y-10555314D01*
X16735505Y-10755314D02*
X16745029Y-10745790D01*
X16745029Y-10745790D02*
X16764077Y-10717219D01*
X16764077Y-10717219D02*
X16773600Y-10698171D01*
X16773600Y-10698171D02*
X16783124Y-10669600D01*
X16783124Y-10669600D02*
X16792648Y-10621981D01*
X16792648Y-10621981D02*
X16792648Y-10583886D01*
X16792648Y-10583886D02*
X16783124Y-10536267D01*
X16783124Y-10536267D02*
X16773600Y-10507695D01*
X16773600Y-10507695D02*
X16764077Y-10488648D01*
X16764077Y-10488648D02*
X16745029Y-10460076D01*
X16745029Y-10460076D02*
X16735505Y-10450552D01*
X17097410Y-10755314D02*
X17087886Y-10745790D01*
X17087886Y-10745790D02*
X17068839Y-10717219D01*
X17068839Y-10717219D02*
X17059315Y-10698171D01*
X17059315Y-10698171D02*
X17049791Y-10669600D01*
X17049791Y-10669600D02*
X17040267Y-10621981D01*
X17040267Y-10621981D02*
X17040267Y-10583886D01*
X17040267Y-10583886D02*
X17049791Y-10536267D01*
X17049791Y-10536267D02*
X17059315Y-10507695D01*
X17059315Y-10507695D02*
X17068839Y-10488648D01*
X17068839Y-10488648D02*
X17087886Y-10460076D01*
X17087886Y-10460076D02*
X17097410Y-10450552D01*
X17173600Y-10545790D02*
X17173600Y-10679124D01*
X17173600Y-10564838D02*
X17183124Y-10555314D01*
X17183124Y-10555314D02*
X17202172Y-10545790D01*
X17202172Y-10545790D02*
X17230743Y-10545790D01*
X17230743Y-10545790D02*
X17249791Y-10555314D01*
X17249791Y-10555314D02*
X17259315Y-10574362D01*
X17259315Y-10574362D02*
X17259315Y-10679124D01*
X17383124Y-10679124D02*
X17364077Y-10669600D01*
X17364077Y-10669600D02*
X17354553Y-10660076D01*
X17354553Y-10660076D02*
X17345029Y-10641029D01*
X17345029Y-10641029D02*
X17345029Y-10583886D01*
X17345029Y-10583886D02*
X17354553Y-10564838D01*
X17354553Y-10564838D02*
X17364077Y-10555314D01*
X17364077Y-10555314D02*
X17383124Y-10545790D01*
X17383124Y-10545790D02*
X17411696Y-10545790D01*
X17411696Y-10545790D02*
X17430743Y-10555314D01*
X17430743Y-10555314D02*
X17440267Y-10564838D01*
X17440267Y-10564838D02*
X17449791Y-10583886D01*
X17449791Y-10583886D02*
X17449791Y-10641029D01*
X17449791Y-10641029D02*
X17440267Y-10660076D01*
X17440267Y-10660076D02*
X17430743Y-10669600D01*
X17430743Y-10669600D02*
X17411696Y-10679124D01*
X17411696Y-10679124D02*
X17383124Y-10679124D01*
X17506934Y-10545790D02*
X17583124Y-10545790D01*
X17535505Y-10479124D02*
X17535505Y-10650552D01*
X17535505Y-10650552D02*
X17545029Y-10669600D01*
X17545029Y-10669600D02*
X17564077Y-10679124D01*
X17564077Y-10679124D02*
X17583124Y-10679124D01*
X17802172Y-10545790D02*
X17802172Y-10745790D01*
X17802172Y-10555314D02*
X17821220Y-10545790D01*
X17821220Y-10545790D02*
X17859315Y-10545790D01*
X17859315Y-10545790D02*
X17878362Y-10555314D01*
X17878362Y-10555314D02*
X17887886Y-10564838D01*
X17887886Y-10564838D02*
X17897410Y-10583886D01*
X17897410Y-10583886D02*
X17897410Y-10641029D01*
X17897410Y-10641029D02*
X17887886Y-10660076D01*
X17887886Y-10660076D02*
X17878362Y-10669600D01*
X17878362Y-10669600D02*
X17859315Y-10679124D01*
X17859315Y-10679124D02*
X17821220Y-10679124D01*
X17821220Y-10679124D02*
X17802172Y-10669600D01*
X18011696Y-10679124D02*
X17992648Y-10669600D01*
X17992648Y-10669600D02*
X17983124Y-10650552D01*
X17983124Y-10650552D02*
X17983124Y-10479124D01*
X18173601Y-10679124D02*
X18173601Y-10574362D01*
X18173601Y-10574362D02*
X18164077Y-10555314D01*
X18164077Y-10555314D02*
X18145029Y-10545790D01*
X18145029Y-10545790D02*
X18106934Y-10545790D01*
X18106934Y-10545790D02*
X18087886Y-10555314D01*
X18173601Y-10669600D02*
X18154553Y-10679124D01*
X18154553Y-10679124D02*
X18106934Y-10679124D01*
X18106934Y-10679124D02*
X18087886Y-10669600D01*
X18087886Y-10669600D02*
X18078362Y-10650552D01*
X18078362Y-10650552D02*
X18078362Y-10631505D01*
X18078362Y-10631505D02*
X18087886Y-10612457D01*
X18087886Y-10612457D02*
X18106934Y-10602933D01*
X18106934Y-10602933D02*
X18154553Y-10602933D01*
X18154553Y-10602933D02*
X18173601Y-10593410D01*
X18240267Y-10545790D02*
X18316458Y-10545790D01*
X18268839Y-10479124D02*
X18268839Y-10650552D01*
X18268839Y-10650552D02*
X18278362Y-10669600D01*
X18278362Y-10669600D02*
X18297410Y-10679124D01*
X18297410Y-10679124D02*
X18316458Y-10679124D01*
X18459315Y-10669600D02*
X18440267Y-10679124D01*
X18440267Y-10679124D02*
X18402172Y-10679124D01*
X18402172Y-10679124D02*
X18383124Y-10669600D01*
X18383124Y-10669600D02*
X18373601Y-10650552D01*
X18373601Y-10650552D02*
X18373601Y-10574362D01*
X18373601Y-10574362D02*
X18383124Y-10555314D01*
X18383124Y-10555314D02*
X18402172Y-10545790D01*
X18402172Y-10545790D02*
X18440267Y-10545790D01*
X18440267Y-10545790D02*
X18459315Y-10555314D01*
X18459315Y-10555314D02*
X18468839Y-10574362D01*
X18468839Y-10574362D02*
X18468839Y-10593410D01*
X18468839Y-10593410D02*
X18373601Y-10612457D01*
X18640267Y-10679124D02*
X18640267Y-10479124D01*
X18640267Y-10669600D02*
X18621220Y-10679124D01*
X18621220Y-10679124D02*
X18583124Y-10679124D01*
X18583124Y-10679124D02*
X18564077Y-10669600D01*
X18564077Y-10669600D02*
X18554553Y-10660076D01*
X18554553Y-10660076D02*
X18545029Y-10641029D01*
X18545029Y-10641029D02*
X18545029Y-10583886D01*
X18545029Y-10583886D02*
X18554553Y-10564838D01*
X18554553Y-10564838D02*
X18564077Y-10555314D01*
X18564077Y-10555314D02*
X18583124Y-10545790D01*
X18583124Y-10545790D02*
X18621220Y-10545790D01*
X18621220Y-10545790D02*
X18640267Y-10555314D01*
X18716458Y-10755314D02*
X18725982Y-10745790D01*
X18725982Y-10745790D02*
X18745029Y-10717219D01*
X18745029Y-10717219D02*
X18754553Y-10698171D01*
X18754553Y-10698171D02*
X18764077Y-10669600D01*
X18764077Y-10669600D02*
X18773601Y-10621981D01*
X18773601Y-10621981D02*
X18773601Y-10583886D01*
X18773601Y-10583886D02*
X18764077Y-10536267D01*
X18764077Y-10536267D02*
X18754553Y-10507695D01*
X18754553Y-10507695D02*
X18745029Y-10488648D01*
X18745029Y-10488648D02*
X18725982Y-10460076D01*
X18725982Y-10460076D02*
X18716458Y-10450552D01*
M02*
