G04 #@! TF.GenerationSoftware,KiCad,Pcbnew,7.0.2*
G04 #@! TF.CreationDate,2024-01-01T15:15:03-07:00*
G04 #@! TF.ProjectId,Temperature Senor Board V2 (2),54656d70-6572-4617-9475-72652053656e,rev?*
G04 #@! TF.SameCoordinates,Original*
G04 #@! TF.FileFunction,Copper,L1,Top*
G04 #@! TF.FilePolarity,Positive*
%FSLAX46Y46*%
G04 Gerber Fmt 4.6, Leading zero omitted, Abs format (unit mm)*
G04 Created by KiCad (PCBNEW 7.0.2) date 2024-01-01 15:15:03*
%MOMM*%
%LPD*%
G01*
G04 APERTURE LIST*
G04 Aperture macros list*
%AMOutline5P*
0 Free polygon, 5 corners , with rotation*
0 The origin of the aperture is its center*
0 number of corners: always 5*
0 $1 to $10 corner X, Y*
0 $11 Rotation angle, in degrees counterclockwise*
0 create outline with 5 corners*
4,1,5,$1,$2,$3,$4,$5,$6,$7,$8,$9,$10,$1,$2,$11*%
%AMOutline6P*
0 Free polygon, 6 corners , with rotation*
0 The origin of the aperture is its center*
0 number of corners: always 6*
0 $1 to $12 corner X, Y*
0 $13 Rotation angle, in degrees counterclockwise*
0 create outline with 6 corners*
4,1,6,$1,$2,$3,$4,$5,$6,$7,$8,$9,$10,$11,$12,$1,$2,$13*%
%AMOutline7P*
0 Free polygon, 7 corners , with rotation*
0 The origin of the aperture is its center*
0 number of corners: always 7*
0 $1 to $14 corner X, Y*
0 $15 Rotation angle, in degrees counterclockwise*
0 create outline with 7 corners*
4,1,7,$1,$2,$3,$4,$5,$6,$7,$8,$9,$10,$11,$12,$13,$14,$1,$2,$15*%
%AMOutline8P*
0 Free polygon, 8 corners , with rotation*
0 The origin of the aperture is its center*
0 number of corners: always 8*
0 $1 to $16 corner X, Y*
0 $17 Rotation angle, in degrees counterclockwise*
0 create outline with 8 corners*
4,1,8,$1,$2,$3,$4,$5,$6,$7,$8,$9,$10,$11,$12,$13,$14,$15,$16,$1,$2,$17*%
G04 Aperture macros list end*
G04 #@! TA.AperFunction,ComponentPad*
%ADD10R,1.508000X1.508000*%
G04 #@! TD*
G04 #@! TA.AperFunction,ComponentPad*
%ADD11C,1.508000*%
G04 #@! TD*
G04 #@! TA.AperFunction,ComponentPad*
%ADD12C,2.475000*%
G04 #@! TD*
G04 #@! TA.AperFunction,ComponentPad*
%ADD13Outline8P,-0.660400X0.273547X-0.273547X0.660400X0.273547X0.660400X0.660400X0.273547X0.660400X-0.273547X0.273547X-0.660400X-0.273547X-0.660400X-0.660400X-0.273547X270.000000*%
G04 #@! TD*
G04 #@! TA.AperFunction,SMDPad,CuDef*
%ADD14R,1.500000X1.300000*%
G04 #@! TD*
G04 #@! TA.AperFunction,ViaPad*
%ADD15C,0.600000*%
G04 #@! TD*
G04 #@! TA.AperFunction,Conductor*
%ADD16C,0.200000*%
G04 #@! TD*
G04 APERTURE END LIST*
D10*
X158496000Y-90292000D03*
D11*
X158496000Y-87752000D03*
X158496000Y-85212000D03*
X161036000Y-91562000D03*
X161036000Y-89022000D03*
X161036000Y-86482000D03*
D12*
X170436000Y-95252000D03*
X170436000Y-81532000D03*
D13*
X124866400Y-87960200D03*
X126771400Y-89230200D03*
X124866400Y-90500200D03*
D14*
X134112000Y-89220000D03*
X134112000Y-91120000D03*
D15*
X139192000Y-86360000D03*
X145161000Y-86360000D03*
X151130000Y-90424000D03*
X139192000Y-90424000D03*
X151130000Y-86360000D03*
X130479800Y-90220800D03*
X130429000Y-86233000D03*
X145161000Y-90424000D03*
D16*
X159760317Y-89220000D02*
X134112000Y-89220000D01*
X161036000Y-91562000D02*
X161036000Y-90495683D01*
X134112000Y-89220000D02*
X126781600Y-89220000D01*
X126781600Y-89220000D02*
X126771400Y-89230200D01*
X161036000Y-90495683D02*
X159760317Y-89220000D01*
X162560000Y-90546000D02*
X162560000Y-91948000D01*
X125486200Y-91120000D02*
X124866400Y-90500200D01*
X161036000Y-89022000D02*
X162560000Y-90546000D01*
X162560000Y-91948000D02*
X161036000Y-93472000D01*
X161036000Y-93472000D02*
X136464000Y-93472000D01*
X136464000Y-93472000D02*
X134112000Y-91120000D01*
X134112000Y-91120000D02*
X125486200Y-91120000D01*
G04 #@! TA.AperFunction,Conductor*
G36*
X132806688Y-89840185D02*
G01*
X132852443Y-89892989D01*
X132862938Y-89931245D01*
X132866318Y-89962688D01*
X132867909Y-89977484D01*
X132923550Y-90126666D01*
X132928534Y-90196358D01*
X132923550Y-90213332D01*
X132867909Y-90362514D01*
X132862938Y-90408755D01*
X132836200Y-90473306D01*
X132778807Y-90513154D01*
X132739648Y-90519500D01*
X127414935Y-90519500D01*
X127347896Y-90499815D01*
X127302141Y-90447011D01*
X127292197Y-90377853D01*
X127321222Y-90314297D01*
X127338864Y-90297575D01*
X127346375Y-90291740D01*
X127369881Y-90273480D01*
X127786542Y-89856819D01*
X127847866Y-89823334D01*
X127874224Y-89820500D01*
X132739649Y-89820500D01*
X132806688Y-89840185D01*
G37*
G04 #@! TD.AperFunction*
G04 #@! TA.AperFunction,Conductor*
G36*
X157184539Y-89840185D02*
G01*
X157230294Y-89892989D01*
X157241500Y-89944500D01*
X157241500Y-91090560D01*
X157241500Y-91090578D01*
X157241501Y-91093872D01*
X157241853Y-91097152D01*
X157241854Y-91097159D01*
X157245524Y-91131297D01*
X157247909Y-91153483D01*
X157298204Y-91288331D01*
X157384454Y-91403546D01*
X157499669Y-91489796D01*
X157634517Y-91540091D01*
X157694127Y-91546500D01*
X159297872Y-91546499D01*
X159357483Y-91540091D01*
X159492331Y-91489796D01*
X159581389Y-91423126D01*
X159646850Y-91398710D01*
X159715124Y-91413561D01*
X159764530Y-91462966D01*
X159779382Y-91531239D01*
X159779226Y-91533198D01*
X159776707Y-91561996D01*
X159795838Y-91780671D01*
X159852653Y-91992704D01*
X159880664Y-92052774D01*
X159945421Y-92191646D01*
X160071326Y-92371457D01*
X160226543Y-92526674D01*
X160396853Y-92645926D01*
X160440476Y-92700502D01*
X160447669Y-92770001D01*
X160416147Y-92832355D01*
X160355917Y-92867769D01*
X160325728Y-92871500D01*
X136764097Y-92871500D01*
X136697058Y-92851815D01*
X136676416Y-92835181D01*
X135398818Y-91557582D01*
X135365333Y-91496259D01*
X135362499Y-91469901D01*
X135362499Y-90425439D01*
X135362499Y-90422128D01*
X135356091Y-90362517D01*
X135305796Y-90227669D01*
X135305793Y-90227665D01*
X135300448Y-90213334D01*
X135295464Y-90143642D01*
X135300448Y-90126666D01*
X135305793Y-90112334D01*
X135305796Y-90112331D01*
X135356091Y-89977483D01*
X135361062Y-89931244D01*
X135387800Y-89866694D01*
X135445193Y-89826846D01*
X135484352Y-89820500D01*
X157117500Y-89820500D01*
X157184539Y-89840185D01*
G37*
G04 #@! TD.AperFunction*
G04 #@! TA.AperFunction,Conductor*
G36*
X175330863Y-76372185D02*
G01*
X175376618Y-76424989D01*
X175387822Y-76475815D01*
X175513311Y-99189315D01*
X175493997Y-99256462D01*
X175441447Y-99302508D01*
X175389313Y-99314000D01*
X120137637Y-99314000D01*
X120070598Y-99294315D01*
X120024843Y-99241511D01*
X120013645Y-99191370D01*
X119921085Y-90814723D01*
X123705500Y-90814723D01*
X123705982Y-90818564D01*
X123705983Y-90818572D01*
X123716059Y-90898796D01*
X123771137Y-91031764D01*
X123820738Y-91095616D01*
X123820746Y-91095625D01*
X123823120Y-91098681D01*
X124267922Y-91543484D01*
X124271805Y-91546500D01*
X124334837Y-91595464D01*
X124467803Y-91650540D01*
X124482939Y-91652441D01*
X124551876Y-91661100D01*
X124555753Y-91661100D01*
X125177039Y-91661100D01*
X125180923Y-91661100D01*
X125184783Y-91660615D01*
X125188602Y-91660376D01*
X125243802Y-91669572D01*
X125329438Y-91705044D01*
X125486200Y-91725683D01*
X125517508Y-91721560D01*
X125533694Y-91720500D01*
X132739649Y-91720500D01*
X132806688Y-91740185D01*
X132852443Y-91792989D01*
X132862938Y-91831245D01*
X132867909Y-91877483D01*
X132918204Y-92012331D01*
X133004454Y-92127546D01*
X133119669Y-92213796D01*
X133254517Y-92264091D01*
X133314127Y-92270500D01*
X134361902Y-92270499D01*
X134428941Y-92290183D01*
X134449583Y-92306818D01*
X136005799Y-93863034D01*
X136016494Y-93875229D01*
X136035717Y-93900282D01*
X136105700Y-93953981D01*
X136105707Y-93953986D01*
X136161159Y-93996536D01*
X136307238Y-94057044D01*
X136432698Y-94073561D01*
X136463999Y-94077682D01*
X136463999Y-94077681D01*
X136464000Y-94077682D01*
X136495302Y-94073560D01*
X136511487Y-94072500D01*
X160988513Y-94072500D01*
X161004697Y-94073560D01*
X161036000Y-94077682D01*
X161192762Y-94057044D01*
X161338841Y-93996536D01*
X161366567Y-93975261D01*
X161394294Y-93953986D01*
X161424680Y-93930668D01*
X161464282Y-93900282D01*
X161483509Y-93875223D01*
X161494190Y-93863043D01*
X161815638Y-93541595D01*
X165481686Y-93541595D01*
X165506081Y-93763300D01*
X165512114Y-93818124D01*
X165582480Y-94087276D01*
X165691284Y-94343314D01*
X165836208Y-94580781D01*
X166014163Y-94794617D01*
X166221357Y-94980263D01*
X166453373Y-95133763D01*
X166453375Y-95133764D01*
X166705268Y-95251847D01*
X166913599Y-95314524D01*
X166971669Y-95331995D01*
X167246901Y-95372500D01*
X167246904Y-95372500D01*
X167453201Y-95372500D01*
X167455463Y-95372500D01*
X167663455Y-95357277D01*
X167934997Y-95296788D01*
X168194838Y-95197408D01*
X168437440Y-95061253D01*
X168657632Y-94891226D01*
X168850722Y-94690951D01*
X169012593Y-94464696D01*
X169139797Y-94217283D01*
X169229621Y-93953986D01*
X169280152Y-93680416D01*
X169290313Y-93402404D01*
X169259886Y-93125876D01*
X169189520Y-92856724D01*
X169080716Y-92600686D01*
X168935792Y-92363219D01*
X168811441Y-92213795D01*
X168757838Y-92149384D01*
X168650015Y-92052774D01*
X168550643Y-91963737D01*
X168318627Y-91810237D01*
X168318624Y-91810235D01*
X168066731Y-91692152D01*
X167800336Y-91612006D01*
X167800332Y-91612005D01*
X167800331Y-91612005D01*
X167525099Y-91571500D01*
X167316537Y-91571500D01*
X167314288Y-91571664D01*
X167314277Y-91571665D01*
X167108544Y-91586722D01*
X166837003Y-91647211D01*
X166577163Y-91746591D01*
X166334560Y-91882747D01*
X166114366Y-92052774D01*
X165921277Y-92253048D01*
X165759405Y-92479305D01*
X165632205Y-92726711D01*
X165542377Y-92990018D01*
X165491847Y-93263583D01*
X165481686Y-93541595D01*
X161815638Y-93541595D01*
X162951044Y-92406190D01*
X162963234Y-92395501D01*
X162988282Y-92376282D01*
X163027592Y-92325053D01*
X163084536Y-92250841D01*
X163145044Y-92104762D01*
X163165682Y-91948000D01*
X163161561Y-91916696D01*
X163160500Y-91900511D01*
X163160500Y-90593487D01*
X163161561Y-90577301D01*
X163165682Y-90545999D01*
X163161358Y-90513154D01*
X163145044Y-90389238D01*
X163084536Y-90243159D01*
X163012450Y-90149214D01*
X163012448Y-90149212D01*
X162988282Y-90117718D01*
X162963233Y-90098497D01*
X162951038Y-90087802D01*
X162290382Y-89427146D01*
X162256897Y-89365823D01*
X162258289Y-89307369D01*
X162276161Y-89240673D01*
X162295292Y-89022000D01*
X162276161Y-88803328D01*
X162276161Y-88803326D01*
X162219347Y-88591297D01*
X162126579Y-88392354D01*
X162000674Y-88212543D01*
X161845457Y-88057326D01*
X161665646Y-87931421D01*
X161665642Y-87931418D01*
X161521880Y-87864382D01*
X161469440Y-87818210D01*
X161450288Y-87751017D01*
X161470504Y-87684135D01*
X161521880Y-87639618D01*
X161665642Y-87572581D01*
X161665642Y-87572580D01*
X161665646Y-87572579D01*
X161845457Y-87446674D01*
X162000674Y-87291457D01*
X162126579Y-87111646D01*
X162219347Y-86912703D01*
X162276161Y-86700674D01*
X162295292Y-86482000D01*
X162276161Y-86263326D01*
X162219347Y-86051297D01*
X162126579Y-85852354D01*
X162000674Y-85672543D01*
X161845457Y-85517326D01*
X161665646Y-85391421D01*
X161573921Y-85348649D01*
X161466704Y-85298653D01*
X161254671Y-85241838D01*
X161035999Y-85222707D01*
X160817328Y-85241838D01*
X160605295Y-85298653D01*
X160406356Y-85391420D01*
X160406354Y-85391421D01*
X160226543Y-85517326D01*
X160226539Y-85517329D01*
X160071329Y-85672539D01*
X159945420Y-85852356D01*
X159852653Y-86051295D01*
X159795838Y-86263328D01*
X159776707Y-86481999D01*
X159795838Y-86700671D01*
X159852653Y-86912704D01*
X159902649Y-87019921D01*
X159945421Y-87111646D01*
X160071326Y-87291457D01*
X160226543Y-87446674D01*
X160406354Y-87572579D01*
X160517022Y-87624184D01*
X160550120Y-87639618D01*
X160602559Y-87685790D01*
X160621711Y-87752984D01*
X160601495Y-87819865D01*
X160550120Y-87864382D01*
X160406360Y-87931418D01*
X160406354Y-87931421D01*
X160350295Y-87970674D01*
X160226539Y-88057329D01*
X160071329Y-88212539D01*
X160071326Y-88212542D01*
X160071326Y-88212543D01*
X159952919Y-88381647D01*
X159945420Y-88392356D01*
X159875622Y-88542037D01*
X159829449Y-88594476D01*
X159776170Y-88609661D01*
X159776503Y-88612187D01*
X159760317Y-88614318D01*
X159729014Y-88618439D01*
X159712830Y-88619500D01*
X159658233Y-88619500D01*
X159591194Y-88599815D01*
X159545439Y-88547011D01*
X159535495Y-88477853D01*
X159556659Y-88424376D01*
X159586579Y-88381646D01*
X159679347Y-88182703D01*
X159736161Y-87970674D01*
X159755292Y-87752000D01*
X159752681Y-87722161D01*
X159736161Y-87533328D01*
X159736161Y-87533326D01*
X159679347Y-87321297D01*
X159586579Y-87122354D01*
X159460674Y-86942543D01*
X159305457Y-86787326D01*
X159125646Y-86661421D01*
X159033921Y-86618649D01*
X158926704Y-86568653D01*
X158714671Y-86511838D01*
X158496000Y-86492707D01*
X158277328Y-86511838D01*
X158065295Y-86568653D01*
X157866356Y-86661420D01*
X157866354Y-86661421D01*
X157810295Y-86700674D01*
X157686539Y-86787329D01*
X157531329Y-86942539D01*
X157405420Y-87122356D01*
X157312653Y-87321295D01*
X157255838Y-87533328D01*
X157236707Y-87751999D01*
X157255838Y-87970671D01*
X157312653Y-88182704D01*
X157355911Y-88275472D01*
X157405421Y-88381646D01*
X157405422Y-88381647D01*
X157435341Y-88424376D01*
X157457669Y-88490582D01*
X157440659Y-88558349D01*
X157389711Y-88606163D01*
X157333767Y-88619500D01*
X135484351Y-88619500D01*
X135417312Y-88599815D01*
X135371557Y-88547011D01*
X135361061Y-88508753D01*
X135356091Y-88462517D01*
X135305796Y-88327669D01*
X135219546Y-88212454D01*
X135104331Y-88126204D01*
X134969483Y-88075909D01*
X134909873Y-88069500D01*
X134906550Y-88069500D01*
X133317439Y-88069500D01*
X133317420Y-88069500D01*
X133314128Y-88069501D01*
X133310848Y-88069853D01*
X133310840Y-88069854D01*
X133254515Y-88075909D01*
X133119669Y-88126204D01*
X133004454Y-88212454D01*
X132918204Y-88327668D01*
X132867909Y-88462516D01*
X132862938Y-88508755D01*
X132836200Y-88573306D01*
X132778807Y-88613154D01*
X132739648Y-88619500D01*
X127853823Y-88619500D01*
X127786784Y-88599815D01*
X127766142Y-88583181D01*
X127575317Y-88392356D01*
X127369878Y-88186916D01*
X127359796Y-88179084D01*
X127302962Y-88134935D01*
X127169996Y-88079859D01*
X127089772Y-88069783D01*
X127089766Y-88069782D01*
X127085924Y-88069300D01*
X126456877Y-88069300D01*
X126453036Y-88069782D01*
X126453027Y-88069783D01*
X126372803Y-88079859D01*
X126239835Y-88134937D01*
X126175983Y-88184538D01*
X126175965Y-88184553D01*
X126172919Y-88186920D01*
X126170185Y-88189653D01*
X126170177Y-88189661D01*
X125730854Y-88628983D01*
X125730846Y-88628991D01*
X125728116Y-88631722D01*
X125725745Y-88634773D01*
X125725739Y-88634781D01*
X125676135Y-88698637D01*
X125621059Y-88831603D01*
X125610983Y-88911827D01*
X125610500Y-88915676D01*
X125610499Y-88919552D01*
X125610500Y-88919552D01*
X125610500Y-89316694D01*
X125590815Y-89383733D01*
X125538011Y-89429488D01*
X125468853Y-89439432D01*
X125410432Y-89414621D01*
X125397962Y-89404935D01*
X125264996Y-89349859D01*
X125184772Y-89339783D01*
X125184766Y-89339782D01*
X125180924Y-89339300D01*
X124551877Y-89339300D01*
X124548036Y-89339782D01*
X124548027Y-89339783D01*
X124467803Y-89349859D01*
X124334835Y-89404937D01*
X124270983Y-89454538D01*
X124270965Y-89454553D01*
X124267919Y-89456920D01*
X124265185Y-89459653D01*
X124265177Y-89459661D01*
X123825854Y-89898983D01*
X123825846Y-89898991D01*
X123823116Y-89901722D01*
X123820745Y-89904773D01*
X123820739Y-89904781D01*
X123771135Y-89968637D01*
X123716059Y-90101603D01*
X123707469Y-90169999D01*
X123705500Y-90185676D01*
X123705500Y-90814723D01*
X119921085Y-90814723D01*
X119838951Y-83381595D01*
X165481686Y-83381595D01*
X165506081Y-83603300D01*
X165512114Y-83658124D01*
X165582480Y-83927276D01*
X165691284Y-84183314D01*
X165836208Y-84420781D01*
X166014163Y-84634617D01*
X166221357Y-84820263D01*
X166453373Y-84973763D01*
X166453375Y-84973764D01*
X166705268Y-85091847D01*
X166913599Y-85154524D01*
X166971669Y-85171995D01*
X167246901Y-85212500D01*
X167246904Y-85212500D01*
X167453201Y-85212500D01*
X167455463Y-85212500D01*
X167663455Y-85197277D01*
X167934997Y-85136788D01*
X168194838Y-85037408D01*
X168437440Y-84901253D01*
X168657632Y-84731226D01*
X168850722Y-84530951D01*
X169012593Y-84304696D01*
X169139797Y-84057283D01*
X169229621Y-83793986D01*
X169280152Y-83520416D01*
X169290313Y-83242404D01*
X169259886Y-82965876D01*
X169189520Y-82696724D01*
X169080716Y-82440686D01*
X168935792Y-82203219D01*
X168757837Y-81989383D01*
X168550643Y-81803737D01*
X168318627Y-81650237D01*
X168318624Y-81650235D01*
X168066731Y-81532152D01*
X167800336Y-81452006D01*
X167800332Y-81452005D01*
X167800331Y-81452005D01*
X167525099Y-81411500D01*
X167316537Y-81411500D01*
X167314288Y-81411664D01*
X167314277Y-81411665D01*
X167108544Y-81426722D01*
X166837003Y-81487211D01*
X166577163Y-81586591D01*
X166334560Y-81722747D01*
X166114366Y-81892774D01*
X165921277Y-82093048D01*
X165759405Y-82319305D01*
X165632205Y-82566711D01*
X165542377Y-82830018D01*
X165491847Y-83103583D01*
X165481686Y-83381595D01*
X119838951Y-83381595D01*
X119786500Y-78634750D01*
X119786500Y-76476500D01*
X119806185Y-76409460D01*
X119858989Y-76363705D01*
X119910500Y-76352500D01*
X175263824Y-76352500D01*
X175330863Y-76372185D01*
G37*
G04 #@! TD.AperFunction*
M02*
