G04 #@! TF.GenerationSoftware,KiCad,Pcbnew,7.0.2*
G04 #@! TF.CreationDate,2024-01-01T15:15:03-07:00*
G04 #@! TF.ProjectId,Temperature Senor Board V2 (2),54656d70-6572-4617-9475-72652053656e,rev?*
G04 #@! TF.SameCoordinates,Original*
G04 #@! TF.FileFunction,Copper,L2,Bot*
G04 #@! TF.FilePolarity,Positive*
%FSLAX46Y46*%
G04 Gerber Fmt 4.6, Leading zero omitted, Abs format (unit mm)*
G04 Created by KiCad (PCBNEW 7.0.2) date 2024-01-01 15:15:03*
%MOMM*%
%LPD*%
G01*
G04 APERTURE LIST*
G04 Aperture macros list*
%AMOutline5P*
0 Free polygon, 5 corners , with rotation*
0 The origin of the aperture is its center*
0 number of corners: always 5*
0 $1 to $10 corner X, Y*
0 $11 Rotation angle, in degrees counterclockwise*
0 create outline with 5 corners*
4,1,5,$1,$2,$3,$4,$5,$6,$7,$8,$9,$10,$1,$2,$11*%
%AMOutline6P*
0 Free polygon, 6 corners , with rotation*
0 The origin of the aperture is its center*
0 number of corners: always 6*
0 $1 to $12 corner X, Y*
0 $13 Rotation angle, in degrees counterclockwise*
0 create outline with 6 corners*
4,1,6,$1,$2,$3,$4,$5,$6,$7,$8,$9,$10,$11,$12,$1,$2,$13*%
%AMOutline7P*
0 Free polygon, 7 corners , with rotation*
0 The origin of the aperture is its center*
0 number of corners: always 7*
0 $1 to $14 corner X, Y*
0 $15 Rotation angle, in degrees counterclockwise*
0 create outline with 7 corners*
4,1,7,$1,$2,$3,$4,$5,$6,$7,$8,$9,$10,$11,$12,$13,$14,$1,$2,$15*%
%AMOutline8P*
0 Free polygon, 8 corners , with rotation*
0 The origin of the aperture is its center*
0 number of corners: always 8*
0 $1 to $16 corner X, Y*
0 $17 Rotation angle, in degrees counterclockwise*
0 create outline with 8 corners*
4,1,8,$1,$2,$3,$4,$5,$6,$7,$8,$9,$10,$11,$12,$13,$14,$15,$16,$1,$2,$17*%
G04 Aperture macros list end*
G04 #@! TA.AperFunction,ComponentPad*
%ADD10R,1.508000X1.508000*%
G04 #@! TD*
G04 #@! TA.AperFunction,ComponentPad*
%ADD11C,1.508000*%
G04 #@! TD*
G04 #@! TA.AperFunction,ComponentPad*
%ADD12C,2.475000*%
G04 #@! TD*
G04 #@! TA.AperFunction,ComponentPad*
%ADD13Outline8P,-0.660400X0.273547X-0.273547X0.660400X0.273547X0.660400X0.660400X0.273547X0.660400X-0.273547X0.273547X-0.660400X-0.273547X-0.660400X-0.660400X-0.273547X270.000000*%
G04 #@! TD*
G04 #@! TA.AperFunction,ViaPad*
%ADD14C,0.600000*%
G04 #@! TD*
G04 APERTURE END LIST*
D10*
X158496000Y-90292000D03*
D11*
X158496000Y-87752000D03*
X158496000Y-85212000D03*
X161036000Y-91562000D03*
X161036000Y-89022000D03*
X161036000Y-86482000D03*
D12*
X170436000Y-95252000D03*
X170436000Y-81532000D03*
D13*
X124866400Y-87960200D03*
X126771400Y-89230200D03*
X124866400Y-90500200D03*
D14*
X139192000Y-86360000D03*
X145161000Y-86360000D03*
X151130000Y-90424000D03*
X139192000Y-90424000D03*
X151130000Y-86360000D03*
X130479800Y-90220800D03*
X130429000Y-86233000D03*
X145161000Y-90424000D03*
G04 #@! TA.AperFunction,Conductor*
G36*
X175558539Y-76473685D02*
G01*
X175604294Y-76526489D01*
X175615500Y-76578000D01*
X175615500Y-99291500D01*
X175595815Y-99358539D01*
X175543011Y-99404294D01*
X175491500Y-99415500D01*
X120012000Y-99415500D01*
X119944961Y-99395815D01*
X119899206Y-99343011D01*
X119888000Y-99291500D01*
X119888000Y-93541595D01*
X165481686Y-93541595D01*
X165506081Y-93763300D01*
X165512114Y-93818124D01*
X165582480Y-94087276D01*
X165691284Y-94343314D01*
X165836208Y-94580781D01*
X166014163Y-94794617D01*
X166221357Y-94980263D01*
X166453373Y-95133763D01*
X166453375Y-95133764D01*
X166705268Y-95251847D01*
X166913599Y-95314524D01*
X166971669Y-95331995D01*
X167246901Y-95372500D01*
X167246904Y-95372500D01*
X167453201Y-95372500D01*
X167455463Y-95372500D01*
X167663455Y-95357277D01*
X167934997Y-95296788D01*
X168194838Y-95197408D01*
X168437440Y-95061253D01*
X168657632Y-94891226D01*
X168850722Y-94690951D01*
X169012593Y-94464696D01*
X169139797Y-94217283D01*
X169229621Y-93953986D01*
X169280152Y-93680416D01*
X169290313Y-93402404D01*
X169259886Y-93125876D01*
X169189520Y-92856724D01*
X169080716Y-92600686D01*
X168935792Y-92363219D01*
X168844107Y-92253048D01*
X168757838Y-92149384D01*
X168650015Y-92052774D01*
X168550643Y-91963737D01*
X168318627Y-91810237D01*
X168318624Y-91810235D01*
X168066731Y-91692152D01*
X167800336Y-91612006D01*
X167800332Y-91612005D01*
X167800331Y-91612005D01*
X167525099Y-91571500D01*
X167316537Y-91571500D01*
X167314288Y-91571664D01*
X167314277Y-91571665D01*
X167108544Y-91586722D01*
X166837003Y-91647211D01*
X166577163Y-91746591D01*
X166334560Y-91882747D01*
X166114366Y-92052774D01*
X165921277Y-92253048D01*
X165759405Y-92479305D01*
X165632205Y-92726711D01*
X165542377Y-92990018D01*
X165491847Y-93263583D01*
X165481686Y-93541595D01*
X119888000Y-93541595D01*
X119888000Y-90814723D01*
X123705500Y-90814723D01*
X123705982Y-90818564D01*
X123705983Y-90818572D01*
X123716059Y-90898796D01*
X123771137Y-91031764D01*
X123820738Y-91095616D01*
X123820746Y-91095625D01*
X123823120Y-91098681D01*
X124267922Y-91543484D01*
X124271805Y-91546500D01*
X124334837Y-91595464D01*
X124467803Y-91650540D01*
X124482939Y-91652441D01*
X124551876Y-91661100D01*
X124555753Y-91661100D01*
X125177046Y-91661100D01*
X125180923Y-91661100D01*
X125264997Y-91650540D01*
X125397964Y-91595463D01*
X125464881Y-91543480D01*
X125909684Y-91098678D01*
X125961664Y-91031763D01*
X126016740Y-90898796D01*
X126027300Y-90814724D01*
X126027300Y-90413705D01*
X126046985Y-90346666D01*
X126099789Y-90300911D01*
X126168947Y-90290967D01*
X126227370Y-90315780D01*
X126239837Y-90325464D01*
X126372803Y-90380540D01*
X126387939Y-90382441D01*
X126456876Y-90391100D01*
X126460753Y-90391100D01*
X127082046Y-90391100D01*
X127085923Y-90391100D01*
X127169997Y-90380540D01*
X127302964Y-90325463D01*
X127369881Y-90273480D01*
X127814684Y-89828678D01*
X127866664Y-89761763D01*
X127921740Y-89628796D01*
X127932300Y-89544724D01*
X127932300Y-88915677D01*
X127921740Y-88831603D01*
X127866663Y-88698636D01*
X127855832Y-88684693D01*
X127817061Y-88634783D01*
X127817054Y-88634775D01*
X127814680Y-88631719D01*
X127369878Y-88186916D01*
X127359796Y-88179084D01*
X127302962Y-88134935D01*
X127169996Y-88079859D01*
X127089772Y-88069783D01*
X127089766Y-88069782D01*
X127085924Y-88069300D01*
X126456877Y-88069300D01*
X126453036Y-88069782D01*
X126453027Y-88069783D01*
X126372803Y-88079859D01*
X126239835Y-88134937D01*
X126175983Y-88184538D01*
X126175965Y-88184553D01*
X126172919Y-88186920D01*
X126170185Y-88189653D01*
X126170177Y-88189661D01*
X125730854Y-88628983D01*
X125730846Y-88628991D01*
X125728116Y-88631722D01*
X125725745Y-88634773D01*
X125725739Y-88634781D01*
X125676135Y-88698637D01*
X125621059Y-88831603D01*
X125610983Y-88911827D01*
X125610500Y-88915676D01*
X125610499Y-88919552D01*
X125610500Y-88919552D01*
X125610500Y-89316694D01*
X125590815Y-89383733D01*
X125538011Y-89429488D01*
X125468853Y-89439432D01*
X125410432Y-89414621D01*
X125397962Y-89404935D01*
X125264996Y-89349859D01*
X125184772Y-89339783D01*
X125184766Y-89339782D01*
X125180924Y-89339300D01*
X124551877Y-89339300D01*
X124548036Y-89339782D01*
X124548027Y-89339783D01*
X124467803Y-89349859D01*
X124334835Y-89404937D01*
X124270983Y-89454538D01*
X124270965Y-89454553D01*
X124267919Y-89456920D01*
X124265185Y-89459653D01*
X124265177Y-89459661D01*
X123825854Y-89898983D01*
X123825846Y-89898991D01*
X123823116Y-89901722D01*
X123820745Y-89904773D01*
X123820739Y-89904781D01*
X123771135Y-89968637D01*
X123716059Y-90101603D01*
X123705983Y-90181827D01*
X123705500Y-90185676D01*
X123705500Y-90814723D01*
X119888000Y-90814723D01*
X119888000Y-87751999D01*
X157236707Y-87751999D01*
X157255838Y-87970671D01*
X157312653Y-88182704D01*
X157362649Y-88289921D01*
X157405421Y-88381646D01*
X157531326Y-88561457D01*
X157686543Y-88716674D01*
X157822578Y-88811927D01*
X157866202Y-88866502D01*
X157873396Y-88936000D01*
X157841873Y-88998355D01*
X157781644Y-89033769D01*
X157751456Y-89037500D01*
X157697440Y-89037500D01*
X157697421Y-89037500D01*
X157694128Y-89037501D01*
X157690848Y-89037853D01*
X157690840Y-89037854D01*
X157634515Y-89043909D01*
X157499669Y-89094204D01*
X157384454Y-89180454D01*
X157298204Y-89295668D01*
X157247909Y-89430516D01*
X157244776Y-89459661D01*
X157241500Y-89490127D01*
X157241500Y-89493448D01*
X157241500Y-89493449D01*
X157241500Y-91090560D01*
X157241500Y-91090578D01*
X157241501Y-91093872D01*
X157241853Y-91097152D01*
X157241854Y-91097159D01*
X157245524Y-91131295D01*
X157247909Y-91153483D01*
X157298204Y-91288331D01*
X157384454Y-91403546D01*
X157499669Y-91489796D01*
X157634517Y-91540091D01*
X157694127Y-91546500D01*
X159297872Y-91546499D01*
X159357483Y-91540091D01*
X159492331Y-91489796D01*
X159581389Y-91423126D01*
X159646850Y-91398710D01*
X159715124Y-91413561D01*
X159764530Y-91462966D01*
X159779382Y-91531239D01*
X159779226Y-91533198D01*
X159776707Y-91561996D01*
X159795838Y-91780671D01*
X159844891Y-91963738D01*
X159852653Y-91992703D01*
X159945421Y-92191646D01*
X160071326Y-92371457D01*
X160226543Y-92526674D01*
X160406354Y-92652579D01*
X160605297Y-92745347D01*
X160817326Y-92802161D01*
X161036000Y-92821292D01*
X161254674Y-92802161D01*
X161466703Y-92745347D01*
X161665646Y-92652579D01*
X161845457Y-92526674D01*
X162000674Y-92371457D01*
X162126579Y-92191646D01*
X162219347Y-91992703D01*
X162276161Y-91780674D01*
X162295292Y-91562000D01*
X162276161Y-91343326D01*
X162219347Y-91131297D01*
X162126579Y-90932354D01*
X162000674Y-90752543D01*
X161845457Y-90597326D01*
X161665646Y-90471421D01*
X161665642Y-90471418D01*
X161521880Y-90404382D01*
X161469440Y-90358210D01*
X161450288Y-90291017D01*
X161470504Y-90224135D01*
X161521880Y-90179618D01*
X161665642Y-90112581D01*
X161665642Y-90112580D01*
X161665646Y-90112579D01*
X161845457Y-89986674D01*
X162000674Y-89831457D01*
X162126579Y-89651646D01*
X162219347Y-89452703D01*
X162276161Y-89240674D01*
X162295292Y-89022000D01*
X162276161Y-88803326D01*
X162219347Y-88591297D01*
X162126579Y-88392354D01*
X162000674Y-88212543D01*
X161845457Y-88057326D01*
X161665646Y-87931421D01*
X161665642Y-87931418D01*
X161521880Y-87864382D01*
X161469440Y-87818210D01*
X161450288Y-87751017D01*
X161470504Y-87684135D01*
X161521880Y-87639618D01*
X161665642Y-87572581D01*
X161665642Y-87572580D01*
X161665646Y-87572579D01*
X161845457Y-87446674D01*
X162000674Y-87291457D01*
X162126579Y-87111646D01*
X162219347Y-86912703D01*
X162276161Y-86700674D01*
X162295292Y-86482000D01*
X162276161Y-86263326D01*
X162219347Y-86051297D01*
X162126579Y-85852354D01*
X162000674Y-85672543D01*
X161845457Y-85517326D01*
X161665646Y-85391421D01*
X161573921Y-85348649D01*
X161466704Y-85298653D01*
X161254671Y-85241838D01*
X161035999Y-85222707D01*
X160817328Y-85241838D01*
X160605295Y-85298653D01*
X160406356Y-85391420D01*
X160406354Y-85391421D01*
X160226543Y-85517326D01*
X160226539Y-85517329D01*
X160071329Y-85672539D01*
X159945420Y-85852356D01*
X159852653Y-86051295D01*
X159795838Y-86263328D01*
X159776707Y-86481999D01*
X159795838Y-86700671D01*
X159852653Y-86912704D01*
X159902649Y-87019921D01*
X159945421Y-87111646D01*
X160071326Y-87291457D01*
X160226543Y-87446674D01*
X160406354Y-87572579D01*
X160517022Y-87624184D01*
X160550120Y-87639618D01*
X160602559Y-87685790D01*
X160621711Y-87752984D01*
X160601495Y-87819865D01*
X160550120Y-87864382D01*
X160406360Y-87931418D01*
X160406354Y-87931421D01*
X160350295Y-87970674D01*
X160226539Y-88057329D01*
X160071329Y-88212539D01*
X159945420Y-88392356D01*
X159852653Y-88591295D01*
X159795838Y-88803328D01*
X159776707Y-89022000D01*
X159779226Y-89050801D01*
X159765458Y-89119300D01*
X159716841Y-89169482D01*
X159648812Y-89185414D01*
X159582969Y-89162037D01*
X159581439Y-89160910D01*
X159492331Y-89094204D01*
X159357483Y-89043909D01*
X159297873Y-89037500D01*
X159294551Y-89037500D01*
X159240547Y-89037500D01*
X159173508Y-89017815D01*
X159127753Y-88965011D01*
X159117809Y-88895853D01*
X159146834Y-88832297D01*
X159169424Y-88811925D01*
X159181705Y-88803326D01*
X159305457Y-88716674D01*
X159460674Y-88561457D01*
X159586579Y-88381646D01*
X159679347Y-88182703D01*
X159736161Y-87970674D01*
X159755292Y-87752000D01*
X159752681Y-87722161D01*
X159736161Y-87533328D01*
X159736161Y-87533326D01*
X159679347Y-87321297D01*
X159586579Y-87122354D01*
X159460674Y-86942543D01*
X159305457Y-86787326D01*
X159125646Y-86661421D01*
X159033921Y-86618649D01*
X158926704Y-86568653D01*
X158714671Y-86511838D01*
X158496000Y-86492707D01*
X158277328Y-86511838D01*
X158065295Y-86568653D01*
X157866356Y-86661420D01*
X157866354Y-86661421D01*
X157810295Y-86700674D01*
X157686539Y-86787329D01*
X157531329Y-86942539D01*
X157405420Y-87122356D01*
X157312653Y-87321295D01*
X157255838Y-87533328D01*
X157236707Y-87751999D01*
X119888000Y-87751999D01*
X119888000Y-83381595D01*
X165481686Y-83381595D01*
X165506081Y-83603300D01*
X165512114Y-83658124D01*
X165582480Y-83927276D01*
X165691284Y-84183314D01*
X165836208Y-84420781D01*
X166014163Y-84634617D01*
X166221357Y-84820263D01*
X166453373Y-84973763D01*
X166453375Y-84973764D01*
X166705268Y-85091847D01*
X166913599Y-85154524D01*
X166971669Y-85171995D01*
X167246901Y-85212500D01*
X167246904Y-85212500D01*
X167453201Y-85212500D01*
X167455463Y-85212500D01*
X167663455Y-85197277D01*
X167934997Y-85136788D01*
X168194838Y-85037408D01*
X168437440Y-84901253D01*
X168657632Y-84731226D01*
X168850722Y-84530951D01*
X169012593Y-84304696D01*
X169139797Y-84057283D01*
X169229621Y-83793986D01*
X169280152Y-83520416D01*
X169290313Y-83242404D01*
X169259886Y-82965876D01*
X169189520Y-82696724D01*
X169080716Y-82440686D01*
X168935792Y-82203219D01*
X168757837Y-81989383D01*
X168550643Y-81803737D01*
X168318627Y-81650237D01*
X168318624Y-81650235D01*
X168066731Y-81532152D01*
X167800336Y-81452006D01*
X167800332Y-81452005D01*
X167800331Y-81452005D01*
X167525099Y-81411500D01*
X167316537Y-81411500D01*
X167314288Y-81411664D01*
X167314277Y-81411665D01*
X167108544Y-81426722D01*
X166837003Y-81487211D01*
X166577163Y-81586591D01*
X166334560Y-81722747D01*
X166114366Y-81892774D01*
X165921277Y-82093048D01*
X165759405Y-82319305D01*
X165632205Y-82566711D01*
X165542377Y-82830018D01*
X165491847Y-83103583D01*
X165481686Y-83381595D01*
X119888000Y-83381595D01*
X119888000Y-76578000D01*
X119907685Y-76510961D01*
X119960489Y-76465206D01*
X120012000Y-76454000D01*
X175491500Y-76454000D01*
X175558539Y-76473685D01*
G37*
G04 #@! TD.AperFunction*
M02*
