G04 #@! TF.GenerationSoftware,KiCad,Pcbnew,7.0.2*
G04 #@! TF.CreationDate,2024-01-01T15:15:03-07:00*
G04 #@! TF.ProjectId,Temperature Senor Board V2 (2),54656d70-6572-4617-9475-72652053656e,rev?*
G04 #@! TF.SameCoordinates,Original*
G04 #@! TF.FileFunction,Legend,Bot*
G04 #@! TF.FilePolarity,Positive*
%FSLAX46Y46*%
G04 Gerber Fmt 4.6, Leading zero omitted, Abs format (unit mm)*
G04 Created by KiCad (PCBNEW 7.0.2) date 2024-01-01 15:15:03*
%MOMM*%
%LPD*%
G01*
G04 APERTURE LIST*
G04 Aperture macros list*
%AMRoundRect*
0 Rectangle with rounded corners*
0 $1 Rounding radius*
0 $2 $3 $4 $5 $6 $7 $8 $9 X,Y pos of 4 corners*
0 Add a 4 corners polygon primitive as box body*
4,1,4,$2,$3,$4,$5,$6,$7,$8,$9,$2,$3,0*
0 Add four circle primitives for the rounded corners*
1,1,$1+$1,$2,$3*
1,1,$1+$1,$4,$5*
1,1,$1+$1,$6,$7*
1,1,$1+$1,$8,$9*
0 Add four rect primitives between the rounded corners*
20,1,$1+$1,$2,$3,$4,$5,0*
20,1,$1+$1,$4,$5,$6,$7,0*
20,1,$1+$1,$6,$7,$8,$9,0*
20,1,$1+$1,$8,$9,$2,$3,0*%
%AMFreePoly0*
4,1,25,0.333266,0.742596,0.345389,0.732242,0.732242,0.345389,0.760749,0.289441,0.762000,0.273547,0.762000,-0.273547,0.742596,-0.333266,0.732242,-0.345389,0.345389,-0.732242,0.289441,-0.760749,0.273547,-0.762000,-0.273547,-0.762000,-0.333266,-0.742596,-0.345389,-0.732242,-0.732242,-0.345389,-0.760749,-0.289441,-0.762000,-0.273547,-0.762000,0.273547,-0.742596,0.333266,-0.732242,0.345389,
-0.345389,0.732242,-0.289441,0.760749,-0.273547,0.762000,0.273547,0.762000,0.333266,0.742596,0.333266,0.742596,$1*%
G04 Aperture macros list end*
%ADD10C,0.100000*%
%ADD11C,3.300000*%
%ADD12RoundRect,0.101600X0.754000X-0.754000X0.754000X0.754000X-0.754000X0.754000X-0.754000X-0.754000X0*%
%ADD13C,1.711200*%
%ADD14C,2.678200*%
%ADD15FreePoly0,270.000000*%
G04 APERTURE END LIST*
D10*
X164598361Y-87853819D02*
X164265028Y-88853819D01*
X164265028Y-88853819D02*
X163931695Y-87853819D01*
X163598361Y-88853819D02*
X163598361Y-87853819D01*
X163598361Y-87853819D02*
X163360266Y-87853819D01*
X163360266Y-87853819D02*
X163217409Y-87901438D01*
X163217409Y-87901438D02*
X163122171Y-87996676D01*
X163122171Y-87996676D02*
X163074552Y-88091914D01*
X163074552Y-88091914D02*
X163026933Y-88282390D01*
X163026933Y-88282390D02*
X163026933Y-88425247D01*
X163026933Y-88425247D02*
X163074552Y-88615723D01*
X163074552Y-88615723D02*
X163122171Y-88710961D01*
X163122171Y-88710961D02*
X163217409Y-88806200D01*
X163217409Y-88806200D02*
X163360266Y-88853819D01*
X163360266Y-88853819D02*
X163598361Y-88853819D01*
X162598361Y-88853819D02*
X162598361Y-87853819D01*
X162598361Y-87853819D02*
X162360266Y-87853819D01*
X162360266Y-87853819D02*
X162217409Y-87901438D01*
X162217409Y-87901438D02*
X162122171Y-87996676D01*
X162122171Y-87996676D02*
X162074552Y-88091914D01*
X162074552Y-88091914D02*
X162026933Y-88282390D01*
X162026933Y-88282390D02*
X162026933Y-88425247D01*
X162026933Y-88425247D02*
X162074552Y-88615723D01*
X162074552Y-88615723D02*
X162122171Y-88710961D01*
X162122171Y-88710961D02*
X162217409Y-88806200D01*
X162217409Y-88806200D02*
X162360266Y-88853819D01*
X162360266Y-88853819D02*
X162598361Y-88853819D01*
X163871304Y-91698619D02*
X163871304Y-90698619D01*
X163871304Y-90698619D02*
X163633209Y-90698619D01*
X163633209Y-90698619D02*
X163490352Y-90746238D01*
X163490352Y-90746238D02*
X163395114Y-90841476D01*
X163395114Y-90841476D02*
X163347495Y-90936714D01*
X163347495Y-90936714D02*
X163299876Y-91127190D01*
X163299876Y-91127190D02*
X163299876Y-91270047D01*
X163299876Y-91270047D02*
X163347495Y-91460523D01*
X163347495Y-91460523D02*
X163395114Y-91555761D01*
X163395114Y-91555761D02*
X163490352Y-91651000D01*
X163490352Y-91651000D02*
X163633209Y-91698619D01*
X163633209Y-91698619D02*
X163871304Y-91698619D01*
X162204638Y-91793857D02*
X162299876Y-91746238D01*
X162299876Y-91746238D02*
X162395114Y-91651000D01*
X162395114Y-91651000D02*
X162537971Y-91508142D01*
X162537971Y-91508142D02*
X162633209Y-91460523D01*
X162633209Y-91460523D02*
X162728447Y-91460523D01*
X162680828Y-91698619D02*
X162776066Y-91651000D01*
X162776066Y-91651000D02*
X162871304Y-91555761D01*
X162871304Y-91555761D02*
X162918923Y-91365285D01*
X162918923Y-91365285D02*
X162918923Y-91031952D01*
X162918923Y-91031952D02*
X162871304Y-90841476D01*
X162871304Y-90841476D02*
X162776066Y-90746238D01*
X162776066Y-90746238D02*
X162680828Y-90698619D01*
X162680828Y-90698619D02*
X162490352Y-90698619D01*
X162490352Y-90698619D02*
X162395114Y-90746238D01*
X162395114Y-90746238D02*
X162299876Y-90841476D01*
X162299876Y-90841476D02*
X162252257Y-91031952D01*
X162252257Y-91031952D02*
X162252257Y-91365285D01*
X162252257Y-91365285D02*
X162299876Y-91555761D01*
X162299876Y-91555761D02*
X162395114Y-91651000D01*
X162395114Y-91651000D02*
X162490352Y-91698619D01*
X162490352Y-91698619D02*
X162680828Y-91698619D01*
%LPC*%
D11*
X167386000Y-93472000D03*
X167386000Y-83312000D03*
D12*
X158496000Y-90292000D03*
D13*
X158496000Y-87752000D03*
X158496000Y-85212000D03*
X161036000Y-91562000D03*
X161036000Y-89022000D03*
X161036000Y-86482000D03*
D14*
X170436000Y-95252000D03*
X170436000Y-81532000D03*
D15*
X124866400Y-87960200D03*
X126771400Y-89230200D03*
X124866400Y-90500200D03*
%LPD*%
M02*
