G04 #@! TF.GenerationSoftware,KiCad,Pcbnew,7.0.2*
G04 #@! TF.CreationDate,2024-01-01T15:48:32-07:00*
G04 #@! TF.ProjectId,Temperature Sensor Board 2,54656d70-6572-4617-9475-72652053656e,rev?*
G04 #@! TF.SameCoordinates,Original*
G04 #@! TF.FileFunction,Legend,Top*
G04 #@! TF.FilePolarity,Positive*
%FSLAX46Y46*%
G04 Gerber Fmt 4.6, Leading zero omitted, Abs format (unit mm)*
G04 Created by KiCad (PCBNEW 7.0.2) date 2024-01-01 15:48:32*
%MOMM*%
%LPD*%
G01*
G04 APERTURE LIST*
G04 Aperture macros list*
%AMRoundRect*
0 Rectangle with rounded corners*
0 $1 Rounding radius*
0 $2 $3 $4 $5 $6 $7 $8 $9 X,Y pos of 4 corners*
0 Add a 4 corners polygon primitive as box body*
4,1,4,$2,$3,$4,$5,$6,$7,$8,$9,$2,$3,0*
0 Add four circle primitives for the rounded corners*
1,1,$1+$1,$2,$3*
1,1,$1+$1,$4,$5*
1,1,$1+$1,$6,$7*
1,1,$1+$1,$8,$9*
0 Add four rect primitives between the rounded corners*
20,1,$1+$1,$2,$3,$4,$5,0*
20,1,$1+$1,$4,$5,$6,$7,0*
20,1,$1+$1,$6,$7,$8,$9,0*
20,1,$1+$1,$8,$9,$2,$3,0*%
%AMFreePoly0*
4,1,25,0.333266,0.742596,0.345389,0.732242,0.732242,0.345389,0.760749,0.289441,0.762000,0.273547,0.762000,-0.273547,0.742596,-0.333266,0.732242,-0.345389,0.345389,-0.732242,0.289441,-0.760749,0.273547,-0.762000,-0.273547,-0.762000,-0.333266,-0.742596,-0.345389,-0.732242,-0.732242,-0.345389,-0.760749,-0.289441,-0.762000,-0.273547,-0.762000,0.273547,-0.742596,0.333266,-0.732242,0.345389,
-0.345389,0.732242,-0.289441,0.760749,-0.273547,0.762000,0.273547,0.762000,0.333266,0.742596,0.333266,0.742596,$1*%
G04 Aperture macros list end*
%ADD10C,0.127000*%
%ADD11C,0.101600*%
%ADD12C,3.300000*%
%ADD13RoundRect,0.101600X0.754000X-0.754000X0.754000X0.754000X-0.754000X0.754000X-0.754000X-0.754000X0*%
%ADD14C,1.711200*%
%ADD15C,2.678200*%
%ADD16FreePoly0,270.000000*%
%ADD17RoundRect,0.101600X-0.750000X0.650000X-0.750000X-0.650000X0.750000X-0.650000X0.750000X0.650000X0*%
G04 APERTURE END LIST*
D10*
X133454497Y-84909472D02*
X134107640Y-84909472D01*
X133781068Y-86052472D02*
X133781068Y-84909472D01*
X134488639Y-85453758D02*
X134869639Y-85453758D01*
X135032925Y-86052472D02*
X134488639Y-86052472D01*
X134488639Y-86052472D02*
X134488639Y-84909472D01*
X134488639Y-84909472D02*
X135032925Y-84909472D01*
X135522782Y-86052472D02*
X135522782Y-84909472D01*
X135522782Y-84909472D02*
X135903782Y-85725901D01*
X135903782Y-85725901D02*
X136284782Y-84909472D01*
X136284782Y-84909472D02*
X136284782Y-86052472D01*
X136829068Y-86052472D02*
X136829068Y-84909472D01*
X136829068Y-84909472D02*
X137264497Y-84909472D01*
X137264497Y-84909472D02*
X137373354Y-84963901D01*
X137373354Y-84963901D02*
X137427783Y-85018329D01*
X137427783Y-85018329D02*
X137482211Y-85127186D01*
X137482211Y-85127186D02*
X137482211Y-85290472D01*
X137482211Y-85290472D02*
X137427783Y-85399329D01*
X137427783Y-85399329D02*
X137373354Y-85453758D01*
X137373354Y-85453758D02*
X137264497Y-85508186D01*
X137264497Y-85508186D02*
X136829068Y-85508186D01*
X137699926Y-86161329D02*
X138570783Y-86161329D01*
X138788497Y-85998044D02*
X138951783Y-86052472D01*
X138951783Y-86052472D02*
X139223925Y-86052472D01*
X139223925Y-86052472D02*
X139332783Y-85998044D01*
X139332783Y-85998044D02*
X139387211Y-85943615D01*
X139387211Y-85943615D02*
X139441640Y-85834758D01*
X139441640Y-85834758D02*
X139441640Y-85725901D01*
X139441640Y-85725901D02*
X139387211Y-85617044D01*
X139387211Y-85617044D02*
X139332783Y-85562615D01*
X139332783Y-85562615D02*
X139223925Y-85508186D01*
X139223925Y-85508186D02*
X139006211Y-85453758D01*
X139006211Y-85453758D02*
X138897354Y-85399329D01*
X138897354Y-85399329D02*
X138842925Y-85344901D01*
X138842925Y-85344901D02*
X138788497Y-85236044D01*
X138788497Y-85236044D02*
X138788497Y-85127186D01*
X138788497Y-85127186D02*
X138842925Y-85018329D01*
X138842925Y-85018329D02*
X138897354Y-84963901D01*
X138897354Y-84963901D02*
X139006211Y-84909472D01*
X139006211Y-84909472D02*
X139278354Y-84909472D01*
X139278354Y-84909472D02*
X139441640Y-84963901D01*
X139931496Y-85453758D02*
X140312496Y-85453758D01*
X140475782Y-86052472D02*
X139931496Y-86052472D01*
X139931496Y-86052472D02*
X139931496Y-84909472D01*
X139931496Y-84909472D02*
X140475782Y-84909472D01*
X140965639Y-86052472D02*
X140965639Y-84909472D01*
X140965639Y-84909472D02*
X141618782Y-86052472D01*
X141618782Y-86052472D02*
X141618782Y-84909472D01*
X142108640Y-85998044D02*
X142271926Y-86052472D01*
X142271926Y-86052472D02*
X142544068Y-86052472D01*
X142544068Y-86052472D02*
X142652926Y-85998044D01*
X142652926Y-85998044D02*
X142707354Y-85943615D01*
X142707354Y-85943615D02*
X142761783Y-85834758D01*
X142761783Y-85834758D02*
X142761783Y-85725901D01*
X142761783Y-85725901D02*
X142707354Y-85617044D01*
X142707354Y-85617044D02*
X142652926Y-85562615D01*
X142652926Y-85562615D02*
X142544068Y-85508186D01*
X142544068Y-85508186D02*
X142326354Y-85453758D01*
X142326354Y-85453758D02*
X142217497Y-85399329D01*
X142217497Y-85399329D02*
X142163068Y-85344901D01*
X142163068Y-85344901D02*
X142108640Y-85236044D01*
X142108640Y-85236044D02*
X142108640Y-85127186D01*
X142108640Y-85127186D02*
X142163068Y-85018329D01*
X142163068Y-85018329D02*
X142217497Y-84963901D01*
X142217497Y-84963901D02*
X142326354Y-84909472D01*
X142326354Y-84909472D02*
X142598497Y-84909472D01*
X142598497Y-84909472D02*
X142761783Y-84963901D01*
X143469354Y-84909472D02*
X143687068Y-84909472D01*
X143687068Y-84909472D02*
X143795925Y-84963901D01*
X143795925Y-84963901D02*
X143904782Y-85072758D01*
X143904782Y-85072758D02*
X143959211Y-85290472D01*
X143959211Y-85290472D02*
X143959211Y-85671472D01*
X143959211Y-85671472D02*
X143904782Y-85889186D01*
X143904782Y-85889186D02*
X143795925Y-85998044D01*
X143795925Y-85998044D02*
X143687068Y-86052472D01*
X143687068Y-86052472D02*
X143469354Y-86052472D01*
X143469354Y-86052472D02*
X143360497Y-85998044D01*
X143360497Y-85998044D02*
X143251639Y-85889186D01*
X143251639Y-85889186D02*
X143197211Y-85671472D01*
X143197211Y-85671472D02*
X143197211Y-85290472D01*
X143197211Y-85290472D02*
X143251639Y-85072758D01*
X143251639Y-85072758D02*
X143360497Y-84963901D01*
X143360497Y-84963901D02*
X143469354Y-84909472D01*
X145102211Y-86052472D02*
X144721211Y-85508186D01*
X144449068Y-86052472D02*
X144449068Y-84909472D01*
X144449068Y-84909472D02*
X144884497Y-84909472D01*
X144884497Y-84909472D02*
X144993354Y-84963901D01*
X144993354Y-84963901D02*
X145047783Y-85018329D01*
X145047783Y-85018329D02*
X145102211Y-85127186D01*
X145102211Y-85127186D02*
X145102211Y-85290472D01*
X145102211Y-85290472D02*
X145047783Y-85399329D01*
X145047783Y-85399329D02*
X144993354Y-85453758D01*
X144993354Y-85453758D02*
X144884497Y-85508186D01*
X144884497Y-85508186D02*
X144449068Y-85508186D01*
X145319926Y-86161329D02*
X146190783Y-86161329D01*
X146408497Y-85018329D02*
X146462925Y-84963901D01*
X146462925Y-84963901D02*
X146571783Y-84909472D01*
X146571783Y-84909472D02*
X146843925Y-84909472D01*
X146843925Y-84909472D02*
X146952783Y-84963901D01*
X146952783Y-84963901D02*
X147007211Y-85018329D01*
X147007211Y-85018329D02*
X147061640Y-85127186D01*
X147061640Y-85127186D02*
X147061640Y-85236044D01*
X147061640Y-85236044D02*
X147007211Y-85399329D01*
X147007211Y-85399329D02*
X146354068Y-86052472D01*
X146354068Y-86052472D02*
X147061640Y-86052472D01*
X117706497Y-91622329D02*
X117760925Y-91567901D01*
X117760925Y-91567901D02*
X117869783Y-91513472D01*
X117869783Y-91513472D02*
X118141925Y-91513472D01*
X118141925Y-91513472D02*
X118250783Y-91567901D01*
X118250783Y-91567901D02*
X118305211Y-91622329D01*
X118305211Y-91622329D02*
X118359640Y-91731186D01*
X118359640Y-91731186D02*
X118359640Y-91840044D01*
X118359640Y-91840044D02*
X118305211Y-92003329D01*
X118305211Y-92003329D02*
X117652068Y-92656472D01*
X117652068Y-92656472D02*
X118359640Y-92656472D01*
X115184640Y-90624472D02*
X114531497Y-90624472D01*
X114858068Y-90624472D02*
X114858068Y-89481472D01*
X114858068Y-89481472D02*
X114749211Y-89644758D01*
X114749211Y-89644758D02*
X114640354Y-89753615D01*
X114640354Y-89753615D02*
X114531497Y-89808044D01*
X114223068Y-97736472D02*
X114930640Y-97736472D01*
X114930640Y-97736472D02*
X114549640Y-98171901D01*
X114549640Y-98171901D02*
X114712925Y-98171901D01*
X114712925Y-98171901D02*
X114821783Y-98226329D01*
X114821783Y-98226329D02*
X114876211Y-98280758D01*
X114876211Y-98280758D02*
X114930640Y-98389615D01*
X114930640Y-98389615D02*
X114930640Y-98661758D01*
X114930640Y-98661758D02*
X114876211Y-98770615D01*
X114876211Y-98770615D02*
X114821783Y-98825044D01*
X114821783Y-98825044D02*
X114712925Y-98879472D01*
X114712925Y-98879472D02*
X114386354Y-98879472D01*
X114386354Y-98879472D02*
X114277497Y-98825044D01*
X114277497Y-98825044D02*
X114223068Y-98770615D01*
D11*
X123502534Y-90985430D02*
X123502534Y-91764364D01*
X123224343Y-90540326D02*
X122946153Y-91374897D01*
X122946153Y-91374897D02*
X123669448Y-91374897D01*
X124114553Y-91653087D02*
X124170191Y-91708726D01*
X124170191Y-91708726D02*
X124114553Y-91764364D01*
X124114553Y-91764364D02*
X124058915Y-91708726D01*
X124058915Y-91708726D02*
X124114553Y-91653087D01*
X124114553Y-91653087D02*
X124114553Y-91764364D01*
X124559658Y-90595964D02*
X125338591Y-90595964D01*
X125338591Y-90595964D02*
X124837848Y-91764364D01*
X125783696Y-91764364D02*
X125783696Y-90595964D01*
X125894972Y-91319259D02*
X126228801Y-91764364D01*
X126228801Y-90985430D02*
X125783696Y-91430535D01*
D10*
X132297354Y-103374354D02*
X150837354Y-103374354D01*
X132297354Y-103374354D02*
X132297354Y-87044354D01*
X150837354Y-103374354D02*
X150837354Y-87044354D01*
X132297354Y-87044354D02*
X150837354Y-87044354D01*
X114386354Y-91538454D02*
X114386354Y-91939654D01*
X112989354Y-92098854D02*
X112989354Y-96287854D01*
X114386354Y-93907054D02*
X114386354Y-94479654D01*
X114386354Y-96447054D02*
X114386354Y-96848254D01*
X117188854Y-93407055D02*
G75*
G03*
X114386354Y-91538455I-2548479J-786298D01*
G01*
X114386354Y-91538453D02*
G75*
G03*
X112989354Y-92098754I253950J-2654895D01*
G01*
X112989355Y-96287852D02*
G75*
G03*
X117188754Y-94979654I1650989J2094488D01*
G01*
%LPC*%
D12*
X142707354Y-100294354D03*
X142707354Y-90134354D03*
D13*
X133817354Y-97114354D03*
D14*
X133817354Y-94574354D03*
X133817354Y-92034354D03*
X136357354Y-98384354D03*
X136357354Y-95844354D03*
X136357354Y-93304354D03*
D15*
X145757354Y-102074354D03*
X145757354Y-88354354D03*
D16*
X114640354Y-92923354D03*
X116545354Y-94193354D03*
X114640354Y-95463354D03*
D17*
X124673354Y-93690354D03*
X124673354Y-95590354D03*
%LPD*%
M02*
