%TF.GenerationSoftware,KiCad,Pcbnew,7.0.6*%
%TF.CreationDate,2023-12-02T16:46:12-07:00*%
%TF.ProjectId,Temperature Senor Board V2 (2),54656d70-6572-4617-9475-72652053656e,rev?*%
%TF.SameCoordinates,Original*%
%TF.FileFunction,Drillmap*%
%TF.FilePolarity,Positive*%
%FSLAX45Y45*%
G04 Gerber Fmt 4.5, Leading zero omitted, Abs format (unit mm)*
G04 Created by KiCad (PCBNEW 7.0.6) date 2023-12-02 16:46:12*
%MOMM*%
%LPD*%
G01*
G04 APERTURE LIST*
%ADD10C,0.050000*%
%ADD11C,0.200000*%
%ADD12C,0.330000*%
G04 APERTURE END LIST*
D10*
X11976100Y-7632700D02*
X17564100Y-7632700D01*
X17564100Y-9944100D01*
X11976100Y-9944100D01*
X11976100Y-7632700D01*
D11*
D12*
X16573600Y-8166200D02*
X16903600Y-8496200D01*
X16903600Y-8166200D02*
X16573600Y-8496200D01*
X16573600Y-9182200D02*
X16903600Y-9512200D01*
X16903600Y-9182200D02*
X16573600Y-9512200D01*
D11*
X12234377Y-10258084D02*
X12234377Y-10058084D01*
X12234377Y-10058084D02*
X12281996Y-10058084D01*
X12281996Y-10058084D02*
X12310567Y-10067608D01*
X12310567Y-10067608D02*
X12329615Y-10086655D01*
X12329615Y-10086655D02*
X12339139Y-10105703D01*
X12339139Y-10105703D02*
X12348662Y-10143798D01*
X12348662Y-10143798D02*
X12348662Y-10172370D01*
X12348662Y-10172370D02*
X12339139Y-10210465D01*
X12339139Y-10210465D02*
X12329615Y-10229512D01*
X12329615Y-10229512D02*
X12310567Y-10248560D01*
X12310567Y-10248560D02*
X12281996Y-10258084D01*
X12281996Y-10258084D02*
X12234377Y-10258084D01*
X12434377Y-10258084D02*
X12434377Y-10124750D01*
X12434377Y-10162846D02*
X12443901Y-10143798D01*
X12443901Y-10143798D02*
X12453424Y-10134274D01*
X12453424Y-10134274D02*
X12472472Y-10124750D01*
X12472472Y-10124750D02*
X12491520Y-10124750D01*
X12558186Y-10258084D02*
X12558186Y-10124750D01*
X12558186Y-10058084D02*
X12548662Y-10067608D01*
X12548662Y-10067608D02*
X12558186Y-10077131D01*
X12558186Y-10077131D02*
X12567710Y-10067608D01*
X12567710Y-10067608D02*
X12558186Y-10058084D01*
X12558186Y-10058084D02*
X12558186Y-10077131D01*
X12681996Y-10258084D02*
X12662948Y-10248560D01*
X12662948Y-10248560D02*
X12653424Y-10229512D01*
X12653424Y-10229512D02*
X12653424Y-10058084D01*
X12786758Y-10258084D02*
X12767710Y-10248560D01*
X12767710Y-10248560D02*
X12758186Y-10229512D01*
X12758186Y-10229512D02*
X12758186Y-10058084D01*
X13015329Y-10258084D02*
X13015329Y-10058084D01*
X13015329Y-10058084D02*
X13081996Y-10200941D01*
X13081996Y-10200941D02*
X13148662Y-10058084D01*
X13148662Y-10058084D02*
X13148662Y-10258084D01*
X13329615Y-10258084D02*
X13329615Y-10153322D01*
X13329615Y-10153322D02*
X13320091Y-10134274D01*
X13320091Y-10134274D02*
X13301043Y-10124750D01*
X13301043Y-10124750D02*
X13262948Y-10124750D01*
X13262948Y-10124750D02*
X13243901Y-10134274D01*
X13329615Y-10248560D02*
X13310567Y-10258084D01*
X13310567Y-10258084D02*
X13262948Y-10258084D01*
X13262948Y-10258084D02*
X13243901Y-10248560D01*
X13243901Y-10248560D02*
X13234377Y-10229512D01*
X13234377Y-10229512D02*
X13234377Y-10210465D01*
X13234377Y-10210465D02*
X13243901Y-10191417D01*
X13243901Y-10191417D02*
X13262948Y-10181893D01*
X13262948Y-10181893D02*
X13310567Y-10181893D01*
X13310567Y-10181893D02*
X13329615Y-10172370D01*
X13424853Y-10124750D02*
X13424853Y-10324750D01*
X13424853Y-10134274D02*
X13443901Y-10124750D01*
X13443901Y-10124750D02*
X13481996Y-10124750D01*
X13481996Y-10124750D02*
X13501043Y-10134274D01*
X13501043Y-10134274D02*
X13510567Y-10143798D01*
X13510567Y-10143798D02*
X13520091Y-10162846D01*
X13520091Y-10162846D02*
X13520091Y-10219989D01*
X13520091Y-10219989D02*
X13510567Y-10239036D01*
X13510567Y-10239036D02*
X13501043Y-10248560D01*
X13501043Y-10248560D02*
X13481996Y-10258084D01*
X13481996Y-10258084D02*
X13443901Y-10258084D01*
X13443901Y-10258084D02*
X13424853Y-10248560D01*
X13605805Y-10239036D02*
X13615329Y-10248560D01*
X13615329Y-10248560D02*
X13605805Y-10258084D01*
X13605805Y-10258084D02*
X13596282Y-10248560D01*
X13596282Y-10248560D02*
X13605805Y-10239036D01*
X13605805Y-10239036D02*
X13605805Y-10258084D01*
X13605805Y-10134274D02*
X13615329Y-10143798D01*
X13615329Y-10143798D02*
X13605805Y-10153322D01*
X13605805Y-10153322D02*
X13596282Y-10143798D01*
X13596282Y-10143798D02*
X13605805Y-10134274D01*
X13605805Y-10134274D02*
X13605805Y-10153322D01*
X11773600Y-10486600D02*
X11973600Y-10686600D01*
X11973600Y-10486600D02*
X11773600Y-10686600D01*
X12215329Y-10478084D02*
X12339139Y-10478084D01*
X12339139Y-10478084D02*
X12272472Y-10554274D01*
X12272472Y-10554274D02*
X12301043Y-10554274D01*
X12301043Y-10554274D02*
X12320091Y-10563798D01*
X12320091Y-10563798D02*
X12329615Y-10573322D01*
X12329615Y-10573322D02*
X12339139Y-10592370D01*
X12339139Y-10592370D02*
X12339139Y-10639989D01*
X12339139Y-10639989D02*
X12329615Y-10659036D01*
X12329615Y-10659036D02*
X12320091Y-10668560D01*
X12320091Y-10668560D02*
X12301043Y-10678084D01*
X12301043Y-10678084D02*
X12243901Y-10678084D01*
X12243901Y-10678084D02*
X12224853Y-10668560D01*
X12224853Y-10668560D02*
X12215329Y-10659036D01*
X12424853Y-10659036D02*
X12434377Y-10668560D01*
X12434377Y-10668560D02*
X12424853Y-10678084D01*
X12424853Y-10678084D02*
X12415329Y-10668560D01*
X12415329Y-10668560D02*
X12424853Y-10659036D01*
X12424853Y-10659036D02*
X12424853Y-10678084D01*
X12501043Y-10478084D02*
X12624853Y-10478084D01*
X12624853Y-10478084D02*
X12558186Y-10554274D01*
X12558186Y-10554274D02*
X12586758Y-10554274D01*
X12586758Y-10554274D02*
X12605805Y-10563798D01*
X12605805Y-10563798D02*
X12615329Y-10573322D01*
X12615329Y-10573322D02*
X12624853Y-10592370D01*
X12624853Y-10592370D02*
X12624853Y-10639989D01*
X12624853Y-10639989D02*
X12615329Y-10659036D01*
X12615329Y-10659036D02*
X12605805Y-10668560D01*
X12605805Y-10668560D02*
X12586758Y-10678084D01*
X12586758Y-10678084D02*
X12529615Y-10678084D01*
X12529615Y-10678084D02*
X12510567Y-10668560D01*
X12510567Y-10668560D02*
X12501043Y-10659036D01*
X12748662Y-10478084D02*
X12767710Y-10478084D01*
X12767710Y-10478084D02*
X12786758Y-10487608D01*
X12786758Y-10487608D02*
X12796282Y-10497131D01*
X12796282Y-10497131D02*
X12805805Y-10516179D01*
X12805805Y-10516179D02*
X12815329Y-10554274D01*
X12815329Y-10554274D02*
X12815329Y-10601893D01*
X12815329Y-10601893D02*
X12805805Y-10639989D01*
X12805805Y-10639989D02*
X12796282Y-10659036D01*
X12796282Y-10659036D02*
X12786758Y-10668560D01*
X12786758Y-10668560D02*
X12767710Y-10678084D01*
X12767710Y-10678084D02*
X12748662Y-10678084D01*
X12748662Y-10678084D02*
X12729615Y-10668560D01*
X12729615Y-10668560D02*
X12720091Y-10659036D01*
X12720091Y-10659036D02*
X12710567Y-10639989D01*
X12710567Y-10639989D02*
X12701043Y-10601893D01*
X12701043Y-10601893D02*
X12701043Y-10554274D01*
X12701043Y-10554274D02*
X12710567Y-10516179D01*
X12710567Y-10516179D02*
X12720091Y-10497131D01*
X12720091Y-10497131D02*
X12729615Y-10487608D01*
X12729615Y-10487608D02*
X12748662Y-10478084D01*
X12939139Y-10478084D02*
X12958186Y-10478084D01*
X12958186Y-10478084D02*
X12977234Y-10487608D01*
X12977234Y-10487608D02*
X12986758Y-10497131D01*
X12986758Y-10497131D02*
X12996282Y-10516179D01*
X12996282Y-10516179D02*
X13005805Y-10554274D01*
X13005805Y-10554274D02*
X13005805Y-10601893D01*
X13005805Y-10601893D02*
X12996282Y-10639989D01*
X12996282Y-10639989D02*
X12986758Y-10659036D01*
X12986758Y-10659036D02*
X12977234Y-10668560D01*
X12977234Y-10668560D02*
X12958186Y-10678084D01*
X12958186Y-10678084D02*
X12939139Y-10678084D01*
X12939139Y-10678084D02*
X12920091Y-10668560D01*
X12920091Y-10668560D02*
X12910567Y-10659036D01*
X12910567Y-10659036D02*
X12901043Y-10639989D01*
X12901043Y-10639989D02*
X12891520Y-10601893D01*
X12891520Y-10601893D02*
X12891520Y-10554274D01*
X12891520Y-10554274D02*
X12901043Y-10516179D01*
X12901043Y-10516179D02*
X12910567Y-10497131D01*
X12910567Y-10497131D02*
X12920091Y-10487608D01*
X12920091Y-10487608D02*
X12939139Y-10478084D01*
X13091520Y-10678084D02*
X13091520Y-10544750D01*
X13091520Y-10563798D02*
X13101043Y-10554274D01*
X13101043Y-10554274D02*
X13120091Y-10544750D01*
X13120091Y-10544750D02*
X13148663Y-10544750D01*
X13148663Y-10544750D02*
X13167710Y-10554274D01*
X13167710Y-10554274D02*
X13177234Y-10573322D01*
X13177234Y-10573322D02*
X13177234Y-10678084D01*
X13177234Y-10573322D02*
X13186758Y-10554274D01*
X13186758Y-10554274D02*
X13205805Y-10544750D01*
X13205805Y-10544750D02*
X13234377Y-10544750D01*
X13234377Y-10544750D02*
X13253424Y-10554274D01*
X13253424Y-10554274D02*
X13262948Y-10573322D01*
X13262948Y-10573322D02*
X13262948Y-10678084D01*
X13358186Y-10678084D02*
X13358186Y-10544750D01*
X13358186Y-10563798D02*
X13367710Y-10554274D01*
X13367710Y-10554274D02*
X13386758Y-10544750D01*
X13386758Y-10544750D02*
X13415329Y-10544750D01*
X13415329Y-10544750D02*
X13434377Y-10554274D01*
X13434377Y-10554274D02*
X13443901Y-10573322D01*
X13443901Y-10573322D02*
X13443901Y-10678084D01*
X13443901Y-10573322D02*
X13453424Y-10554274D01*
X13453424Y-10554274D02*
X13472472Y-10544750D01*
X13472472Y-10544750D02*
X13501043Y-10544750D01*
X13501043Y-10544750D02*
X13520091Y-10554274D01*
X13520091Y-10554274D02*
X13529615Y-10573322D01*
X13529615Y-10573322D02*
X13529615Y-10678084D01*
X13920091Y-10468560D02*
X13748663Y-10725703D01*
X14177234Y-10478084D02*
X14196282Y-10478084D01*
X14196282Y-10478084D02*
X14215329Y-10487608D01*
X14215329Y-10487608D02*
X14224853Y-10497131D01*
X14224853Y-10497131D02*
X14234377Y-10516179D01*
X14234377Y-10516179D02*
X14243901Y-10554274D01*
X14243901Y-10554274D02*
X14243901Y-10601893D01*
X14243901Y-10601893D02*
X14234377Y-10639989D01*
X14234377Y-10639989D02*
X14224853Y-10659036D01*
X14224853Y-10659036D02*
X14215329Y-10668560D01*
X14215329Y-10668560D02*
X14196282Y-10678084D01*
X14196282Y-10678084D02*
X14177234Y-10678084D01*
X14177234Y-10678084D02*
X14158186Y-10668560D01*
X14158186Y-10668560D02*
X14148663Y-10659036D01*
X14148663Y-10659036D02*
X14139139Y-10639989D01*
X14139139Y-10639989D02*
X14129615Y-10601893D01*
X14129615Y-10601893D02*
X14129615Y-10554274D01*
X14129615Y-10554274D02*
X14139139Y-10516179D01*
X14139139Y-10516179D02*
X14148663Y-10497131D01*
X14148663Y-10497131D02*
X14158186Y-10487608D01*
X14158186Y-10487608D02*
X14177234Y-10478084D01*
X14329615Y-10659036D02*
X14339139Y-10668560D01*
X14339139Y-10668560D02*
X14329615Y-10678084D01*
X14329615Y-10678084D02*
X14320091Y-10668560D01*
X14320091Y-10668560D02*
X14329615Y-10659036D01*
X14329615Y-10659036D02*
X14329615Y-10678084D01*
X14529615Y-10678084D02*
X14415329Y-10678084D01*
X14472472Y-10678084D02*
X14472472Y-10478084D01*
X14472472Y-10478084D02*
X14453425Y-10506655D01*
X14453425Y-10506655D02*
X14434377Y-10525703D01*
X14434377Y-10525703D02*
X14415329Y-10535227D01*
X14605806Y-10497131D02*
X14615329Y-10487608D01*
X14615329Y-10487608D02*
X14634377Y-10478084D01*
X14634377Y-10478084D02*
X14681996Y-10478084D01*
X14681996Y-10478084D02*
X14701044Y-10487608D01*
X14701044Y-10487608D02*
X14710567Y-10497131D01*
X14710567Y-10497131D02*
X14720091Y-10516179D01*
X14720091Y-10516179D02*
X14720091Y-10535227D01*
X14720091Y-10535227D02*
X14710567Y-10563798D01*
X14710567Y-10563798D02*
X14596282Y-10678084D01*
X14596282Y-10678084D02*
X14720091Y-10678084D01*
X14815329Y-10678084D02*
X14853425Y-10678084D01*
X14853425Y-10678084D02*
X14872472Y-10668560D01*
X14872472Y-10668560D02*
X14881996Y-10659036D01*
X14881996Y-10659036D02*
X14901044Y-10630465D01*
X14901044Y-10630465D02*
X14910567Y-10592370D01*
X14910567Y-10592370D02*
X14910567Y-10516179D01*
X14910567Y-10516179D02*
X14901044Y-10497131D01*
X14901044Y-10497131D02*
X14891520Y-10487608D01*
X14891520Y-10487608D02*
X14872472Y-10478084D01*
X14872472Y-10478084D02*
X14834377Y-10478084D01*
X14834377Y-10478084D02*
X14815329Y-10487608D01*
X14815329Y-10487608D02*
X14805806Y-10497131D01*
X14805806Y-10497131D02*
X14796282Y-10516179D01*
X14796282Y-10516179D02*
X14796282Y-10563798D01*
X14796282Y-10563798D02*
X14805806Y-10582846D01*
X14805806Y-10582846D02*
X14815329Y-10592370D01*
X14815329Y-10592370D02*
X14834377Y-10601893D01*
X14834377Y-10601893D02*
X14872472Y-10601893D01*
X14872472Y-10601893D02*
X14891520Y-10592370D01*
X14891520Y-10592370D02*
X14901044Y-10582846D01*
X14901044Y-10582846D02*
X14910567Y-10563798D01*
X15005806Y-10678084D02*
X15043901Y-10678084D01*
X15043901Y-10678084D02*
X15062948Y-10668560D01*
X15062948Y-10668560D02*
X15072472Y-10659036D01*
X15072472Y-10659036D02*
X15091520Y-10630465D01*
X15091520Y-10630465D02*
X15101044Y-10592370D01*
X15101044Y-10592370D02*
X15101044Y-10516179D01*
X15101044Y-10516179D02*
X15091520Y-10497131D01*
X15091520Y-10497131D02*
X15081996Y-10487608D01*
X15081996Y-10487608D02*
X15062948Y-10478084D01*
X15062948Y-10478084D02*
X15024853Y-10478084D01*
X15024853Y-10478084D02*
X15005806Y-10487608D01*
X15005806Y-10487608D02*
X14996282Y-10497131D01*
X14996282Y-10497131D02*
X14986758Y-10516179D01*
X14986758Y-10516179D02*
X14986758Y-10563798D01*
X14986758Y-10563798D02*
X14996282Y-10582846D01*
X14996282Y-10582846D02*
X15005806Y-10592370D01*
X15005806Y-10592370D02*
X15024853Y-10601893D01*
X15024853Y-10601893D02*
X15062948Y-10601893D01*
X15062948Y-10601893D02*
X15081996Y-10592370D01*
X15081996Y-10592370D02*
X15091520Y-10582846D01*
X15091520Y-10582846D02*
X15101044Y-10563798D01*
X15177234Y-10478084D02*
X15177234Y-10516179D01*
X15253425Y-10478084D02*
X15253425Y-10516179D01*
X15548663Y-10754274D02*
X15539139Y-10744750D01*
X15539139Y-10744750D02*
X15520091Y-10716179D01*
X15520091Y-10716179D02*
X15510568Y-10697131D01*
X15510568Y-10697131D02*
X15501044Y-10668560D01*
X15501044Y-10668560D02*
X15491520Y-10620941D01*
X15491520Y-10620941D02*
X15491520Y-10582846D01*
X15491520Y-10582846D02*
X15501044Y-10535227D01*
X15501044Y-10535227D02*
X15510568Y-10506655D01*
X15510568Y-10506655D02*
X15520091Y-10487608D01*
X15520091Y-10487608D02*
X15539139Y-10459036D01*
X15539139Y-10459036D02*
X15548663Y-10449512D01*
X15615329Y-10497131D02*
X15624853Y-10487608D01*
X15624853Y-10487608D02*
X15643901Y-10478084D01*
X15643901Y-10478084D02*
X15691520Y-10478084D01*
X15691520Y-10478084D02*
X15710568Y-10487608D01*
X15710568Y-10487608D02*
X15720091Y-10497131D01*
X15720091Y-10497131D02*
X15729615Y-10516179D01*
X15729615Y-10516179D02*
X15729615Y-10535227D01*
X15729615Y-10535227D02*
X15720091Y-10563798D01*
X15720091Y-10563798D02*
X15605806Y-10678084D01*
X15605806Y-10678084D02*
X15729615Y-10678084D01*
X15967710Y-10678084D02*
X15967710Y-10478084D01*
X16053425Y-10678084D02*
X16053425Y-10573322D01*
X16053425Y-10573322D02*
X16043901Y-10554274D01*
X16043901Y-10554274D02*
X16024853Y-10544750D01*
X16024853Y-10544750D02*
X15996282Y-10544750D01*
X15996282Y-10544750D02*
X15977234Y-10554274D01*
X15977234Y-10554274D02*
X15967710Y-10563798D01*
X16177234Y-10678084D02*
X16158187Y-10668560D01*
X16158187Y-10668560D02*
X16148663Y-10659036D01*
X16148663Y-10659036D02*
X16139139Y-10639989D01*
X16139139Y-10639989D02*
X16139139Y-10582846D01*
X16139139Y-10582846D02*
X16148663Y-10563798D01*
X16148663Y-10563798D02*
X16158187Y-10554274D01*
X16158187Y-10554274D02*
X16177234Y-10544750D01*
X16177234Y-10544750D02*
X16205806Y-10544750D01*
X16205806Y-10544750D02*
X16224853Y-10554274D01*
X16224853Y-10554274D02*
X16234377Y-10563798D01*
X16234377Y-10563798D02*
X16243901Y-10582846D01*
X16243901Y-10582846D02*
X16243901Y-10639989D01*
X16243901Y-10639989D02*
X16234377Y-10659036D01*
X16234377Y-10659036D02*
X16224853Y-10668560D01*
X16224853Y-10668560D02*
X16205806Y-10678084D01*
X16205806Y-10678084D02*
X16177234Y-10678084D01*
X16358187Y-10678084D02*
X16339139Y-10668560D01*
X16339139Y-10668560D02*
X16329615Y-10649512D01*
X16329615Y-10649512D02*
X16329615Y-10478084D01*
X16510568Y-10668560D02*
X16491520Y-10678084D01*
X16491520Y-10678084D02*
X16453425Y-10678084D01*
X16453425Y-10678084D02*
X16434377Y-10668560D01*
X16434377Y-10668560D02*
X16424853Y-10649512D01*
X16424853Y-10649512D02*
X16424853Y-10573322D01*
X16424853Y-10573322D02*
X16434377Y-10554274D01*
X16434377Y-10554274D02*
X16453425Y-10544750D01*
X16453425Y-10544750D02*
X16491520Y-10544750D01*
X16491520Y-10544750D02*
X16510568Y-10554274D01*
X16510568Y-10554274D02*
X16520091Y-10573322D01*
X16520091Y-10573322D02*
X16520091Y-10592370D01*
X16520091Y-10592370D02*
X16424853Y-10611417D01*
X16596282Y-10668560D02*
X16615330Y-10678084D01*
X16615330Y-10678084D02*
X16653425Y-10678084D01*
X16653425Y-10678084D02*
X16672472Y-10668560D01*
X16672472Y-10668560D02*
X16681996Y-10649512D01*
X16681996Y-10649512D02*
X16681996Y-10639989D01*
X16681996Y-10639989D02*
X16672472Y-10620941D01*
X16672472Y-10620941D02*
X16653425Y-10611417D01*
X16653425Y-10611417D02*
X16624853Y-10611417D01*
X16624853Y-10611417D02*
X16605806Y-10601893D01*
X16605806Y-10601893D02*
X16596282Y-10582846D01*
X16596282Y-10582846D02*
X16596282Y-10573322D01*
X16596282Y-10573322D02*
X16605806Y-10554274D01*
X16605806Y-10554274D02*
X16624853Y-10544750D01*
X16624853Y-10544750D02*
X16653425Y-10544750D01*
X16653425Y-10544750D02*
X16672472Y-10554274D01*
X16748663Y-10754274D02*
X16758187Y-10744750D01*
X16758187Y-10744750D02*
X16777234Y-10716179D01*
X16777234Y-10716179D02*
X16786758Y-10697131D01*
X16786758Y-10697131D02*
X16796282Y-10668560D01*
X16796282Y-10668560D02*
X16805806Y-10620941D01*
X16805806Y-10620941D02*
X16805806Y-10582846D01*
X16805806Y-10582846D02*
X16796282Y-10535227D01*
X16796282Y-10535227D02*
X16786758Y-10506655D01*
X16786758Y-10506655D02*
X16777234Y-10487608D01*
X16777234Y-10487608D02*
X16758187Y-10459036D01*
X16758187Y-10459036D02*
X16748663Y-10449512D01*
X17110568Y-10754274D02*
X17101044Y-10744750D01*
X17101044Y-10744750D02*
X17081996Y-10716179D01*
X17081996Y-10716179D02*
X17072473Y-10697131D01*
X17072473Y-10697131D02*
X17062949Y-10668560D01*
X17062949Y-10668560D02*
X17053425Y-10620941D01*
X17053425Y-10620941D02*
X17053425Y-10582846D01*
X17053425Y-10582846D02*
X17062949Y-10535227D01*
X17062949Y-10535227D02*
X17072473Y-10506655D01*
X17072473Y-10506655D02*
X17081996Y-10487608D01*
X17081996Y-10487608D02*
X17101044Y-10459036D01*
X17101044Y-10459036D02*
X17110568Y-10449512D01*
X17186758Y-10544750D02*
X17186758Y-10678084D01*
X17186758Y-10563798D02*
X17196282Y-10554274D01*
X17196282Y-10554274D02*
X17215330Y-10544750D01*
X17215330Y-10544750D02*
X17243901Y-10544750D01*
X17243901Y-10544750D02*
X17262949Y-10554274D01*
X17262949Y-10554274D02*
X17272473Y-10573322D01*
X17272473Y-10573322D02*
X17272473Y-10678084D01*
X17396282Y-10678084D02*
X17377234Y-10668560D01*
X17377234Y-10668560D02*
X17367711Y-10659036D01*
X17367711Y-10659036D02*
X17358187Y-10639989D01*
X17358187Y-10639989D02*
X17358187Y-10582846D01*
X17358187Y-10582846D02*
X17367711Y-10563798D01*
X17367711Y-10563798D02*
X17377234Y-10554274D01*
X17377234Y-10554274D02*
X17396282Y-10544750D01*
X17396282Y-10544750D02*
X17424854Y-10544750D01*
X17424854Y-10544750D02*
X17443901Y-10554274D01*
X17443901Y-10554274D02*
X17453425Y-10563798D01*
X17453425Y-10563798D02*
X17462949Y-10582846D01*
X17462949Y-10582846D02*
X17462949Y-10639989D01*
X17462949Y-10639989D02*
X17453425Y-10659036D01*
X17453425Y-10659036D02*
X17443901Y-10668560D01*
X17443901Y-10668560D02*
X17424854Y-10678084D01*
X17424854Y-10678084D02*
X17396282Y-10678084D01*
X17520092Y-10544750D02*
X17596282Y-10544750D01*
X17548663Y-10478084D02*
X17548663Y-10649512D01*
X17548663Y-10649512D02*
X17558187Y-10668560D01*
X17558187Y-10668560D02*
X17577234Y-10678084D01*
X17577234Y-10678084D02*
X17596282Y-10678084D01*
X17815330Y-10544750D02*
X17815330Y-10744750D01*
X17815330Y-10554274D02*
X17834377Y-10544750D01*
X17834377Y-10544750D02*
X17872473Y-10544750D01*
X17872473Y-10544750D02*
X17891520Y-10554274D01*
X17891520Y-10554274D02*
X17901044Y-10563798D01*
X17901044Y-10563798D02*
X17910568Y-10582846D01*
X17910568Y-10582846D02*
X17910568Y-10639989D01*
X17910568Y-10639989D02*
X17901044Y-10659036D01*
X17901044Y-10659036D02*
X17891520Y-10668560D01*
X17891520Y-10668560D02*
X17872473Y-10678084D01*
X17872473Y-10678084D02*
X17834377Y-10678084D01*
X17834377Y-10678084D02*
X17815330Y-10668560D01*
X18024854Y-10678084D02*
X18005806Y-10668560D01*
X18005806Y-10668560D02*
X17996282Y-10649512D01*
X17996282Y-10649512D02*
X17996282Y-10478084D01*
X18186758Y-10678084D02*
X18186758Y-10573322D01*
X18186758Y-10573322D02*
X18177235Y-10554274D01*
X18177235Y-10554274D02*
X18158187Y-10544750D01*
X18158187Y-10544750D02*
X18120092Y-10544750D01*
X18120092Y-10544750D02*
X18101044Y-10554274D01*
X18186758Y-10668560D02*
X18167711Y-10678084D01*
X18167711Y-10678084D02*
X18120092Y-10678084D01*
X18120092Y-10678084D02*
X18101044Y-10668560D01*
X18101044Y-10668560D02*
X18091520Y-10649512D01*
X18091520Y-10649512D02*
X18091520Y-10630465D01*
X18091520Y-10630465D02*
X18101044Y-10611417D01*
X18101044Y-10611417D02*
X18120092Y-10601893D01*
X18120092Y-10601893D02*
X18167711Y-10601893D01*
X18167711Y-10601893D02*
X18186758Y-10592370D01*
X18253425Y-10544750D02*
X18329615Y-10544750D01*
X18281996Y-10478084D02*
X18281996Y-10649512D01*
X18281996Y-10649512D02*
X18291520Y-10668560D01*
X18291520Y-10668560D02*
X18310568Y-10678084D01*
X18310568Y-10678084D02*
X18329615Y-10678084D01*
X18472473Y-10668560D02*
X18453425Y-10678084D01*
X18453425Y-10678084D02*
X18415330Y-10678084D01*
X18415330Y-10678084D02*
X18396282Y-10668560D01*
X18396282Y-10668560D02*
X18386758Y-10649512D01*
X18386758Y-10649512D02*
X18386758Y-10573322D01*
X18386758Y-10573322D02*
X18396282Y-10554274D01*
X18396282Y-10554274D02*
X18415330Y-10544750D01*
X18415330Y-10544750D02*
X18453425Y-10544750D01*
X18453425Y-10544750D02*
X18472473Y-10554274D01*
X18472473Y-10554274D02*
X18481996Y-10573322D01*
X18481996Y-10573322D02*
X18481996Y-10592370D01*
X18481996Y-10592370D02*
X18386758Y-10611417D01*
X18653425Y-10678084D02*
X18653425Y-10478084D01*
X18653425Y-10668560D02*
X18634377Y-10678084D01*
X18634377Y-10678084D02*
X18596282Y-10678084D01*
X18596282Y-10678084D02*
X18577235Y-10668560D01*
X18577235Y-10668560D02*
X18567711Y-10659036D01*
X18567711Y-10659036D02*
X18558187Y-10639989D01*
X18558187Y-10639989D02*
X18558187Y-10582846D01*
X18558187Y-10582846D02*
X18567711Y-10563798D01*
X18567711Y-10563798D02*
X18577235Y-10554274D01*
X18577235Y-10554274D02*
X18596282Y-10544750D01*
X18596282Y-10544750D02*
X18634377Y-10544750D01*
X18634377Y-10544750D02*
X18653425Y-10554274D01*
X18729616Y-10754274D02*
X18739139Y-10744750D01*
X18739139Y-10744750D02*
X18758187Y-10716179D01*
X18758187Y-10716179D02*
X18767711Y-10697131D01*
X18767711Y-10697131D02*
X18777235Y-10668560D01*
X18777235Y-10668560D02*
X18786758Y-10620941D01*
X18786758Y-10620941D02*
X18786758Y-10582846D01*
X18786758Y-10582846D02*
X18777235Y-10535227D01*
X18777235Y-10535227D02*
X18767711Y-10506655D01*
X18767711Y-10506655D02*
X18758187Y-10487608D01*
X18758187Y-10487608D02*
X18739139Y-10459036D01*
X18739139Y-10459036D02*
X18729616Y-10449512D01*
M02*
