G04 #@! TF.GenerationSoftware,KiCad,Pcbnew,7.0.6*
G04 #@! TF.CreationDate,2023-12-02T16:45:52-07:00*
G04 #@! TF.ProjectId,Temperature Senor Board V2 (2),54656d70-6572-4617-9475-72652053656e,rev?*
G04 #@! TF.SameCoordinates,Original*
G04 #@! TF.FileFunction,Copper,L2,Bot*
G04 #@! TF.FilePolarity,Positive*
%FSLAX46Y46*%
G04 Gerber Fmt 4.6, Leading zero omitted, Abs format (unit mm)*
G04 Created by KiCad (PCBNEW 7.0.6) date 2023-12-02 16:45:52*
%MOMM*%
%LPD*%
G01*
G04 APERTURE LIST*
G04 Aperture macros list*
%AMOutline5P*
0 Free polygon, 5 corners , with rotation*
0 The origin of the aperture is its center*
0 number of corners: always 5*
0 $1 to $10 corner X, Y*
0 $11 Rotation angle, in degrees counterclockwise*
0 create outline with 5 corners*
4,1,5,$1,$2,$3,$4,$5,$6,$7,$8,$9,$10,$1,$2,$11*%
%AMOutline6P*
0 Free polygon, 6 corners , with rotation*
0 The origin of the aperture is its center*
0 number of corners: always 6*
0 $1 to $12 corner X, Y*
0 $13 Rotation angle, in degrees counterclockwise*
0 create outline with 6 corners*
4,1,6,$1,$2,$3,$4,$5,$6,$7,$8,$9,$10,$11,$12,$1,$2,$13*%
%AMOutline7P*
0 Free polygon, 7 corners , with rotation*
0 The origin of the aperture is its center*
0 number of corners: always 7*
0 $1 to $14 corner X, Y*
0 $15 Rotation angle, in degrees counterclockwise*
0 create outline with 7 corners*
4,1,7,$1,$2,$3,$4,$5,$6,$7,$8,$9,$10,$11,$12,$13,$14,$1,$2,$15*%
%AMOutline8P*
0 Free polygon, 8 corners , with rotation*
0 The origin of the aperture is its center*
0 number of corners: always 8*
0 $1 to $16 corner X, Y*
0 $17 Rotation angle, in degrees counterclockwise*
0 create outline with 8 corners*
4,1,8,$1,$2,$3,$4,$5,$6,$7,$8,$9,$10,$11,$12,$13,$14,$15,$16,$1,$2,$17*%
G04 Aperture macros list end*
G04 #@! TA.AperFunction,ComponentPad*
%ADD10Outline8P,-0.660400X0.273547X-0.273547X0.660400X0.273547X0.660400X0.660400X0.273547X0.660400X-0.273547X0.273547X-0.660400X-0.273547X-0.660400X-0.660400X-0.273547X270.000000*%
G04 #@! TD*
G04 #@! TA.AperFunction,ComponentPad*
%ADD11R,1.508000X1.508000*%
G04 #@! TD*
G04 #@! TA.AperFunction,ComponentPad*
%ADD12C,1.508000*%
G04 #@! TD*
G04 #@! TA.AperFunction,ComponentPad*
%ADD13C,2.475000*%
G04 #@! TD*
G04 #@! TA.AperFunction,ViaPad*
%ADD14C,0.600000*%
G04 #@! TD*
G04 APERTURE END LIST*
D10*
X123443979Y-86995031D03*
X125348979Y-88265031D03*
X123443979Y-89535031D03*
D11*
X158496000Y-90292000D03*
D12*
X158496000Y-87752000D03*
X158496000Y-85212000D03*
X161036000Y-91562000D03*
X161036000Y-89022000D03*
X161036000Y-86482000D03*
D13*
X170436000Y-95252000D03*
X170436000Y-81532000D03*
D14*
X130175000Y-91567000D03*
X130429000Y-86233000D03*
X145161000Y-84201000D03*
X139192000Y-84201000D03*
X151257000Y-84201000D03*
X151257000Y-90424000D03*
X145161000Y-90424000D03*
X139192000Y-90424000D03*
G04 #@! TA.AperFunction,Conductor*
G36*
X175558539Y-76473685D02*
G01*
X175604294Y-76526489D01*
X175615500Y-76578000D01*
X175615500Y-99291500D01*
X175595815Y-99358539D01*
X175543011Y-99404294D01*
X175491500Y-99415500D01*
X120012000Y-99415500D01*
X119944961Y-99395815D01*
X119899206Y-99343011D01*
X119888000Y-99291500D01*
X119888000Y-93541594D01*
X165481686Y-93541594D01*
X165512114Y-93818125D01*
X165582478Y-94087272D01*
X165637726Y-94217283D01*
X165691284Y-94343314D01*
X165836205Y-94580776D01*
X165836212Y-94580786D01*
X166014161Y-94794616D01*
X166014167Y-94794621D01*
X166179918Y-94943133D01*
X166221357Y-94980263D01*
X166453373Y-95133763D01*
X166705267Y-95251846D01*
X166705274Y-95251848D01*
X166705276Y-95251849D01*
X166971657Y-95331992D01*
X166971664Y-95331993D01*
X166971669Y-95331995D01*
X167246901Y-95372500D01*
X167246906Y-95372500D01*
X167455469Y-95372500D01*
X167515862Y-95368079D01*
X167663455Y-95357277D01*
X167934997Y-95296788D01*
X168194838Y-95197408D01*
X168437440Y-95061253D01*
X168657632Y-94891226D01*
X168850722Y-94690951D01*
X169012593Y-94464696D01*
X169088580Y-94316900D01*
X169139790Y-94217298D01*
X169139794Y-94217288D01*
X169139797Y-94217283D01*
X169229621Y-93953986D01*
X169280152Y-93680416D01*
X169290313Y-93402404D01*
X169259886Y-93125876D01*
X169189520Y-92856724D01*
X169080716Y-92600686D01*
X168935792Y-92363219D01*
X168844112Y-92253053D01*
X168757838Y-92149383D01*
X168757832Y-92149378D01*
X168550643Y-91963737D01*
X168318629Y-91810238D01*
X168318627Y-91810237D01*
X168066733Y-91692154D01*
X168066728Y-91692152D01*
X168066723Y-91692150D01*
X167800342Y-91612007D01*
X167800328Y-91612004D01*
X167681565Y-91594526D01*
X167525099Y-91571500D01*
X167316537Y-91571500D01*
X167316531Y-91571500D01*
X167108545Y-91586723D01*
X167108535Y-91586724D01*
X166837007Y-91647210D01*
X166836997Y-91647213D01*
X166577161Y-91746592D01*
X166334561Y-91882746D01*
X166334556Y-91882749D01*
X166114369Y-92052772D01*
X166114359Y-92052781D01*
X165921281Y-92253045D01*
X165921274Y-92253053D01*
X165759412Y-92479295D01*
X165759405Y-92479307D01*
X165632209Y-92726701D01*
X165632205Y-92726711D01*
X165542379Y-92990012D01*
X165542378Y-92990018D01*
X165491848Y-93263584D01*
X165491847Y-93263591D01*
X165481686Y-93541594D01*
X119888000Y-93541594D01*
X119888000Y-89849557D01*
X122283079Y-89849557D01*
X122293639Y-89933627D01*
X122348714Y-90066592D01*
X122348715Y-90066593D01*
X122348716Y-90066595D01*
X122400699Y-90133512D01*
X122400705Y-90133518D01*
X122845499Y-90578313D01*
X122845509Y-90578322D01*
X122912415Y-90630294D01*
X122912416Y-90630295D01*
X123045383Y-90685371D01*
X123129455Y-90695931D01*
X123129458Y-90695931D01*
X123758499Y-90695931D01*
X123758502Y-90695931D01*
X123842576Y-90685371D01*
X123975543Y-90630294D01*
X124042460Y-90578311D01*
X124487263Y-90133509D01*
X124539243Y-90066594D01*
X124594319Y-89933627D01*
X124604879Y-89849555D01*
X124604879Y-89448535D01*
X124624564Y-89381497D01*
X124677368Y-89335742D01*
X124746526Y-89325798D01*
X124804948Y-89350610D01*
X124817416Y-89360295D01*
X124950383Y-89415371D01*
X125034455Y-89425931D01*
X125034458Y-89425931D01*
X125663499Y-89425931D01*
X125663502Y-89425931D01*
X125747576Y-89415371D01*
X125880543Y-89360294D01*
X125947460Y-89308311D01*
X126392263Y-88863509D01*
X126444243Y-88796594D01*
X126499319Y-88663627D01*
X126509879Y-88579555D01*
X126509879Y-87950508D01*
X126499319Y-87866434D01*
X126451919Y-87752002D01*
X157236708Y-87752002D01*
X157254074Y-87950510D01*
X157255839Y-87970674D01*
X157312653Y-88182703D01*
X157312654Y-88182706D01*
X157312655Y-88182708D01*
X157405419Y-88381642D01*
X157405423Y-88381650D01*
X157531322Y-88561452D01*
X157531326Y-88561457D01*
X157686543Y-88716674D01*
X157800679Y-88796593D01*
X157822576Y-88811925D01*
X157866201Y-88866502D01*
X157873395Y-88936000D01*
X157841872Y-88998355D01*
X157781643Y-89033769D01*
X157751455Y-89037500D01*
X157694130Y-89037500D01*
X157694123Y-89037501D01*
X157634516Y-89043908D01*
X157499671Y-89094202D01*
X157499664Y-89094206D01*
X157384455Y-89180452D01*
X157384452Y-89180455D01*
X157298206Y-89295664D01*
X157298202Y-89295671D01*
X157247908Y-89430517D01*
X157241501Y-89490116D01*
X157241500Y-89490135D01*
X157241500Y-91093870D01*
X157241501Y-91093876D01*
X157247908Y-91153483D01*
X157298202Y-91288328D01*
X157298206Y-91288335D01*
X157384452Y-91403544D01*
X157384455Y-91403547D01*
X157499664Y-91489793D01*
X157499671Y-91489797D01*
X157634517Y-91540091D01*
X157634516Y-91540091D01*
X157641444Y-91540835D01*
X157694127Y-91546500D01*
X159297872Y-91546499D01*
X159357483Y-91540091D01*
X159492331Y-91489796D01*
X159581388Y-91423127D01*
X159646851Y-91398710D01*
X159715125Y-91413561D01*
X159764530Y-91462966D01*
X159779383Y-91531239D01*
X159779227Y-91533200D01*
X159776708Y-91561996D01*
X159776708Y-91562002D01*
X159795838Y-91780668D01*
X159795839Y-91780675D01*
X159803761Y-91810238D01*
X159852653Y-91992703D01*
X159852654Y-91992706D01*
X159852655Y-91992708D01*
X159945419Y-92191642D01*
X159945423Y-92191650D01*
X160071322Y-92371452D01*
X160071327Y-92371458D01*
X160226541Y-92526672D01*
X160226547Y-92526677D01*
X160406349Y-92652576D01*
X160406351Y-92652577D01*
X160406354Y-92652579D01*
X160605297Y-92745347D01*
X160817326Y-92802161D01*
X160973521Y-92815826D01*
X161035998Y-92821292D01*
X161036000Y-92821292D01*
X161036002Y-92821292D01*
X161090668Y-92816509D01*
X161254674Y-92802161D01*
X161466703Y-92745347D01*
X161665646Y-92652579D01*
X161845457Y-92526674D01*
X162000674Y-92371457D01*
X162126579Y-92191646D01*
X162219347Y-91992703D01*
X162276161Y-91780674D01*
X162295292Y-91562000D01*
X162292772Y-91533200D01*
X162286628Y-91462966D01*
X162276161Y-91343326D01*
X162219347Y-91131297D01*
X162126579Y-90932354D01*
X162126577Y-90932351D01*
X162126576Y-90932349D01*
X162000677Y-90752547D01*
X162000672Y-90752541D01*
X161845458Y-90597327D01*
X161845452Y-90597322D01*
X161665650Y-90471423D01*
X161665642Y-90471419D01*
X161521879Y-90404382D01*
X161469439Y-90358210D01*
X161450287Y-90291017D01*
X161470502Y-90224136D01*
X161521879Y-90179618D01*
X161665646Y-90112579D01*
X161845457Y-89986674D01*
X162000674Y-89831457D01*
X162126579Y-89651646D01*
X162219347Y-89452703D01*
X162276161Y-89240674D01*
X162290509Y-89076668D01*
X162295292Y-89022002D01*
X162295292Y-89021997D01*
X162279595Y-88842579D01*
X162276161Y-88803326D01*
X162219347Y-88591297D01*
X162126579Y-88392354D01*
X162126577Y-88392351D01*
X162126576Y-88392349D01*
X162000677Y-88212547D01*
X162000672Y-88212541D01*
X161845458Y-88057327D01*
X161845452Y-88057322D01*
X161665650Y-87931423D01*
X161665642Y-87931419D01*
X161526280Y-87866434D01*
X161521878Y-87864381D01*
X161469439Y-87818210D01*
X161450287Y-87751017D01*
X161470502Y-87684136D01*
X161521879Y-87639618D01*
X161665646Y-87572579D01*
X161845457Y-87446674D01*
X162000674Y-87291457D01*
X162126579Y-87111646D01*
X162219347Y-86912703D01*
X162276161Y-86700674D01*
X162290509Y-86536668D01*
X162295292Y-86482002D01*
X162295292Y-86481997D01*
X162276161Y-86263331D01*
X162276161Y-86263326D01*
X162219347Y-86051297D01*
X162126579Y-85852354D01*
X162126577Y-85852351D01*
X162126576Y-85852349D01*
X162000677Y-85672547D01*
X162000672Y-85672541D01*
X161845458Y-85517327D01*
X161845452Y-85517322D01*
X161665650Y-85391423D01*
X161665642Y-85391419D01*
X161466708Y-85298655D01*
X161466706Y-85298654D01*
X161466703Y-85298653D01*
X161315885Y-85258240D01*
X161254675Y-85241839D01*
X161254668Y-85241838D01*
X161036002Y-85222708D01*
X161035998Y-85222708D01*
X160817331Y-85241838D01*
X160817324Y-85241839D01*
X160694902Y-85274642D01*
X160605297Y-85298653D01*
X160605295Y-85298653D01*
X160605291Y-85298655D01*
X160406357Y-85391419D01*
X160406349Y-85391423D01*
X160226547Y-85517322D01*
X160226541Y-85517327D01*
X160071327Y-85672541D01*
X160071322Y-85672547D01*
X159945423Y-85852349D01*
X159945419Y-85852357D01*
X159852655Y-86051291D01*
X159795839Y-86263324D01*
X159795838Y-86263331D01*
X159776708Y-86481997D01*
X159776708Y-86482002D01*
X159792404Y-86661421D01*
X159795839Y-86700674D01*
X159852653Y-86912703D01*
X159852654Y-86912706D01*
X159852655Y-86912708D01*
X159945419Y-87111642D01*
X159945423Y-87111650D01*
X160071322Y-87291452D01*
X160071327Y-87291458D01*
X160226541Y-87446672D01*
X160226547Y-87446677D01*
X160406349Y-87572576D01*
X160406351Y-87572577D01*
X160406354Y-87572579D01*
X160490963Y-87612032D01*
X160550120Y-87639618D01*
X160602560Y-87685790D01*
X160621712Y-87752983D01*
X160601496Y-87819865D01*
X160550120Y-87864382D01*
X160406357Y-87931419D01*
X160406349Y-87931423D01*
X160226547Y-88057322D01*
X160226541Y-88057327D01*
X160071327Y-88212541D01*
X160071322Y-88212547D01*
X159945423Y-88392349D01*
X159945419Y-88392357D01*
X159852655Y-88591291D01*
X159852653Y-88591295D01*
X159852653Y-88591297D01*
X159833272Y-88663627D01*
X159795839Y-88803324D01*
X159795838Y-88803331D01*
X159776708Y-89021997D01*
X159776708Y-89022003D01*
X159779227Y-89050799D01*
X159765460Y-89119299D01*
X159716844Y-89169481D01*
X159648815Y-89185414D01*
X159582972Y-89162038D01*
X159581388Y-89160872D01*
X159548743Y-89136434D01*
X159492331Y-89094204D01*
X159492329Y-89094203D01*
X159492328Y-89094202D01*
X159357482Y-89043908D01*
X159357483Y-89043908D01*
X159297883Y-89037501D01*
X159297881Y-89037500D01*
X159297873Y-89037500D01*
X159297865Y-89037500D01*
X159240547Y-89037500D01*
X159173508Y-89017815D01*
X159127753Y-88965011D01*
X159117809Y-88895853D01*
X159146834Y-88832297D01*
X159169424Y-88811925D01*
X159305457Y-88716674D01*
X159460674Y-88561457D01*
X159586579Y-88381646D01*
X159679347Y-88182703D01*
X159736161Y-87970674D01*
X159750509Y-87806668D01*
X159755292Y-87752002D01*
X159755292Y-87751997D01*
X159736161Y-87533331D01*
X159736161Y-87533326D01*
X159679347Y-87321297D01*
X159586579Y-87122354D01*
X159586577Y-87122351D01*
X159586576Y-87122349D01*
X159460677Y-86942547D01*
X159460672Y-86942541D01*
X159305458Y-86787327D01*
X159305452Y-86787322D01*
X159125650Y-86661423D01*
X159125642Y-86661419D01*
X158926708Y-86568655D01*
X158926706Y-86568654D01*
X158926703Y-86568653D01*
X158775885Y-86528240D01*
X158714675Y-86511839D01*
X158714668Y-86511838D01*
X158496002Y-86492708D01*
X158495998Y-86492708D01*
X158277331Y-86511838D01*
X158277324Y-86511839D01*
X158154902Y-86544642D01*
X158065297Y-86568653D01*
X158065295Y-86568653D01*
X158065291Y-86568655D01*
X157866357Y-86661419D01*
X157866349Y-86661423D01*
X157686547Y-86787322D01*
X157686541Y-86787327D01*
X157531327Y-86942541D01*
X157531322Y-86942547D01*
X157405423Y-87122349D01*
X157405419Y-87122357D01*
X157312655Y-87321291D01*
X157255839Y-87533324D01*
X157255838Y-87533331D01*
X157236708Y-87751997D01*
X157236708Y-87752002D01*
X126451919Y-87752002D01*
X126444242Y-87733467D01*
X126392259Y-87666550D01*
X125947457Y-87221747D01*
X125947456Y-87221746D01*
X125947448Y-87221739D01*
X125880541Y-87169766D01*
X125747576Y-87114691D01*
X125663506Y-87104131D01*
X125663503Y-87104131D01*
X125034456Y-87104131D01*
X125034452Y-87104131D01*
X124950382Y-87114691D01*
X124817417Y-87169766D01*
X124750498Y-87221751D01*
X124750491Y-87221757D01*
X124305696Y-87666551D01*
X124305687Y-87666561D01*
X124253714Y-87733468D01*
X124198639Y-87866433D01*
X124198639Y-87866434D01*
X124188079Y-87950503D01*
X124188079Y-88351525D01*
X124168394Y-88418564D01*
X124115590Y-88464319D01*
X124046432Y-88474263D01*
X123988013Y-88449454D01*
X123975541Y-88439766D01*
X123842576Y-88384691D01*
X123758506Y-88374131D01*
X123758503Y-88374131D01*
X123129456Y-88374131D01*
X123129452Y-88374131D01*
X123045382Y-88384691D01*
X122912417Y-88439766D01*
X122845498Y-88491751D01*
X122845491Y-88491757D01*
X122400696Y-88936551D01*
X122400687Y-88936561D01*
X122348714Y-89003468D01*
X122293639Y-89136433D01*
X122293639Y-89136434D01*
X122283079Y-89220503D01*
X122283079Y-89849557D01*
X119888000Y-89849557D01*
X119888000Y-83381594D01*
X165481686Y-83381594D01*
X165512114Y-83658125D01*
X165582478Y-83927272D01*
X165637726Y-84057283D01*
X165691284Y-84183314D01*
X165836205Y-84420776D01*
X165836212Y-84420786D01*
X166014161Y-84634616D01*
X166014167Y-84634621D01*
X166179918Y-84783133D01*
X166221357Y-84820263D01*
X166453373Y-84973763D01*
X166705267Y-85091846D01*
X166705274Y-85091848D01*
X166705276Y-85091849D01*
X166971657Y-85171992D01*
X166971664Y-85171993D01*
X166971669Y-85171995D01*
X167246901Y-85212500D01*
X167246906Y-85212500D01*
X167455469Y-85212500D01*
X167515862Y-85208079D01*
X167663455Y-85197277D01*
X167934997Y-85136788D01*
X168194838Y-85037408D01*
X168437440Y-84901253D01*
X168657632Y-84731226D01*
X168850722Y-84530951D01*
X169012593Y-84304696D01*
X169088580Y-84156900D01*
X169139790Y-84057298D01*
X169139794Y-84057288D01*
X169139797Y-84057283D01*
X169229621Y-83793986D01*
X169280152Y-83520416D01*
X169290313Y-83242404D01*
X169259886Y-82965876D01*
X169189520Y-82696724D01*
X169080716Y-82440686D01*
X168935792Y-82203219D01*
X168844112Y-82093053D01*
X168757838Y-81989383D01*
X168757832Y-81989378D01*
X168550643Y-81803737D01*
X168318629Y-81650238D01*
X168318627Y-81650237D01*
X168066733Y-81532154D01*
X168066728Y-81532152D01*
X168066723Y-81532150D01*
X167800342Y-81452007D01*
X167800328Y-81452004D01*
X167681565Y-81434526D01*
X167525099Y-81411500D01*
X167316537Y-81411500D01*
X167316531Y-81411500D01*
X167108545Y-81426723D01*
X167108535Y-81426724D01*
X166837007Y-81487210D01*
X166836997Y-81487213D01*
X166577161Y-81586592D01*
X166334561Y-81722746D01*
X166334556Y-81722749D01*
X166114369Y-81892772D01*
X166114359Y-81892781D01*
X165921281Y-82093045D01*
X165921274Y-82093053D01*
X165759412Y-82319295D01*
X165759405Y-82319307D01*
X165632209Y-82566701D01*
X165632205Y-82566711D01*
X165542379Y-82830012D01*
X165542378Y-82830018D01*
X165491848Y-83103584D01*
X165491847Y-83103591D01*
X165481686Y-83381594D01*
X119888000Y-83381594D01*
X119888000Y-76578000D01*
X119907685Y-76510961D01*
X119960489Y-76465206D01*
X120012000Y-76454000D01*
X175491500Y-76454000D01*
X175558539Y-76473685D01*
G37*
G04 #@! TD.AperFunction*
M02*
