G04 #@! TF.GenerationSoftware,KiCad,Pcbnew,7.0.6*
G04 #@! TF.CreationDate,2023-12-02T16:45:52-07:00*
G04 #@! TF.ProjectId,Temperature Senor Board V2 (2),54656d70-6572-4617-9475-72652053656e,rev?*
G04 #@! TF.SameCoordinates,Original*
G04 #@! TF.FileFunction,Legend,Top*
G04 #@! TF.FilePolarity,Positive*
%FSLAX46Y46*%
G04 Gerber Fmt 4.6, Leading zero omitted, Abs format (unit mm)*
G04 Created by KiCad (PCBNEW 7.0.6) date 2023-12-02 16:45:52*
%MOMM*%
%LPD*%
G01*
G04 APERTURE LIST*
G04 Aperture macros list*
%AMRoundRect*
0 Rectangle with rounded corners*
0 $1 Rounding radius*
0 $2 $3 $4 $5 $6 $7 $8 $9 X,Y pos of 4 corners*
0 Add a 4 corners polygon primitive as box body*
4,1,4,$2,$3,$4,$5,$6,$7,$8,$9,$2,$3,0*
0 Add four circle primitives for the rounded corners*
1,1,$1+$1,$2,$3*
1,1,$1+$1,$4,$5*
1,1,$1+$1,$6,$7*
1,1,$1+$1,$8,$9*
0 Add four rect primitives between the rounded corners*
20,1,$1+$1,$2,$3,$4,$5,0*
20,1,$1+$1,$4,$5,$6,$7,0*
20,1,$1+$1,$6,$7,$8,$9,0*
20,1,$1+$1,$8,$9,$2,$3,0*%
%AMFreePoly0*
4,1,25,0.333266,0.742596,0.345389,0.732242,0.732242,0.345389,0.760749,0.289441,0.762000,0.273547,0.762000,-0.273547,0.742596,-0.333266,0.732242,-0.345389,0.345389,-0.732242,0.289441,-0.760749,0.273547,-0.762000,-0.273547,-0.762000,-0.333266,-0.742596,-0.345389,-0.732242,-0.732242,-0.345389,-0.760749,-0.289441,-0.762000,-0.273547,-0.762000,0.273547,-0.742596,0.333266,-0.732242,0.345389,
-0.345389,0.732242,-0.289441,0.760749,-0.273547,0.762000,0.273547,0.762000,0.333266,0.742596,0.333266,0.742596,$1*%
G04 Aperture macros list end*
%ADD10C,0.127000*%
%ADD11C,0.101600*%
%ADD12FreePoly0,270.000000*%
%ADD13C,3.300000*%
%ADD14RoundRect,0.101600X0.754000X-0.754000X0.754000X0.754000X-0.754000X0.754000X-0.754000X-0.754000X0*%
%ADD15C,1.711200*%
%ADD16C,2.678200*%
%ADD17RoundRect,0.101600X-0.750000X0.650000X-0.750000X-0.650000X0.750000X-0.650000X0.750000X0.650000X0*%
G04 APERTURE END LIST*
D10*
X157168409Y-78932514D02*
X157821552Y-78932514D01*
X157494980Y-80075514D02*
X157494980Y-78932514D01*
X158202551Y-79476800D02*
X158583551Y-79476800D01*
X158746837Y-80075514D02*
X158202551Y-80075514D01*
X158202551Y-80075514D02*
X158202551Y-78932514D01*
X158202551Y-78932514D02*
X158746837Y-78932514D01*
X159236694Y-80075514D02*
X159236694Y-78932514D01*
X159236694Y-78932514D02*
X159617694Y-79748943D01*
X159617694Y-79748943D02*
X159998694Y-78932514D01*
X159998694Y-78932514D02*
X159998694Y-80075514D01*
X160542980Y-80075514D02*
X160542980Y-78932514D01*
X160542980Y-78932514D02*
X160978409Y-78932514D01*
X160978409Y-78932514D02*
X161087266Y-78986943D01*
X161087266Y-78986943D02*
X161141695Y-79041371D01*
X161141695Y-79041371D02*
X161196123Y-79150228D01*
X161196123Y-79150228D02*
X161196123Y-79313514D01*
X161196123Y-79313514D02*
X161141695Y-79422371D01*
X161141695Y-79422371D02*
X161087266Y-79476800D01*
X161087266Y-79476800D02*
X160978409Y-79531228D01*
X160978409Y-79531228D02*
X160542980Y-79531228D01*
X161413838Y-80184371D02*
X162284695Y-80184371D01*
X162502409Y-80021086D02*
X162665695Y-80075514D01*
X162665695Y-80075514D02*
X162937837Y-80075514D01*
X162937837Y-80075514D02*
X163046695Y-80021086D01*
X163046695Y-80021086D02*
X163101123Y-79966657D01*
X163101123Y-79966657D02*
X163155552Y-79857800D01*
X163155552Y-79857800D02*
X163155552Y-79748943D01*
X163155552Y-79748943D02*
X163101123Y-79640086D01*
X163101123Y-79640086D02*
X163046695Y-79585657D01*
X163046695Y-79585657D02*
X162937837Y-79531228D01*
X162937837Y-79531228D02*
X162720123Y-79476800D01*
X162720123Y-79476800D02*
X162611266Y-79422371D01*
X162611266Y-79422371D02*
X162556837Y-79367943D01*
X162556837Y-79367943D02*
X162502409Y-79259086D01*
X162502409Y-79259086D02*
X162502409Y-79150228D01*
X162502409Y-79150228D02*
X162556837Y-79041371D01*
X162556837Y-79041371D02*
X162611266Y-78986943D01*
X162611266Y-78986943D02*
X162720123Y-78932514D01*
X162720123Y-78932514D02*
X162992266Y-78932514D01*
X162992266Y-78932514D02*
X163155552Y-78986943D01*
X163645408Y-79476800D02*
X164026408Y-79476800D01*
X164189694Y-80075514D02*
X163645408Y-80075514D01*
X163645408Y-80075514D02*
X163645408Y-78932514D01*
X163645408Y-78932514D02*
X164189694Y-78932514D01*
X164679551Y-80075514D02*
X164679551Y-78932514D01*
X164679551Y-78932514D02*
X165332694Y-80075514D01*
X165332694Y-80075514D02*
X165332694Y-78932514D01*
X165822552Y-80021086D02*
X165985838Y-80075514D01*
X165985838Y-80075514D02*
X166257980Y-80075514D01*
X166257980Y-80075514D02*
X166366838Y-80021086D01*
X166366838Y-80021086D02*
X166421266Y-79966657D01*
X166421266Y-79966657D02*
X166475695Y-79857800D01*
X166475695Y-79857800D02*
X166475695Y-79748943D01*
X166475695Y-79748943D02*
X166421266Y-79640086D01*
X166421266Y-79640086D02*
X166366838Y-79585657D01*
X166366838Y-79585657D02*
X166257980Y-79531228D01*
X166257980Y-79531228D02*
X166040266Y-79476800D01*
X166040266Y-79476800D02*
X165931409Y-79422371D01*
X165931409Y-79422371D02*
X165876980Y-79367943D01*
X165876980Y-79367943D02*
X165822552Y-79259086D01*
X165822552Y-79259086D02*
X165822552Y-79150228D01*
X165822552Y-79150228D02*
X165876980Y-79041371D01*
X165876980Y-79041371D02*
X165931409Y-78986943D01*
X165931409Y-78986943D02*
X166040266Y-78932514D01*
X166040266Y-78932514D02*
X166312409Y-78932514D01*
X166312409Y-78932514D02*
X166475695Y-78986943D01*
X167183266Y-78932514D02*
X167400980Y-78932514D01*
X167400980Y-78932514D02*
X167509837Y-78986943D01*
X167509837Y-78986943D02*
X167618694Y-79095800D01*
X167618694Y-79095800D02*
X167673123Y-79313514D01*
X167673123Y-79313514D02*
X167673123Y-79694514D01*
X167673123Y-79694514D02*
X167618694Y-79912228D01*
X167618694Y-79912228D02*
X167509837Y-80021086D01*
X167509837Y-80021086D02*
X167400980Y-80075514D01*
X167400980Y-80075514D02*
X167183266Y-80075514D01*
X167183266Y-80075514D02*
X167074409Y-80021086D01*
X167074409Y-80021086D02*
X166965551Y-79912228D01*
X166965551Y-79912228D02*
X166911123Y-79694514D01*
X166911123Y-79694514D02*
X166911123Y-79313514D01*
X166911123Y-79313514D02*
X166965551Y-79095800D01*
X166965551Y-79095800D02*
X167074409Y-78986943D01*
X167074409Y-78986943D02*
X167183266Y-78932514D01*
X168816123Y-80075514D02*
X168435123Y-79531228D01*
X168162980Y-80075514D02*
X168162980Y-78932514D01*
X168162980Y-78932514D02*
X168598409Y-78932514D01*
X168598409Y-78932514D02*
X168707266Y-78986943D01*
X168707266Y-78986943D02*
X168761695Y-79041371D01*
X168761695Y-79041371D02*
X168816123Y-79150228D01*
X168816123Y-79150228D02*
X168816123Y-79313514D01*
X168816123Y-79313514D02*
X168761695Y-79422371D01*
X168761695Y-79422371D02*
X168707266Y-79476800D01*
X168707266Y-79476800D02*
X168598409Y-79531228D01*
X168598409Y-79531228D02*
X168162980Y-79531228D01*
X169033838Y-80184371D02*
X169904695Y-80184371D01*
X170775552Y-80075514D02*
X170122409Y-80075514D01*
X170448980Y-80075514D02*
X170448980Y-78932514D01*
X170448980Y-78932514D02*
X170340123Y-79095800D01*
X170340123Y-79095800D02*
X170231266Y-79204657D01*
X170231266Y-79204657D02*
X170122409Y-79259086D01*
X122761734Y-84562514D02*
X122108591Y-84562514D01*
X122435162Y-84562514D02*
X122435162Y-83419514D01*
X122435162Y-83419514D02*
X122326305Y-83582800D01*
X122326305Y-83582800D02*
X122217448Y-83691657D01*
X122217448Y-83691657D02*
X122108591Y-83746086D01*
X121927162Y-91420514D02*
X122634734Y-91420514D01*
X122634734Y-91420514D02*
X122253734Y-91855943D01*
X122253734Y-91855943D02*
X122417019Y-91855943D01*
X122417019Y-91855943D02*
X122525877Y-91910371D01*
X122525877Y-91910371D02*
X122580305Y-91964800D01*
X122580305Y-91964800D02*
X122634734Y-92073657D01*
X122634734Y-92073657D02*
X122634734Y-92345800D01*
X122634734Y-92345800D02*
X122580305Y-92454657D01*
X122580305Y-92454657D02*
X122525877Y-92509086D01*
X122525877Y-92509086D02*
X122417019Y-92563514D01*
X122417019Y-92563514D02*
X122090448Y-92563514D01*
X122090448Y-92563514D02*
X121981591Y-92509086D01*
X121981591Y-92509086D02*
X121927162Y-92454657D01*
X126172591Y-88227371D02*
X126227019Y-88172943D01*
X126227019Y-88172943D02*
X126335877Y-88118514D01*
X126335877Y-88118514D02*
X126608019Y-88118514D01*
X126608019Y-88118514D02*
X126716877Y-88172943D01*
X126716877Y-88172943D02*
X126771305Y-88227371D01*
X126771305Y-88227371D02*
X126825734Y-88336228D01*
X126825734Y-88336228D02*
X126825734Y-88445086D01*
X126825734Y-88445086D02*
X126771305Y-88608371D01*
X126771305Y-88608371D02*
X126118162Y-89261514D01*
X126118162Y-89261514D02*
X126825734Y-89261514D01*
D11*
X154639326Y-95963138D02*
X155473897Y-95963138D01*
X155473897Y-95963138D02*
X155640811Y-96018777D01*
X155640811Y-96018777D02*
X155752088Y-96130053D01*
X155752088Y-96130053D02*
X155807726Y-96296967D01*
X155807726Y-96296967D02*
X155807726Y-96408243D01*
X154750602Y-95462395D02*
X154694964Y-95406757D01*
X154694964Y-95406757D02*
X154639326Y-95295481D01*
X154639326Y-95295481D02*
X154639326Y-95017290D01*
X154639326Y-95017290D02*
X154694964Y-94906014D01*
X154694964Y-94906014D02*
X154750602Y-94850376D01*
X154750602Y-94850376D02*
X154861878Y-94794738D01*
X154861878Y-94794738D02*
X154973154Y-94794738D01*
X154973154Y-94794738D02*
X155140068Y-94850376D01*
X155140068Y-94850376D02*
X155807726Y-95518033D01*
X155807726Y-95518033D02*
X155807726Y-94794738D01*
X135211775Y-84797792D02*
X135211775Y-85576726D01*
X134933584Y-84352688D02*
X134655394Y-85187259D01*
X134655394Y-85187259D02*
X135378689Y-85187259D01*
X135823794Y-85465449D02*
X135879432Y-85521088D01*
X135879432Y-85521088D02*
X135823794Y-85576726D01*
X135823794Y-85576726D02*
X135768156Y-85521088D01*
X135768156Y-85521088D02*
X135823794Y-85465449D01*
X135823794Y-85465449D02*
X135823794Y-85576726D01*
X136268899Y-84408326D02*
X137047832Y-84408326D01*
X137047832Y-84408326D02*
X136547089Y-85576726D01*
X137492937Y-85576726D02*
X137492937Y-84408326D01*
X137604213Y-85131621D02*
X137938042Y-85576726D01*
X137938042Y-84797792D02*
X137492937Y-85242897D01*
D10*
X123189979Y-85610131D02*
X123189979Y-86011331D01*
X121792979Y-86170531D02*
X121792979Y-90359531D01*
X123189979Y-87978731D02*
X123189979Y-88551331D01*
X123189979Y-90518731D02*
X123189979Y-90919931D01*
X125992479Y-87478732D02*
G75*
G03*
X123189979Y-85610132I-2548479J-786298D01*
G01*
X123189979Y-85610130D02*
G75*
G03*
X121792979Y-86170431I253950J-2654895D01*
G01*
X121792980Y-90359529D02*
G75*
G03*
X125992379Y-89051331I1650989J2094488D01*
G01*
X156976000Y-96552000D02*
X175516000Y-96552000D01*
X156976000Y-96552000D02*
X156976000Y-80222000D01*
X175516000Y-96552000D02*
X175516000Y-80222000D01*
X156976000Y-80222000D02*
X175516000Y-80222000D01*
%LPC*%
D12*
X123443979Y-86995031D03*
X125348979Y-88265031D03*
X123443979Y-89535031D03*
D13*
X167386000Y-93472000D03*
X167386000Y-83312000D03*
D14*
X158496000Y-90292000D03*
D15*
X158496000Y-87752000D03*
X158496000Y-85212000D03*
X161036000Y-91562000D03*
X161036000Y-89022000D03*
X161036000Y-86482000D03*
D16*
X170436000Y-95252000D03*
X170436000Y-81532000D03*
D17*
X135890000Y-87762000D03*
X135890000Y-89662000D03*
%LPD*%
M02*
