%TF.GenerationSoftware,KiCad,Pcbnew,7.0.2*%
%TF.CreationDate,2024-01-01T15:49:59-07:00*%
%TF.ProjectId,Temperature Sensor Board 2,54656d70-6572-4617-9475-72652053656e,rev?*%
%TF.SameCoordinates,Original*%
%TF.FileFunction,Drillmap*%
%TF.FilePolarity,Positive*%
%FSLAX45Y45*%
G04 Gerber Fmt 4.5, Leading zero omitted, Abs format (unit mm)*
G04 Created by KiCad (PCBNEW 7.0.2) date 2024-01-01 15:49:59*
%MOMM*%
%LPD*%
G01*
G04 APERTURE LIST*
%ADD10C,0.100000*%
%ADD11C,0.200000*%
%ADD12C,0.330000*%
G04 APERTURE END LIST*
D10*
X10968735Y-8416035D02*
X15100300Y-8416035D01*
X15100300Y-10401300D01*
X10968735Y-10401300D01*
X10968735Y-8416035D01*
D11*
D12*
X14105735Y-8848435D02*
X14435735Y-9178435D01*
X14435735Y-8848435D02*
X14105735Y-9178435D01*
X14105735Y-9864435D02*
X14435735Y-10194435D01*
X14435735Y-9864435D02*
X14105735Y-10194435D01*
D11*
X11211354Y-10718824D02*
X11211354Y-10518824D01*
X11211354Y-10518824D02*
X11258973Y-10518824D01*
X11258973Y-10518824D02*
X11287545Y-10528348D01*
X11287545Y-10528348D02*
X11306592Y-10547395D01*
X11306592Y-10547395D02*
X11316116Y-10566443D01*
X11316116Y-10566443D02*
X11325640Y-10604538D01*
X11325640Y-10604538D02*
X11325640Y-10633110D01*
X11325640Y-10633110D02*
X11316116Y-10671205D01*
X11316116Y-10671205D02*
X11306592Y-10690252D01*
X11306592Y-10690252D02*
X11287545Y-10709300D01*
X11287545Y-10709300D02*
X11258973Y-10718824D01*
X11258973Y-10718824D02*
X11211354Y-10718824D01*
X11411354Y-10718824D02*
X11411354Y-10585490D01*
X11411354Y-10623586D02*
X11420878Y-10604538D01*
X11420878Y-10604538D02*
X11430402Y-10595014D01*
X11430402Y-10595014D02*
X11449450Y-10585490D01*
X11449450Y-10585490D02*
X11468497Y-10585490D01*
X11535164Y-10718824D02*
X11535164Y-10585490D01*
X11535164Y-10518824D02*
X11525640Y-10528348D01*
X11525640Y-10528348D02*
X11535164Y-10537871D01*
X11535164Y-10537871D02*
X11544688Y-10528348D01*
X11544688Y-10528348D02*
X11535164Y-10518824D01*
X11535164Y-10518824D02*
X11535164Y-10537871D01*
X11658973Y-10718824D02*
X11639926Y-10709300D01*
X11639926Y-10709300D02*
X11630402Y-10690252D01*
X11630402Y-10690252D02*
X11630402Y-10518824D01*
X11763735Y-10718824D02*
X11744688Y-10709300D01*
X11744688Y-10709300D02*
X11735164Y-10690252D01*
X11735164Y-10690252D02*
X11735164Y-10518824D01*
X11992307Y-10718824D02*
X11992307Y-10518824D01*
X11992307Y-10518824D02*
X12058973Y-10661681D01*
X12058973Y-10661681D02*
X12125640Y-10518824D01*
X12125640Y-10518824D02*
X12125640Y-10718824D01*
X12306592Y-10718824D02*
X12306592Y-10614062D01*
X12306592Y-10614062D02*
X12297069Y-10595014D01*
X12297069Y-10595014D02*
X12278021Y-10585490D01*
X12278021Y-10585490D02*
X12239926Y-10585490D01*
X12239926Y-10585490D02*
X12220878Y-10595014D01*
X12306592Y-10709300D02*
X12287545Y-10718824D01*
X12287545Y-10718824D02*
X12239926Y-10718824D01*
X12239926Y-10718824D02*
X12220878Y-10709300D01*
X12220878Y-10709300D02*
X12211354Y-10690252D01*
X12211354Y-10690252D02*
X12211354Y-10671205D01*
X12211354Y-10671205D02*
X12220878Y-10652157D01*
X12220878Y-10652157D02*
X12239926Y-10642633D01*
X12239926Y-10642633D02*
X12287545Y-10642633D01*
X12287545Y-10642633D02*
X12306592Y-10633110D01*
X12401831Y-10585490D02*
X12401831Y-10785490D01*
X12401831Y-10595014D02*
X12420878Y-10585490D01*
X12420878Y-10585490D02*
X12458973Y-10585490D01*
X12458973Y-10585490D02*
X12478021Y-10595014D01*
X12478021Y-10595014D02*
X12487545Y-10604538D01*
X12487545Y-10604538D02*
X12497069Y-10623586D01*
X12497069Y-10623586D02*
X12497069Y-10680729D01*
X12497069Y-10680729D02*
X12487545Y-10699776D01*
X12487545Y-10699776D02*
X12478021Y-10709300D01*
X12478021Y-10709300D02*
X12458973Y-10718824D01*
X12458973Y-10718824D02*
X12420878Y-10718824D01*
X12420878Y-10718824D02*
X12401831Y-10709300D01*
X12582783Y-10699776D02*
X12592307Y-10709300D01*
X12592307Y-10709300D02*
X12582783Y-10718824D01*
X12582783Y-10718824D02*
X12573259Y-10709300D01*
X12573259Y-10709300D02*
X12582783Y-10699776D01*
X12582783Y-10699776D02*
X12582783Y-10718824D01*
X12582783Y-10595014D02*
X12592307Y-10604538D01*
X12592307Y-10604538D02*
X12582783Y-10614062D01*
X12582783Y-10614062D02*
X12573259Y-10604538D01*
X12573259Y-10604538D02*
X12582783Y-10595014D01*
X12582783Y-10595014D02*
X12582783Y-10614062D01*
X10763735Y-10946300D02*
X10963735Y-11146300D01*
X10963735Y-10946300D02*
X10763735Y-11146300D01*
X11192307Y-10938824D02*
X11316116Y-10938824D01*
X11316116Y-10938824D02*
X11249450Y-11015014D01*
X11249450Y-11015014D02*
X11278021Y-11015014D01*
X11278021Y-11015014D02*
X11297069Y-11024538D01*
X11297069Y-11024538D02*
X11306592Y-11034062D01*
X11306592Y-11034062D02*
X11316116Y-11053110D01*
X11316116Y-11053110D02*
X11316116Y-11100729D01*
X11316116Y-11100729D02*
X11306592Y-11119776D01*
X11306592Y-11119776D02*
X11297069Y-11129300D01*
X11297069Y-11129300D02*
X11278021Y-11138824D01*
X11278021Y-11138824D02*
X11220878Y-11138824D01*
X11220878Y-11138824D02*
X11201831Y-11129300D01*
X11201831Y-11129300D02*
X11192307Y-11119776D01*
X11401831Y-11119776D02*
X11411354Y-11129300D01*
X11411354Y-11129300D02*
X11401831Y-11138824D01*
X11401831Y-11138824D02*
X11392307Y-11129300D01*
X11392307Y-11129300D02*
X11401831Y-11119776D01*
X11401831Y-11119776D02*
X11401831Y-11138824D01*
X11478021Y-10938824D02*
X11601831Y-10938824D01*
X11601831Y-10938824D02*
X11535164Y-11015014D01*
X11535164Y-11015014D02*
X11563735Y-11015014D01*
X11563735Y-11015014D02*
X11582783Y-11024538D01*
X11582783Y-11024538D02*
X11592307Y-11034062D01*
X11592307Y-11034062D02*
X11601831Y-11053110D01*
X11601831Y-11053110D02*
X11601831Y-11100729D01*
X11601831Y-11100729D02*
X11592307Y-11119776D01*
X11592307Y-11119776D02*
X11582783Y-11129300D01*
X11582783Y-11129300D02*
X11563735Y-11138824D01*
X11563735Y-11138824D02*
X11506592Y-11138824D01*
X11506592Y-11138824D02*
X11487545Y-11129300D01*
X11487545Y-11129300D02*
X11478021Y-11119776D01*
X11725640Y-10938824D02*
X11744688Y-10938824D01*
X11744688Y-10938824D02*
X11763735Y-10948348D01*
X11763735Y-10948348D02*
X11773259Y-10957871D01*
X11773259Y-10957871D02*
X11782783Y-10976919D01*
X11782783Y-10976919D02*
X11792307Y-11015014D01*
X11792307Y-11015014D02*
X11792307Y-11062633D01*
X11792307Y-11062633D02*
X11782783Y-11100729D01*
X11782783Y-11100729D02*
X11773259Y-11119776D01*
X11773259Y-11119776D02*
X11763735Y-11129300D01*
X11763735Y-11129300D02*
X11744688Y-11138824D01*
X11744688Y-11138824D02*
X11725640Y-11138824D01*
X11725640Y-11138824D02*
X11706592Y-11129300D01*
X11706592Y-11129300D02*
X11697069Y-11119776D01*
X11697069Y-11119776D02*
X11687545Y-11100729D01*
X11687545Y-11100729D02*
X11678021Y-11062633D01*
X11678021Y-11062633D02*
X11678021Y-11015014D01*
X11678021Y-11015014D02*
X11687545Y-10976919D01*
X11687545Y-10976919D02*
X11697069Y-10957871D01*
X11697069Y-10957871D02*
X11706592Y-10948348D01*
X11706592Y-10948348D02*
X11725640Y-10938824D01*
X11916116Y-10938824D02*
X11935164Y-10938824D01*
X11935164Y-10938824D02*
X11954212Y-10948348D01*
X11954212Y-10948348D02*
X11963735Y-10957871D01*
X11963735Y-10957871D02*
X11973259Y-10976919D01*
X11973259Y-10976919D02*
X11982783Y-11015014D01*
X11982783Y-11015014D02*
X11982783Y-11062633D01*
X11982783Y-11062633D02*
X11973259Y-11100729D01*
X11973259Y-11100729D02*
X11963735Y-11119776D01*
X11963735Y-11119776D02*
X11954212Y-11129300D01*
X11954212Y-11129300D02*
X11935164Y-11138824D01*
X11935164Y-11138824D02*
X11916116Y-11138824D01*
X11916116Y-11138824D02*
X11897069Y-11129300D01*
X11897069Y-11129300D02*
X11887545Y-11119776D01*
X11887545Y-11119776D02*
X11878021Y-11100729D01*
X11878021Y-11100729D02*
X11868497Y-11062633D01*
X11868497Y-11062633D02*
X11868497Y-11015014D01*
X11868497Y-11015014D02*
X11878021Y-10976919D01*
X11878021Y-10976919D02*
X11887545Y-10957871D01*
X11887545Y-10957871D02*
X11897069Y-10948348D01*
X11897069Y-10948348D02*
X11916116Y-10938824D01*
X12068497Y-11138824D02*
X12068497Y-11005490D01*
X12068497Y-11024538D02*
X12078021Y-11015014D01*
X12078021Y-11015014D02*
X12097069Y-11005490D01*
X12097069Y-11005490D02*
X12125640Y-11005490D01*
X12125640Y-11005490D02*
X12144688Y-11015014D01*
X12144688Y-11015014D02*
X12154212Y-11034062D01*
X12154212Y-11034062D02*
X12154212Y-11138824D01*
X12154212Y-11034062D02*
X12163735Y-11015014D01*
X12163735Y-11015014D02*
X12182783Y-11005490D01*
X12182783Y-11005490D02*
X12211354Y-11005490D01*
X12211354Y-11005490D02*
X12230402Y-11015014D01*
X12230402Y-11015014D02*
X12239926Y-11034062D01*
X12239926Y-11034062D02*
X12239926Y-11138824D01*
X12335164Y-11138824D02*
X12335164Y-11005490D01*
X12335164Y-11024538D02*
X12344688Y-11015014D01*
X12344688Y-11015014D02*
X12363735Y-11005490D01*
X12363735Y-11005490D02*
X12392307Y-11005490D01*
X12392307Y-11005490D02*
X12411354Y-11015014D01*
X12411354Y-11015014D02*
X12420878Y-11034062D01*
X12420878Y-11034062D02*
X12420878Y-11138824D01*
X12420878Y-11034062D02*
X12430402Y-11015014D01*
X12430402Y-11015014D02*
X12449450Y-11005490D01*
X12449450Y-11005490D02*
X12478021Y-11005490D01*
X12478021Y-11005490D02*
X12497069Y-11015014D01*
X12497069Y-11015014D02*
X12506593Y-11034062D01*
X12506593Y-11034062D02*
X12506593Y-11138824D01*
X12897069Y-10929300D02*
X12725640Y-11186443D01*
X13154212Y-10938824D02*
X13173259Y-10938824D01*
X13173259Y-10938824D02*
X13192307Y-10948348D01*
X13192307Y-10948348D02*
X13201831Y-10957871D01*
X13201831Y-10957871D02*
X13211355Y-10976919D01*
X13211355Y-10976919D02*
X13220878Y-11015014D01*
X13220878Y-11015014D02*
X13220878Y-11062633D01*
X13220878Y-11062633D02*
X13211355Y-11100729D01*
X13211355Y-11100729D02*
X13201831Y-11119776D01*
X13201831Y-11119776D02*
X13192307Y-11129300D01*
X13192307Y-11129300D02*
X13173259Y-11138824D01*
X13173259Y-11138824D02*
X13154212Y-11138824D01*
X13154212Y-11138824D02*
X13135164Y-11129300D01*
X13135164Y-11129300D02*
X13125640Y-11119776D01*
X13125640Y-11119776D02*
X13116116Y-11100729D01*
X13116116Y-11100729D02*
X13106593Y-11062633D01*
X13106593Y-11062633D02*
X13106593Y-11015014D01*
X13106593Y-11015014D02*
X13116116Y-10976919D01*
X13116116Y-10976919D02*
X13125640Y-10957871D01*
X13125640Y-10957871D02*
X13135164Y-10948348D01*
X13135164Y-10948348D02*
X13154212Y-10938824D01*
X13306593Y-11119776D02*
X13316116Y-11129300D01*
X13316116Y-11129300D02*
X13306593Y-11138824D01*
X13306593Y-11138824D02*
X13297069Y-11129300D01*
X13297069Y-11129300D02*
X13306593Y-11119776D01*
X13306593Y-11119776D02*
X13306593Y-11138824D01*
X13506593Y-11138824D02*
X13392307Y-11138824D01*
X13449450Y-11138824D02*
X13449450Y-10938824D01*
X13449450Y-10938824D02*
X13430402Y-10967395D01*
X13430402Y-10967395D02*
X13411355Y-10986443D01*
X13411355Y-10986443D02*
X13392307Y-10995967D01*
X13582783Y-10957871D02*
X13592307Y-10948348D01*
X13592307Y-10948348D02*
X13611355Y-10938824D01*
X13611355Y-10938824D02*
X13658974Y-10938824D01*
X13658974Y-10938824D02*
X13678021Y-10948348D01*
X13678021Y-10948348D02*
X13687545Y-10957871D01*
X13687545Y-10957871D02*
X13697069Y-10976919D01*
X13697069Y-10976919D02*
X13697069Y-10995967D01*
X13697069Y-10995967D02*
X13687545Y-11024538D01*
X13687545Y-11024538D02*
X13573259Y-11138824D01*
X13573259Y-11138824D02*
X13697069Y-11138824D01*
X13792307Y-11138824D02*
X13830402Y-11138824D01*
X13830402Y-11138824D02*
X13849450Y-11129300D01*
X13849450Y-11129300D02*
X13858974Y-11119776D01*
X13858974Y-11119776D02*
X13878021Y-11091205D01*
X13878021Y-11091205D02*
X13887545Y-11053110D01*
X13887545Y-11053110D02*
X13887545Y-10976919D01*
X13887545Y-10976919D02*
X13878021Y-10957871D01*
X13878021Y-10957871D02*
X13868497Y-10948348D01*
X13868497Y-10948348D02*
X13849450Y-10938824D01*
X13849450Y-10938824D02*
X13811355Y-10938824D01*
X13811355Y-10938824D02*
X13792307Y-10948348D01*
X13792307Y-10948348D02*
X13782783Y-10957871D01*
X13782783Y-10957871D02*
X13773259Y-10976919D01*
X13773259Y-10976919D02*
X13773259Y-11024538D01*
X13773259Y-11024538D02*
X13782783Y-11043586D01*
X13782783Y-11043586D02*
X13792307Y-11053110D01*
X13792307Y-11053110D02*
X13811355Y-11062633D01*
X13811355Y-11062633D02*
X13849450Y-11062633D01*
X13849450Y-11062633D02*
X13868497Y-11053110D01*
X13868497Y-11053110D02*
X13878021Y-11043586D01*
X13878021Y-11043586D02*
X13887545Y-11024538D01*
X13982783Y-11138824D02*
X14020878Y-11138824D01*
X14020878Y-11138824D02*
X14039926Y-11129300D01*
X14039926Y-11129300D02*
X14049450Y-11119776D01*
X14049450Y-11119776D02*
X14068497Y-11091205D01*
X14068497Y-11091205D02*
X14078021Y-11053110D01*
X14078021Y-11053110D02*
X14078021Y-10976919D01*
X14078021Y-10976919D02*
X14068497Y-10957871D01*
X14068497Y-10957871D02*
X14058974Y-10948348D01*
X14058974Y-10948348D02*
X14039926Y-10938824D01*
X14039926Y-10938824D02*
X14001831Y-10938824D01*
X14001831Y-10938824D02*
X13982783Y-10948348D01*
X13982783Y-10948348D02*
X13973259Y-10957871D01*
X13973259Y-10957871D02*
X13963736Y-10976919D01*
X13963736Y-10976919D02*
X13963736Y-11024538D01*
X13963736Y-11024538D02*
X13973259Y-11043586D01*
X13973259Y-11043586D02*
X13982783Y-11053110D01*
X13982783Y-11053110D02*
X14001831Y-11062633D01*
X14001831Y-11062633D02*
X14039926Y-11062633D01*
X14039926Y-11062633D02*
X14058974Y-11053110D01*
X14058974Y-11053110D02*
X14068497Y-11043586D01*
X14068497Y-11043586D02*
X14078021Y-11024538D01*
X14154212Y-10938824D02*
X14154212Y-10976919D01*
X14230402Y-10938824D02*
X14230402Y-10976919D01*
X14525640Y-11215014D02*
X14516117Y-11205490D01*
X14516117Y-11205490D02*
X14497069Y-11176919D01*
X14497069Y-11176919D02*
X14487545Y-11157871D01*
X14487545Y-11157871D02*
X14478021Y-11129300D01*
X14478021Y-11129300D02*
X14468498Y-11081681D01*
X14468498Y-11081681D02*
X14468498Y-11043586D01*
X14468498Y-11043586D02*
X14478021Y-10995967D01*
X14478021Y-10995967D02*
X14487545Y-10967395D01*
X14487545Y-10967395D02*
X14497069Y-10948348D01*
X14497069Y-10948348D02*
X14516117Y-10919776D01*
X14516117Y-10919776D02*
X14525640Y-10910252D01*
X14592307Y-10957871D02*
X14601831Y-10948348D01*
X14601831Y-10948348D02*
X14620878Y-10938824D01*
X14620878Y-10938824D02*
X14668498Y-10938824D01*
X14668498Y-10938824D02*
X14687545Y-10948348D01*
X14687545Y-10948348D02*
X14697069Y-10957871D01*
X14697069Y-10957871D02*
X14706593Y-10976919D01*
X14706593Y-10976919D02*
X14706593Y-10995967D01*
X14706593Y-10995967D02*
X14697069Y-11024538D01*
X14697069Y-11024538D02*
X14582783Y-11138824D01*
X14582783Y-11138824D02*
X14706593Y-11138824D01*
X14944688Y-11138824D02*
X14944688Y-10938824D01*
X15030402Y-11138824D02*
X15030402Y-11034062D01*
X15030402Y-11034062D02*
X15020879Y-11015014D01*
X15020879Y-11015014D02*
X15001831Y-11005490D01*
X15001831Y-11005490D02*
X14973259Y-11005490D01*
X14973259Y-11005490D02*
X14954212Y-11015014D01*
X14954212Y-11015014D02*
X14944688Y-11024538D01*
X15154212Y-11138824D02*
X15135164Y-11129300D01*
X15135164Y-11129300D02*
X15125640Y-11119776D01*
X15125640Y-11119776D02*
X15116117Y-11100729D01*
X15116117Y-11100729D02*
X15116117Y-11043586D01*
X15116117Y-11043586D02*
X15125640Y-11024538D01*
X15125640Y-11024538D02*
X15135164Y-11015014D01*
X15135164Y-11015014D02*
X15154212Y-11005490D01*
X15154212Y-11005490D02*
X15182783Y-11005490D01*
X15182783Y-11005490D02*
X15201831Y-11015014D01*
X15201831Y-11015014D02*
X15211355Y-11024538D01*
X15211355Y-11024538D02*
X15220879Y-11043586D01*
X15220879Y-11043586D02*
X15220879Y-11100729D01*
X15220879Y-11100729D02*
X15211355Y-11119776D01*
X15211355Y-11119776D02*
X15201831Y-11129300D01*
X15201831Y-11129300D02*
X15182783Y-11138824D01*
X15182783Y-11138824D02*
X15154212Y-11138824D01*
X15335164Y-11138824D02*
X15316117Y-11129300D01*
X15316117Y-11129300D02*
X15306593Y-11110252D01*
X15306593Y-11110252D02*
X15306593Y-10938824D01*
X15487545Y-11129300D02*
X15468498Y-11138824D01*
X15468498Y-11138824D02*
X15430402Y-11138824D01*
X15430402Y-11138824D02*
X15411355Y-11129300D01*
X15411355Y-11129300D02*
X15401831Y-11110252D01*
X15401831Y-11110252D02*
X15401831Y-11034062D01*
X15401831Y-11034062D02*
X15411355Y-11015014D01*
X15411355Y-11015014D02*
X15430402Y-11005490D01*
X15430402Y-11005490D02*
X15468498Y-11005490D01*
X15468498Y-11005490D02*
X15487545Y-11015014D01*
X15487545Y-11015014D02*
X15497069Y-11034062D01*
X15497069Y-11034062D02*
X15497069Y-11053110D01*
X15497069Y-11053110D02*
X15401831Y-11072157D01*
X15573260Y-11129300D02*
X15592307Y-11138824D01*
X15592307Y-11138824D02*
X15630402Y-11138824D01*
X15630402Y-11138824D02*
X15649450Y-11129300D01*
X15649450Y-11129300D02*
X15658974Y-11110252D01*
X15658974Y-11110252D02*
X15658974Y-11100729D01*
X15658974Y-11100729D02*
X15649450Y-11081681D01*
X15649450Y-11081681D02*
X15630402Y-11072157D01*
X15630402Y-11072157D02*
X15601831Y-11072157D01*
X15601831Y-11072157D02*
X15582783Y-11062633D01*
X15582783Y-11062633D02*
X15573260Y-11043586D01*
X15573260Y-11043586D02*
X15573260Y-11034062D01*
X15573260Y-11034062D02*
X15582783Y-11015014D01*
X15582783Y-11015014D02*
X15601831Y-11005490D01*
X15601831Y-11005490D02*
X15630402Y-11005490D01*
X15630402Y-11005490D02*
X15649450Y-11015014D01*
X15725641Y-11215014D02*
X15735164Y-11205490D01*
X15735164Y-11205490D02*
X15754212Y-11176919D01*
X15754212Y-11176919D02*
X15763736Y-11157871D01*
X15763736Y-11157871D02*
X15773260Y-11129300D01*
X15773260Y-11129300D02*
X15782783Y-11081681D01*
X15782783Y-11081681D02*
X15782783Y-11043586D01*
X15782783Y-11043586D02*
X15773260Y-10995967D01*
X15773260Y-10995967D02*
X15763736Y-10967395D01*
X15763736Y-10967395D02*
X15754212Y-10948348D01*
X15754212Y-10948348D02*
X15735164Y-10919776D01*
X15735164Y-10919776D02*
X15725641Y-10910252D01*
X16087545Y-11215014D02*
X16078021Y-11205490D01*
X16078021Y-11205490D02*
X16058974Y-11176919D01*
X16058974Y-11176919D02*
X16049450Y-11157871D01*
X16049450Y-11157871D02*
X16039926Y-11129300D01*
X16039926Y-11129300D02*
X16030402Y-11081681D01*
X16030402Y-11081681D02*
X16030402Y-11043586D01*
X16030402Y-11043586D02*
X16039926Y-10995967D01*
X16039926Y-10995967D02*
X16049450Y-10967395D01*
X16049450Y-10967395D02*
X16058974Y-10948348D01*
X16058974Y-10948348D02*
X16078021Y-10919776D01*
X16078021Y-10919776D02*
X16087545Y-10910252D01*
X16163736Y-11005490D02*
X16163736Y-11138824D01*
X16163736Y-11024538D02*
X16173260Y-11015014D01*
X16173260Y-11015014D02*
X16192307Y-11005490D01*
X16192307Y-11005490D02*
X16220879Y-11005490D01*
X16220879Y-11005490D02*
X16239926Y-11015014D01*
X16239926Y-11015014D02*
X16249450Y-11034062D01*
X16249450Y-11034062D02*
X16249450Y-11138824D01*
X16373260Y-11138824D02*
X16354212Y-11129300D01*
X16354212Y-11129300D02*
X16344688Y-11119776D01*
X16344688Y-11119776D02*
X16335164Y-11100729D01*
X16335164Y-11100729D02*
X16335164Y-11043586D01*
X16335164Y-11043586D02*
X16344688Y-11024538D01*
X16344688Y-11024538D02*
X16354212Y-11015014D01*
X16354212Y-11015014D02*
X16373260Y-11005490D01*
X16373260Y-11005490D02*
X16401831Y-11005490D01*
X16401831Y-11005490D02*
X16420879Y-11015014D01*
X16420879Y-11015014D02*
X16430402Y-11024538D01*
X16430402Y-11024538D02*
X16439926Y-11043586D01*
X16439926Y-11043586D02*
X16439926Y-11100729D01*
X16439926Y-11100729D02*
X16430402Y-11119776D01*
X16430402Y-11119776D02*
X16420879Y-11129300D01*
X16420879Y-11129300D02*
X16401831Y-11138824D01*
X16401831Y-11138824D02*
X16373260Y-11138824D01*
X16497069Y-11005490D02*
X16573260Y-11005490D01*
X16525641Y-10938824D02*
X16525641Y-11110252D01*
X16525641Y-11110252D02*
X16535164Y-11129300D01*
X16535164Y-11129300D02*
X16554212Y-11138824D01*
X16554212Y-11138824D02*
X16573260Y-11138824D01*
X16792307Y-11005490D02*
X16792307Y-11205490D01*
X16792307Y-11015014D02*
X16811355Y-11005490D01*
X16811355Y-11005490D02*
X16849450Y-11005490D01*
X16849450Y-11005490D02*
X16868498Y-11015014D01*
X16868498Y-11015014D02*
X16878022Y-11024538D01*
X16878022Y-11024538D02*
X16887545Y-11043586D01*
X16887545Y-11043586D02*
X16887545Y-11100729D01*
X16887545Y-11100729D02*
X16878022Y-11119776D01*
X16878022Y-11119776D02*
X16868498Y-11129300D01*
X16868498Y-11129300D02*
X16849450Y-11138824D01*
X16849450Y-11138824D02*
X16811355Y-11138824D01*
X16811355Y-11138824D02*
X16792307Y-11129300D01*
X17001831Y-11138824D02*
X16982784Y-11129300D01*
X16982784Y-11129300D02*
X16973260Y-11110252D01*
X16973260Y-11110252D02*
X16973260Y-10938824D01*
X17163736Y-11138824D02*
X17163736Y-11034062D01*
X17163736Y-11034062D02*
X17154212Y-11015014D01*
X17154212Y-11015014D02*
X17135165Y-11005490D01*
X17135165Y-11005490D02*
X17097069Y-11005490D01*
X17097069Y-11005490D02*
X17078022Y-11015014D01*
X17163736Y-11129300D02*
X17144688Y-11138824D01*
X17144688Y-11138824D02*
X17097069Y-11138824D01*
X17097069Y-11138824D02*
X17078022Y-11129300D01*
X17078022Y-11129300D02*
X17068498Y-11110252D01*
X17068498Y-11110252D02*
X17068498Y-11091205D01*
X17068498Y-11091205D02*
X17078022Y-11072157D01*
X17078022Y-11072157D02*
X17097069Y-11062633D01*
X17097069Y-11062633D02*
X17144688Y-11062633D01*
X17144688Y-11062633D02*
X17163736Y-11053110D01*
X17230403Y-11005490D02*
X17306593Y-11005490D01*
X17258974Y-10938824D02*
X17258974Y-11110252D01*
X17258974Y-11110252D02*
X17268498Y-11129300D01*
X17268498Y-11129300D02*
X17287545Y-11138824D01*
X17287545Y-11138824D02*
X17306593Y-11138824D01*
X17449450Y-11129300D02*
X17430403Y-11138824D01*
X17430403Y-11138824D02*
X17392307Y-11138824D01*
X17392307Y-11138824D02*
X17373260Y-11129300D01*
X17373260Y-11129300D02*
X17363736Y-11110252D01*
X17363736Y-11110252D02*
X17363736Y-11034062D01*
X17363736Y-11034062D02*
X17373260Y-11015014D01*
X17373260Y-11015014D02*
X17392307Y-11005490D01*
X17392307Y-11005490D02*
X17430403Y-11005490D01*
X17430403Y-11005490D02*
X17449450Y-11015014D01*
X17449450Y-11015014D02*
X17458974Y-11034062D01*
X17458974Y-11034062D02*
X17458974Y-11053110D01*
X17458974Y-11053110D02*
X17363736Y-11072157D01*
X17630403Y-11138824D02*
X17630403Y-10938824D01*
X17630403Y-11129300D02*
X17611355Y-11138824D01*
X17611355Y-11138824D02*
X17573260Y-11138824D01*
X17573260Y-11138824D02*
X17554212Y-11129300D01*
X17554212Y-11129300D02*
X17544688Y-11119776D01*
X17544688Y-11119776D02*
X17535165Y-11100729D01*
X17535165Y-11100729D02*
X17535165Y-11043586D01*
X17535165Y-11043586D02*
X17544688Y-11024538D01*
X17544688Y-11024538D02*
X17554212Y-11015014D01*
X17554212Y-11015014D02*
X17573260Y-11005490D01*
X17573260Y-11005490D02*
X17611355Y-11005490D01*
X17611355Y-11005490D02*
X17630403Y-11015014D01*
X17706593Y-11215014D02*
X17716117Y-11205490D01*
X17716117Y-11205490D02*
X17735165Y-11176919D01*
X17735165Y-11176919D02*
X17744688Y-11157871D01*
X17744688Y-11157871D02*
X17754212Y-11129300D01*
X17754212Y-11129300D02*
X17763736Y-11081681D01*
X17763736Y-11081681D02*
X17763736Y-11043586D01*
X17763736Y-11043586D02*
X17754212Y-10995967D01*
X17754212Y-10995967D02*
X17744688Y-10967395D01*
X17744688Y-10967395D02*
X17735165Y-10948348D01*
X17735165Y-10948348D02*
X17716117Y-10919776D01*
X17716117Y-10919776D02*
X17706593Y-10910252D01*
M02*
