%TF.GenerationSoftware,KiCad,Pcbnew,7.0.6*%
%TF.CreationDate,2023-12-02T19:46:23-07:00*%
%TF.ProjectId,Temperature Sensor Board 2,54656d70-6572-4617-9475-72652053656e,rev?*%
%TF.SameCoordinates,Original*%
%TF.FileFunction,Drillmap*%
%TF.FilePolarity,Positive*%
%FSLAX45Y45*%
G04 Gerber Fmt 4.5, Leading zero omitted, Abs format (unit mm)*
G04 Created by KiCad (PCBNEW 7.0.6) date 2023-12-02 19:46:23*
%MOMM*%
%LPD*%
G01*
G04 APERTURE LIST*
%ADD10C,0.100000*%
%ADD11C,0.200000*%
%ADD12C,0.330000*%
G04 APERTURE END LIST*
D10*
X10968735Y-8416035D02*
X15100300Y-8416035D01*
X15100300Y-10401300D01*
X10968735Y-10401300D01*
X10968735Y-8416035D01*
D11*
D12*
X14105735Y-8848435D02*
X14435735Y-9178435D01*
X14435735Y-8848435D02*
X14105735Y-9178435D01*
X14105735Y-9864435D02*
X14435735Y-10194435D01*
X14435735Y-9864435D02*
X14105735Y-10194435D01*
D11*
X11224512Y-10717784D02*
X11224512Y-10517784D01*
X11224512Y-10517784D02*
X11272131Y-10517784D01*
X11272131Y-10517784D02*
X11300703Y-10527308D01*
X11300703Y-10527308D02*
X11319750Y-10546355D01*
X11319750Y-10546355D02*
X11329274Y-10565403D01*
X11329274Y-10565403D02*
X11338798Y-10603498D01*
X11338798Y-10603498D02*
X11338798Y-10632070D01*
X11338798Y-10632070D02*
X11329274Y-10670165D01*
X11329274Y-10670165D02*
X11319750Y-10689212D01*
X11319750Y-10689212D02*
X11300703Y-10708260D01*
X11300703Y-10708260D02*
X11272131Y-10717784D01*
X11272131Y-10717784D02*
X11224512Y-10717784D01*
X11424512Y-10717784D02*
X11424512Y-10584450D01*
X11424512Y-10622546D02*
X11434036Y-10603498D01*
X11434036Y-10603498D02*
X11443560Y-10593974D01*
X11443560Y-10593974D02*
X11462607Y-10584450D01*
X11462607Y-10584450D02*
X11481655Y-10584450D01*
X11548322Y-10717784D02*
X11548322Y-10584450D01*
X11548322Y-10517784D02*
X11538798Y-10527308D01*
X11538798Y-10527308D02*
X11548322Y-10536831D01*
X11548322Y-10536831D02*
X11557845Y-10527308D01*
X11557845Y-10527308D02*
X11548322Y-10517784D01*
X11548322Y-10517784D02*
X11548322Y-10536831D01*
X11672131Y-10717784D02*
X11653084Y-10708260D01*
X11653084Y-10708260D02*
X11643560Y-10689212D01*
X11643560Y-10689212D02*
X11643560Y-10517784D01*
X11776893Y-10717784D02*
X11757845Y-10708260D01*
X11757845Y-10708260D02*
X11748322Y-10689212D01*
X11748322Y-10689212D02*
X11748322Y-10517784D01*
X12005465Y-10717784D02*
X12005465Y-10517784D01*
X12005465Y-10517784D02*
X12072131Y-10660641D01*
X12072131Y-10660641D02*
X12138798Y-10517784D01*
X12138798Y-10517784D02*
X12138798Y-10717784D01*
X12319750Y-10717784D02*
X12319750Y-10613022D01*
X12319750Y-10613022D02*
X12310226Y-10593974D01*
X12310226Y-10593974D02*
X12291179Y-10584450D01*
X12291179Y-10584450D02*
X12253084Y-10584450D01*
X12253084Y-10584450D02*
X12234036Y-10593974D01*
X12319750Y-10708260D02*
X12300703Y-10717784D01*
X12300703Y-10717784D02*
X12253084Y-10717784D01*
X12253084Y-10717784D02*
X12234036Y-10708260D01*
X12234036Y-10708260D02*
X12224512Y-10689212D01*
X12224512Y-10689212D02*
X12224512Y-10670165D01*
X12224512Y-10670165D02*
X12234036Y-10651117D01*
X12234036Y-10651117D02*
X12253084Y-10641593D01*
X12253084Y-10641593D02*
X12300703Y-10641593D01*
X12300703Y-10641593D02*
X12319750Y-10632070D01*
X12414988Y-10584450D02*
X12414988Y-10784450D01*
X12414988Y-10593974D02*
X12434036Y-10584450D01*
X12434036Y-10584450D02*
X12472131Y-10584450D01*
X12472131Y-10584450D02*
X12491179Y-10593974D01*
X12491179Y-10593974D02*
X12500703Y-10603498D01*
X12500703Y-10603498D02*
X12510226Y-10622546D01*
X12510226Y-10622546D02*
X12510226Y-10679689D01*
X12510226Y-10679689D02*
X12500703Y-10698736D01*
X12500703Y-10698736D02*
X12491179Y-10708260D01*
X12491179Y-10708260D02*
X12472131Y-10717784D01*
X12472131Y-10717784D02*
X12434036Y-10717784D01*
X12434036Y-10717784D02*
X12414988Y-10708260D01*
X12595941Y-10698736D02*
X12605465Y-10708260D01*
X12605465Y-10708260D02*
X12595941Y-10717784D01*
X12595941Y-10717784D02*
X12586417Y-10708260D01*
X12586417Y-10708260D02*
X12595941Y-10698736D01*
X12595941Y-10698736D02*
X12595941Y-10717784D01*
X12595941Y-10593974D02*
X12605465Y-10603498D01*
X12605465Y-10603498D02*
X12595941Y-10613022D01*
X12595941Y-10613022D02*
X12586417Y-10603498D01*
X12586417Y-10603498D02*
X12595941Y-10593974D01*
X12595941Y-10593974D02*
X12595941Y-10613022D01*
X10763735Y-10946300D02*
X10963735Y-11146300D01*
X10963735Y-10946300D02*
X10763735Y-11146300D01*
X11205465Y-10937784D02*
X11329274Y-10937784D01*
X11329274Y-10937784D02*
X11262607Y-11013974D01*
X11262607Y-11013974D02*
X11291179Y-11013974D01*
X11291179Y-11013974D02*
X11310226Y-11023498D01*
X11310226Y-11023498D02*
X11319750Y-11033022D01*
X11319750Y-11033022D02*
X11329274Y-11052070D01*
X11329274Y-11052070D02*
X11329274Y-11099689D01*
X11329274Y-11099689D02*
X11319750Y-11118736D01*
X11319750Y-11118736D02*
X11310226Y-11128260D01*
X11310226Y-11128260D02*
X11291179Y-11137784D01*
X11291179Y-11137784D02*
X11234036Y-11137784D01*
X11234036Y-11137784D02*
X11214988Y-11128260D01*
X11214988Y-11128260D02*
X11205465Y-11118736D01*
X11414988Y-11118736D02*
X11424512Y-11128260D01*
X11424512Y-11128260D02*
X11414988Y-11137784D01*
X11414988Y-11137784D02*
X11405465Y-11128260D01*
X11405465Y-11128260D02*
X11414988Y-11118736D01*
X11414988Y-11118736D02*
X11414988Y-11137784D01*
X11491179Y-10937784D02*
X11614988Y-10937784D01*
X11614988Y-10937784D02*
X11548322Y-11013974D01*
X11548322Y-11013974D02*
X11576893Y-11013974D01*
X11576893Y-11013974D02*
X11595941Y-11023498D01*
X11595941Y-11023498D02*
X11605465Y-11033022D01*
X11605465Y-11033022D02*
X11614988Y-11052070D01*
X11614988Y-11052070D02*
X11614988Y-11099689D01*
X11614988Y-11099689D02*
X11605465Y-11118736D01*
X11605465Y-11118736D02*
X11595941Y-11128260D01*
X11595941Y-11128260D02*
X11576893Y-11137784D01*
X11576893Y-11137784D02*
X11519750Y-11137784D01*
X11519750Y-11137784D02*
X11500703Y-11128260D01*
X11500703Y-11128260D02*
X11491179Y-11118736D01*
X11738798Y-10937784D02*
X11757846Y-10937784D01*
X11757846Y-10937784D02*
X11776893Y-10947308D01*
X11776893Y-10947308D02*
X11786417Y-10956831D01*
X11786417Y-10956831D02*
X11795941Y-10975879D01*
X11795941Y-10975879D02*
X11805465Y-11013974D01*
X11805465Y-11013974D02*
X11805465Y-11061593D01*
X11805465Y-11061593D02*
X11795941Y-11099689D01*
X11795941Y-11099689D02*
X11786417Y-11118736D01*
X11786417Y-11118736D02*
X11776893Y-11128260D01*
X11776893Y-11128260D02*
X11757846Y-11137784D01*
X11757846Y-11137784D02*
X11738798Y-11137784D01*
X11738798Y-11137784D02*
X11719750Y-11128260D01*
X11719750Y-11128260D02*
X11710226Y-11118736D01*
X11710226Y-11118736D02*
X11700703Y-11099689D01*
X11700703Y-11099689D02*
X11691179Y-11061593D01*
X11691179Y-11061593D02*
X11691179Y-11013974D01*
X11691179Y-11013974D02*
X11700703Y-10975879D01*
X11700703Y-10975879D02*
X11710226Y-10956831D01*
X11710226Y-10956831D02*
X11719750Y-10947308D01*
X11719750Y-10947308D02*
X11738798Y-10937784D01*
X11929274Y-10937784D02*
X11948322Y-10937784D01*
X11948322Y-10937784D02*
X11967369Y-10947308D01*
X11967369Y-10947308D02*
X11976893Y-10956831D01*
X11976893Y-10956831D02*
X11986417Y-10975879D01*
X11986417Y-10975879D02*
X11995941Y-11013974D01*
X11995941Y-11013974D02*
X11995941Y-11061593D01*
X11995941Y-11061593D02*
X11986417Y-11099689D01*
X11986417Y-11099689D02*
X11976893Y-11118736D01*
X11976893Y-11118736D02*
X11967369Y-11128260D01*
X11967369Y-11128260D02*
X11948322Y-11137784D01*
X11948322Y-11137784D02*
X11929274Y-11137784D01*
X11929274Y-11137784D02*
X11910226Y-11128260D01*
X11910226Y-11128260D02*
X11900703Y-11118736D01*
X11900703Y-11118736D02*
X11891179Y-11099689D01*
X11891179Y-11099689D02*
X11881655Y-11061593D01*
X11881655Y-11061593D02*
X11881655Y-11013974D01*
X11881655Y-11013974D02*
X11891179Y-10975879D01*
X11891179Y-10975879D02*
X11900703Y-10956831D01*
X11900703Y-10956831D02*
X11910226Y-10947308D01*
X11910226Y-10947308D02*
X11929274Y-10937784D01*
X12081655Y-11137784D02*
X12081655Y-11004450D01*
X12081655Y-11023498D02*
X12091179Y-11013974D01*
X12091179Y-11013974D02*
X12110226Y-11004450D01*
X12110226Y-11004450D02*
X12138798Y-11004450D01*
X12138798Y-11004450D02*
X12157846Y-11013974D01*
X12157846Y-11013974D02*
X12167369Y-11033022D01*
X12167369Y-11033022D02*
X12167369Y-11137784D01*
X12167369Y-11033022D02*
X12176893Y-11013974D01*
X12176893Y-11013974D02*
X12195941Y-11004450D01*
X12195941Y-11004450D02*
X12224512Y-11004450D01*
X12224512Y-11004450D02*
X12243560Y-11013974D01*
X12243560Y-11013974D02*
X12253084Y-11033022D01*
X12253084Y-11033022D02*
X12253084Y-11137784D01*
X12348322Y-11137784D02*
X12348322Y-11004450D01*
X12348322Y-11023498D02*
X12357846Y-11013974D01*
X12357846Y-11013974D02*
X12376893Y-11004450D01*
X12376893Y-11004450D02*
X12405465Y-11004450D01*
X12405465Y-11004450D02*
X12424512Y-11013974D01*
X12424512Y-11013974D02*
X12434036Y-11033022D01*
X12434036Y-11033022D02*
X12434036Y-11137784D01*
X12434036Y-11033022D02*
X12443560Y-11013974D01*
X12443560Y-11013974D02*
X12462607Y-11004450D01*
X12462607Y-11004450D02*
X12491179Y-11004450D01*
X12491179Y-11004450D02*
X12510227Y-11013974D01*
X12510227Y-11013974D02*
X12519750Y-11033022D01*
X12519750Y-11033022D02*
X12519750Y-11137784D01*
X12910227Y-10928260D02*
X12738798Y-11185403D01*
X13167369Y-10937784D02*
X13186417Y-10937784D01*
X13186417Y-10937784D02*
X13205465Y-10947308D01*
X13205465Y-10947308D02*
X13214989Y-10956831D01*
X13214989Y-10956831D02*
X13224512Y-10975879D01*
X13224512Y-10975879D02*
X13234036Y-11013974D01*
X13234036Y-11013974D02*
X13234036Y-11061593D01*
X13234036Y-11061593D02*
X13224512Y-11099689D01*
X13224512Y-11099689D02*
X13214989Y-11118736D01*
X13214989Y-11118736D02*
X13205465Y-11128260D01*
X13205465Y-11128260D02*
X13186417Y-11137784D01*
X13186417Y-11137784D02*
X13167369Y-11137784D01*
X13167369Y-11137784D02*
X13148322Y-11128260D01*
X13148322Y-11128260D02*
X13138798Y-11118736D01*
X13138798Y-11118736D02*
X13129274Y-11099689D01*
X13129274Y-11099689D02*
X13119750Y-11061593D01*
X13119750Y-11061593D02*
X13119750Y-11013974D01*
X13119750Y-11013974D02*
X13129274Y-10975879D01*
X13129274Y-10975879D02*
X13138798Y-10956831D01*
X13138798Y-10956831D02*
X13148322Y-10947308D01*
X13148322Y-10947308D02*
X13167369Y-10937784D01*
X13319750Y-11118736D02*
X13329274Y-11128260D01*
X13329274Y-11128260D02*
X13319750Y-11137784D01*
X13319750Y-11137784D02*
X13310227Y-11128260D01*
X13310227Y-11128260D02*
X13319750Y-11118736D01*
X13319750Y-11118736D02*
X13319750Y-11137784D01*
X13519750Y-11137784D02*
X13405465Y-11137784D01*
X13462608Y-11137784D02*
X13462608Y-10937784D01*
X13462608Y-10937784D02*
X13443560Y-10966355D01*
X13443560Y-10966355D02*
X13424512Y-10985403D01*
X13424512Y-10985403D02*
X13405465Y-10994927D01*
X13595941Y-10956831D02*
X13605465Y-10947308D01*
X13605465Y-10947308D02*
X13624512Y-10937784D01*
X13624512Y-10937784D02*
X13672131Y-10937784D01*
X13672131Y-10937784D02*
X13691179Y-10947308D01*
X13691179Y-10947308D02*
X13700703Y-10956831D01*
X13700703Y-10956831D02*
X13710227Y-10975879D01*
X13710227Y-10975879D02*
X13710227Y-10994927D01*
X13710227Y-10994927D02*
X13700703Y-11023498D01*
X13700703Y-11023498D02*
X13586417Y-11137784D01*
X13586417Y-11137784D02*
X13710227Y-11137784D01*
X13805465Y-11137784D02*
X13843560Y-11137784D01*
X13843560Y-11137784D02*
X13862608Y-11128260D01*
X13862608Y-11128260D02*
X13872131Y-11118736D01*
X13872131Y-11118736D02*
X13891179Y-11090165D01*
X13891179Y-11090165D02*
X13900703Y-11052070D01*
X13900703Y-11052070D02*
X13900703Y-10975879D01*
X13900703Y-10975879D02*
X13891179Y-10956831D01*
X13891179Y-10956831D02*
X13881655Y-10947308D01*
X13881655Y-10947308D02*
X13862608Y-10937784D01*
X13862608Y-10937784D02*
X13824512Y-10937784D01*
X13824512Y-10937784D02*
X13805465Y-10947308D01*
X13805465Y-10947308D02*
X13795941Y-10956831D01*
X13795941Y-10956831D02*
X13786417Y-10975879D01*
X13786417Y-10975879D02*
X13786417Y-11023498D01*
X13786417Y-11023498D02*
X13795941Y-11042546D01*
X13795941Y-11042546D02*
X13805465Y-11052070D01*
X13805465Y-11052070D02*
X13824512Y-11061593D01*
X13824512Y-11061593D02*
X13862608Y-11061593D01*
X13862608Y-11061593D02*
X13881655Y-11052070D01*
X13881655Y-11052070D02*
X13891179Y-11042546D01*
X13891179Y-11042546D02*
X13900703Y-11023498D01*
X13995941Y-11137784D02*
X14034036Y-11137784D01*
X14034036Y-11137784D02*
X14053084Y-11128260D01*
X14053084Y-11128260D02*
X14062608Y-11118736D01*
X14062608Y-11118736D02*
X14081655Y-11090165D01*
X14081655Y-11090165D02*
X14091179Y-11052070D01*
X14091179Y-11052070D02*
X14091179Y-10975879D01*
X14091179Y-10975879D02*
X14081655Y-10956831D01*
X14081655Y-10956831D02*
X14072131Y-10947308D01*
X14072131Y-10947308D02*
X14053084Y-10937784D01*
X14053084Y-10937784D02*
X14014989Y-10937784D01*
X14014989Y-10937784D02*
X13995941Y-10947308D01*
X13995941Y-10947308D02*
X13986417Y-10956831D01*
X13986417Y-10956831D02*
X13976893Y-10975879D01*
X13976893Y-10975879D02*
X13976893Y-11023498D01*
X13976893Y-11023498D02*
X13986417Y-11042546D01*
X13986417Y-11042546D02*
X13995941Y-11052070D01*
X13995941Y-11052070D02*
X14014989Y-11061593D01*
X14014989Y-11061593D02*
X14053084Y-11061593D01*
X14053084Y-11061593D02*
X14072131Y-11052070D01*
X14072131Y-11052070D02*
X14081655Y-11042546D01*
X14081655Y-11042546D02*
X14091179Y-11023498D01*
X14167370Y-10937784D02*
X14167370Y-10975879D01*
X14243560Y-10937784D02*
X14243560Y-10975879D01*
X14538798Y-11213974D02*
X14529274Y-11204450D01*
X14529274Y-11204450D02*
X14510227Y-11175879D01*
X14510227Y-11175879D02*
X14500703Y-11156831D01*
X14500703Y-11156831D02*
X14491179Y-11128260D01*
X14491179Y-11128260D02*
X14481655Y-11080641D01*
X14481655Y-11080641D02*
X14481655Y-11042546D01*
X14481655Y-11042546D02*
X14491179Y-10994927D01*
X14491179Y-10994927D02*
X14500703Y-10966355D01*
X14500703Y-10966355D02*
X14510227Y-10947308D01*
X14510227Y-10947308D02*
X14529274Y-10918736D01*
X14529274Y-10918736D02*
X14538798Y-10909212D01*
X14605465Y-10956831D02*
X14614989Y-10947308D01*
X14614989Y-10947308D02*
X14634036Y-10937784D01*
X14634036Y-10937784D02*
X14681655Y-10937784D01*
X14681655Y-10937784D02*
X14700703Y-10947308D01*
X14700703Y-10947308D02*
X14710227Y-10956831D01*
X14710227Y-10956831D02*
X14719751Y-10975879D01*
X14719751Y-10975879D02*
X14719751Y-10994927D01*
X14719751Y-10994927D02*
X14710227Y-11023498D01*
X14710227Y-11023498D02*
X14595941Y-11137784D01*
X14595941Y-11137784D02*
X14719751Y-11137784D01*
X14957846Y-11137784D02*
X14957846Y-10937784D01*
X15043560Y-11137784D02*
X15043560Y-11033022D01*
X15043560Y-11033022D02*
X15034036Y-11013974D01*
X15034036Y-11013974D02*
X15014989Y-11004450D01*
X15014989Y-11004450D02*
X14986417Y-11004450D01*
X14986417Y-11004450D02*
X14967370Y-11013974D01*
X14967370Y-11013974D02*
X14957846Y-11023498D01*
X15167370Y-11137784D02*
X15148322Y-11128260D01*
X15148322Y-11128260D02*
X15138798Y-11118736D01*
X15138798Y-11118736D02*
X15129274Y-11099689D01*
X15129274Y-11099689D02*
X15129274Y-11042546D01*
X15129274Y-11042546D02*
X15138798Y-11023498D01*
X15138798Y-11023498D02*
X15148322Y-11013974D01*
X15148322Y-11013974D02*
X15167370Y-11004450D01*
X15167370Y-11004450D02*
X15195941Y-11004450D01*
X15195941Y-11004450D02*
X15214989Y-11013974D01*
X15214989Y-11013974D02*
X15224513Y-11023498D01*
X15224513Y-11023498D02*
X15234036Y-11042546D01*
X15234036Y-11042546D02*
X15234036Y-11099689D01*
X15234036Y-11099689D02*
X15224513Y-11118736D01*
X15224513Y-11118736D02*
X15214989Y-11128260D01*
X15214989Y-11128260D02*
X15195941Y-11137784D01*
X15195941Y-11137784D02*
X15167370Y-11137784D01*
X15348322Y-11137784D02*
X15329274Y-11128260D01*
X15329274Y-11128260D02*
X15319751Y-11109212D01*
X15319751Y-11109212D02*
X15319751Y-10937784D01*
X15500703Y-11128260D02*
X15481655Y-11137784D01*
X15481655Y-11137784D02*
X15443560Y-11137784D01*
X15443560Y-11137784D02*
X15424513Y-11128260D01*
X15424513Y-11128260D02*
X15414989Y-11109212D01*
X15414989Y-11109212D02*
X15414989Y-11033022D01*
X15414989Y-11033022D02*
X15424513Y-11013974D01*
X15424513Y-11013974D02*
X15443560Y-11004450D01*
X15443560Y-11004450D02*
X15481655Y-11004450D01*
X15481655Y-11004450D02*
X15500703Y-11013974D01*
X15500703Y-11013974D02*
X15510227Y-11033022D01*
X15510227Y-11033022D02*
X15510227Y-11052070D01*
X15510227Y-11052070D02*
X15414989Y-11071117D01*
X15586417Y-11128260D02*
X15605465Y-11137784D01*
X15605465Y-11137784D02*
X15643560Y-11137784D01*
X15643560Y-11137784D02*
X15662608Y-11128260D01*
X15662608Y-11128260D02*
X15672132Y-11109212D01*
X15672132Y-11109212D02*
X15672132Y-11099689D01*
X15672132Y-11099689D02*
X15662608Y-11080641D01*
X15662608Y-11080641D02*
X15643560Y-11071117D01*
X15643560Y-11071117D02*
X15614989Y-11071117D01*
X15614989Y-11071117D02*
X15595941Y-11061593D01*
X15595941Y-11061593D02*
X15586417Y-11042546D01*
X15586417Y-11042546D02*
X15586417Y-11033022D01*
X15586417Y-11033022D02*
X15595941Y-11013974D01*
X15595941Y-11013974D02*
X15614989Y-11004450D01*
X15614989Y-11004450D02*
X15643560Y-11004450D01*
X15643560Y-11004450D02*
X15662608Y-11013974D01*
X15738798Y-11213974D02*
X15748322Y-11204450D01*
X15748322Y-11204450D02*
X15767370Y-11175879D01*
X15767370Y-11175879D02*
X15776894Y-11156831D01*
X15776894Y-11156831D02*
X15786417Y-11128260D01*
X15786417Y-11128260D02*
X15795941Y-11080641D01*
X15795941Y-11080641D02*
X15795941Y-11042546D01*
X15795941Y-11042546D02*
X15786417Y-10994927D01*
X15786417Y-10994927D02*
X15776894Y-10966355D01*
X15776894Y-10966355D02*
X15767370Y-10947308D01*
X15767370Y-10947308D02*
X15748322Y-10918736D01*
X15748322Y-10918736D02*
X15738798Y-10909212D01*
X16100703Y-11213974D02*
X16091179Y-11204450D01*
X16091179Y-11204450D02*
X16072132Y-11175879D01*
X16072132Y-11175879D02*
X16062608Y-11156831D01*
X16062608Y-11156831D02*
X16053084Y-11128260D01*
X16053084Y-11128260D02*
X16043560Y-11080641D01*
X16043560Y-11080641D02*
X16043560Y-11042546D01*
X16043560Y-11042546D02*
X16053084Y-10994927D01*
X16053084Y-10994927D02*
X16062608Y-10966355D01*
X16062608Y-10966355D02*
X16072132Y-10947308D01*
X16072132Y-10947308D02*
X16091179Y-10918736D01*
X16091179Y-10918736D02*
X16100703Y-10909212D01*
X16176894Y-11004450D02*
X16176894Y-11137784D01*
X16176894Y-11023498D02*
X16186417Y-11013974D01*
X16186417Y-11013974D02*
X16205465Y-11004450D01*
X16205465Y-11004450D02*
X16234036Y-11004450D01*
X16234036Y-11004450D02*
X16253084Y-11013974D01*
X16253084Y-11013974D02*
X16262608Y-11033022D01*
X16262608Y-11033022D02*
X16262608Y-11137784D01*
X16386417Y-11137784D02*
X16367370Y-11128260D01*
X16367370Y-11128260D02*
X16357846Y-11118736D01*
X16357846Y-11118736D02*
X16348322Y-11099689D01*
X16348322Y-11099689D02*
X16348322Y-11042546D01*
X16348322Y-11042546D02*
X16357846Y-11023498D01*
X16357846Y-11023498D02*
X16367370Y-11013974D01*
X16367370Y-11013974D02*
X16386417Y-11004450D01*
X16386417Y-11004450D02*
X16414989Y-11004450D01*
X16414989Y-11004450D02*
X16434036Y-11013974D01*
X16434036Y-11013974D02*
X16443560Y-11023498D01*
X16443560Y-11023498D02*
X16453084Y-11042546D01*
X16453084Y-11042546D02*
X16453084Y-11099689D01*
X16453084Y-11099689D02*
X16443560Y-11118736D01*
X16443560Y-11118736D02*
X16434036Y-11128260D01*
X16434036Y-11128260D02*
X16414989Y-11137784D01*
X16414989Y-11137784D02*
X16386417Y-11137784D01*
X16510227Y-11004450D02*
X16586417Y-11004450D01*
X16538798Y-10937784D02*
X16538798Y-11109212D01*
X16538798Y-11109212D02*
X16548322Y-11128260D01*
X16548322Y-11128260D02*
X16567370Y-11137784D01*
X16567370Y-11137784D02*
X16586417Y-11137784D01*
X16805465Y-11004450D02*
X16805465Y-11204450D01*
X16805465Y-11013974D02*
X16824513Y-11004450D01*
X16824513Y-11004450D02*
X16862608Y-11004450D01*
X16862608Y-11004450D02*
X16881656Y-11013974D01*
X16881656Y-11013974D02*
X16891179Y-11023498D01*
X16891179Y-11023498D02*
X16900703Y-11042546D01*
X16900703Y-11042546D02*
X16900703Y-11099689D01*
X16900703Y-11099689D02*
X16891179Y-11118736D01*
X16891179Y-11118736D02*
X16881656Y-11128260D01*
X16881656Y-11128260D02*
X16862608Y-11137784D01*
X16862608Y-11137784D02*
X16824513Y-11137784D01*
X16824513Y-11137784D02*
X16805465Y-11128260D01*
X17014989Y-11137784D02*
X16995941Y-11128260D01*
X16995941Y-11128260D02*
X16986418Y-11109212D01*
X16986418Y-11109212D02*
X16986418Y-10937784D01*
X17176894Y-11137784D02*
X17176894Y-11033022D01*
X17176894Y-11033022D02*
X17167370Y-11013974D01*
X17167370Y-11013974D02*
X17148322Y-11004450D01*
X17148322Y-11004450D02*
X17110227Y-11004450D01*
X17110227Y-11004450D02*
X17091179Y-11013974D01*
X17176894Y-11128260D02*
X17157846Y-11137784D01*
X17157846Y-11137784D02*
X17110227Y-11137784D01*
X17110227Y-11137784D02*
X17091179Y-11128260D01*
X17091179Y-11128260D02*
X17081656Y-11109212D01*
X17081656Y-11109212D02*
X17081656Y-11090165D01*
X17081656Y-11090165D02*
X17091179Y-11071117D01*
X17091179Y-11071117D02*
X17110227Y-11061593D01*
X17110227Y-11061593D02*
X17157846Y-11061593D01*
X17157846Y-11061593D02*
X17176894Y-11052070D01*
X17243560Y-11004450D02*
X17319751Y-11004450D01*
X17272132Y-10937784D02*
X17272132Y-11109212D01*
X17272132Y-11109212D02*
X17281656Y-11128260D01*
X17281656Y-11128260D02*
X17300703Y-11137784D01*
X17300703Y-11137784D02*
X17319751Y-11137784D01*
X17462608Y-11128260D02*
X17443560Y-11137784D01*
X17443560Y-11137784D02*
X17405465Y-11137784D01*
X17405465Y-11137784D02*
X17386418Y-11128260D01*
X17386418Y-11128260D02*
X17376894Y-11109212D01*
X17376894Y-11109212D02*
X17376894Y-11033022D01*
X17376894Y-11033022D02*
X17386418Y-11013974D01*
X17386418Y-11013974D02*
X17405465Y-11004450D01*
X17405465Y-11004450D02*
X17443560Y-11004450D01*
X17443560Y-11004450D02*
X17462608Y-11013974D01*
X17462608Y-11013974D02*
X17472132Y-11033022D01*
X17472132Y-11033022D02*
X17472132Y-11052070D01*
X17472132Y-11052070D02*
X17376894Y-11071117D01*
X17643560Y-11137784D02*
X17643560Y-10937784D01*
X17643560Y-11128260D02*
X17624513Y-11137784D01*
X17624513Y-11137784D02*
X17586418Y-11137784D01*
X17586418Y-11137784D02*
X17567370Y-11128260D01*
X17567370Y-11128260D02*
X17557846Y-11118736D01*
X17557846Y-11118736D02*
X17548322Y-11099689D01*
X17548322Y-11099689D02*
X17548322Y-11042546D01*
X17548322Y-11042546D02*
X17557846Y-11023498D01*
X17557846Y-11023498D02*
X17567370Y-11013974D01*
X17567370Y-11013974D02*
X17586418Y-11004450D01*
X17586418Y-11004450D02*
X17624513Y-11004450D01*
X17624513Y-11004450D02*
X17643560Y-11013974D01*
X17719751Y-11213974D02*
X17729275Y-11204450D01*
X17729275Y-11204450D02*
X17748322Y-11175879D01*
X17748322Y-11175879D02*
X17757846Y-11156831D01*
X17757846Y-11156831D02*
X17767370Y-11128260D01*
X17767370Y-11128260D02*
X17776894Y-11080641D01*
X17776894Y-11080641D02*
X17776894Y-11042546D01*
X17776894Y-11042546D02*
X17767370Y-10994927D01*
X17767370Y-10994927D02*
X17757846Y-10966355D01*
X17757846Y-10966355D02*
X17748322Y-10947308D01*
X17748322Y-10947308D02*
X17729275Y-10918736D01*
X17729275Y-10918736D02*
X17719751Y-10909212D01*
M02*
