%TF.GenerationSoftware,KiCad,Pcbnew,7.0.6*%
%TF.CreationDate,2023-12-02T19:46:23-07:00*%
%TF.ProjectId,Temperature Sensor Board 2,54656d70-6572-4617-9475-72652053656e,rev?*%
%TF.SameCoordinates,Original*%
%TF.FileFunction,Drillmap*%
%TF.FilePolarity,Positive*%
%FSLAX45Y45*%
G04 Gerber Fmt 4.5, Leading zero omitted, Abs format (unit mm)*
G04 Created by KiCad (PCBNEW 7.0.6) date 2023-12-02 19:46:23*
%MOMM*%
%LPD*%
G01*
G04 APERTURE LIST*
%ADD10C,0.100000*%
%ADD11C,0.200000*%
%ADD12C,0.040000*%
%ADD13C,0.081280*%
%ADD14C,0.165000*%
G04 APERTURE END LIST*
D10*
X10968735Y-8416035D02*
X15100300Y-8416035D01*
X15100300Y-10401300D01*
X10968735Y-10401300D01*
X10968735Y-8416035D01*
D11*
D12*
X12002835Y-9170735D02*
X12042835Y-9210735D01*
X12042835Y-9170735D02*
X12002835Y-9210735D01*
X12002835Y-9716835D02*
X12042835Y-9756835D01*
X12042835Y-9716835D02*
X12002835Y-9756835D01*
X12764835Y-9373935D02*
X12804835Y-9413935D01*
X12804835Y-9373935D02*
X12764835Y-9413935D01*
X12777535Y-9704135D02*
X12817535Y-9744135D01*
X12817535Y-9704135D02*
X12777535Y-9744135D01*
X12955335Y-9373935D02*
X12995335Y-9413935D01*
X12995335Y-9373935D02*
X12955335Y-9413935D01*
X12955335Y-9704135D02*
X12995335Y-9744135D01*
X12995335Y-9704135D02*
X12955335Y-9744135D01*
X13120435Y-9704135D02*
X13160435Y-9744135D01*
X13160435Y-9704135D02*
X13120435Y-9744135D01*
X13133135Y-9373935D02*
X13173135Y-9413935D01*
X13173135Y-9373935D02*
X13133135Y-9413935D01*
D13*
X11504675Y-9292335D02*
G75*
G03*
X11504675Y-9292335I-40640J0D01*
G01*
X11504675Y-9546335D02*
G75*
G03*
X11504675Y-9546335I-40640J0D01*
G01*
X11695175Y-9419335D02*
G75*
G03*
X11695175Y-9419335I-40640J0D01*
G01*
D10*
X13381735Y-9153435D02*
X13381735Y-9253435D01*
X13331735Y-9203435D02*
X13431735Y-9203435D01*
X13381735Y-9407435D02*
X13381735Y-9507435D01*
X13331735Y-9457435D02*
X13431735Y-9457435D01*
X13381735Y-9661435D02*
X13381735Y-9761435D01*
X13331735Y-9711435D02*
X13431735Y-9711435D01*
X13635735Y-9280435D02*
X13635735Y-9380435D01*
X13585735Y-9330435D02*
X13685735Y-9330435D01*
X13635735Y-9534435D02*
X13635735Y-9634435D01*
X13585735Y-9584435D02*
X13685735Y-9584435D01*
X13635735Y-9788435D02*
X13635735Y-9888435D01*
X13585735Y-9838435D02*
X13685735Y-9838435D01*
D14*
X14634072Y-8893772D02*
X14634072Y-8777099D01*
X14517398Y-8777099D01*
X14517398Y-8893772D01*
X14634072Y-8893772D01*
X14634072Y-10265772D02*
X14634072Y-10149099D01*
X14517398Y-10149099D01*
X14517398Y-10265772D01*
X14634072Y-10265772D01*
D11*
X11224512Y-10717784D02*
X11224512Y-10517784D01*
X11224512Y-10517784D02*
X11272131Y-10517784D01*
X11272131Y-10517784D02*
X11300703Y-10527308D01*
X11300703Y-10527308D02*
X11319750Y-10546355D01*
X11319750Y-10546355D02*
X11329274Y-10565403D01*
X11329274Y-10565403D02*
X11338798Y-10603498D01*
X11338798Y-10603498D02*
X11338798Y-10632070D01*
X11338798Y-10632070D02*
X11329274Y-10670165D01*
X11329274Y-10670165D02*
X11319750Y-10689212D01*
X11319750Y-10689212D02*
X11300703Y-10708260D01*
X11300703Y-10708260D02*
X11272131Y-10717784D01*
X11272131Y-10717784D02*
X11224512Y-10717784D01*
X11424512Y-10717784D02*
X11424512Y-10584450D01*
X11424512Y-10622546D02*
X11434036Y-10603498D01*
X11434036Y-10603498D02*
X11443560Y-10593974D01*
X11443560Y-10593974D02*
X11462607Y-10584450D01*
X11462607Y-10584450D02*
X11481655Y-10584450D01*
X11548322Y-10717784D02*
X11548322Y-10584450D01*
X11548322Y-10517784D02*
X11538798Y-10527308D01*
X11538798Y-10527308D02*
X11548322Y-10536831D01*
X11548322Y-10536831D02*
X11557845Y-10527308D01*
X11557845Y-10527308D02*
X11548322Y-10517784D01*
X11548322Y-10517784D02*
X11548322Y-10536831D01*
X11672131Y-10717784D02*
X11653084Y-10708260D01*
X11653084Y-10708260D02*
X11643560Y-10689212D01*
X11643560Y-10689212D02*
X11643560Y-10517784D01*
X11776893Y-10717784D02*
X11757845Y-10708260D01*
X11757845Y-10708260D02*
X11748322Y-10689212D01*
X11748322Y-10689212D02*
X11748322Y-10517784D01*
X12005465Y-10717784D02*
X12005465Y-10517784D01*
X12005465Y-10517784D02*
X12072131Y-10660641D01*
X12072131Y-10660641D02*
X12138798Y-10517784D01*
X12138798Y-10517784D02*
X12138798Y-10717784D01*
X12319750Y-10717784D02*
X12319750Y-10613022D01*
X12319750Y-10613022D02*
X12310226Y-10593974D01*
X12310226Y-10593974D02*
X12291179Y-10584450D01*
X12291179Y-10584450D02*
X12253084Y-10584450D01*
X12253084Y-10584450D02*
X12234036Y-10593974D01*
X12319750Y-10708260D02*
X12300703Y-10717784D01*
X12300703Y-10717784D02*
X12253084Y-10717784D01*
X12253084Y-10717784D02*
X12234036Y-10708260D01*
X12234036Y-10708260D02*
X12224512Y-10689212D01*
X12224512Y-10689212D02*
X12224512Y-10670165D01*
X12224512Y-10670165D02*
X12234036Y-10651117D01*
X12234036Y-10651117D02*
X12253084Y-10641593D01*
X12253084Y-10641593D02*
X12300703Y-10641593D01*
X12300703Y-10641593D02*
X12319750Y-10632070D01*
X12414988Y-10584450D02*
X12414988Y-10784450D01*
X12414988Y-10593974D02*
X12434036Y-10584450D01*
X12434036Y-10584450D02*
X12472131Y-10584450D01*
X12472131Y-10584450D02*
X12491179Y-10593974D01*
X12491179Y-10593974D02*
X12500703Y-10603498D01*
X12500703Y-10603498D02*
X12510226Y-10622546D01*
X12510226Y-10622546D02*
X12510226Y-10679689D01*
X12510226Y-10679689D02*
X12500703Y-10698736D01*
X12500703Y-10698736D02*
X12491179Y-10708260D01*
X12491179Y-10708260D02*
X12472131Y-10717784D01*
X12472131Y-10717784D02*
X12434036Y-10717784D01*
X12434036Y-10717784D02*
X12414988Y-10708260D01*
X12595941Y-10698736D02*
X12605465Y-10708260D01*
X12605465Y-10708260D02*
X12595941Y-10717784D01*
X12595941Y-10717784D02*
X12586417Y-10708260D01*
X12586417Y-10708260D02*
X12595941Y-10698736D01*
X12595941Y-10698736D02*
X12595941Y-10717784D01*
X12595941Y-10593974D02*
X12605465Y-10603498D01*
X12605465Y-10603498D02*
X12595941Y-10613022D01*
X12595941Y-10613022D02*
X12586417Y-10603498D01*
X12586417Y-10603498D02*
X12595941Y-10593974D01*
X12595941Y-10593974D02*
X12595941Y-10613022D01*
D12*
X10923735Y-11026300D02*
X10963735Y-11066300D01*
X10963735Y-11026300D02*
X10923735Y-11066300D01*
D11*
X11262607Y-10937784D02*
X11281655Y-10937784D01*
X11281655Y-10937784D02*
X11300703Y-10947308D01*
X11300703Y-10947308D02*
X11310226Y-10956831D01*
X11310226Y-10956831D02*
X11319750Y-10975879D01*
X11319750Y-10975879D02*
X11329274Y-11013974D01*
X11329274Y-11013974D02*
X11329274Y-11061593D01*
X11329274Y-11061593D02*
X11319750Y-11099689D01*
X11319750Y-11099689D02*
X11310226Y-11118736D01*
X11310226Y-11118736D02*
X11300703Y-11128260D01*
X11300703Y-11128260D02*
X11281655Y-11137784D01*
X11281655Y-11137784D02*
X11262607Y-11137784D01*
X11262607Y-11137784D02*
X11243560Y-11128260D01*
X11243560Y-11128260D02*
X11234036Y-11118736D01*
X11234036Y-11118736D02*
X11224512Y-11099689D01*
X11224512Y-11099689D02*
X11214988Y-11061593D01*
X11214988Y-11061593D02*
X11214988Y-11013974D01*
X11214988Y-11013974D02*
X11224512Y-10975879D01*
X11224512Y-10975879D02*
X11234036Y-10956831D01*
X11234036Y-10956831D02*
X11243560Y-10947308D01*
X11243560Y-10947308D02*
X11262607Y-10937784D01*
X11414988Y-11118736D02*
X11424512Y-11128260D01*
X11424512Y-11128260D02*
X11414988Y-11137784D01*
X11414988Y-11137784D02*
X11405465Y-11128260D01*
X11405465Y-11128260D02*
X11414988Y-11118736D01*
X11414988Y-11118736D02*
X11414988Y-11137784D01*
X11595941Y-11004450D02*
X11595941Y-11137784D01*
X11548322Y-10928260D02*
X11500703Y-11071117D01*
X11500703Y-11071117D02*
X11624512Y-11071117D01*
X11738798Y-10937784D02*
X11757846Y-10937784D01*
X11757846Y-10937784D02*
X11776893Y-10947308D01*
X11776893Y-10947308D02*
X11786417Y-10956831D01*
X11786417Y-10956831D02*
X11795941Y-10975879D01*
X11795941Y-10975879D02*
X11805465Y-11013974D01*
X11805465Y-11013974D02*
X11805465Y-11061593D01*
X11805465Y-11061593D02*
X11795941Y-11099689D01*
X11795941Y-11099689D02*
X11786417Y-11118736D01*
X11786417Y-11118736D02*
X11776893Y-11128260D01*
X11776893Y-11128260D02*
X11757846Y-11137784D01*
X11757846Y-11137784D02*
X11738798Y-11137784D01*
X11738798Y-11137784D02*
X11719750Y-11128260D01*
X11719750Y-11128260D02*
X11710226Y-11118736D01*
X11710226Y-11118736D02*
X11700703Y-11099689D01*
X11700703Y-11099689D02*
X11691179Y-11061593D01*
X11691179Y-11061593D02*
X11691179Y-11013974D01*
X11691179Y-11013974D02*
X11700703Y-10975879D01*
X11700703Y-10975879D02*
X11710226Y-10956831D01*
X11710226Y-10956831D02*
X11719750Y-10947308D01*
X11719750Y-10947308D02*
X11738798Y-10937784D01*
X11929274Y-10937784D02*
X11948322Y-10937784D01*
X11948322Y-10937784D02*
X11967369Y-10947308D01*
X11967369Y-10947308D02*
X11976893Y-10956831D01*
X11976893Y-10956831D02*
X11986417Y-10975879D01*
X11986417Y-10975879D02*
X11995941Y-11013974D01*
X11995941Y-11013974D02*
X11995941Y-11061593D01*
X11995941Y-11061593D02*
X11986417Y-11099689D01*
X11986417Y-11099689D02*
X11976893Y-11118736D01*
X11976893Y-11118736D02*
X11967369Y-11128260D01*
X11967369Y-11128260D02*
X11948322Y-11137784D01*
X11948322Y-11137784D02*
X11929274Y-11137784D01*
X11929274Y-11137784D02*
X11910226Y-11128260D01*
X11910226Y-11128260D02*
X11900703Y-11118736D01*
X11900703Y-11118736D02*
X11891179Y-11099689D01*
X11891179Y-11099689D02*
X11881655Y-11061593D01*
X11881655Y-11061593D02*
X11881655Y-11013974D01*
X11881655Y-11013974D02*
X11891179Y-10975879D01*
X11891179Y-10975879D02*
X11900703Y-10956831D01*
X11900703Y-10956831D02*
X11910226Y-10947308D01*
X11910226Y-10947308D02*
X11929274Y-10937784D01*
X12081655Y-11137784D02*
X12081655Y-11004450D01*
X12081655Y-11023498D02*
X12091179Y-11013974D01*
X12091179Y-11013974D02*
X12110226Y-11004450D01*
X12110226Y-11004450D02*
X12138798Y-11004450D01*
X12138798Y-11004450D02*
X12157846Y-11013974D01*
X12157846Y-11013974D02*
X12167369Y-11033022D01*
X12167369Y-11033022D02*
X12167369Y-11137784D01*
X12167369Y-11033022D02*
X12176893Y-11013974D01*
X12176893Y-11013974D02*
X12195941Y-11004450D01*
X12195941Y-11004450D02*
X12224512Y-11004450D01*
X12224512Y-11004450D02*
X12243560Y-11013974D01*
X12243560Y-11013974D02*
X12253084Y-11033022D01*
X12253084Y-11033022D02*
X12253084Y-11137784D01*
X12348322Y-11137784D02*
X12348322Y-11004450D01*
X12348322Y-11023498D02*
X12357846Y-11013974D01*
X12357846Y-11013974D02*
X12376893Y-11004450D01*
X12376893Y-11004450D02*
X12405465Y-11004450D01*
X12405465Y-11004450D02*
X12424512Y-11013974D01*
X12424512Y-11013974D02*
X12434036Y-11033022D01*
X12434036Y-11033022D02*
X12434036Y-11137784D01*
X12434036Y-11033022D02*
X12443560Y-11013974D01*
X12443560Y-11013974D02*
X12462607Y-11004450D01*
X12462607Y-11004450D02*
X12491179Y-11004450D01*
X12491179Y-11004450D02*
X12510227Y-11013974D01*
X12510227Y-11013974D02*
X12519750Y-11033022D01*
X12519750Y-11033022D02*
X12519750Y-11137784D01*
X12910227Y-10928260D02*
X12738798Y-11185403D01*
X13167369Y-10937784D02*
X13186417Y-10937784D01*
X13186417Y-10937784D02*
X13205465Y-10947308D01*
X13205465Y-10947308D02*
X13214989Y-10956831D01*
X13214989Y-10956831D02*
X13224512Y-10975879D01*
X13224512Y-10975879D02*
X13234036Y-11013974D01*
X13234036Y-11013974D02*
X13234036Y-11061593D01*
X13234036Y-11061593D02*
X13224512Y-11099689D01*
X13224512Y-11099689D02*
X13214989Y-11118736D01*
X13214989Y-11118736D02*
X13205465Y-11128260D01*
X13205465Y-11128260D02*
X13186417Y-11137784D01*
X13186417Y-11137784D02*
X13167369Y-11137784D01*
X13167369Y-11137784D02*
X13148322Y-11128260D01*
X13148322Y-11128260D02*
X13138798Y-11118736D01*
X13138798Y-11118736D02*
X13129274Y-11099689D01*
X13129274Y-11099689D02*
X13119750Y-11061593D01*
X13119750Y-11061593D02*
X13119750Y-11013974D01*
X13119750Y-11013974D02*
X13129274Y-10975879D01*
X13129274Y-10975879D02*
X13138798Y-10956831D01*
X13138798Y-10956831D02*
X13148322Y-10947308D01*
X13148322Y-10947308D02*
X13167369Y-10937784D01*
X13319750Y-11118736D02*
X13329274Y-11128260D01*
X13329274Y-11128260D02*
X13319750Y-11137784D01*
X13319750Y-11137784D02*
X13310227Y-11128260D01*
X13310227Y-11128260D02*
X13319750Y-11118736D01*
X13319750Y-11118736D02*
X13319750Y-11137784D01*
X13453084Y-10937784D02*
X13472131Y-10937784D01*
X13472131Y-10937784D02*
X13491179Y-10947308D01*
X13491179Y-10947308D02*
X13500703Y-10956831D01*
X13500703Y-10956831D02*
X13510227Y-10975879D01*
X13510227Y-10975879D02*
X13519750Y-11013974D01*
X13519750Y-11013974D02*
X13519750Y-11061593D01*
X13519750Y-11061593D02*
X13510227Y-11099689D01*
X13510227Y-11099689D02*
X13500703Y-11118736D01*
X13500703Y-11118736D02*
X13491179Y-11128260D01*
X13491179Y-11128260D02*
X13472131Y-11137784D01*
X13472131Y-11137784D02*
X13453084Y-11137784D01*
X13453084Y-11137784D02*
X13434036Y-11128260D01*
X13434036Y-11128260D02*
X13424512Y-11118736D01*
X13424512Y-11118736D02*
X13414989Y-11099689D01*
X13414989Y-11099689D02*
X13405465Y-11061593D01*
X13405465Y-11061593D02*
X13405465Y-11013974D01*
X13405465Y-11013974D02*
X13414989Y-10975879D01*
X13414989Y-10975879D02*
X13424512Y-10956831D01*
X13424512Y-10956831D02*
X13434036Y-10947308D01*
X13434036Y-10947308D02*
X13453084Y-10937784D01*
X13710227Y-11137784D02*
X13595941Y-11137784D01*
X13653084Y-11137784D02*
X13653084Y-10937784D01*
X13653084Y-10937784D02*
X13634036Y-10966355D01*
X13634036Y-10966355D02*
X13614989Y-10985403D01*
X13614989Y-10985403D02*
X13595941Y-10994927D01*
X13891179Y-10937784D02*
X13795941Y-10937784D01*
X13795941Y-10937784D02*
X13786417Y-11033022D01*
X13786417Y-11033022D02*
X13795941Y-11023498D01*
X13795941Y-11023498D02*
X13814989Y-11013974D01*
X13814989Y-11013974D02*
X13862608Y-11013974D01*
X13862608Y-11013974D02*
X13881655Y-11023498D01*
X13881655Y-11023498D02*
X13891179Y-11033022D01*
X13891179Y-11033022D02*
X13900703Y-11052070D01*
X13900703Y-11052070D02*
X13900703Y-11099689D01*
X13900703Y-11099689D02*
X13891179Y-11118736D01*
X13891179Y-11118736D02*
X13881655Y-11128260D01*
X13881655Y-11128260D02*
X13862608Y-11137784D01*
X13862608Y-11137784D02*
X13814989Y-11137784D01*
X13814989Y-11137784D02*
X13795941Y-11128260D01*
X13795941Y-11128260D02*
X13786417Y-11118736D01*
X13967370Y-10937784D02*
X14100703Y-10937784D01*
X14100703Y-10937784D02*
X14014989Y-11137784D01*
X14167370Y-10937784D02*
X14167370Y-10975879D01*
X14243560Y-10937784D02*
X14243560Y-10975879D01*
X14538798Y-11213974D02*
X14529274Y-11204450D01*
X14529274Y-11204450D02*
X14510227Y-11175879D01*
X14510227Y-11175879D02*
X14500703Y-11156831D01*
X14500703Y-11156831D02*
X14491179Y-11128260D01*
X14491179Y-11128260D02*
X14481655Y-11080641D01*
X14481655Y-11080641D02*
X14481655Y-11042546D01*
X14481655Y-11042546D02*
X14491179Y-10994927D01*
X14491179Y-10994927D02*
X14500703Y-10966355D01*
X14500703Y-10966355D02*
X14510227Y-10947308D01*
X14510227Y-10947308D02*
X14529274Y-10918736D01*
X14529274Y-10918736D02*
X14538798Y-10909212D01*
X14643560Y-11023498D02*
X14624512Y-11013974D01*
X14624512Y-11013974D02*
X14614989Y-11004450D01*
X14614989Y-11004450D02*
X14605465Y-10985403D01*
X14605465Y-10985403D02*
X14605465Y-10975879D01*
X14605465Y-10975879D02*
X14614989Y-10956831D01*
X14614989Y-10956831D02*
X14624512Y-10947308D01*
X14624512Y-10947308D02*
X14643560Y-10937784D01*
X14643560Y-10937784D02*
X14681655Y-10937784D01*
X14681655Y-10937784D02*
X14700703Y-10947308D01*
X14700703Y-10947308D02*
X14710227Y-10956831D01*
X14710227Y-10956831D02*
X14719751Y-10975879D01*
X14719751Y-10975879D02*
X14719751Y-10985403D01*
X14719751Y-10985403D02*
X14710227Y-11004450D01*
X14710227Y-11004450D02*
X14700703Y-11013974D01*
X14700703Y-11013974D02*
X14681655Y-11023498D01*
X14681655Y-11023498D02*
X14643560Y-11023498D01*
X14643560Y-11023498D02*
X14624512Y-11033022D01*
X14624512Y-11033022D02*
X14614989Y-11042546D01*
X14614989Y-11042546D02*
X14605465Y-11061593D01*
X14605465Y-11061593D02*
X14605465Y-11099689D01*
X14605465Y-11099689D02*
X14614989Y-11118736D01*
X14614989Y-11118736D02*
X14624512Y-11128260D01*
X14624512Y-11128260D02*
X14643560Y-11137784D01*
X14643560Y-11137784D02*
X14681655Y-11137784D01*
X14681655Y-11137784D02*
X14700703Y-11128260D01*
X14700703Y-11128260D02*
X14710227Y-11118736D01*
X14710227Y-11118736D02*
X14719751Y-11099689D01*
X14719751Y-11099689D02*
X14719751Y-11061593D01*
X14719751Y-11061593D02*
X14710227Y-11042546D01*
X14710227Y-11042546D02*
X14700703Y-11033022D01*
X14700703Y-11033022D02*
X14681655Y-11023498D01*
X14957846Y-11137784D02*
X14957846Y-10937784D01*
X15043560Y-11137784D02*
X15043560Y-11033022D01*
X15043560Y-11033022D02*
X15034036Y-11013974D01*
X15034036Y-11013974D02*
X15014989Y-11004450D01*
X15014989Y-11004450D02*
X14986417Y-11004450D01*
X14986417Y-11004450D02*
X14967370Y-11013974D01*
X14967370Y-11013974D02*
X14957846Y-11023498D01*
X15167370Y-11137784D02*
X15148322Y-11128260D01*
X15148322Y-11128260D02*
X15138798Y-11118736D01*
X15138798Y-11118736D02*
X15129274Y-11099689D01*
X15129274Y-11099689D02*
X15129274Y-11042546D01*
X15129274Y-11042546D02*
X15138798Y-11023498D01*
X15138798Y-11023498D02*
X15148322Y-11013974D01*
X15148322Y-11013974D02*
X15167370Y-11004450D01*
X15167370Y-11004450D02*
X15195941Y-11004450D01*
X15195941Y-11004450D02*
X15214989Y-11013974D01*
X15214989Y-11013974D02*
X15224513Y-11023498D01*
X15224513Y-11023498D02*
X15234036Y-11042546D01*
X15234036Y-11042546D02*
X15234036Y-11099689D01*
X15234036Y-11099689D02*
X15224513Y-11118736D01*
X15224513Y-11118736D02*
X15214989Y-11128260D01*
X15214989Y-11128260D02*
X15195941Y-11137784D01*
X15195941Y-11137784D02*
X15167370Y-11137784D01*
X15348322Y-11137784D02*
X15329274Y-11128260D01*
X15329274Y-11128260D02*
X15319751Y-11109212D01*
X15319751Y-11109212D02*
X15319751Y-10937784D01*
X15500703Y-11128260D02*
X15481655Y-11137784D01*
X15481655Y-11137784D02*
X15443560Y-11137784D01*
X15443560Y-11137784D02*
X15424513Y-11128260D01*
X15424513Y-11128260D02*
X15414989Y-11109212D01*
X15414989Y-11109212D02*
X15414989Y-11033022D01*
X15414989Y-11033022D02*
X15424513Y-11013974D01*
X15424513Y-11013974D02*
X15443560Y-11004450D01*
X15443560Y-11004450D02*
X15481655Y-11004450D01*
X15481655Y-11004450D02*
X15500703Y-11013974D01*
X15500703Y-11013974D02*
X15510227Y-11033022D01*
X15510227Y-11033022D02*
X15510227Y-11052070D01*
X15510227Y-11052070D02*
X15414989Y-11071117D01*
X15586417Y-11128260D02*
X15605465Y-11137784D01*
X15605465Y-11137784D02*
X15643560Y-11137784D01*
X15643560Y-11137784D02*
X15662608Y-11128260D01*
X15662608Y-11128260D02*
X15672132Y-11109212D01*
X15672132Y-11109212D02*
X15672132Y-11099689D01*
X15672132Y-11099689D02*
X15662608Y-11080641D01*
X15662608Y-11080641D02*
X15643560Y-11071117D01*
X15643560Y-11071117D02*
X15614989Y-11071117D01*
X15614989Y-11071117D02*
X15595941Y-11061593D01*
X15595941Y-11061593D02*
X15586417Y-11042546D01*
X15586417Y-11042546D02*
X15586417Y-11033022D01*
X15586417Y-11033022D02*
X15595941Y-11013974D01*
X15595941Y-11013974D02*
X15614989Y-11004450D01*
X15614989Y-11004450D02*
X15643560Y-11004450D01*
X15643560Y-11004450D02*
X15662608Y-11013974D01*
X15738798Y-11213974D02*
X15748322Y-11204450D01*
X15748322Y-11204450D02*
X15767370Y-11175879D01*
X15767370Y-11175879D02*
X15776894Y-11156831D01*
X15776894Y-11156831D02*
X15786417Y-11128260D01*
X15786417Y-11128260D02*
X15795941Y-11080641D01*
X15795941Y-11080641D02*
X15795941Y-11042546D01*
X15795941Y-11042546D02*
X15786417Y-10994927D01*
X15786417Y-10994927D02*
X15776894Y-10966355D01*
X15776894Y-10966355D02*
X15767370Y-10947308D01*
X15767370Y-10947308D02*
X15748322Y-10918736D01*
X15748322Y-10918736D02*
X15738798Y-10909212D01*
D13*
X10963735Y-11310300D02*
G75*
G03*
X10963735Y-11310300I-40640J0D01*
G01*
D11*
X11262607Y-11201784D02*
X11281655Y-11201784D01*
X11281655Y-11201784D02*
X11300703Y-11211308D01*
X11300703Y-11211308D02*
X11310226Y-11220831D01*
X11310226Y-11220831D02*
X11319750Y-11239879D01*
X11319750Y-11239879D02*
X11329274Y-11277974D01*
X11329274Y-11277974D02*
X11329274Y-11325593D01*
X11329274Y-11325593D02*
X11319750Y-11363688D01*
X11319750Y-11363688D02*
X11310226Y-11382736D01*
X11310226Y-11382736D02*
X11300703Y-11392260D01*
X11300703Y-11392260D02*
X11281655Y-11401784D01*
X11281655Y-11401784D02*
X11262607Y-11401784D01*
X11262607Y-11401784D02*
X11243560Y-11392260D01*
X11243560Y-11392260D02*
X11234036Y-11382736D01*
X11234036Y-11382736D02*
X11224512Y-11363688D01*
X11224512Y-11363688D02*
X11214988Y-11325593D01*
X11214988Y-11325593D02*
X11214988Y-11277974D01*
X11214988Y-11277974D02*
X11224512Y-11239879D01*
X11224512Y-11239879D02*
X11234036Y-11220831D01*
X11234036Y-11220831D02*
X11243560Y-11211308D01*
X11243560Y-11211308D02*
X11262607Y-11201784D01*
X11414988Y-11382736D02*
X11424512Y-11392260D01*
X11424512Y-11392260D02*
X11414988Y-11401784D01*
X11414988Y-11401784D02*
X11405465Y-11392260D01*
X11405465Y-11392260D02*
X11414988Y-11382736D01*
X11414988Y-11382736D02*
X11414988Y-11401784D01*
X11538798Y-11287498D02*
X11519750Y-11277974D01*
X11519750Y-11277974D02*
X11510226Y-11268450D01*
X11510226Y-11268450D02*
X11500703Y-11249403D01*
X11500703Y-11249403D02*
X11500703Y-11239879D01*
X11500703Y-11239879D02*
X11510226Y-11220831D01*
X11510226Y-11220831D02*
X11519750Y-11211308D01*
X11519750Y-11211308D02*
X11538798Y-11201784D01*
X11538798Y-11201784D02*
X11576893Y-11201784D01*
X11576893Y-11201784D02*
X11595941Y-11211308D01*
X11595941Y-11211308D02*
X11605465Y-11220831D01*
X11605465Y-11220831D02*
X11614988Y-11239879D01*
X11614988Y-11239879D02*
X11614988Y-11249403D01*
X11614988Y-11249403D02*
X11605465Y-11268450D01*
X11605465Y-11268450D02*
X11595941Y-11277974D01*
X11595941Y-11277974D02*
X11576893Y-11287498D01*
X11576893Y-11287498D02*
X11538798Y-11287498D01*
X11538798Y-11287498D02*
X11519750Y-11297022D01*
X11519750Y-11297022D02*
X11510226Y-11306546D01*
X11510226Y-11306546D02*
X11500703Y-11325593D01*
X11500703Y-11325593D02*
X11500703Y-11363688D01*
X11500703Y-11363688D02*
X11510226Y-11382736D01*
X11510226Y-11382736D02*
X11519750Y-11392260D01*
X11519750Y-11392260D02*
X11538798Y-11401784D01*
X11538798Y-11401784D02*
X11576893Y-11401784D01*
X11576893Y-11401784D02*
X11595941Y-11392260D01*
X11595941Y-11392260D02*
X11605465Y-11382736D01*
X11605465Y-11382736D02*
X11614988Y-11363688D01*
X11614988Y-11363688D02*
X11614988Y-11325593D01*
X11614988Y-11325593D02*
X11605465Y-11306546D01*
X11605465Y-11306546D02*
X11595941Y-11297022D01*
X11595941Y-11297022D02*
X11576893Y-11287498D01*
X11805465Y-11401784D02*
X11691179Y-11401784D01*
X11748322Y-11401784D02*
X11748322Y-11201784D01*
X11748322Y-11201784D02*
X11729274Y-11230355D01*
X11729274Y-11230355D02*
X11710226Y-11249403D01*
X11710226Y-11249403D02*
X11691179Y-11258927D01*
X11872131Y-11201784D02*
X11995941Y-11201784D01*
X11995941Y-11201784D02*
X11929274Y-11277974D01*
X11929274Y-11277974D02*
X11957846Y-11277974D01*
X11957846Y-11277974D02*
X11976893Y-11287498D01*
X11976893Y-11287498D02*
X11986417Y-11297022D01*
X11986417Y-11297022D02*
X11995941Y-11316069D01*
X11995941Y-11316069D02*
X11995941Y-11363688D01*
X11995941Y-11363688D02*
X11986417Y-11382736D01*
X11986417Y-11382736D02*
X11976893Y-11392260D01*
X11976893Y-11392260D02*
X11957846Y-11401784D01*
X11957846Y-11401784D02*
X11900703Y-11401784D01*
X11900703Y-11401784D02*
X11881655Y-11392260D01*
X11881655Y-11392260D02*
X11872131Y-11382736D01*
X12081655Y-11401784D02*
X12081655Y-11268450D01*
X12081655Y-11287498D02*
X12091179Y-11277974D01*
X12091179Y-11277974D02*
X12110226Y-11268450D01*
X12110226Y-11268450D02*
X12138798Y-11268450D01*
X12138798Y-11268450D02*
X12157846Y-11277974D01*
X12157846Y-11277974D02*
X12167369Y-11297022D01*
X12167369Y-11297022D02*
X12167369Y-11401784D01*
X12167369Y-11297022D02*
X12176893Y-11277974D01*
X12176893Y-11277974D02*
X12195941Y-11268450D01*
X12195941Y-11268450D02*
X12224512Y-11268450D01*
X12224512Y-11268450D02*
X12243560Y-11277974D01*
X12243560Y-11277974D02*
X12253084Y-11297022D01*
X12253084Y-11297022D02*
X12253084Y-11401784D01*
X12348322Y-11401784D02*
X12348322Y-11268450D01*
X12348322Y-11287498D02*
X12357846Y-11277974D01*
X12357846Y-11277974D02*
X12376893Y-11268450D01*
X12376893Y-11268450D02*
X12405465Y-11268450D01*
X12405465Y-11268450D02*
X12424512Y-11277974D01*
X12424512Y-11277974D02*
X12434036Y-11297022D01*
X12434036Y-11297022D02*
X12434036Y-11401784D01*
X12434036Y-11297022D02*
X12443560Y-11277974D01*
X12443560Y-11277974D02*
X12462607Y-11268450D01*
X12462607Y-11268450D02*
X12491179Y-11268450D01*
X12491179Y-11268450D02*
X12510227Y-11277974D01*
X12510227Y-11277974D02*
X12519750Y-11297022D01*
X12519750Y-11297022D02*
X12519750Y-11401784D01*
X12910227Y-11192260D02*
X12738798Y-11449403D01*
X13167369Y-11201784D02*
X13186417Y-11201784D01*
X13186417Y-11201784D02*
X13205465Y-11211308D01*
X13205465Y-11211308D02*
X13214989Y-11220831D01*
X13214989Y-11220831D02*
X13224512Y-11239879D01*
X13224512Y-11239879D02*
X13234036Y-11277974D01*
X13234036Y-11277974D02*
X13234036Y-11325593D01*
X13234036Y-11325593D02*
X13224512Y-11363688D01*
X13224512Y-11363688D02*
X13214989Y-11382736D01*
X13214989Y-11382736D02*
X13205465Y-11392260D01*
X13205465Y-11392260D02*
X13186417Y-11401784D01*
X13186417Y-11401784D02*
X13167369Y-11401784D01*
X13167369Y-11401784D02*
X13148322Y-11392260D01*
X13148322Y-11392260D02*
X13138798Y-11382736D01*
X13138798Y-11382736D02*
X13129274Y-11363688D01*
X13129274Y-11363688D02*
X13119750Y-11325593D01*
X13119750Y-11325593D02*
X13119750Y-11277974D01*
X13119750Y-11277974D02*
X13129274Y-11239879D01*
X13129274Y-11239879D02*
X13138798Y-11220831D01*
X13138798Y-11220831D02*
X13148322Y-11211308D01*
X13148322Y-11211308D02*
X13167369Y-11201784D01*
X13319750Y-11382736D02*
X13329274Y-11392260D01*
X13329274Y-11392260D02*
X13319750Y-11401784D01*
X13319750Y-11401784D02*
X13310227Y-11392260D01*
X13310227Y-11392260D02*
X13319750Y-11382736D01*
X13319750Y-11382736D02*
X13319750Y-11401784D01*
X13453084Y-11201784D02*
X13472131Y-11201784D01*
X13472131Y-11201784D02*
X13491179Y-11211308D01*
X13491179Y-11211308D02*
X13500703Y-11220831D01*
X13500703Y-11220831D02*
X13510227Y-11239879D01*
X13510227Y-11239879D02*
X13519750Y-11277974D01*
X13519750Y-11277974D02*
X13519750Y-11325593D01*
X13519750Y-11325593D02*
X13510227Y-11363688D01*
X13510227Y-11363688D02*
X13500703Y-11382736D01*
X13500703Y-11382736D02*
X13491179Y-11392260D01*
X13491179Y-11392260D02*
X13472131Y-11401784D01*
X13472131Y-11401784D02*
X13453084Y-11401784D01*
X13453084Y-11401784D02*
X13434036Y-11392260D01*
X13434036Y-11392260D02*
X13424512Y-11382736D01*
X13424512Y-11382736D02*
X13414989Y-11363688D01*
X13414989Y-11363688D02*
X13405465Y-11325593D01*
X13405465Y-11325593D02*
X13405465Y-11277974D01*
X13405465Y-11277974D02*
X13414989Y-11239879D01*
X13414989Y-11239879D02*
X13424512Y-11220831D01*
X13424512Y-11220831D02*
X13434036Y-11211308D01*
X13434036Y-11211308D02*
X13453084Y-11201784D01*
X13586417Y-11201784D02*
X13710227Y-11201784D01*
X13710227Y-11201784D02*
X13643560Y-11277974D01*
X13643560Y-11277974D02*
X13672131Y-11277974D01*
X13672131Y-11277974D02*
X13691179Y-11287498D01*
X13691179Y-11287498D02*
X13700703Y-11297022D01*
X13700703Y-11297022D02*
X13710227Y-11316069D01*
X13710227Y-11316069D02*
X13710227Y-11363688D01*
X13710227Y-11363688D02*
X13700703Y-11382736D01*
X13700703Y-11382736D02*
X13691179Y-11392260D01*
X13691179Y-11392260D02*
X13672131Y-11401784D01*
X13672131Y-11401784D02*
X13614989Y-11401784D01*
X13614989Y-11401784D02*
X13595941Y-11392260D01*
X13595941Y-11392260D02*
X13586417Y-11382736D01*
X13786417Y-11220831D02*
X13795941Y-11211308D01*
X13795941Y-11211308D02*
X13814989Y-11201784D01*
X13814989Y-11201784D02*
X13862608Y-11201784D01*
X13862608Y-11201784D02*
X13881655Y-11211308D01*
X13881655Y-11211308D02*
X13891179Y-11220831D01*
X13891179Y-11220831D02*
X13900703Y-11239879D01*
X13900703Y-11239879D02*
X13900703Y-11258927D01*
X13900703Y-11258927D02*
X13891179Y-11287498D01*
X13891179Y-11287498D02*
X13776893Y-11401784D01*
X13776893Y-11401784D02*
X13900703Y-11401784D01*
X14024512Y-11201784D02*
X14043560Y-11201784D01*
X14043560Y-11201784D02*
X14062608Y-11211308D01*
X14062608Y-11211308D02*
X14072131Y-11220831D01*
X14072131Y-11220831D02*
X14081655Y-11239879D01*
X14081655Y-11239879D02*
X14091179Y-11277974D01*
X14091179Y-11277974D02*
X14091179Y-11325593D01*
X14091179Y-11325593D02*
X14081655Y-11363688D01*
X14081655Y-11363688D02*
X14072131Y-11382736D01*
X14072131Y-11382736D02*
X14062608Y-11392260D01*
X14062608Y-11392260D02*
X14043560Y-11401784D01*
X14043560Y-11401784D02*
X14024512Y-11401784D01*
X14024512Y-11401784D02*
X14005465Y-11392260D01*
X14005465Y-11392260D02*
X13995941Y-11382736D01*
X13995941Y-11382736D02*
X13986417Y-11363688D01*
X13986417Y-11363688D02*
X13976893Y-11325593D01*
X13976893Y-11325593D02*
X13976893Y-11277974D01*
X13976893Y-11277974D02*
X13986417Y-11239879D01*
X13986417Y-11239879D02*
X13995941Y-11220831D01*
X13995941Y-11220831D02*
X14005465Y-11211308D01*
X14005465Y-11211308D02*
X14024512Y-11201784D01*
X14167370Y-11201784D02*
X14167370Y-11239879D01*
X14243560Y-11201784D02*
X14243560Y-11239879D01*
X14538798Y-11477974D02*
X14529274Y-11468450D01*
X14529274Y-11468450D02*
X14510227Y-11439879D01*
X14510227Y-11439879D02*
X14500703Y-11420831D01*
X14500703Y-11420831D02*
X14491179Y-11392260D01*
X14491179Y-11392260D02*
X14481655Y-11344641D01*
X14481655Y-11344641D02*
X14481655Y-11306546D01*
X14481655Y-11306546D02*
X14491179Y-11258927D01*
X14491179Y-11258927D02*
X14500703Y-11230355D01*
X14500703Y-11230355D02*
X14510227Y-11211308D01*
X14510227Y-11211308D02*
X14529274Y-11182736D01*
X14529274Y-11182736D02*
X14538798Y-11173212D01*
X14595941Y-11201784D02*
X14719751Y-11201784D01*
X14719751Y-11201784D02*
X14653084Y-11277974D01*
X14653084Y-11277974D02*
X14681655Y-11277974D01*
X14681655Y-11277974D02*
X14700703Y-11287498D01*
X14700703Y-11287498D02*
X14710227Y-11297022D01*
X14710227Y-11297022D02*
X14719751Y-11316069D01*
X14719751Y-11316069D02*
X14719751Y-11363688D01*
X14719751Y-11363688D02*
X14710227Y-11382736D01*
X14710227Y-11382736D02*
X14700703Y-11392260D01*
X14700703Y-11392260D02*
X14681655Y-11401784D01*
X14681655Y-11401784D02*
X14624512Y-11401784D01*
X14624512Y-11401784D02*
X14605465Y-11392260D01*
X14605465Y-11392260D02*
X14595941Y-11382736D01*
X14957846Y-11401784D02*
X14957846Y-11201784D01*
X15043560Y-11401784D02*
X15043560Y-11297022D01*
X15043560Y-11297022D02*
X15034036Y-11277974D01*
X15034036Y-11277974D02*
X15014989Y-11268450D01*
X15014989Y-11268450D02*
X14986417Y-11268450D01*
X14986417Y-11268450D02*
X14967370Y-11277974D01*
X14967370Y-11277974D02*
X14957846Y-11287498D01*
X15167370Y-11401784D02*
X15148322Y-11392260D01*
X15148322Y-11392260D02*
X15138798Y-11382736D01*
X15138798Y-11382736D02*
X15129274Y-11363688D01*
X15129274Y-11363688D02*
X15129274Y-11306546D01*
X15129274Y-11306546D02*
X15138798Y-11287498D01*
X15138798Y-11287498D02*
X15148322Y-11277974D01*
X15148322Y-11277974D02*
X15167370Y-11268450D01*
X15167370Y-11268450D02*
X15195941Y-11268450D01*
X15195941Y-11268450D02*
X15214989Y-11277974D01*
X15214989Y-11277974D02*
X15224513Y-11287498D01*
X15224513Y-11287498D02*
X15234036Y-11306546D01*
X15234036Y-11306546D02*
X15234036Y-11363688D01*
X15234036Y-11363688D02*
X15224513Y-11382736D01*
X15224513Y-11382736D02*
X15214989Y-11392260D01*
X15214989Y-11392260D02*
X15195941Y-11401784D01*
X15195941Y-11401784D02*
X15167370Y-11401784D01*
X15348322Y-11401784D02*
X15329274Y-11392260D01*
X15329274Y-11392260D02*
X15319751Y-11373212D01*
X15319751Y-11373212D02*
X15319751Y-11201784D01*
X15500703Y-11392260D02*
X15481655Y-11401784D01*
X15481655Y-11401784D02*
X15443560Y-11401784D01*
X15443560Y-11401784D02*
X15424513Y-11392260D01*
X15424513Y-11392260D02*
X15414989Y-11373212D01*
X15414989Y-11373212D02*
X15414989Y-11297022D01*
X15414989Y-11297022D02*
X15424513Y-11277974D01*
X15424513Y-11277974D02*
X15443560Y-11268450D01*
X15443560Y-11268450D02*
X15481655Y-11268450D01*
X15481655Y-11268450D02*
X15500703Y-11277974D01*
X15500703Y-11277974D02*
X15510227Y-11297022D01*
X15510227Y-11297022D02*
X15510227Y-11316069D01*
X15510227Y-11316069D02*
X15414989Y-11335117D01*
X15586417Y-11392260D02*
X15605465Y-11401784D01*
X15605465Y-11401784D02*
X15643560Y-11401784D01*
X15643560Y-11401784D02*
X15662608Y-11392260D01*
X15662608Y-11392260D02*
X15672132Y-11373212D01*
X15672132Y-11373212D02*
X15672132Y-11363688D01*
X15672132Y-11363688D02*
X15662608Y-11344641D01*
X15662608Y-11344641D02*
X15643560Y-11335117D01*
X15643560Y-11335117D02*
X15614989Y-11335117D01*
X15614989Y-11335117D02*
X15595941Y-11325593D01*
X15595941Y-11325593D02*
X15586417Y-11306546D01*
X15586417Y-11306546D02*
X15586417Y-11297022D01*
X15586417Y-11297022D02*
X15595941Y-11277974D01*
X15595941Y-11277974D02*
X15614989Y-11268450D01*
X15614989Y-11268450D02*
X15643560Y-11268450D01*
X15643560Y-11268450D02*
X15662608Y-11277974D01*
X15738798Y-11477974D02*
X15748322Y-11468450D01*
X15748322Y-11468450D02*
X15767370Y-11439879D01*
X15767370Y-11439879D02*
X15776894Y-11420831D01*
X15776894Y-11420831D02*
X15786417Y-11392260D01*
X15786417Y-11392260D02*
X15795941Y-11344641D01*
X15795941Y-11344641D02*
X15795941Y-11306546D01*
X15795941Y-11306546D02*
X15786417Y-11258927D01*
X15786417Y-11258927D02*
X15776894Y-11230355D01*
X15776894Y-11230355D02*
X15767370Y-11211308D01*
X15767370Y-11211308D02*
X15748322Y-11182736D01*
X15748322Y-11182736D02*
X15738798Y-11173212D01*
D10*
X10913735Y-11524300D02*
X10913735Y-11624300D01*
X10863735Y-11574300D02*
X10963735Y-11574300D01*
D11*
X11329274Y-11665784D02*
X11214988Y-11665784D01*
X11272131Y-11665784D02*
X11272131Y-11465784D01*
X11272131Y-11465784D02*
X11253084Y-11494355D01*
X11253084Y-11494355D02*
X11234036Y-11513403D01*
X11234036Y-11513403D02*
X11214988Y-11522927D01*
X11414988Y-11646736D02*
X11424512Y-11656260D01*
X11424512Y-11656260D02*
X11414988Y-11665784D01*
X11414988Y-11665784D02*
X11405465Y-11656260D01*
X11405465Y-11656260D02*
X11414988Y-11646736D01*
X11414988Y-11646736D02*
X11414988Y-11665784D01*
X11548322Y-11465784D02*
X11567369Y-11465784D01*
X11567369Y-11465784D02*
X11586417Y-11475308D01*
X11586417Y-11475308D02*
X11595941Y-11484831D01*
X11595941Y-11484831D02*
X11605465Y-11503879D01*
X11605465Y-11503879D02*
X11614988Y-11541974D01*
X11614988Y-11541974D02*
X11614988Y-11589593D01*
X11614988Y-11589593D02*
X11605465Y-11627688D01*
X11605465Y-11627688D02*
X11595941Y-11646736D01*
X11595941Y-11646736D02*
X11586417Y-11656260D01*
X11586417Y-11656260D02*
X11567369Y-11665784D01*
X11567369Y-11665784D02*
X11548322Y-11665784D01*
X11548322Y-11665784D02*
X11529274Y-11656260D01*
X11529274Y-11656260D02*
X11519750Y-11646736D01*
X11519750Y-11646736D02*
X11510226Y-11627688D01*
X11510226Y-11627688D02*
X11500703Y-11589593D01*
X11500703Y-11589593D02*
X11500703Y-11541974D01*
X11500703Y-11541974D02*
X11510226Y-11503879D01*
X11510226Y-11503879D02*
X11519750Y-11484831D01*
X11519750Y-11484831D02*
X11529274Y-11475308D01*
X11529274Y-11475308D02*
X11548322Y-11465784D01*
X11738798Y-11465784D02*
X11757846Y-11465784D01*
X11757846Y-11465784D02*
X11776893Y-11475308D01*
X11776893Y-11475308D02*
X11786417Y-11484831D01*
X11786417Y-11484831D02*
X11795941Y-11503879D01*
X11795941Y-11503879D02*
X11805465Y-11541974D01*
X11805465Y-11541974D02*
X11805465Y-11589593D01*
X11805465Y-11589593D02*
X11795941Y-11627688D01*
X11795941Y-11627688D02*
X11786417Y-11646736D01*
X11786417Y-11646736D02*
X11776893Y-11656260D01*
X11776893Y-11656260D02*
X11757846Y-11665784D01*
X11757846Y-11665784D02*
X11738798Y-11665784D01*
X11738798Y-11665784D02*
X11719750Y-11656260D01*
X11719750Y-11656260D02*
X11710226Y-11646736D01*
X11710226Y-11646736D02*
X11700703Y-11627688D01*
X11700703Y-11627688D02*
X11691179Y-11589593D01*
X11691179Y-11589593D02*
X11691179Y-11541974D01*
X11691179Y-11541974D02*
X11700703Y-11503879D01*
X11700703Y-11503879D02*
X11710226Y-11484831D01*
X11710226Y-11484831D02*
X11719750Y-11475308D01*
X11719750Y-11475308D02*
X11738798Y-11465784D01*
X11929274Y-11465784D02*
X11948322Y-11465784D01*
X11948322Y-11465784D02*
X11967369Y-11475308D01*
X11967369Y-11475308D02*
X11976893Y-11484831D01*
X11976893Y-11484831D02*
X11986417Y-11503879D01*
X11986417Y-11503879D02*
X11995941Y-11541974D01*
X11995941Y-11541974D02*
X11995941Y-11589593D01*
X11995941Y-11589593D02*
X11986417Y-11627688D01*
X11986417Y-11627688D02*
X11976893Y-11646736D01*
X11976893Y-11646736D02*
X11967369Y-11656260D01*
X11967369Y-11656260D02*
X11948322Y-11665784D01*
X11948322Y-11665784D02*
X11929274Y-11665784D01*
X11929274Y-11665784D02*
X11910226Y-11656260D01*
X11910226Y-11656260D02*
X11900703Y-11646736D01*
X11900703Y-11646736D02*
X11891179Y-11627688D01*
X11891179Y-11627688D02*
X11881655Y-11589593D01*
X11881655Y-11589593D02*
X11881655Y-11541974D01*
X11881655Y-11541974D02*
X11891179Y-11503879D01*
X11891179Y-11503879D02*
X11900703Y-11484831D01*
X11900703Y-11484831D02*
X11910226Y-11475308D01*
X11910226Y-11475308D02*
X11929274Y-11465784D01*
X12081655Y-11665784D02*
X12081655Y-11532450D01*
X12081655Y-11551498D02*
X12091179Y-11541974D01*
X12091179Y-11541974D02*
X12110226Y-11532450D01*
X12110226Y-11532450D02*
X12138798Y-11532450D01*
X12138798Y-11532450D02*
X12157846Y-11541974D01*
X12157846Y-11541974D02*
X12167369Y-11561022D01*
X12167369Y-11561022D02*
X12167369Y-11665784D01*
X12167369Y-11561022D02*
X12176893Y-11541974D01*
X12176893Y-11541974D02*
X12195941Y-11532450D01*
X12195941Y-11532450D02*
X12224512Y-11532450D01*
X12224512Y-11532450D02*
X12243560Y-11541974D01*
X12243560Y-11541974D02*
X12253084Y-11561022D01*
X12253084Y-11561022D02*
X12253084Y-11665784D01*
X12348322Y-11665784D02*
X12348322Y-11532450D01*
X12348322Y-11551498D02*
X12357846Y-11541974D01*
X12357846Y-11541974D02*
X12376893Y-11532450D01*
X12376893Y-11532450D02*
X12405465Y-11532450D01*
X12405465Y-11532450D02*
X12424512Y-11541974D01*
X12424512Y-11541974D02*
X12434036Y-11561022D01*
X12434036Y-11561022D02*
X12434036Y-11665784D01*
X12434036Y-11561022D02*
X12443560Y-11541974D01*
X12443560Y-11541974D02*
X12462607Y-11532450D01*
X12462607Y-11532450D02*
X12491179Y-11532450D01*
X12491179Y-11532450D02*
X12510227Y-11541974D01*
X12510227Y-11541974D02*
X12519750Y-11561022D01*
X12519750Y-11561022D02*
X12519750Y-11665784D01*
X12910227Y-11456260D02*
X12738798Y-11713403D01*
X13167369Y-11465784D02*
X13186417Y-11465784D01*
X13186417Y-11465784D02*
X13205465Y-11475308D01*
X13205465Y-11475308D02*
X13214989Y-11484831D01*
X13214989Y-11484831D02*
X13224512Y-11503879D01*
X13224512Y-11503879D02*
X13234036Y-11541974D01*
X13234036Y-11541974D02*
X13234036Y-11589593D01*
X13234036Y-11589593D02*
X13224512Y-11627688D01*
X13224512Y-11627688D02*
X13214989Y-11646736D01*
X13214989Y-11646736D02*
X13205465Y-11656260D01*
X13205465Y-11656260D02*
X13186417Y-11665784D01*
X13186417Y-11665784D02*
X13167369Y-11665784D01*
X13167369Y-11665784D02*
X13148322Y-11656260D01*
X13148322Y-11656260D02*
X13138798Y-11646736D01*
X13138798Y-11646736D02*
X13129274Y-11627688D01*
X13129274Y-11627688D02*
X13119750Y-11589593D01*
X13119750Y-11589593D02*
X13119750Y-11541974D01*
X13119750Y-11541974D02*
X13129274Y-11503879D01*
X13129274Y-11503879D02*
X13138798Y-11484831D01*
X13138798Y-11484831D02*
X13148322Y-11475308D01*
X13148322Y-11475308D02*
X13167369Y-11465784D01*
X13319750Y-11646736D02*
X13329274Y-11656260D01*
X13329274Y-11656260D02*
X13319750Y-11665784D01*
X13319750Y-11665784D02*
X13310227Y-11656260D01*
X13310227Y-11656260D02*
X13319750Y-11646736D01*
X13319750Y-11646736D02*
X13319750Y-11665784D01*
X13453084Y-11465784D02*
X13472131Y-11465784D01*
X13472131Y-11465784D02*
X13491179Y-11475308D01*
X13491179Y-11475308D02*
X13500703Y-11484831D01*
X13500703Y-11484831D02*
X13510227Y-11503879D01*
X13510227Y-11503879D02*
X13519750Y-11541974D01*
X13519750Y-11541974D02*
X13519750Y-11589593D01*
X13519750Y-11589593D02*
X13510227Y-11627688D01*
X13510227Y-11627688D02*
X13500703Y-11646736D01*
X13500703Y-11646736D02*
X13491179Y-11656260D01*
X13491179Y-11656260D02*
X13472131Y-11665784D01*
X13472131Y-11665784D02*
X13453084Y-11665784D01*
X13453084Y-11665784D02*
X13434036Y-11656260D01*
X13434036Y-11656260D02*
X13424512Y-11646736D01*
X13424512Y-11646736D02*
X13414989Y-11627688D01*
X13414989Y-11627688D02*
X13405465Y-11589593D01*
X13405465Y-11589593D02*
X13405465Y-11541974D01*
X13405465Y-11541974D02*
X13414989Y-11503879D01*
X13414989Y-11503879D02*
X13424512Y-11484831D01*
X13424512Y-11484831D02*
X13434036Y-11475308D01*
X13434036Y-11475308D02*
X13453084Y-11465784D01*
X13586417Y-11465784D02*
X13710227Y-11465784D01*
X13710227Y-11465784D02*
X13643560Y-11541974D01*
X13643560Y-11541974D02*
X13672131Y-11541974D01*
X13672131Y-11541974D02*
X13691179Y-11551498D01*
X13691179Y-11551498D02*
X13700703Y-11561022D01*
X13700703Y-11561022D02*
X13710227Y-11580069D01*
X13710227Y-11580069D02*
X13710227Y-11627688D01*
X13710227Y-11627688D02*
X13700703Y-11646736D01*
X13700703Y-11646736D02*
X13691179Y-11656260D01*
X13691179Y-11656260D02*
X13672131Y-11665784D01*
X13672131Y-11665784D02*
X13614989Y-11665784D01*
X13614989Y-11665784D02*
X13595941Y-11656260D01*
X13595941Y-11656260D02*
X13586417Y-11646736D01*
X13805465Y-11665784D02*
X13843560Y-11665784D01*
X13843560Y-11665784D02*
X13862608Y-11656260D01*
X13862608Y-11656260D02*
X13872131Y-11646736D01*
X13872131Y-11646736D02*
X13891179Y-11618165D01*
X13891179Y-11618165D02*
X13900703Y-11580069D01*
X13900703Y-11580069D02*
X13900703Y-11503879D01*
X13900703Y-11503879D02*
X13891179Y-11484831D01*
X13891179Y-11484831D02*
X13881655Y-11475308D01*
X13881655Y-11475308D02*
X13862608Y-11465784D01*
X13862608Y-11465784D02*
X13824512Y-11465784D01*
X13824512Y-11465784D02*
X13805465Y-11475308D01*
X13805465Y-11475308D02*
X13795941Y-11484831D01*
X13795941Y-11484831D02*
X13786417Y-11503879D01*
X13786417Y-11503879D02*
X13786417Y-11551498D01*
X13786417Y-11551498D02*
X13795941Y-11570546D01*
X13795941Y-11570546D02*
X13805465Y-11580069D01*
X13805465Y-11580069D02*
X13824512Y-11589593D01*
X13824512Y-11589593D02*
X13862608Y-11589593D01*
X13862608Y-11589593D02*
X13881655Y-11580069D01*
X13881655Y-11580069D02*
X13891179Y-11570546D01*
X13891179Y-11570546D02*
X13900703Y-11551498D01*
X14072131Y-11532450D02*
X14072131Y-11665784D01*
X14024512Y-11456260D02*
X13976893Y-11599117D01*
X13976893Y-11599117D02*
X14100703Y-11599117D01*
X14167370Y-11465784D02*
X14167370Y-11503879D01*
X14243560Y-11465784D02*
X14243560Y-11503879D01*
X14538798Y-11741974D02*
X14529274Y-11732450D01*
X14529274Y-11732450D02*
X14510227Y-11703879D01*
X14510227Y-11703879D02*
X14500703Y-11684831D01*
X14500703Y-11684831D02*
X14491179Y-11656260D01*
X14491179Y-11656260D02*
X14481655Y-11608641D01*
X14481655Y-11608641D02*
X14481655Y-11570546D01*
X14481655Y-11570546D02*
X14491179Y-11522927D01*
X14491179Y-11522927D02*
X14500703Y-11494355D01*
X14500703Y-11494355D02*
X14510227Y-11475308D01*
X14510227Y-11475308D02*
X14529274Y-11446736D01*
X14529274Y-11446736D02*
X14538798Y-11437212D01*
X14700703Y-11465784D02*
X14662608Y-11465784D01*
X14662608Y-11465784D02*
X14643560Y-11475308D01*
X14643560Y-11475308D02*
X14634036Y-11484831D01*
X14634036Y-11484831D02*
X14614989Y-11513403D01*
X14614989Y-11513403D02*
X14605465Y-11551498D01*
X14605465Y-11551498D02*
X14605465Y-11627688D01*
X14605465Y-11627688D02*
X14614989Y-11646736D01*
X14614989Y-11646736D02*
X14624512Y-11656260D01*
X14624512Y-11656260D02*
X14643560Y-11665784D01*
X14643560Y-11665784D02*
X14681655Y-11665784D01*
X14681655Y-11665784D02*
X14700703Y-11656260D01*
X14700703Y-11656260D02*
X14710227Y-11646736D01*
X14710227Y-11646736D02*
X14719751Y-11627688D01*
X14719751Y-11627688D02*
X14719751Y-11580069D01*
X14719751Y-11580069D02*
X14710227Y-11561022D01*
X14710227Y-11561022D02*
X14700703Y-11551498D01*
X14700703Y-11551498D02*
X14681655Y-11541974D01*
X14681655Y-11541974D02*
X14643560Y-11541974D01*
X14643560Y-11541974D02*
X14624512Y-11551498D01*
X14624512Y-11551498D02*
X14614989Y-11561022D01*
X14614989Y-11561022D02*
X14605465Y-11580069D01*
X14957846Y-11665784D02*
X14957846Y-11465784D01*
X15043560Y-11665784D02*
X15043560Y-11561022D01*
X15043560Y-11561022D02*
X15034036Y-11541974D01*
X15034036Y-11541974D02*
X15014989Y-11532450D01*
X15014989Y-11532450D02*
X14986417Y-11532450D01*
X14986417Y-11532450D02*
X14967370Y-11541974D01*
X14967370Y-11541974D02*
X14957846Y-11551498D01*
X15167370Y-11665784D02*
X15148322Y-11656260D01*
X15148322Y-11656260D02*
X15138798Y-11646736D01*
X15138798Y-11646736D02*
X15129274Y-11627688D01*
X15129274Y-11627688D02*
X15129274Y-11570546D01*
X15129274Y-11570546D02*
X15138798Y-11551498D01*
X15138798Y-11551498D02*
X15148322Y-11541974D01*
X15148322Y-11541974D02*
X15167370Y-11532450D01*
X15167370Y-11532450D02*
X15195941Y-11532450D01*
X15195941Y-11532450D02*
X15214989Y-11541974D01*
X15214989Y-11541974D02*
X15224513Y-11551498D01*
X15224513Y-11551498D02*
X15234036Y-11570546D01*
X15234036Y-11570546D02*
X15234036Y-11627688D01*
X15234036Y-11627688D02*
X15224513Y-11646736D01*
X15224513Y-11646736D02*
X15214989Y-11656260D01*
X15214989Y-11656260D02*
X15195941Y-11665784D01*
X15195941Y-11665784D02*
X15167370Y-11665784D01*
X15348322Y-11665784D02*
X15329274Y-11656260D01*
X15329274Y-11656260D02*
X15319751Y-11637212D01*
X15319751Y-11637212D02*
X15319751Y-11465784D01*
X15500703Y-11656260D02*
X15481655Y-11665784D01*
X15481655Y-11665784D02*
X15443560Y-11665784D01*
X15443560Y-11665784D02*
X15424513Y-11656260D01*
X15424513Y-11656260D02*
X15414989Y-11637212D01*
X15414989Y-11637212D02*
X15414989Y-11561022D01*
X15414989Y-11561022D02*
X15424513Y-11541974D01*
X15424513Y-11541974D02*
X15443560Y-11532450D01*
X15443560Y-11532450D02*
X15481655Y-11532450D01*
X15481655Y-11532450D02*
X15500703Y-11541974D01*
X15500703Y-11541974D02*
X15510227Y-11561022D01*
X15510227Y-11561022D02*
X15510227Y-11580069D01*
X15510227Y-11580069D02*
X15414989Y-11599117D01*
X15586417Y-11656260D02*
X15605465Y-11665784D01*
X15605465Y-11665784D02*
X15643560Y-11665784D01*
X15643560Y-11665784D02*
X15662608Y-11656260D01*
X15662608Y-11656260D02*
X15672132Y-11637212D01*
X15672132Y-11637212D02*
X15672132Y-11627688D01*
X15672132Y-11627688D02*
X15662608Y-11608641D01*
X15662608Y-11608641D02*
X15643560Y-11599117D01*
X15643560Y-11599117D02*
X15614989Y-11599117D01*
X15614989Y-11599117D02*
X15595941Y-11589593D01*
X15595941Y-11589593D02*
X15586417Y-11570546D01*
X15586417Y-11570546D02*
X15586417Y-11561022D01*
X15586417Y-11561022D02*
X15595941Y-11541974D01*
X15595941Y-11541974D02*
X15614989Y-11532450D01*
X15614989Y-11532450D02*
X15643560Y-11532450D01*
X15643560Y-11532450D02*
X15662608Y-11541974D01*
X15738798Y-11741974D02*
X15748322Y-11732450D01*
X15748322Y-11732450D02*
X15767370Y-11703879D01*
X15767370Y-11703879D02*
X15776894Y-11684831D01*
X15776894Y-11684831D02*
X15786417Y-11656260D01*
X15786417Y-11656260D02*
X15795941Y-11608641D01*
X15795941Y-11608641D02*
X15795941Y-11570546D01*
X15795941Y-11570546D02*
X15786417Y-11522927D01*
X15786417Y-11522927D02*
X15776894Y-11494355D01*
X15776894Y-11494355D02*
X15767370Y-11475308D01*
X15767370Y-11475308D02*
X15748322Y-11446736D01*
X15748322Y-11446736D02*
X15738798Y-11437212D01*
D14*
X10939572Y-11896637D02*
X10939572Y-11779963D01*
X10822899Y-11779963D01*
X10822899Y-11896637D01*
X10939572Y-11896637D01*
D11*
X11329274Y-11929784D02*
X11214988Y-11929784D01*
X11272131Y-11929784D02*
X11272131Y-11729784D01*
X11272131Y-11729784D02*
X11253084Y-11758355D01*
X11253084Y-11758355D02*
X11234036Y-11777403D01*
X11234036Y-11777403D02*
X11214988Y-11786927D01*
X11414988Y-11910736D02*
X11424512Y-11920260D01*
X11424512Y-11920260D02*
X11414988Y-11929784D01*
X11414988Y-11929784D02*
X11405465Y-11920260D01*
X11405465Y-11920260D02*
X11414988Y-11910736D01*
X11414988Y-11910736D02*
X11414988Y-11929784D01*
X11595941Y-11729784D02*
X11557845Y-11729784D01*
X11557845Y-11729784D02*
X11538798Y-11739308D01*
X11538798Y-11739308D02*
X11529274Y-11748831D01*
X11529274Y-11748831D02*
X11510226Y-11777403D01*
X11510226Y-11777403D02*
X11500703Y-11815498D01*
X11500703Y-11815498D02*
X11500703Y-11891688D01*
X11500703Y-11891688D02*
X11510226Y-11910736D01*
X11510226Y-11910736D02*
X11519750Y-11920260D01*
X11519750Y-11920260D02*
X11538798Y-11929784D01*
X11538798Y-11929784D02*
X11576893Y-11929784D01*
X11576893Y-11929784D02*
X11595941Y-11920260D01*
X11595941Y-11920260D02*
X11605465Y-11910736D01*
X11605465Y-11910736D02*
X11614988Y-11891688D01*
X11614988Y-11891688D02*
X11614988Y-11844069D01*
X11614988Y-11844069D02*
X11605465Y-11825022D01*
X11605465Y-11825022D02*
X11595941Y-11815498D01*
X11595941Y-11815498D02*
X11576893Y-11805974D01*
X11576893Y-11805974D02*
X11538798Y-11805974D01*
X11538798Y-11805974D02*
X11519750Y-11815498D01*
X11519750Y-11815498D02*
X11510226Y-11825022D01*
X11510226Y-11825022D02*
X11500703Y-11844069D01*
X11795941Y-11729784D02*
X11700703Y-11729784D01*
X11700703Y-11729784D02*
X11691179Y-11825022D01*
X11691179Y-11825022D02*
X11700703Y-11815498D01*
X11700703Y-11815498D02*
X11719750Y-11805974D01*
X11719750Y-11805974D02*
X11767369Y-11805974D01*
X11767369Y-11805974D02*
X11786417Y-11815498D01*
X11786417Y-11815498D02*
X11795941Y-11825022D01*
X11795941Y-11825022D02*
X11805465Y-11844069D01*
X11805465Y-11844069D02*
X11805465Y-11891688D01*
X11805465Y-11891688D02*
X11795941Y-11910736D01*
X11795941Y-11910736D02*
X11786417Y-11920260D01*
X11786417Y-11920260D02*
X11767369Y-11929784D01*
X11767369Y-11929784D02*
X11719750Y-11929784D01*
X11719750Y-11929784D02*
X11700703Y-11920260D01*
X11700703Y-11920260D02*
X11691179Y-11910736D01*
X11929274Y-11729784D02*
X11948322Y-11729784D01*
X11948322Y-11729784D02*
X11967369Y-11739308D01*
X11967369Y-11739308D02*
X11976893Y-11748831D01*
X11976893Y-11748831D02*
X11986417Y-11767879D01*
X11986417Y-11767879D02*
X11995941Y-11805974D01*
X11995941Y-11805974D02*
X11995941Y-11853593D01*
X11995941Y-11853593D02*
X11986417Y-11891688D01*
X11986417Y-11891688D02*
X11976893Y-11910736D01*
X11976893Y-11910736D02*
X11967369Y-11920260D01*
X11967369Y-11920260D02*
X11948322Y-11929784D01*
X11948322Y-11929784D02*
X11929274Y-11929784D01*
X11929274Y-11929784D02*
X11910226Y-11920260D01*
X11910226Y-11920260D02*
X11900703Y-11910736D01*
X11900703Y-11910736D02*
X11891179Y-11891688D01*
X11891179Y-11891688D02*
X11881655Y-11853593D01*
X11881655Y-11853593D02*
X11881655Y-11805974D01*
X11881655Y-11805974D02*
X11891179Y-11767879D01*
X11891179Y-11767879D02*
X11900703Y-11748831D01*
X11900703Y-11748831D02*
X11910226Y-11739308D01*
X11910226Y-11739308D02*
X11929274Y-11729784D01*
X12081655Y-11929784D02*
X12081655Y-11796450D01*
X12081655Y-11815498D02*
X12091179Y-11805974D01*
X12091179Y-11805974D02*
X12110226Y-11796450D01*
X12110226Y-11796450D02*
X12138798Y-11796450D01*
X12138798Y-11796450D02*
X12157846Y-11805974D01*
X12157846Y-11805974D02*
X12167369Y-11825022D01*
X12167369Y-11825022D02*
X12167369Y-11929784D01*
X12167369Y-11825022D02*
X12176893Y-11805974D01*
X12176893Y-11805974D02*
X12195941Y-11796450D01*
X12195941Y-11796450D02*
X12224512Y-11796450D01*
X12224512Y-11796450D02*
X12243560Y-11805974D01*
X12243560Y-11805974D02*
X12253084Y-11825022D01*
X12253084Y-11825022D02*
X12253084Y-11929784D01*
X12348322Y-11929784D02*
X12348322Y-11796450D01*
X12348322Y-11815498D02*
X12357846Y-11805974D01*
X12357846Y-11805974D02*
X12376893Y-11796450D01*
X12376893Y-11796450D02*
X12405465Y-11796450D01*
X12405465Y-11796450D02*
X12424512Y-11805974D01*
X12424512Y-11805974D02*
X12434036Y-11825022D01*
X12434036Y-11825022D02*
X12434036Y-11929784D01*
X12434036Y-11825022D02*
X12443560Y-11805974D01*
X12443560Y-11805974D02*
X12462607Y-11796450D01*
X12462607Y-11796450D02*
X12491179Y-11796450D01*
X12491179Y-11796450D02*
X12510227Y-11805974D01*
X12510227Y-11805974D02*
X12519750Y-11825022D01*
X12519750Y-11825022D02*
X12519750Y-11929784D01*
X12910227Y-11720260D02*
X12738798Y-11977403D01*
X13167369Y-11729784D02*
X13186417Y-11729784D01*
X13186417Y-11729784D02*
X13205465Y-11739308D01*
X13205465Y-11739308D02*
X13214989Y-11748831D01*
X13214989Y-11748831D02*
X13224512Y-11767879D01*
X13224512Y-11767879D02*
X13234036Y-11805974D01*
X13234036Y-11805974D02*
X13234036Y-11853593D01*
X13234036Y-11853593D02*
X13224512Y-11891688D01*
X13224512Y-11891688D02*
X13214989Y-11910736D01*
X13214989Y-11910736D02*
X13205465Y-11920260D01*
X13205465Y-11920260D02*
X13186417Y-11929784D01*
X13186417Y-11929784D02*
X13167369Y-11929784D01*
X13167369Y-11929784D02*
X13148322Y-11920260D01*
X13148322Y-11920260D02*
X13138798Y-11910736D01*
X13138798Y-11910736D02*
X13129274Y-11891688D01*
X13129274Y-11891688D02*
X13119750Y-11853593D01*
X13119750Y-11853593D02*
X13119750Y-11805974D01*
X13119750Y-11805974D02*
X13129274Y-11767879D01*
X13129274Y-11767879D02*
X13138798Y-11748831D01*
X13138798Y-11748831D02*
X13148322Y-11739308D01*
X13148322Y-11739308D02*
X13167369Y-11729784D01*
X13319750Y-11910736D02*
X13329274Y-11920260D01*
X13329274Y-11920260D02*
X13319750Y-11929784D01*
X13319750Y-11929784D02*
X13310227Y-11920260D01*
X13310227Y-11920260D02*
X13319750Y-11910736D01*
X13319750Y-11910736D02*
X13319750Y-11929784D01*
X13453084Y-11729784D02*
X13472131Y-11729784D01*
X13472131Y-11729784D02*
X13491179Y-11739308D01*
X13491179Y-11739308D02*
X13500703Y-11748831D01*
X13500703Y-11748831D02*
X13510227Y-11767879D01*
X13510227Y-11767879D02*
X13519750Y-11805974D01*
X13519750Y-11805974D02*
X13519750Y-11853593D01*
X13519750Y-11853593D02*
X13510227Y-11891688D01*
X13510227Y-11891688D02*
X13500703Y-11910736D01*
X13500703Y-11910736D02*
X13491179Y-11920260D01*
X13491179Y-11920260D02*
X13472131Y-11929784D01*
X13472131Y-11929784D02*
X13453084Y-11929784D01*
X13453084Y-11929784D02*
X13434036Y-11920260D01*
X13434036Y-11920260D02*
X13424512Y-11910736D01*
X13424512Y-11910736D02*
X13414989Y-11891688D01*
X13414989Y-11891688D02*
X13405465Y-11853593D01*
X13405465Y-11853593D02*
X13405465Y-11805974D01*
X13405465Y-11805974D02*
X13414989Y-11767879D01*
X13414989Y-11767879D02*
X13424512Y-11748831D01*
X13424512Y-11748831D02*
X13434036Y-11739308D01*
X13434036Y-11739308D02*
X13453084Y-11729784D01*
X13691179Y-11729784D02*
X13653084Y-11729784D01*
X13653084Y-11729784D02*
X13634036Y-11739308D01*
X13634036Y-11739308D02*
X13624512Y-11748831D01*
X13624512Y-11748831D02*
X13605465Y-11777403D01*
X13605465Y-11777403D02*
X13595941Y-11815498D01*
X13595941Y-11815498D02*
X13595941Y-11891688D01*
X13595941Y-11891688D02*
X13605465Y-11910736D01*
X13605465Y-11910736D02*
X13614989Y-11920260D01*
X13614989Y-11920260D02*
X13634036Y-11929784D01*
X13634036Y-11929784D02*
X13672131Y-11929784D01*
X13672131Y-11929784D02*
X13691179Y-11920260D01*
X13691179Y-11920260D02*
X13700703Y-11910736D01*
X13700703Y-11910736D02*
X13710227Y-11891688D01*
X13710227Y-11891688D02*
X13710227Y-11844069D01*
X13710227Y-11844069D02*
X13700703Y-11825022D01*
X13700703Y-11825022D02*
X13691179Y-11815498D01*
X13691179Y-11815498D02*
X13672131Y-11805974D01*
X13672131Y-11805974D02*
X13634036Y-11805974D01*
X13634036Y-11805974D02*
X13614989Y-11815498D01*
X13614989Y-11815498D02*
X13605465Y-11825022D01*
X13605465Y-11825022D02*
X13595941Y-11844069D01*
X13891179Y-11729784D02*
X13795941Y-11729784D01*
X13795941Y-11729784D02*
X13786417Y-11825022D01*
X13786417Y-11825022D02*
X13795941Y-11815498D01*
X13795941Y-11815498D02*
X13814989Y-11805974D01*
X13814989Y-11805974D02*
X13862608Y-11805974D01*
X13862608Y-11805974D02*
X13881655Y-11815498D01*
X13881655Y-11815498D02*
X13891179Y-11825022D01*
X13891179Y-11825022D02*
X13900703Y-11844069D01*
X13900703Y-11844069D02*
X13900703Y-11891688D01*
X13900703Y-11891688D02*
X13891179Y-11910736D01*
X13891179Y-11910736D02*
X13881655Y-11920260D01*
X13881655Y-11920260D02*
X13862608Y-11929784D01*
X13862608Y-11929784D02*
X13814989Y-11929784D01*
X13814989Y-11929784D02*
X13795941Y-11920260D01*
X13795941Y-11920260D02*
X13786417Y-11910736D01*
X14024512Y-11729784D02*
X14043560Y-11729784D01*
X14043560Y-11729784D02*
X14062608Y-11739308D01*
X14062608Y-11739308D02*
X14072131Y-11748831D01*
X14072131Y-11748831D02*
X14081655Y-11767879D01*
X14081655Y-11767879D02*
X14091179Y-11805974D01*
X14091179Y-11805974D02*
X14091179Y-11853593D01*
X14091179Y-11853593D02*
X14081655Y-11891688D01*
X14081655Y-11891688D02*
X14072131Y-11910736D01*
X14072131Y-11910736D02*
X14062608Y-11920260D01*
X14062608Y-11920260D02*
X14043560Y-11929784D01*
X14043560Y-11929784D02*
X14024512Y-11929784D01*
X14024512Y-11929784D02*
X14005465Y-11920260D01*
X14005465Y-11920260D02*
X13995941Y-11910736D01*
X13995941Y-11910736D02*
X13986417Y-11891688D01*
X13986417Y-11891688D02*
X13976893Y-11853593D01*
X13976893Y-11853593D02*
X13976893Y-11805974D01*
X13976893Y-11805974D02*
X13986417Y-11767879D01*
X13986417Y-11767879D02*
X13995941Y-11748831D01*
X13995941Y-11748831D02*
X14005465Y-11739308D01*
X14005465Y-11739308D02*
X14024512Y-11729784D01*
X14167370Y-11729784D02*
X14167370Y-11767879D01*
X14243560Y-11729784D02*
X14243560Y-11767879D01*
X14538798Y-12005974D02*
X14529274Y-11996450D01*
X14529274Y-11996450D02*
X14510227Y-11967879D01*
X14510227Y-11967879D02*
X14500703Y-11948831D01*
X14500703Y-11948831D02*
X14491179Y-11920260D01*
X14491179Y-11920260D02*
X14481655Y-11872641D01*
X14481655Y-11872641D02*
X14481655Y-11834546D01*
X14481655Y-11834546D02*
X14491179Y-11786927D01*
X14491179Y-11786927D02*
X14500703Y-11758355D01*
X14500703Y-11758355D02*
X14510227Y-11739308D01*
X14510227Y-11739308D02*
X14529274Y-11710736D01*
X14529274Y-11710736D02*
X14538798Y-11701212D01*
X14605465Y-11748831D02*
X14614989Y-11739308D01*
X14614989Y-11739308D02*
X14634036Y-11729784D01*
X14634036Y-11729784D02*
X14681655Y-11729784D01*
X14681655Y-11729784D02*
X14700703Y-11739308D01*
X14700703Y-11739308D02*
X14710227Y-11748831D01*
X14710227Y-11748831D02*
X14719751Y-11767879D01*
X14719751Y-11767879D02*
X14719751Y-11786927D01*
X14719751Y-11786927D02*
X14710227Y-11815498D01*
X14710227Y-11815498D02*
X14595941Y-11929784D01*
X14595941Y-11929784D02*
X14719751Y-11929784D01*
X14957846Y-11929784D02*
X14957846Y-11729784D01*
X15043560Y-11929784D02*
X15043560Y-11825022D01*
X15043560Y-11825022D02*
X15034036Y-11805974D01*
X15034036Y-11805974D02*
X15014989Y-11796450D01*
X15014989Y-11796450D02*
X14986417Y-11796450D01*
X14986417Y-11796450D02*
X14967370Y-11805974D01*
X14967370Y-11805974D02*
X14957846Y-11815498D01*
X15167370Y-11929784D02*
X15148322Y-11920260D01*
X15148322Y-11920260D02*
X15138798Y-11910736D01*
X15138798Y-11910736D02*
X15129274Y-11891688D01*
X15129274Y-11891688D02*
X15129274Y-11834546D01*
X15129274Y-11834546D02*
X15138798Y-11815498D01*
X15138798Y-11815498D02*
X15148322Y-11805974D01*
X15148322Y-11805974D02*
X15167370Y-11796450D01*
X15167370Y-11796450D02*
X15195941Y-11796450D01*
X15195941Y-11796450D02*
X15214989Y-11805974D01*
X15214989Y-11805974D02*
X15224513Y-11815498D01*
X15224513Y-11815498D02*
X15234036Y-11834546D01*
X15234036Y-11834546D02*
X15234036Y-11891688D01*
X15234036Y-11891688D02*
X15224513Y-11910736D01*
X15224513Y-11910736D02*
X15214989Y-11920260D01*
X15214989Y-11920260D02*
X15195941Y-11929784D01*
X15195941Y-11929784D02*
X15167370Y-11929784D01*
X15348322Y-11929784D02*
X15329274Y-11920260D01*
X15329274Y-11920260D02*
X15319751Y-11901212D01*
X15319751Y-11901212D02*
X15319751Y-11729784D01*
X15500703Y-11920260D02*
X15481655Y-11929784D01*
X15481655Y-11929784D02*
X15443560Y-11929784D01*
X15443560Y-11929784D02*
X15424513Y-11920260D01*
X15424513Y-11920260D02*
X15414989Y-11901212D01*
X15414989Y-11901212D02*
X15414989Y-11825022D01*
X15414989Y-11825022D02*
X15424513Y-11805974D01*
X15424513Y-11805974D02*
X15443560Y-11796450D01*
X15443560Y-11796450D02*
X15481655Y-11796450D01*
X15481655Y-11796450D02*
X15500703Y-11805974D01*
X15500703Y-11805974D02*
X15510227Y-11825022D01*
X15510227Y-11825022D02*
X15510227Y-11844069D01*
X15510227Y-11844069D02*
X15414989Y-11863117D01*
X15586417Y-11920260D02*
X15605465Y-11929784D01*
X15605465Y-11929784D02*
X15643560Y-11929784D01*
X15643560Y-11929784D02*
X15662608Y-11920260D01*
X15662608Y-11920260D02*
X15672132Y-11901212D01*
X15672132Y-11901212D02*
X15672132Y-11891688D01*
X15672132Y-11891688D02*
X15662608Y-11872641D01*
X15662608Y-11872641D02*
X15643560Y-11863117D01*
X15643560Y-11863117D02*
X15614989Y-11863117D01*
X15614989Y-11863117D02*
X15595941Y-11853593D01*
X15595941Y-11853593D02*
X15586417Y-11834546D01*
X15586417Y-11834546D02*
X15586417Y-11825022D01*
X15586417Y-11825022D02*
X15595941Y-11805974D01*
X15595941Y-11805974D02*
X15614989Y-11796450D01*
X15614989Y-11796450D02*
X15643560Y-11796450D01*
X15643560Y-11796450D02*
X15662608Y-11805974D01*
X15738798Y-12005974D02*
X15748322Y-11996450D01*
X15748322Y-11996450D02*
X15767370Y-11967879D01*
X15767370Y-11967879D02*
X15776894Y-11948831D01*
X15776894Y-11948831D02*
X15786417Y-11920260D01*
X15786417Y-11920260D02*
X15795941Y-11872641D01*
X15795941Y-11872641D02*
X15795941Y-11834546D01*
X15795941Y-11834546D02*
X15786417Y-11786927D01*
X15786417Y-11786927D02*
X15776894Y-11758355D01*
X15776894Y-11758355D02*
X15767370Y-11739308D01*
X15767370Y-11739308D02*
X15748322Y-11710736D01*
X15748322Y-11710736D02*
X15738798Y-11701212D01*
M02*
