%TF.GenerationSoftware,KiCad,Pcbnew,7.0.6*%
%TF.CreationDate,2023-12-02T19:46:18-07:00*%
%TF.ProjectId,Temperature Sensor Board 2,54656d70-6572-4617-9475-72652053656e,rev?*%
%TF.SameCoordinates,Original*%
%TF.FileFunction,Copper,L2,Bot*%
%TF.FilePolarity,Positive*%
%FSLAX46Y46*%
G04 Gerber Fmt 4.6, Leading zero omitted, Abs format (unit mm)*
G04 Created by KiCad (PCBNEW 7.0.6) date 2023-12-02 19:46:18*
%MOMM*%
%LPD*%
G01*
G04 APERTURE LIST*
G04 Aperture macros list*
%AMOutline5P*
0 Free polygon, 5 corners , with rotation*
0 The origin of the aperture is its center*
0 number of corners: always 5*
0 $1 to $10 corner X, Y*
0 $11 Rotation angle, in degrees counterclockwise*
0 create outline with 5 corners*
4,1,5,$1,$2,$3,$4,$5,$6,$7,$8,$9,$10,$1,$2,$11*%
%AMOutline6P*
0 Free polygon, 6 corners , with rotation*
0 The origin of the aperture is its center*
0 number of corners: always 6*
0 $1 to $12 corner X, Y*
0 $13 Rotation angle, in degrees counterclockwise*
0 create outline with 6 corners*
4,1,6,$1,$2,$3,$4,$5,$6,$7,$8,$9,$10,$11,$12,$1,$2,$13*%
%AMOutline7P*
0 Free polygon, 7 corners , with rotation*
0 The origin of the aperture is its center*
0 number of corners: always 7*
0 $1 to $14 corner X, Y*
0 $15 Rotation angle, in degrees counterclockwise*
0 create outline with 7 corners*
4,1,7,$1,$2,$3,$4,$5,$6,$7,$8,$9,$10,$11,$12,$13,$14,$1,$2,$15*%
%AMOutline8P*
0 Free polygon, 8 corners , with rotation*
0 The origin of the aperture is its center*
0 number of corners: always 8*
0 $1 to $16 corner X, Y*
0 $17 Rotation angle, in degrees counterclockwise*
0 create outline with 8 corners*
4,1,8,$1,$2,$3,$4,$5,$6,$7,$8,$9,$10,$11,$12,$13,$14,$15,$16,$1,$2,$17*%
G04 Aperture macros list end*
%TA.AperFunction,ComponentPad*%
%ADD10R,1.508000X1.508000*%
%TD*%
%TA.AperFunction,ComponentPad*%
%ADD11C,1.508000*%
%TD*%
%TA.AperFunction,ComponentPad*%
%ADD12C,2.475000*%
%TD*%
%TA.AperFunction,ComponentPad*%
%ADD13Outline8P,-0.660400X0.273547X-0.273547X0.660400X0.273547X0.660400X0.660400X0.273547X0.660400X-0.273547X0.273547X-0.660400X-0.273547X-0.660400X-0.660400X-0.273547X270.000000*%
%TD*%
%TA.AperFunction,ViaPad*%
%ADD14C,0.800000*%
%TD*%
G04 APERTURE END LIST*
D10*
%TO.P,J1,1*%
%TO.N,N/C*%
X133817354Y-97114354D03*
D11*
%TO.P,J1,2*%
X133817354Y-94574354D03*
%TO.P,J1,3*%
X133817354Y-92034354D03*
%TO.P,J1,4*%
X136357354Y-98384354D03*
%TO.P,J1,5*%
X136357354Y-95844354D03*
%TO.P,J1,6*%
X136357354Y-93304354D03*
D12*
%TO.P,J1,SH1*%
X145757354Y-102074354D03*
%TO.P,J1,SH2*%
X145757354Y-88354354D03*
%TD*%
D13*
%TO.P,U$1,1,GND*%
%TO.N,N/C*%
X114640354Y-92923354D03*
%TO.P,U$1,2,DQ*%
X116545354Y-94193354D03*
%TO.P,U$1,3,VDD*%
X114640354Y-95463354D03*
%TD*%
D14*
%TO.N,*%
X131531354Y-93939354D03*
X127975354Y-97241354D03*
X120228354Y-97368354D03*
X120228354Y-91907354D03*
X129753354Y-93939354D03*
X129753354Y-97241354D03*
X131404354Y-97241354D03*
X127848354Y-93939354D03*
%TD*%
%TA.AperFunction,NonConductor*%
G36*
X150778393Y-84307039D02*
G01*
X150824148Y-84359843D01*
X150835354Y-84411354D01*
X150835354Y-103721354D01*
X150815669Y-103788393D01*
X150762865Y-103834148D01*
X150711354Y-103845354D01*
X146627642Y-103845354D01*
X146560603Y-103825669D01*
X146514848Y-103772865D01*
X146504904Y-103703707D01*
X146533929Y-103640151D01*
X146573841Y-103609634D01*
X146628532Y-103583296D01*
X146628533Y-103583295D01*
X146797526Y-103468078D01*
X146137747Y-102808300D01*
X146259567Y-102735004D01*
X146389846Y-102611597D01*
X146490550Y-102463070D01*
X146493134Y-102456582D01*
X147150583Y-103114031D01*
X147196969Y-103055865D01*
X147327176Y-102830341D01*
X147422314Y-102587932D01*
X147422320Y-102587913D01*
X147480265Y-102334036D01*
X147480266Y-102334031D01*
X147499726Y-102074358D01*
X147499726Y-102074349D01*
X147480266Y-101814676D01*
X147480265Y-101814671D01*
X147422320Y-101560794D01*
X147422314Y-101560775D01*
X147327176Y-101318366D01*
X147196966Y-101092837D01*
X147150584Y-101034675D01*
X146490094Y-101695165D01*
X146444224Y-101608644D01*
X146328052Y-101471876D01*
X146185194Y-101363278D01*
X146137118Y-101341036D01*
X146797526Y-100680628D01*
X146628540Y-100565416D01*
X146628531Y-100565411D01*
X146393916Y-100452427D01*
X146393918Y-100452427D01*
X146145076Y-100375669D01*
X146145070Y-100375668D01*
X145887567Y-100336854D01*
X145627140Y-100336854D01*
X145369637Y-100375668D01*
X145369631Y-100375669D01*
X145120790Y-100452427D01*
X144886176Y-100565411D01*
X144886167Y-100565416D01*
X144793084Y-100628879D01*
X144726605Y-100650379D01*
X144659055Y-100632525D01*
X144611881Y-100580984D01*
X144600061Y-100512122D01*
X144601293Y-100503919D01*
X144601506Y-100502770D01*
X144611667Y-100224758D01*
X144581240Y-99948230D01*
X144510874Y-99679078D01*
X144402070Y-99423040D01*
X144257146Y-99185573D01*
X144165466Y-99075407D01*
X144079192Y-98971737D01*
X144079186Y-98971732D01*
X143871997Y-98786091D01*
X143639983Y-98632592D01*
X143639981Y-98632591D01*
X143388087Y-98514508D01*
X143388082Y-98514506D01*
X143388077Y-98514504D01*
X143121696Y-98434361D01*
X143121682Y-98434358D01*
X143002919Y-98416880D01*
X142846453Y-98393854D01*
X142637891Y-98393854D01*
X142637885Y-98393854D01*
X142429899Y-98409077D01*
X142429889Y-98409078D01*
X142158361Y-98469564D01*
X142158351Y-98469567D01*
X141898515Y-98568946D01*
X141655915Y-98705100D01*
X141655910Y-98705103D01*
X141435723Y-98875126D01*
X141435713Y-98875135D01*
X141242635Y-99075399D01*
X141242628Y-99075407D01*
X141080766Y-99301649D01*
X141080759Y-99301661D01*
X140953563Y-99549055D01*
X140953559Y-99549065D01*
X140863733Y-99812366D01*
X140863732Y-99812372D01*
X140813202Y-100085938D01*
X140813201Y-100085945D01*
X140803040Y-100363948D01*
X140833468Y-100640479D01*
X140903832Y-100909626D01*
X140959080Y-101039637D01*
X141012638Y-101165668D01*
X141107551Y-101321189D01*
X141157559Y-101403130D01*
X141157566Y-101403140D01*
X141335515Y-101616970D01*
X141335521Y-101616975D01*
X141501272Y-101765487D01*
X141542711Y-101802617D01*
X141774727Y-101956117D01*
X142026621Y-102074200D01*
X142026628Y-102074202D01*
X142026630Y-102074203D01*
X142293011Y-102154346D01*
X142293018Y-102154347D01*
X142293023Y-102154349D01*
X142568255Y-102194854D01*
X142568260Y-102194854D01*
X142776823Y-102194854D01*
X142837216Y-102190433D01*
X142984809Y-102179631D01*
X143256351Y-102119142D01*
X143516192Y-102019762D01*
X143758794Y-101883607D01*
X143825657Y-101831976D01*
X143890747Y-101806584D01*
X143959235Y-101820413D01*
X144009373Y-101869074D01*
X144025245Y-101937118D01*
X144025095Y-101939388D01*
X144014982Y-102074349D01*
X144014982Y-102074358D01*
X144034441Y-102334031D01*
X144034442Y-102334036D01*
X144092387Y-102587913D01*
X144092393Y-102587932D01*
X144187531Y-102830341D01*
X144317741Y-103055870D01*
X144364122Y-103114031D01*
X145024612Y-102453541D01*
X145070484Y-102540064D01*
X145186656Y-102676832D01*
X145329514Y-102785430D01*
X145377588Y-102807671D01*
X144717180Y-103468078D01*
X144886167Y-103583291D01*
X144886175Y-103583296D01*
X144940867Y-103609634D01*
X144992727Y-103656456D01*
X145011040Y-103723883D01*
X144989992Y-103790507D01*
X144936266Y-103835176D01*
X144887066Y-103845354D01*
X110119716Y-103845354D01*
X110052677Y-103825669D01*
X110032035Y-103809035D01*
X109724173Y-103501173D01*
X109690688Y-103439850D01*
X109687854Y-103413492D01*
X109687854Y-95777880D01*
X113479454Y-95777880D01*
X113490014Y-95861950D01*
X113545089Y-95994915D01*
X113545090Y-95994916D01*
X113545091Y-95994918D01*
X113597074Y-96061835D01*
X113597080Y-96061841D01*
X114041874Y-96506636D01*
X114041884Y-96506645D01*
X114108790Y-96558617D01*
X114108791Y-96558618D01*
X114241758Y-96613694D01*
X114325830Y-96624254D01*
X114325833Y-96624254D01*
X114954874Y-96624254D01*
X114954877Y-96624254D01*
X115038951Y-96613694D01*
X115171918Y-96558617D01*
X115238835Y-96506634D01*
X115683638Y-96061832D01*
X115735618Y-95994917D01*
X115790694Y-95861950D01*
X115801254Y-95777878D01*
X115801254Y-95376858D01*
X115820939Y-95309820D01*
X115873743Y-95264065D01*
X115942901Y-95254121D01*
X116001323Y-95278933D01*
X116013791Y-95288618D01*
X116146758Y-95343694D01*
X116230830Y-95354254D01*
X116230833Y-95354254D01*
X116859874Y-95354254D01*
X116859877Y-95354254D01*
X116943951Y-95343694D01*
X117076918Y-95288617D01*
X117143835Y-95236634D01*
X117588638Y-94791832D01*
X117640618Y-94724917D01*
X117695694Y-94591950D01*
X117697904Y-94574356D01*
X132558062Y-94574356D01*
X132577087Y-94791823D01*
X132577193Y-94793028D01*
X132634007Y-95005057D01*
X132634008Y-95005060D01*
X132634009Y-95005062D01*
X132726773Y-95203996D01*
X132726777Y-95204004D01*
X132852676Y-95383806D01*
X132852681Y-95383812D01*
X133007895Y-95539026D01*
X133007901Y-95539031D01*
X133143930Y-95634279D01*
X133187555Y-95688856D01*
X133194749Y-95758354D01*
X133163226Y-95820709D01*
X133102997Y-95856123D01*
X133072809Y-95859854D01*
X133015484Y-95859854D01*
X133015477Y-95859855D01*
X132955870Y-95866262D01*
X132821025Y-95916556D01*
X132821018Y-95916560D01*
X132705809Y-96002806D01*
X132705806Y-96002809D01*
X132619560Y-96118018D01*
X132619556Y-96118025D01*
X132569262Y-96252871D01*
X132562855Y-96312470D01*
X132562854Y-96312489D01*
X132562854Y-97916224D01*
X132562855Y-97916230D01*
X132569262Y-97975837D01*
X132619556Y-98110682D01*
X132619560Y-98110689D01*
X132705806Y-98225898D01*
X132705809Y-98225901D01*
X132821018Y-98312147D01*
X132821025Y-98312151D01*
X132955871Y-98362445D01*
X132955870Y-98362445D01*
X132962798Y-98363189D01*
X133015481Y-98368854D01*
X134619226Y-98368853D01*
X134678837Y-98362445D01*
X134813685Y-98312150D01*
X134902742Y-98245481D01*
X134968205Y-98221064D01*
X135036479Y-98235915D01*
X135085884Y-98285320D01*
X135100737Y-98353593D01*
X135100581Y-98355554D01*
X135098062Y-98384350D01*
X135098062Y-98384356D01*
X135117192Y-98603022D01*
X135117193Y-98603029D01*
X135125115Y-98632592D01*
X135174007Y-98815057D01*
X135174008Y-98815060D01*
X135174009Y-98815062D01*
X135266773Y-99013996D01*
X135266777Y-99014004D01*
X135392676Y-99193806D01*
X135392681Y-99193812D01*
X135547895Y-99349026D01*
X135547901Y-99349031D01*
X135727703Y-99474930D01*
X135727705Y-99474931D01*
X135727708Y-99474933D01*
X135926651Y-99567701D01*
X136138680Y-99624515D01*
X136294875Y-99638180D01*
X136357352Y-99643646D01*
X136357354Y-99643646D01*
X136357356Y-99643646D01*
X136412022Y-99638863D01*
X136576028Y-99624515D01*
X136788057Y-99567701D01*
X136987000Y-99474933D01*
X137166811Y-99349028D01*
X137322028Y-99193811D01*
X137447933Y-99014000D01*
X137540701Y-98815057D01*
X137597515Y-98603028D01*
X137616646Y-98384354D01*
X137614126Y-98355554D01*
X137607982Y-98285320D01*
X137597515Y-98165680D01*
X137540701Y-97953651D01*
X137447933Y-97754708D01*
X137447931Y-97754705D01*
X137447930Y-97754703D01*
X137322031Y-97574901D01*
X137322026Y-97574895D01*
X137166812Y-97419681D01*
X137166806Y-97419676D01*
X136987004Y-97293777D01*
X136986996Y-97293773D01*
X136843233Y-97226736D01*
X136790793Y-97180564D01*
X136771641Y-97113371D01*
X136791856Y-97046490D01*
X136843233Y-97001972D01*
X136987000Y-96934933D01*
X137166811Y-96809028D01*
X137322028Y-96653811D01*
X137447933Y-96474000D01*
X137540701Y-96275057D01*
X137597515Y-96063028D01*
X137611863Y-95899022D01*
X137616646Y-95844356D01*
X137616646Y-95844351D01*
X137600949Y-95664933D01*
X137597515Y-95625680D01*
X137540701Y-95413651D01*
X137447933Y-95214708D01*
X137447931Y-95214705D01*
X137447930Y-95214703D01*
X137322031Y-95034901D01*
X137322026Y-95034895D01*
X137166812Y-94879681D01*
X137166806Y-94879676D01*
X136987004Y-94753777D01*
X136986996Y-94753773D01*
X136843233Y-94686736D01*
X136790793Y-94640564D01*
X136771641Y-94573371D01*
X136791856Y-94506490D01*
X136843233Y-94461972D01*
X136987000Y-94394933D01*
X137166811Y-94269028D01*
X137322028Y-94113811D01*
X137447933Y-93934000D01*
X137540701Y-93735057D01*
X137597515Y-93523028D01*
X137611863Y-93359022D01*
X137616646Y-93304356D01*
X137616646Y-93304351D01*
X137606790Y-93191696D01*
X137597515Y-93085680D01*
X137540701Y-92873651D01*
X137447933Y-92674708D01*
X137447931Y-92674705D01*
X137447930Y-92674703D01*
X137322031Y-92494901D01*
X137322026Y-92494895D01*
X137166812Y-92339681D01*
X137166806Y-92339676D01*
X136987004Y-92213777D01*
X136986996Y-92213773D01*
X136788062Y-92121009D01*
X136788060Y-92121008D01*
X136788057Y-92121007D01*
X136637239Y-92080594D01*
X136576029Y-92064193D01*
X136576022Y-92064192D01*
X136357356Y-92045062D01*
X136357352Y-92045062D01*
X136138685Y-92064192D01*
X136138678Y-92064193D01*
X136016256Y-92096996D01*
X135926651Y-92121007D01*
X135926649Y-92121007D01*
X135926645Y-92121009D01*
X135727711Y-92213773D01*
X135727703Y-92213777D01*
X135547901Y-92339676D01*
X135547895Y-92339681D01*
X135392681Y-92494895D01*
X135392676Y-92494901D01*
X135266777Y-92674703D01*
X135266773Y-92674711D01*
X135174009Y-92873645D01*
X135117193Y-93085678D01*
X135117192Y-93085685D01*
X135098062Y-93304351D01*
X135098062Y-93304356D01*
X135113758Y-93483775D01*
X135117193Y-93523028D01*
X135174007Y-93735057D01*
X135174008Y-93735060D01*
X135174009Y-93735062D01*
X135266773Y-93933996D01*
X135266777Y-93934004D01*
X135392676Y-94113806D01*
X135392681Y-94113812D01*
X135547895Y-94269026D01*
X135547901Y-94269031D01*
X135727703Y-94394930D01*
X135727705Y-94394931D01*
X135727708Y-94394933D01*
X135812317Y-94434386D01*
X135871474Y-94461972D01*
X135923914Y-94508144D01*
X135943066Y-94575337D01*
X135922850Y-94642219D01*
X135871474Y-94686736D01*
X135727711Y-94753773D01*
X135727703Y-94753777D01*
X135547901Y-94879676D01*
X135547895Y-94879681D01*
X135392681Y-95034895D01*
X135392676Y-95034901D01*
X135266777Y-95214703D01*
X135266773Y-95214711D01*
X135174009Y-95413645D01*
X135117193Y-95625678D01*
X135117192Y-95625685D01*
X135098062Y-95844351D01*
X135098062Y-95844357D01*
X135100581Y-95873153D01*
X135086814Y-95941653D01*
X135038198Y-95991835D01*
X134970169Y-96007768D01*
X134904326Y-95984392D01*
X134902742Y-95983226D01*
X134891366Y-95974710D01*
X134813685Y-95916558D01*
X134813683Y-95916557D01*
X134813682Y-95916556D01*
X134678836Y-95866262D01*
X134678837Y-95866262D01*
X134619237Y-95859855D01*
X134619235Y-95859854D01*
X134619227Y-95859854D01*
X134619219Y-95859854D01*
X134561901Y-95859854D01*
X134494862Y-95840169D01*
X134449107Y-95787365D01*
X134439163Y-95718207D01*
X134468188Y-95654651D01*
X134490778Y-95634279D01*
X134626811Y-95539028D01*
X134782028Y-95383811D01*
X134907933Y-95204000D01*
X135000701Y-95005057D01*
X135057515Y-94793028D01*
X135071863Y-94629022D01*
X135076646Y-94574356D01*
X135076646Y-94574351D01*
X135063149Y-94420080D01*
X135057515Y-94355680D01*
X135000701Y-94143651D01*
X134907933Y-93944708D01*
X134907931Y-93944705D01*
X134907930Y-93944703D01*
X134782031Y-93764901D01*
X134782026Y-93764895D01*
X134626812Y-93609681D01*
X134626806Y-93609676D01*
X134447004Y-93483777D01*
X134447000Y-93483775D01*
X134302642Y-93416460D01*
X134250203Y-93370288D01*
X134231051Y-93303094D01*
X134251267Y-93236213D01*
X134302643Y-93191696D01*
X134446744Y-93124500D01*
X134509797Y-93080350D01*
X133949888Y-92520440D01*
X133959669Y-92519034D01*
X134090454Y-92459306D01*
X134199115Y-92365152D01*
X134276847Y-92244198D01*
X134300430Y-92163877D01*
X134863350Y-92726797D01*
X134907499Y-92663746D01*
X135000228Y-92464887D01*
X135000232Y-92464878D01*
X135057018Y-92252946D01*
X135057020Y-92252936D01*
X135076144Y-92034354D01*
X135076144Y-92034353D01*
X135057020Y-91815771D01*
X135057018Y-91815761D01*
X135000232Y-91603829D01*
X135000229Y-91603820D01*
X134907498Y-91404960D01*
X134907497Y-91404958D01*
X134863350Y-91341910D01*
X134863350Y-91341909D01*
X134300430Y-91904829D01*
X134276847Y-91824510D01*
X134199115Y-91703556D01*
X134090454Y-91609402D01*
X133959669Y-91549674D01*
X133949887Y-91548267D01*
X134509797Y-90988357D01*
X134509796Y-90988356D01*
X134446749Y-90944210D01*
X134446747Y-90944209D01*
X134247887Y-90851478D01*
X134247878Y-90851475D01*
X134035946Y-90794689D01*
X134035936Y-90794687D01*
X133817355Y-90775564D01*
X133817353Y-90775564D01*
X133598771Y-90794687D01*
X133598761Y-90794689D01*
X133386829Y-90851475D01*
X133386820Y-90851478D01*
X133187956Y-90944211D01*
X133124909Y-90988355D01*
X133684821Y-91548267D01*
X133675039Y-91549674D01*
X133544254Y-91609402D01*
X133435593Y-91703556D01*
X133357861Y-91824510D01*
X133334276Y-91904830D01*
X132771355Y-91341909D01*
X132727211Y-91404956D01*
X132634478Y-91603820D01*
X132634475Y-91603829D01*
X132577689Y-91815761D01*
X132577687Y-91815771D01*
X132558564Y-92034353D01*
X132558564Y-92034354D01*
X132577687Y-92252936D01*
X132577689Y-92252946D01*
X132634475Y-92464878D01*
X132634478Y-92464887D01*
X132727209Y-92663747D01*
X132727210Y-92663749D01*
X132771356Y-92726796D01*
X132771357Y-92726797D01*
X133334276Y-92163877D01*
X133357861Y-92244198D01*
X133435593Y-92365152D01*
X133544254Y-92459306D01*
X133675039Y-92519034D01*
X133684820Y-92520440D01*
X133124909Y-93080350D01*
X133187958Y-93124497D01*
X133187960Y-93124498D01*
X133332065Y-93191696D01*
X133384504Y-93237869D01*
X133403656Y-93305062D01*
X133383440Y-93371943D01*
X133332065Y-93416460D01*
X133187707Y-93483775D01*
X133187703Y-93483777D01*
X133007901Y-93609676D01*
X133007895Y-93609681D01*
X132852681Y-93764895D01*
X132852676Y-93764901D01*
X132726777Y-93944703D01*
X132726773Y-93944711D01*
X132634009Y-94143645D01*
X132634007Y-94143649D01*
X132634007Y-94143651D01*
X132609996Y-94233256D01*
X132577193Y-94355678D01*
X132577192Y-94355685D01*
X132558062Y-94574351D01*
X132558062Y-94574356D01*
X117697904Y-94574356D01*
X117706254Y-94507878D01*
X117706254Y-93878831D01*
X117695694Y-93794757D01*
X117640617Y-93661790D01*
X117588634Y-93594873D01*
X117143832Y-93150070D01*
X117143831Y-93150069D01*
X117143823Y-93150062D01*
X117076916Y-93098089D01*
X116943951Y-93043014D01*
X116859881Y-93032454D01*
X116859878Y-93032454D01*
X116230831Y-93032454D01*
X116230827Y-93032454D01*
X116146757Y-93043014D01*
X116013791Y-93098090D01*
X116000820Y-93108166D01*
X115935801Y-93133745D01*
X115867274Y-93120111D01*
X115816997Y-93071594D01*
X115800753Y-93010238D01*
X115800753Y-92608863D01*
X115790204Y-92524881D01*
X115735183Y-92392048D01*
X115683261Y-92325210D01*
X115683250Y-92325197D01*
X115637657Y-92279604D01*
X115043901Y-92873359D01*
X115031681Y-92796204D01*
X114973237Y-92681500D01*
X114882208Y-92590471D01*
X114767504Y-92532027D01*
X114690348Y-92519806D01*
X115284103Y-91926050D01*
X115238510Y-91880457D01*
X115238497Y-91880446D01*
X115171659Y-91828524D01*
X115038825Y-91773503D01*
X114954842Y-91762954D01*
X114325863Y-91762954D01*
X114241881Y-91773503D01*
X114109048Y-91828524D01*
X114042206Y-91880449D01*
X114042191Y-91880462D01*
X113996604Y-91926048D01*
X113996604Y-91926050D01*
X114590360Y-92519806D01*
X114513204Y-92532027D01*
X114398500Y-92590471D01*
X114307471Y-92681500D01*
X114249027Y-92796204D01*
X114236806Y-92873360D01*
X113643050Y-92279604D01*
X113643049Y-92279604D01*
X113597462Y-92325191D01*
X113597449Y-92325206D01*
X113545524Y-92392048D01*
X113545524Y-92392049D01*
X113490503Y-92524882D01*
X113479954Y-92608865D01*
X113479954Y-93237844D01*
X113490503Y-93321826D01*
X113545524Y-93454659D01*
X113597446Y-93521497D01*
X113597450Y-93521502D01*
X113643050Y-93567102D01*
X114236806Y-92973347D01*
X114249027Y-93050504D01*
X114307471Y-93165208D01*
X114398500Y-93256237D01*
X114513204Y-93314681D01*
X114590359Y-93326901D01*
X113996604Y-93920657D01*
X114042197Y-93966250D01*
X114042210Y-93966261D01*
X114109048Y-94018183D01*
X114241875Y-94073202D01*
X114241939Y-94073219D01*
X114241988Y-94073248D01*
X114249562Y-94076386D01*
X114249082Y-94077543D01*
X114301711Y-94109400D01*
X114332433Y-94172153D01*
X114324352Y-94241553D01*
X114280033Y-94295568D01*
X114249336Y-94309590D01*
X114249437Y-94309833D01*
X114242669Y-94312636D01*
X114241965Y-94312958D01*
X114241764Y-94313011D01*
X114108792Y-94368089D01*
X114041873Y-94420074D01*
X114041866Y-94420080D01*
X113597071Y-94864874D01*
X113597062Y-94864884D01*
X113545089Y-94931791D01*
X113490014Y-95064756D01*
X113490014Y-95064757D01*
X113479454Y-95148826D01*
X113479454Y-95777880D01*
X109687854Y-95777880D01*
X109687854Y-90203948D01*
X140803040Y-90203948D01*
X140833468Y-90480479D01*
X140903832Y-90749626D01*
X141005281Y-90988357D01*
X141012638Y-91005668D01*
X141157559Y-91243130D01*
X141157566Y-91243140D01*
X141335515Y-91456970D01*
X141335521Y-91456975D01*
X141499411Y-91603820D01*
X141542711Y-91642617D01*
X141774727Y-91796117D01*
X142026621Y-91914200D01*
X142026628Y-91914202D01*
X142026630Y-91914203D01*
X142293011Y-91994346D01*
X142293018Y-91994347D01*
X142293023Y-91994349D01*
X142568255Y-92034854D01*
X142568260Y-92034854D01*
X142776823Y-92034854D01*
X142837216Y-92030433D01*
X142984809Y-92019631D01*
X143256351Y-91959142D01*
X143516192Y-91859762D01*
X143758794Y-91723607D01*
X143978986Y-91553580D01*
X144172076Y-91353305D01*
X144333947Y-91127050D01*
X144427952Y-90944209D01*
X144461144Y-90879652D01*
X144461148Y-90879642D01*
X144461151Y-90879637D01*
X144550975Y-90616340D01*
X144601506Y-90342770D01*
X144611667Y-90064758D01*
X144594900Y-89912380D01*
X144607134Y-89843594D01*
X144654616Y-89792338D01*
X144722272Y-89774889D01*
X144788007Y-89796367D01*
X144886167Y-89863291D01*
X144886176Y-89863296D01*
X145120791Y-89976280D01*
X145120789Y-89976280D01*
X145369631Y-90053038D01*
X145369637Y-90053039D01*
X145627140Y-90091853D01*
X145627147Y-90091854D01*
X145887561Y-90091854D01*
X145887567Y-90091853D01*
X146145070Y-90053039D01*
X146145076Y-90053038D01*
X146393917Y-89976280D01*
X146628531Y-89863296D01*
X146628533Y-89863295D01*
X146797526Y-89748078D01*
X146137747Y-89088300D01*
X146259567Y-89015004D01*
X146389846Y-88891597D01*
X146490550Y-88743070D01*
X146493134Y-88736582D01*
X147150583Y-89394031D01*
X147196969Y-89335865D01*
X147327176Y-89110341D01*
X147422314Y-88867932D01*
X147422320Y-88867913D01*
X147480265Y-88614036D01*
X147480266Y-88614031D01*
X147499726Y-88354358D01*
X147499726Y-88354349D01*
X147480266Y-88094676D01*
X147480265Y-88094671D01*
X147422320Y-87840794D01*
X147422314Y-87840775D01*
X147327176Y-87598366D01*
X147196966Y-87372837D01*
X147150584Y-87314675D01*
X146490094Y-87975165D01*
X146444224Y-87888644D01*
X146328052Y-87751876D01*
X146185194Y-87643278D01*
X146137119Y-87621036D01*
X146797526Y-86960628D01*
X146628540Y-86845416D01*
X146628531Y-86845411D01*
X146393916Y-86732427D01*
X146393918Y-86732427D01*
X146145076Y-86655669D01*
X146145070Y-86655668D01*
X145887567Y-86616854D01*
X145627140Y-86616854D01*
X145369637Y-86655668D01*
X145369631Y-86655669D01*
X145120790Y-86732427D01*
X144886173Y-86845413D01*
X144886160Y-86845420D01*
X144717180Y-86960627D01*
X145376960Y-87620407D01*
X145255141Y-87693704D01*
X145124862Y-87817111D01*
X145024158Y-87965638D01*
X145021572Y-87972125D01*
X144364123Y-87314676D01*
X144317739Y-87372840D01*
X144187531Y-87598366D01*
X144092393Y-87840775D01*
X144092387Y-87840794D01*
X144034442Y-88094671D01*
X144034441Y-88094676D01*
X144014982Y-88354349D01*
X144014982Y-88354358D01*
X144024962Y-88487536D01*
X144010342Y-88555859D01*
X143961105Y-88605432D01*
X143892883Y-88620515D01*
X143832890Y-88600218D01*
X143639983Y-88472592D01*
X143639981Y-88472591D01*
X143388087Y-88354508D01*
X143388082Y-88354506D01*
X143388077Y-88354504D01*
X143121696Y-88274361D01*
X143121682Y-88274358D01*
X143002919Y-88256880D01*
X142846453Y-88233854D01*
X142637891Y-88233854D01*
X142637885Y-88233854D01*
X142429899Y-88249077D01*
X142429889Y-88249078D01*
X142158361Y-88309564D01*
X142158351Y-88309567D01*
X141898515Y-88408946D01*
X141655915Y-88545100D01*
X141655910Y-88545103D01*
X141435723Y-88715126D01*
X141435713Y-88715135D01*
X141242635Y-88915399D01*
X141242628Y-88915407D01*
X141080766Y-89141649D01*
X141080759Y-89141661D01*
X140953563Y-89389055D01*
X140953559Y-89389065D01*
X140863733Y-89652366D01*
X140863732Y-89652372D01*
X140813202Y-89925938D01*
X140813201Y-89925945D01*
X140803040Y-90203948D01*
X109687854Y-90203948D01*
X109687854Y-84411354D01*
X109707539Y-84344315D01*
X109760343Y-84298560D01*
X109811854Y-84287354D01*
X150711354Y-84287354D01*
X150778393Y-84307039D01*
G37*
%TD.AperFunction*%
M02*
