%TF.GenerationSoftware,KiCad,Pcbnew,7.0.6*%
%TF.CreationDate,2023-12-02T13:02:46-07:00*%
%TF.ProjectId,Temperature Senor Board V2 (2),54656d70-6572-4617-9475-72652053656e,rev?*%
%TF.SameCoordinates,Original*%
%TF.FileFunction,Copper,L1,Top*%
%TF.FilePolarity,Positive*%
%FSLAX46Y46*%
G04 Gerber Fmt 4.6, Leading zero omitted, Abs format (unit mm)*
G04 Created by KiCad (PCBNEW 7.0.6) date 2023-12-02 13:02:46*
%MOMM*%
%LPD*%
G01*
G04 APERTURE LIST*
G04 Aperture macros list*
%AMRoundRect*
0 Rectangle with rounded corners*
0 $1 Rounding radius*
0 $2 $3 $4 $5 $6 $7 $8 $9 X,Y pos of 4 corners*
0 Add a 4 corners polygon primitive as box body*
4,1,4,$2,$3,$4,$5,$6,$7,$8,$9,$2,$3,0*
0 Add four circle primitives for the rounded corners*
1,1,$1+$1,$2,$3*
1,1,$1+$1,$4,$5*
1,1,$1+$1,$6,$7*
1,1,$1+$1,$8,$9*
0 Add four rect primitives between the rounded corners*
20,1,$1+$1,$2,$3,$4,$5,0*
20,1,$1+$1,$4,$5,$6,$7,0*
20,1,$1+$1,$6,$7,$8,$9,0*
20,1,$1+$1,$8,$9,$2,$3,0*%
%AMOutline5P*
0 Free polygon, 5 corners , with rotation*
0 The origin of the aperture is its center*
0 number of corners: always 5*
0 $1 to $10 corner X, Y*
0 $11 Rotation angle, in degrees counterclockwise*
0 create outline with 5 corners*
4,1,5,$1,$2,$3,$4,$5,$6,$7,$8,$9,$10,$1,$2,$11*%
%AMOutline6P*
0 Free polygon, 6 corners , with rotation*
0 The origin of the aperture is its center*
0 number of corners: always 6*
0 $1 to $12 corner X, Y*
0 $13 Rotation angle, in degrees counterclockwise*
0 create outline with 6 corners*
4,1,6,$1,$2,$3,$4,$5,$6,$7,$8,$9,$10,$11,$12,$1,$2,$13*%
%AMOutline7P*
0 Free polygon, 7 corners , with rotation*
0 The origin of the aperture is its center*
0 number of corners: always 7*
0 $1 to $14 corner X, Y*
0 $15 Rotation angle, in degrees counterclockwise*
0 create outline with 7 corners*
4,1,7,$1,$2,$3,$4,$5,$6,$7,$8,$9,$10,$11,$12,$13,$14,$1,$2,$15*%
%AMOutline8P*
0 Free polygon, 8 corners , with rotation*
0 The origin of the aperture is its center*
0 number of corners: always 8*
0 $1 to $16 corner X, Y*
0 $17 Rotation angle, in degrees counterclockwise*
0 create outline with 8 corners*
4,1,8,$1,$2,$3,$4,$5,$6,$7,$8,$9,$10,$11,$12,$13,$14,$15,$16,$1,$2,$17*%
%AMFreePoly0*
4,1,25,0.333266,0.742596,0.345389,0.732242,0.732242,0.345389,0.760749,0.289441,0.762000,0.273547,0.762000,-0.273547,0.742596,-0.333266,0.732242,-0.345389,0.345389,-0.732242,0.289441,-0.760749,0.273547,-0.762000,-0.273547,-0.762000,-0.333266,-0.742596,-0.345389,-0.732242,-0.732242,-0.345389,-0.760749,-0.289441,-0.762000,-0.273547,-0.762000,0.273547,-0.742596,0.333266,-0.732242,0.345389,
-0.345389,0.732242,-0.289441,0.760749,-0.273547,0.762000,0.273547,0.762000,0.333266,0.742596,0.333266,0.742596,$1*%
G04 Aperture macros list end*
%TA.AperFunction,ComponentPad*%
%ADD10C,2.475000*%
%TD*%
%TA.AperFunction,ComponentPad*%
%ADD11C,1.508000*%
%TD*%
%TA.AperFunction,ComponentPad*%
%ADD12R,1.508000X1.508000*%
%TD*%
%TA.AperFunction,SMDPad,CuDef*%
%ADD13R,1.300000X1.500000*%
%TD*%
%TA.AperFunction,ComponentPad*%
%ADD14Outline8P,-0.660400X0.273547X-0.273547X0.660400X0.273547X0.660400X0.660400X0.273547X0.660400X-0.273547X0.273547X-0.660400X-0.273547X-0.660400X-0.660400X-0.273547X270.000000*%
%TD*%
%TA.AperFunction,Conductor*%
%ADD15C,0.152400*%
%TD*%
%ADD16R,1.300000X1.500000*%
%ADD17C,0.093472*%
%ADD18C,0.114300*%
%ADD19C,0.127000*%
%ADD20C,3.300000*%
%ADD21C,2.678200*%
%ADD22C,1.711200*%
%ADD23RoundRect,0.101600X0.754000X-0.754000X0.754000X0.754000X-0.754000X0.754000X-0.754000X-0.754000X0*%
%ADD24RoundRect,0.101600X-0.650000X-0.750000X0.650000X-0.750000X0.650000X0.750000X-0.650000X0.750000X0*%
%ADD25FreePoly0,270.000000*%
%TA.AperFunction,Profile*%
%ADD26C,0.050000*%
%TD*%
%ADD27C,0.152400*%
G04 APERTURE END LIST*
D10*
%TO.P,E2,SH2*%
%TO.N,GND*%
X163626100Y-99253600D03*
%TO.P,E2,SH1*%
X163626100Y-112973600D03*
D11*
%TO.P,E2,6*%
%TO.N,N/C*%
X154226100Y-104203600D03*
%TO.P,E2,5*%
%TO.N,VDD*%
X154226100Y-106743600D03*
%TO.P,E2,4*%
%TO.N,DQ*%
X154226100Y-109283600D03*
%TO.P,E2,3*%
%TO.N,GND*%
X151686100Y-102933600D03*
%TO.P,E2,2*%
%TO.N,N/C*%
X151686100Y-105473600D03*
D12*
%TO.P,E2,1*%
X151686100Y-108013600D03*
%TD*%
D13*
%TO.P,R2,2*%
%TO.N,DQ*%
X142476100Y-101663600D03*
%TO.P,R2,1*%
%TO.N,VDD*%
X140576100Y-101663600D03*
%TD*%
D14*
%TO.P,U$1,1*%
%TO.N,GND*%
X132636100Y-99123600D03*
%TO.P,U$1,2*%
%TO.N,DQ*%
X134541100Y-100393600D03*
%TO.P,U$1,3*%
%TO.N,VDD*%
X132636100Y-101663600D03*
%TD*%
D15*
%TO.N,GND*%
X151686100Y-102933600D02*
X154378500Y-102933600D01*
X154378500Y-102933600D02*
X155292900Y-103848000D01*
X155292900Y-103848000D02*
X163674900Y-103848000D01*
X151635300Y-102933600D02*
X151686100Y-102933600D01*
X151635300Y-102933600D02*
X147825300Y-99123600D01*
X147825300Y-99123600D02*
X132636100Y-99123600D01*
X163674900Y-99276000D02*
X163626100Y-99253600D01*
X163674900Y-112839600D02*
X163626100Y-112973600D01*
X163674900Y-103848000D02*
X163674900Y-112839600D01*
X163674900Y-99276000D02*
X163674900Y-103848000D01*
%TO.N,VDD*%
X140662500Y-101714400D02*
X140576100Y-101663600D01*
X140662500Y-101714400D02*
X149349300Y-110401200D01*
X149349300Y-110401200D02*
X154530900Y-110401200D01*
X154530900Y-110401200D02*
X155292900Y-109639200D01*
X155292900Y-109639200D02*
X155292900Y-108877200D01*
X155292900Y-108877200D02*
X154226100Y-107810400D01*
X154226100Y-107810400D02*
X154226100Y-106743600D01*
X132737700Y-101714400D02*
X132636100Y-101663600D01*
X140510100Y-101714400D02*
X140576100Y-101663600D01*
X132737700Y-101714400D02*
X140510100Y-101714400D01*
%TO.N,DQ*%
X142491300Y-101714400D02*
X142476100Y-101663600D01*
X154226100Y-109182000D02*
X154226100Y-109283600D01*
X142491300Y-101714400D02*
X149958900Y-109182000D01*
X149958900Y-109182000D02*
X154226100Y-109182000D01*
X134566500Y-100495200D02*
X134541100Y-100393600D01*
X142338900Y-101562000D02*
X142476100Y-101663600D01*
X134566500Y-100495200D02*
X141272100Y-100495200D01*
X141272100Y-100495200D02*
X142338900Y-101562000D01*
%TD*%
D10*
%TO.P,E2,SH2*%
%TO.N,GND*%
X163626100Y-99253600D03*
%TO.P,E2,SH1*%
X163626100Y-112973600D03*
D11*
%TO.P,E2,6*%
%TO.N,N/C*%
X154226100Y-104203600D03*
%TO.P,E2,5*%
%TO.N,VDD*%
X154226100Y-106743600D03*
%TO.P,E2,4*%
%TO.N,DQ*%
X154226100Y-109283600D03*
%TO.P,E2,3*%
%TO.N,GND*%
X151686100Y-102933600D03*
%TO.P,E2,2*%
%TO.N,N/C*%
X151686100Y-105473600D03*
D12*
%TO.P,E2,1*%
X151686100Y-108013600D03*
%TD*%
D14*
%TO.P,U$1,1*%
%TO.N,GND*%
X132636100Y-99123600D03*
%TO.P,U$1,2*%
%TO.N,DQ*%
X134541100Y-100393600D03*
%TO.P,U$1,3*%
%TO.N,VDD*%
X132636100Y-101663600D03*
%TD*%
D16*
%TO.C,R2*%
X142476100Y-101663600D03*
X140576100Y-101663600D03*
%TD*%
D17*
X165441619Y-116763147D02*
X165833795Y-116763147D01*
X166001871Y-117379424D02*
X165441619Y-117379424D01*
X165441619Y-117379424D02*
X165441619Y-116202896D01*
X165441619Y-116202896D02*
X166001871Y-116202896D01*
X166450072Y-116314946D02*
X166506097Y-116258921D01*
X166506097Y-116258921D02*
X166618148Y-116202896D01*
X166618148Y-116202896D02*
X166898273Y-116202896D01*
X166898273Y-116202896D02*
X167010324Y-116258921D01*
X167010324Y-116258921D02*
X167066349Y-116314946D01*
X167066349Y-116314946D02*
X167122374Y-116426996D01*
X167122374Y-116426996D02*
X167122374Y-116539047D01*
X167122374Y-116539047D02*
X167066349Y-116707122D01*
X167066349Y-116707122D02*
X166394047Y-117379424D01*
X166394047Y-117379424D02*
X167122374Y-117379424D01*
X150033544Y-95882896D02*
X150705846Y-95882896D01*
X150369695Y-97059424D02*
X150369695Y-95882896D01*
X151098021Y-96443147D02*
X151490197Y-96443147D01*
X151658273Y-97059424D02*
X151098021Y-97059424D01*
X151098021Y-97059424D02*
X151098021Y-95882896D01*
X151098021Y-95882896D02*
X151658273Y-95882896D01*
X152162499Y-97059424D02*
X152162499Y-95882896D01*
X152162499Y-95882896D02*
X152554675Y-96723273D01*
X152554675Y-96723273D02*
X152946851Y-95882896D01*
X152946851Y-95882896D02*
X152946851Y-97059424D01*
X153507102Y-97059424D02*
X153507102Y-95882896D01*
X153507102Y-95882896D02*
X153955303Y-95882896D01*
X153955303Y-95882896D02*
X154067354Y-95938921D01*
X154067354Y-95938921D02*
X154123379Y-95994946D01*
X154123379Y-95994946D02*
X154179404Y-96106996D01*
X154179404Y-96106996D02*
X154179404Y-96275072D01*
X154179404Y-96275072D02*
X154123379Y-96387122D01*
X154123379Y-96387122D02*
X154067354Y-96443147D01*
X154067354Y-96443147D02*
X153955303Y-96499172D01*
X153955303Y-96499172D02*
X153507102Y-96499172D01*
X154403505Y-97171474D02*
X155299907Y-97171474D01*
X155524007Y-97003399D02*
X155692083Y-97059424D01*
X155692083Y-97059424D02*
X155972208Y-97059424D01*
X155972208Y-97059424D02*
X156084259Y-97003399D01*
X156084259Y-97003399D02*
X156140284Y-96947373D01*
X156140284Y-96947373D02*
X156196309Y-96835323D01*
X156196309Y-96835323D02*
X156196309Y-96723273D01*
X156196309Y-96723273D02*
X156140284Y-96611223D01*
X156140284Y-96611223D02*
X156084259Y-96555197D01*
X156084259Y-96555197D02*
X155972208Y-96499172D01*
X155972208Y-96499172D02*
X155748108Y-96443147D01*
X155748108Y-96443147D02*
X155636057Y-96387122D01*
X155636057Y-96387122D02*
X155580032Y-96331097D01*
X155580032Y-96331097D02*
X155524007Y-96219047D01*
X155524007Y-96219047D02*
X155524007Y-96106996D01*
X155524007Y-96106996D02*
X155580032Y-95994946D01*
X155580032Y-95994946D02*
X155636057Y-95938921D01*
X155636057Y-95938921D02*
X155748108Y-95882896D01*
X155748108Y-95882896D02*
X156028233Y-95882896D01*
X156028233Y-95882896D02*
X156196309Y-95938921D01*
X156700535Y-96443147D02*
X157092711Y-96443147D01*
X157260787Y-97059424D02*
X156700535Y-97059424D01*
X156700535Y-97059424D02*
X156700535Y-95882896D01*
X156700535Y-95882896D02*
X157260787Y-95882896D01*
X157765013Y-97059424D02*
X157765013Y-95882896D01*
X157765013Y-95882896D02*
X158437315Y-97059424D01*
X158437315Y-97059424D02*
X158437315Y-95882896D01*
X158941541Y-97003399D02*
X159109617Y-97059424D01*
X159109617Y-97059424D02*
X159389742Y-97059424D01*
X159389742Y-97059424D02*
X159501793Y-97003399D01*
X159501793Y-97003399D02*
X159557818Y-96947373D01*
X159557818Y-96947373D02*
X159613843Y-96835323D01*
X159613843Y-96835323D02*
X159613843Y-96723273D01*
X159613843Y-96723273D02*
X159557818Y-96611223D01*
X159557818Y-96611223D02*
X159501793Y-96555197D01*
X159501793Y-96555197D02*
X159389742Y-96499172D01*
X159389742Y-96499172D02*
X159165642Y-96443147D01*
X159165642Y-96443147D02*
X159053591Y-96387122D01*
X159053591Y-96387122D02*
X158997566Y-96331097D01*
X158997566Y-96331097D02*
X158941541Y-96219047D01*
X158941541Y-96219047D02*
X158941541Y-96106996D01*
X158941541Y-96106996D02*
X158997566Y-95994946D01*
X158997566Y-95994946D02*
X159053591Y-95938921D01*
X159053591Y-95938921D02*
X159165642Y-95882896D01*
X159165642Y-95882896D02*
X159445767Y-95882896D01*
X159445767Y-95882896D02*
X159613843Y-95938921D01*
X160342170Y-95882896D02*
X160566270Y-95882896D01*
X160566270Y-95882896D02*
X160678321Y-95938921D01*
X160678321Y-95938921D02*
X160790371Y-96050971D01*
X160790371Y-96050971D02*
X160846396Y-96275072D01*
X160846396Y-96275072D02*
X160846396Y-96667248D01*
X160846396Y-96667248D02*
X160790371Y-96891348D01*
X160790371Y-96891348D02*
X160678321Y-97003399D01*
X160678321Y-97003399D02*
X160566270Y-97059424D01*
X160566270Y-97059424D02*
X160342170Y-97059424D01*
X160342170Y-97059424D02*
X160230120Y-97003399D01*
X160230120Y-97003399D02*
X160118069Y-96891348D01*
X160118069Y-96891348D02*
X160062044Y-96667248D01*
X160062044Y-96667248D02*
X160062044Y-96275072D01*
X160062044Y-96275072D02*
X160118069Y-96050971D01*
X160118069Y-96050971D02*
X160230120Y-95938921D01*
X160230120Y-95938921D02*
X160342170Y-95882896D01*
X162022924Y-97059424D02*
X161630748Y-96499172D01*
X161350622Y-97059424D02*
X161350622Y-95882896D01*
X161350622Y-95882896D02*
X161798823Y-95882896D01*
X161798823Y-95882896D02*
X161910874Y-95938921D01*
X161910874Y-95938921D02*
X161966899Y-95994946D01*
X161966899Y-95994946D02*
X162022924Y-96106996D01*
X162022924Y-96106996D02*
X162022924Y-96275072D01*
X162022924Y-96275072D02*
X161966899Y-96387122D01*
X161966899Y-96387122D02*
X161910874Y-96443147D01*
X161910874Y-96443147D02*
X161798823Y-96499172D01*
X161798823Y-96499172D02*
X161350622Y-96499172D01*
X162247025Y-97171474D02*
X163143427Y-97171474D01*
X164039829Y-97059424D02*
X163367527Y-97059424D01*
X163703678Y-97059424D02*
X163703678Y-95882896D01*
X163703678Y-95882896D02*
X163591628Y-96050971D01*
X163591628Y-96050971D02*
X163479577Y-96163021D01*
X163479577Y-96163021D02*
X163367527Y-96219047D01*
X140113921Y-104629424D02*
X139721745Y-104069172D01*
X139441619Y-104629424D02*
X139441619Y-103452896D01*
X139441619Y-103452896D02*
X139889820Y-103452896D01*
X139889820Y-103452896D02*
X140001871Y-103508921D01*
X140001871Y-103508921D02*
X140057896Y-103564946D01*
X140057896Y-103564946D02*
X140113921Y-103676996D01*
X140113921Y-103676996D02*
X140113921Y-103845072D01*
X140113921Y-103845072D02*
X140057896Y-103957122D01*
X140057896Y-103957122D02*
X140001871Y-104013147D01*
X140001871Y-104013147D02*
X139889820Y-104069172D01*
X139889820Y-104069172D02*
X139441619Y-104069172D01*
X140562122Y-103564946D02*
X140618147Y-103508921D01*
X140618147Y-103508921D02*
X140730198Y-103452896D01*
X140730198Y-103452896D02*
X141010323Y-103452896D01*
X141010323Y-103452896D02*
X141122374Y-103508921D01*
X141122374Y-103508921D02*
X141178399Y-103564946D01*
X141178399Y-103564946D02*
X141234424Y-103676996D01*
X141234424Y-103676996D02*
X141234424Y-103789047D01*
X141234424Y-103789047D02*
X141178399Y-103957122D01*
X141178399Y-103957122D02*
X140506097Y-104629424D01*
X140506097Y-104629424D02*
X141234424Y-104629424D01*
D18*
X133914105Y-110590697D02*
X134849672Y-110590697D01*
X134849672Y-110590697D02*
X134959738Y-110535664D01*
X134959738Y-110535664D02*
X135014772Y-110480630D01*
X135014772Y-110480630D02*
X135069805Y-110370564D01*
X135069805Y-110370564D02*
X135069805Y-110150430D01*
X135069805Y-110150430D02*
X135014772Y-110040364D01*
X135014772Y-110040364D02*
X134959738Y-109985330D01*
X134959738Y-109985330D02*
X134849672Y-109930297D01*
X134849672Y-109930297D02*
X133914105Y-109930297D01*
X135014772Y-109434997D02*
X135069805Y-109269897D01*
X135069805Y-109269897D02*
X135069805Y-108994731D01*
X135069805Y-108994731D02*
X135014772Y-108884664D01*
X135014772Y-108884664D02*
X134959738Y-108829631D01*
X134959738Y-108829631D02*
X134849672Y-108774597D01*
X134849672Y-108774597D02*
X134739605Y-108774597D01*
X134739605Y-108774597D02*
X134629538Y-108829631D01*
X134629538Y-108829631D02*
X134574505Y-108884664D01*
X134574505Y-108884664D02*
X134519472Y-108994731D01*
X134519472Y-108994731D02*
X134464438Y-109214864D01*
X134464438Y-109214864D02*
X134409405Y-109324931D01*
X134409405Y-109324931D02*
X134354372Y-109379964D01*
X134354372Y-109379964D02*
X134244305Y-109434997D01*
X134244305Y-109434997D02*
X134134238Y-109434997D01*
X134134238Y-109434997D02*
X134024172Y-109379964D01*
X134024172Y-109379964D02*
X133969138Y-109324931D01*
X133969138Y-109324931D02*
X133914105Y-109214864D01*
X133914105Y-109214864D02*
X133914105Y-108939697D01*
X133914105Y-108939697D02*
X133969138Y-108774597D01*
X133749005Y-109104797D02*
X135234905Y-109104797D01*
X135069805Y-107673930D02*
X135069805Y-108334330D01*
X135069805Y-108004130D02*
X133914105Y-108004130D01*
X133914105Y-108004130D02*
X134079205Y-108114197D01*
X134079205Y-108114197D02*
X134189272Y-108224264D01*
X134189272Y-108224264D02*
X134244305Y-108334330D01*
D19*
%TO.C,E2*%
X150166100Y-114273600D02*
X150166100Y-97943600D01*
X150166100Y-97943600D02*
X168706100Y-97943600D01*
X150166100Y-114273600D02*
X168706100Y-114273600D01*
X168706100Y-114273600D02*
X168706100Y-97943600D01*
%TO.C,U$1*%
X132382100Y-102647300D02*
X132382100Y-103048500D01*
X132382100Y-100107300D02*
X132382100Y-100679900D01*
X132382100Y-97738700D02*
X132382100Y-98139900D01*
X130985100Y-98299100D02*
X130985100Y-102488100D01*
X130985101Y-102488098D02*
G75*
G03*
X135184499Y-101179900I1650989J2094486D01*
G01*
X135184600Y-99607301D02*
G75*
G03*
X132382100Y-97738701I-2548480J-786299D01*
G01*
X132382100Y-97738700D02*
G75*
G03*
X130985100Y-98299000I253952J-2654903D01*
G01*
%TD*%
%LPC*%
D20*
%TO.C,E2*%
X160576100Y-101033600D03*
X160576100Y-111193600D03*
D21*
X163626100Y-99253600D03*
X163626100Y-112973600D03*
D22*
X154226100Y-104203600D03*
X154226100Y-106743600D03*
X154226100Y-109283600D03*
X151686100Y-102933600D03*
X151686100Y-105473600D03*
D23*
X151686100Y-108013600D03*
%TD*%
D24*
%TO.C,R2*%
X142476100Y-101663600D03*
X140576100Y-101663600D03*
%TD*%
D25*
%TO.C,U$1*%
X132636100Y-99123600D03*
X134541100Y-100393600D03*
X132636100Y-101663600D03*
%TD*%
%LPD*%
%LPC*%
D20*
%TO.C,E2*%
X160576100Y-101033600D03*
X160576100Y-111193600D03*
D21*
X163626100Y-99253600D03*
X163626100Y-112973600D03*
D22*
X154226100Y-104203600D03*
X154226100Y-106743600D03*
X154226100Y-109283600D03*
X151686100Y-102933600D03*
X151686100Y-105473600D03*
D23*
X151686100Y-108013600D03*
%TD*%
D25*
%TO.C,U$1*%
X132636100Y-99123600D03*
X134541100Y-100393600D03*
X132636100Y-101663600D03*
%TD*%
%LPD*%
D20*
%TO.C,E2*%
X160576100Y-101033600D03*
X160576100Y-111193600D03*
D21*
X163626100Y-99253600D03*
X163626100Y-112973600D03*
D22*
X154226100Y-104203600D03*
X154226100Y-106743600D03*
X154226100Y-109283600D03*
X151686100Y-102933600D03*
X151686100Y-105473600D03*
D23*
X151686100Y-108013600D03*
%TD*%
D24*
%TO.C,R2*%
X142476100Y-101663600D03*
X140576100Y-101663600D03*
%TD*%
D25*
%TO.C,U$1*%
X132636100Y-99123600D03*
X134541100Y-100393600D03*
X132636100Y-101663600D03*
%TD*%
D20*
%TO.C,E2*%
X160576100Y-101033600D03*
X160576100Y-111193600D03*
D21*
X163626100Y-99253600D03*
X163626100Y-112973600D03*
D22*
X154226100Y-104203600D03*
X154226100Y-106743600D03*
X154226100Y-109283600D03*
X151686100Y-102933600D03*
X151686100Y-105473600D03*
D23*
X151686100Y-108013600D03*
%TD*%
D25*
%TO.C,U$1*%
X132636100Y-99123600D03*
X134541100Y-100393600D03*
X132636100Y-101663600D03*
%TD*%
D26*
X127556100Y-118173600D02*
X169446100Y-118173600D01*
X169446100Y-118173600D02*
X169446100Y-91833600D01*
X169446100Y-91833600D02*
X127556100Y-91833600D01*
X127556100Y-91833600D02*
X127556100Y-118173600D01*
D18*
X131894805Y-108982031D02*
X130739105Y-108982031D01*
X130739105Y-108982031D02*
X130739105Y-108706864D01*
X130739105Y-108706864D02*
X130794138Y-108541764D01*
X130794138Y-108541764D02*
X130904205Y-108431698D01*
X130904205Y-108431698D02*
X131014272Y-108376664D01*
X131014272Y-108376664D02*
X131234405Y-108321631D01*
X131234405Y-108321631D02*
X131399505Y-108321631D01*
X131399505Y-108321631D02*
X131619638Y-108376664D01*
X131619638Y-108376664D02*
X131729705Y-108431698D01*
X131729705Y-108431698D02*
X131839772Y-108541764D01*
X131839772Y-108541764D02*
X131894805Y-108706864D01*
X131894805Y-108706864D02*
X131894805Y-108982031D01*
X131839772Y-107881364D02*
X131894805Y-107716264D01*
X131894805Y-107716264D02*
X131894805Y-107441098D01*
X131894805Y-107441098D02*
X131839772Y-107331031D01*
X131839772Y-107331031D02*
X131784738Y-107275998D01*
X131784738Y-107275998D02*
X131674672Y-107220964D01*
X131674672Y-107220964D02*
X131564605Y-107220964D01*
X131564605Y-107220964D02*
X131454538Y-107275998D01*
X131454538Y-107275998D02*
X131399505Y-107331031D01*
X131399505Y-107331031D02*
X131344472Y-107441098D01*
X131344472Y-107441098D02*
X131289438Y-107661231D01*
X131289438Y-107661231D02*
X131234405Y-107771298D01*
X131234405Y-107771298D02*
X131179372Y-107826331D01*
X131179372Y-107826331D02*
X131069305Y-107881364D01*
X131069305Y-107881364D02*
X130959238Y-107881364D01*
X130959238Y-107881364D02*
X130849172Y-107826331D01*
X130849172Y-107826331D02*
X130794138Y-107771298D01*
X130794138Y-107771298D02*
X130739105Y-107661231D01*
X130739105Y-107661231D02*
X130739105Y-107386064D01*
X130739105Y-107386064D02*
X130794138Y-107220964D01*
X131894805Y-106120297D02*
X131894805Y-106780697D01*
X131894805Y-106450497D02*
X130739105Y-106450497D01*
X130739105Y-106450497D02*
X130904205Y-106560564D01*
X130904205Y-106560564D02*
X131014272Y-106670631D01*
X131014272Y-106670631D02*
X131069305Y-106780697D01*
X131234405Y-105459897D02*
X131179372Y-105569964D01*
X131179372Y-105569964D02*
X131124338Y-105624997D01*
X131124338Y-105624997D02*
X131014272Y-105680030D01*
X131014272Y-105680030D02*
X130959238Y-105680030D01*
X130959238Y-105680030D02*
X130849172Y-105624997D01*
X130849172Y-105624997D02*
X130794138Y-105569964D01*
X130794138Y-105569964D02*
X130739105Y-105459897D01*
X130739105Y-105459897D02*
X130739105Y-105239764D01*
X130739105Y-105239764D02*
X130794138Y-105129697D01*
X130794138Y-105129697D02*
X130849172Y-105074664D01*
X130849172Y-105074664D02*
X130959238Y-105019630D01*
X130959238Y-105019630D02*
X131014272Y-105019630D01*
X131014272Y-105019630D02*
X131124338Y-105074664D01*
X131124338Y-105074664D02*
X131179372Y-105129697D01*
X131179372Y-105129697D02*
X131234405Y-105239764D01*
X131234405Y-105239764D02*
X131234405Y-105459897D01*
X131234405Y-105459897D02*
X131289438Y-105569964D01*
X131289438Y-105569964D02*
X131344472Y-105624997D01*
X131344472Y-105624997D02*
X131454538Y-105680030D01*
X131454538Y-105680030D02*
X131674672Y-105680030D01*
X131674672Y-105680030D02*
X131784738Y-105624997D01*
X131784738Y-105624997D02*
X131839772Y-105569964D01*
X131839772Y-105569964D02*
X131894805Y-105459897D01*
X131894805Y-105459897D02*
X131894805Y-105239764D01*
X131894805Y-105239764D02*
X131839772Y-105129697D01*
X131839772Y-105129697D02*
X131784738Y-105074664D01*
X131784738Y-105074664D02*
X131674672Y-105019630D01*
X131674672Y-105019630D02*
X131454538Y-105019630D01*
X131454538Y-105019630D02*
X131344472Y-105074664D01*
X131344472Y-105074664D02*
X131289438Y-105129697D01*
X131289438Y-105129697D02*
X131234405Y-105239764D01*
X131289438Y-104139097D02*
X131344472Y-103973997D01*
X131344472Y-103973997D02*
X131399505Y-103918963D01*
X131399505Y-103918963D02*
X131509572Y-103863930D01*
X131509572Y-103863930D02*
X131674672Y-103863930D01*
X131674672Y-103863930D02*
X131784738Y-103918963D01*
X131784738Y-103918963D02*
X131839772Y-103973997D01*
X131839772Y-103973997D02*
X131894805Y-104084063D01*
X131894805Y-104084063D02*
X131894805Y-104524330D01*
X131894805Y-104524330D02*
X130739105Y-104524330D01*
X130739105Y-104524330D02*
X130739105Y-104139097D01*
X130739105Y-104139097D02*
X130794138Y-104029030D01*
X130794138Y-104029030D02*
X130849172Y-103973997D01*
X130849172Y-103973997D02*
X130959238Y-103918963D01*
X130959238Y-103918963D02*
X131069305Y-103918963D01*
X131069305Y-103918963D02*
X131179372Y-103973997D01*
X131179372Y-103973997D02*
X131234405Y-104029030D01*
X131234405Y-104029030D02*
X131289438Y-104139097D01*
X131289438Y-104139097D02*
X131289438Y-104524330D01*
D19*
X131346614Y-101289762D02*
X131346614Y-100582190D01*
X131346614Y-100582190D02*
X131782043Y-100963190D01*
X131782043Y-100963190D02*
X131782043Y-100799905D01*
X131782043Y-100799905D02*
X131836471Y-100691048D01*
X131836471Y-100691048D02*
X131890900Y-100636619D01*
X131890900Y-100636619D02*
X131999757Y-100582190D01*
X131999757Y-100582190D02*
X132271900Y-100582190D01*
X132271900Y-100582190D02*
X132380757Y-100636619D01*
X132380757Y-100636619D02*
X132435186Y-100691048D01*
X132435186Y-100691048D02*
X132489614Y-100799905D01*
X132489614Y-100799905D02*
X132489614Y-101126476D01*
X132489614Y-101126476D02*
X132435186Y-101235333D01*
X132435186Y-101235333D02*
X132380757Y-101289762D01*
X132489614Y-97280190D02*
X132489614Y-97933333D01*
X132489614Y-97606762D02*
X131346614Y-97606762D01*
X131346614Y-97606762D02*
X131509900Y-97715619D01*
X131509900Y-97715619D02*
X131618757Y-97824476D01*
X131618757Y-97824476D02*
X131673186Y-97933333D01*
X132090471Y-99457333D02*
X132036043Y-99402905D01*
X132036043Y-99402905D02*
X131981614Y-99294048D01*
X131981614Y-99294048D02*
X131981614Y-99021905D01*
X131981614Y-99021905D02*
X132036043Y-98913048D01*
X132036043Y-98913048D02*
X132090471Y-98858619D01*
X132090471Y-98858619D02*
X132199328Y-98804190D01*
X132199328Y-98804190D02*
X132308186Y-98804190D01*
X132308186Y-98804190D02*
X132471471Y-98858619D01*
X132471471Y-98858619D02*
X133124614Y-99511762D01*
X133124614Y-99511762D02*
X133124614Y-98804190D01*
%TO.C,R2*%
G36*
X141109300Y-102362100D02*
G01*
X140459300Y-102362100D01*
X140459300Y-100962100D01*
X141109300Y-100962100D01*
X141109300Y-102362100D01*
G37*
G36*
X142582500Y-102362100D02*
G01*
X141932500Y-102362100D01*
X141932500Y-100962100D01*
X142582500Y-100962100D01*
X142582500Y-102362100D01*
G37*
D27*
X141116100Y-102298600D02*
X141936100Y-102298600D01*
X141116100Y-101028600D02*
X141936100Y-101028600D01*
D19*
%TO.C,U$1*%
X135184600Y-101179900D02*
G75*
G03*
X135184600Y-99607300I-2548500J786300D01*
G01*
X132382100Y-100679900D02*
X132382100Y-102647300D01*
X132382100Y-98139900D02*
X132382100Y-100107300D01*
%TD*%
M02*
