%TF.GenerationSoftware,KiCad,Pcbnew,7.0.2*%
%TF.CreationDate,2024-01-01T15:40:30-07:00*%
%TF.ProjectId,Temp Sensor Board 1,54656d70-2053-4656-9e73-6f7220426f61,rev?*%
%TF.SameCoordinates,Original*%
%TF.FileFunction,Drillmap*%
%TF.FilePolarity,Positive*%
%FSLAX45Y45*%
G04 Gerber Fmt 4.5, Leading zero omitted, Abs format (unit mm)*
G04 Created by KiCad (PCBNEW 7.0.2) date 2024-01-01 15:40:30*
%MOMM*%
%LPD*%
G01*
G04 APERTURE LIST*
%ADD10C,0.100000*%
%ADD11C,0.200000*%
%ADD12C,0.330000*%
G04 APERTURE END LIST*
D10*
X11722100Y-7251700D02*
X15853665Y-7251700D01*
X15853665Y-9236965D01*
X11722100Y-9236965D01*
X11722100Y-7251700D01*
D11*
D12*
X14859100Y-7684100D02*
X15189100Y-8014100D01*
X15189100Y-7684100D02*
X14859100Y-8014100D01*
X14859100Y-8700100D02*
X15189100Y-9030100D01*
X15189100Y-8700100D02*
X14859100Y-9030100D01*
D11*
X11964719Y-9554488D02*
X11964719Y-9354488D01*
X11964719Y-9354488D02*
X12012338Y-9354488D01*
X12012338Y-9354488D02*
X12040909Y-9364012D01*
X12040909Y-9364012D02*
X12059957Y-9383060D01*
X12059957Y-9383060D02*
X12069481Y-9402107D01*
X12069481Y-9402107D02*
X12079005Y-9440203D01*
X12079005Y-9440203D02*
X12079005Y-9468774D01*
X12079005Y-9468774D02*
X12069481Y-9506869D01*
X12069481Y-9506869D02*
X12059957Y-9525917D01*
X12059957Y-9525917D02*
X12040909Y-9544965D01*
X12040909Y-9544965D02*
X12012338Y-9554488D01*
X12012338Y-9554488D02*
X11964719Y-9554488D01*
X12164719Y-9554488D02*
X12164719Y-9421155D01*
X12164719Y-9459250D02*
X12174243Y-9440203D01*
X12174243Y-9440203D02*
X12183767Y-9430679D01*
X12183767Y-9430679D02*
X12202814Y-9421155D01*
X12202814Y-9421155D02*
X12221862Y-9421155D01*
X12288528Y-9554488D02*
X12288528Y-9421155D01*
X12288528Y-9354488D02*
X12279005Y-9364012D01*
X12279005Y-9364012D02*
X12288528Y-9373536D01*
X12288528Y-9373536D02*
X12298052Y-9364012D01*
X12298052Y-9364012D02*
X12288528Y-9354488D01*
X12288528Y-9354488D02*
X12288528Y-9373536D01*
X12412338Y-9554488D02*
X12393290Y-9544965D01*
X12393290Y-9544965D02*
X12383767Y-9525917D01*
X12383767Y-9525917D02*
X12383767Y-9354488D01*
X12517100Y-9554488D02*
X12498052Y-9544965D01*
X12498052Y-9544965D02*
X12488528Y-9525917D01*
X12488528Y-9525917D02*
X12488528Y-9354488D01*
X12745671Y-9554488D02*
X12745671Y-9354488D01*
X12745671Y-9354488D02*
X12812338Y-9497346D01*
X12812338Y-9497346D02*
X12879005Y-9354488D01*
X12879005Y-9354488D02*
X12879005Y-9554488D01*
X13059957Y-9554488D02*
X13059957Y-9449727D01*
X13059957Y-9449727D02*
X13050433Y-9430679D01*
X13050433Y-9430679D02*
X13031386Y-9421155D01*
X13031386Y-9421155D02*
X12993290Y-9421155D01*
X12993290Y-9421155D02*
X12974243Y-9430679D01*
X13059957Y-9544965D02*
X13040909Y-9554488D01*
X13040909Y-9554488D02*
X12993290Y-9554488D01*
X12993290Y-9554488D02*
X12974243Y-9544965D01*
X12974243Y-9544965D02*
X12964719Y-9525917D01*
X12964719Y-9525917D02*
X12964719Y-9506869D01*
X12964719Y-9506869D02*
X12974243Y-9487822D01*
X12974243Y-9487822D02*
X12993290Y-9478298D01*
X12993290Y-9478298D02*
X13040909Y-9478298D01*
X13040909Y-9478298D02*
X13059957Y-9468774D01*
X13155195Y-9421155D02*
X13155195Y-9621155D01*
X13155195Y-9430679D02*
X13174243Y-9421155D01*
X13174243Y-9421155D02*
X13212338Y-9421155D01*
X13212338Y-9421155D02*
X13231386Y-9430679D01*
X13231386Y-9430679D02*
X13240909Y-9440203D01*
X13240909Y-9440203D02*
X13250433Y-9459250D01*
X13250433Y-9459250D02*
X13250433Y-9516393D01*
X13250433Y-9516393D02*
X13240909Y-9535441D01*
X13240909Y-9535441D02*
X13231386Y-9544965D01*
X13231386Y-9544965D02*
X13212338Y-9554488D01*
X13212338Y-9554488D02*
X13174243Y-9554488D01*
X13174243Y-9554488D02*
X13155195Y-9544965D01*
X13336148Y-9535441D02*
X13345671Y-9544965D01*
X13345671Y-9544965D02*
X13336148Y-9554488D01*
X13336148Y-9554488D02*
X13326624Y-9544965D01*
X13326624Y-9544965D02*
X13336148Y-9535441D01*
X13336148Y-9535441D02*
X13336148Y-9554488D01*
X13336148Y-9430679D02*
X13345671Y-9440203D01*
X13345671Y-9440203D02*
X13336148Y-9449727D01*
X13336148Y-9449727D02*
X13326624Y-9440203D01*
X13326624Y-9440203D02*
X13336148Y-9430679D01*
X13336148Y-9430679D02*
X13336148Y-9449727D01*
X11517100Y-9781965D02*
X11717100Y-9981965D01*
X11717100Y-9781965D02*
X11517100Y-9981965D01*
X11945671Y-9774488D02*
X12069481Y-9774488D01*
X12069481Y-9774488D02*
X12002814Y-9850679D01*
X12002814Y-9850679D02*
X12031386Y-9850679D01*
X12031386Y-9850679D02*
X12050433Y-9860203D01*
X12050433Y-9860203D02*
X12059957Y-9869727D01*
X12059957Y-9869727D02*
X12069481Y-9888774D01*
X12069481Y-9888774D02*
X12069481Y-9936393D01*
X12069481Y-9936393D02*
X12059957Y-9955441D01*
X12059957Y-9955441D02*
X12050433Y-9964965D01*
X12050433Y-9964965D02*
X12031386Y-9974488D01*
X12031386Y-9974488D02*
X11974243Y-9974488D01*
X11974243Y-9974488D02*
X11955195Y-9964965D01*
X11955195Y-9964965D02*
X11945671Y-9955441D01*
X12155195Y-9955441D02*
X12164719Y-9964965D01*
X12164719Y-9964965D02*
X12155195Y-9974488D01*
X12155195Y-9974488D02*
X12145671Y-9964965D01*
X12145671Y-9964965D02*
X12155195Y-9955441D01*
X12155195Y-9955441D02*
X12155195Y-9974488D01*
X12231386Y-9774488D02*
X12355195Y-9774488D01*
X12355195Y-9774488D02*
X12288528Y-9850679D01*
X12288528Y-9850679D02*
X12317100Y-9850679D01*
X12317100Y-9850679D02*
X12336148Y-9860203D01*
X12336148Y-9860203D02*
X12345671Y-9869727D01*
X12345671Y-9869727D02*
X12355195Y-9888774D01*
X12355195Y-9888774D02*
X12355195Y-9936393D01*
X12355195Y-9936393D02*
X12345671Y-9955441D01*
X12345671Y-9955441D02*
X12336148Y-9964965D01*
X12336148Y-9964965D02*
X12317100Y-9974488D01*
X12317100Y-9974488D02*
X12259957Y-9974488D01*
X12259957Y-9974488D02*
X12240909Y-9964965D01*
X12240909Y-9964965D02*
X12231386Y-9955441D01*
X12479005Y-9774488D02*
X12498052Y-9774488D01*
X12498052Y-9774488D02*
X12517100Y-9784012D01*
X12517100Y-9784012D02*
X12526624Y-9793536D01*
X12526624Y-9793536D02*
X12536148Y-9812584D01*
X12536148Y-9812584D02*
X12545671Y-9850679D01*
X12545671Y-9850679D02*
X12545671Y-9898298D01*
X12545671Y-9898298D02*
X12536148Y-9936393D01*
X12536148Y-9936393D02*
X12526624Y-9955441D01*
X12526624Y-9955441D02*
X12517100Y-9964965D01*
X12517100Y-9964965D02*
X12498052Y-9974488D01*
X12498052Y-9974488D02*
X12479005Y-9974488D01*
X12479005Y-9974488D02*
X12459957Y-9964965D01*
X12459957Y-9964965D02*
X12450433Y-9955441D01*
X12450433Y-9955441D02*
X12440909Y-9936393D01*
X12440909Y-9936393D02*
X12431386Y-9898298D01*
X12431386Y-9898298D02*
X12431386Y-9850679D01*
X12431386Y-9850679D02*
X12440909Y-9812584D01*
X12440909Y-9812584D02*
X12450433Y-9793536D01*
X12450433Y-9793536D02*
X12459957Y-9784012D01*
X12459957Y-9784012D02*
X12479005Y-9774488D01*
X12669481Y-9774488D02*
X12688529Y-9774488D01*
X12688529Y-9774488D02*
X12707576Y-9784012D01*
X12707576Y-9784012D02*
X12717100Y-9793536D01*
X12717100Y-9793536D02*
X12726624Y-9812584D01*
X12726624Y-9812584D02*
X12736148Y-9850679D01*
X12736148Y-9850679D02*
X12736148Y-9898298D01*
X12736148Y-9898298D02*
X12726624Y-9936393D01*
X12726624Y-9936393D02*
X12717100Y-9955441D01*
X12717100Y-9955441D02*
X12707576Y-9964965D01*
X12707576Y-9964965D02*
X12688529Y-9974488D01*
X12688529Y-9974488D02*
X12669481Y-9974488D01*
X12669481Y-9974488D02*
X12650433Y-9964965D01*
X12650433Y-9964965D02*
X12640909Y-9955441D01*
X12640909Y-9955441D02*
X12631386Y-9936393D01*
X12631386Y-9936393D02*
X12621862Y-9898298D01*
X12621862Y-9898298D02*
X12621862Y-9850679D01*
X12621862Y-9850679D02*
X12631386Y-9812584D01*
X12631386Y-9812584D02*
X12640909Y-9793536D01*
X12640909Y-9793536D02*
X12650433Y-9784012D01*
X12650433Y-9784012D02*
X12669481Y-9774488D01*
X12821862Y-9974488D02*
X12821862Y-9841155D01*
X12821862Y-9860203D02*
X12831386Y-9850679D01*
X12831386Y-9850679D02*
X12850433Y-9841155D01*
X12850433Y-9841155D02*
X12879005Y-9841155D01*
X12879005Y-9841155D02*
X12898052Y-9850679D01*
X12898052Y-9850679D02*
X12907576Y-9869727D01*
X12907576Y-9869727D02*
X12907576Y-9974488D01*
X12907576Y-9869727D02*
X12917100Y-9850679D01*
X12917100Y-9850679D02*
X12936148Y-9841155D01*
X12936148Y-9841155D02*
X12964719Y-9841155D01*
X12964719Y-9841155D02*
X12983767Y-9850679D01*
X12983767Y-9850679D02*
X12993290Y-9869727D01*
X12993290Y-9869727D02*
X12993290Y-9974488D01*
X13088529Y-9974488D02*
X13088529Y-9841155D01*
X13088529Y-9860203D02*
X13098052Y-9850679D01*
X13098052Y-9850679D02*
X13117100Y-9841155D01*
X13117100Y-9841155D02*
X13145671Y-9841155D01*
X13145671Y-9841155D02*
X13164719Y-9850679D01*
X13164719Y-9850679D02*
X13174243Y-9869727D01*
X13174243Y-9869727D02*
X13174243Y-9974488D01*
X13174243Y-9869727D02*
X13183767Y-9850679D01*
X13183767Y-9850679D02*
X13202814Y-9841155D01*
X13202814Y-9841155D02*
X13231386Y-9841155D01*
X13231386Y-9841155D02*
X13250433Y-9850679D01*
X13250433Y-9850679D02*
X13259957Y-9869727D01*
X13259957Y-9869727D02*
X13259957Y-9974488D01*
X13650433Y-9764965D02*
X13479005Y-10022107D01*
X13907576Y-9774488D02*
X13926624Y-9774488D01*
X13926624Y-9774488D02*
X13945672Y-9784012D01*
X13945672Y-9784012D02*
X13955195Y-9793536D01*
X13955195Y-9793536D02*
X13964719Y-9812584D01*
X13964719Y-9812584D02*
X13974243Y-9850679D01*
X13974243Y-9850679D02*
X13974243Y-9898298D01*
X13974243Y-9898298D02*
X13964719Y-9936393D01*
X13964719Y-9936393D02*
X13955195Y-9955441D01*
X13955195Y-9955441D02*
X13945672Y-9964965D01*
X13945672Y-9964965D02*
X13926624Y-9974488D01*
X13926624Y-9974488D02*
X13907576Y-9974488D01*
X13907576Y-9974488D02*
X13888529Y-9964965D01*
X13888529Y-9964965D02*
X13879005Y-9955441D01*
X13879005Y-9955441D02*
X13869481Y-9936393D01*
X13869481Y-9936393D02*
X13859957Y-9898298D01*
X13859957Y-9898298D02*
X13859957Y-9850679D01*
X13859957Y-9850679D02*
X13869481Y-9812584D01*
X13869481Y-9812584D02*
X13879005Y-9793536D01*
X13879005Y-9793536D02*
X13888529Y-9784012D01*
X13888529Y-9784012D02*
X13907576Y-9774488D01*
X14059957Y-9955441D02*
X14069481Y-9964965D01*
X14069481Y-9964965D02*
X14059957Y-9974488D01*
X14059957Y-9974488D02*
X14050433Y-9964965D01*
X14050433Y-9964965D02*
X14059957Y-9955441D01*
X14059957Y-9955441D02*
X14059957Y-9974488D01*
X14259957Y-9974488D02*
X14145672Y-9974488D01*
X14202814Y-9974488D02*
X14202814Y-9774488D01*
X14202814Y-9774488D02*
X14183767Y-9803060D01*
X14183767Y-9803060D02*
X14164719Y-9822107D01*
X14164719Y-9822107D02*
X14145672Y-9831631D01*
X14336148Y-9793536D02*
X14345672Y-9784012D01*
X14345672Y-9784012D02*
X14364719Y-9774488D01*
X14364719Y-9774488D02*
X14412338Y-9774488D01*
X14412338Y-9774488D02*
X14431386Y-9784012D01*
X14431386Y-9784012D02*
X14440910Y-9793536D01*
X14440910Y-9793536D02*
X14450433Y-9812584D01*
X14450433Y-9812584D02*
X14450433Y-9831631D01*
X14450433Y-9831631D02*
X14440910Y-9860203D01*
X14440910Y-9860203D02*
X14326624Y-9974488D01*
X14326624Y-9974488D02*
X14450433Y-9974488D01*
X14545672Y-9974488D02*
X14583767Y-9974488D01*
X14583767Y-9974488D02*
X14602814Y-9964965D01*
X14602814Y-9964965D02*
X14612338Y-9955441D01*
X14612338Y-9955441D02*
X14631386Y-9926869D01*
X14631386Y-9926869D02*
X14640910Y-9888774D01*
X14640910Y-9888774D02*
X14640910Y-9812584D01*
X14640910Y-9812584D02*
X14631386Y-9793536D01*
X14631386Y-9793536D02*
X14621862Y-9784012D01*
X14621862Y-9784012D02*
X14602814Y-9774488D01*
X14602814Y-9774488D02*
X14564719Y-9774488D01*
X14564719Y-9774488D02*
X14545672Y-9784012D01*
X14545672Y-9784012D02*
X14536148Y-9793536D01*
X14536148Y-9793536D02*
X14526624Y-9812584D01*
X14526624Y-9812584D02*
X14526624Y-9860203D01*
X14526624Y-9860203D02*
X14536148Y-9879250D01*
X14536148Y-9879250D02*
X14545672Y-9888774D01*
X14545672Y-9888774D02*
X14564719Y-9898298D01*
X14564719Y-9898298D02*
X14602814Y-9898298D01*
X14602814Y-9898298D02*
X14621862Y-9888774D01*
X14621862Y-9888774D02*
X14631386Y-9879250D01*
X14631386Y-9879250D02*
X14640910Y-9860203D01*
X14736148Y-9974488D02*
X14774243Y-9974488D01*
X14774243Y-9974488D02*
X14793291Y-9964965D01*
X14793291Y-9964965D02*
X14802814Y-9955441D01*
X14802814Y-9955441D02*
X14821862Y-9926869D01*
X14821862Y-9926869D02*
X14831386Y-9888774D01*
X14831386Y-9888774D02*
X14831386Y-9812584D01*
X14831386Y-9812584D02*
X14821862Y-9793536D01*
X14821862Y-9793536D02*
X14812338Y-9784012D01*
X14812338Y-9784012D02*
X14793291Y-9774488D01*
X14793291Y-9774488D02*
X14755195Y-9774488D01*
X14755195Y-9774488D02*
X14736148Y-9784012D01*
X14736148Y-9784012D02*
X14726624Y-9793536D01*
X14726624Y-9793536D02*
X14717100Y-9812584D01*
X14717100Y-9812584D02*
X14717100Y-9860203D01*
X14717100Y-9860203D02*
X14726624Y-9879250D01*
X14726624Y-9879250D02*
X14736148Y-9888774D01*
X14736148Y-9888774D02*
X14755195Y-9898298D01*
X14755195Y-9898298D02*
X14793291Y-9898298D01*
X14793291Y-9898298D02*
X14812338Y-9888774D01*
X14812338Y-9888774D02*
X14821862Y-9879250D01*
X14821862Y-9879250D02*
X14831386Y-9860203D01*
X14907576Y-9774488D02*
X14907576Y-9812584D01*
X14983767Y-9774488D02*
X14983767Y-9812584D01*
X15279005Y-10050679D02*
X15269481Y-10041155D01*
X15269481Y-10041155D02*
X15250434Y-10012584D01*
X15250434Y-10012584D02*
X15240910Y-9993536D01*
X15240910Y-9993536D02*
X15231386Y-9964965D01*
X15231386Y-9964965D02*
X15221862Y-9917346D01*
X15221862Y-9917346D02*
X15221862Y-9879250D01*
X15221862Y-9879250D02*
X15231386Y-9831631D01*
X15231386Y-9831631D02*
X15240910Y-9803060D01*
X15240910Y-9803060D02*
X15250434Y-9784012D01*
X15250434Y-9784012D02*
X15269481Y-9755441D01*
X15269481Y-9755441D02*
X15279005Y-9745917D01*
X15345672Y-9793536D02*
X15355195Y-9784012D01*
X15355195Y-9784012D02*
X15374243Y-9774488D01*
X15374243Y-9774488D02*
X15421862Y-9774488D01*
X15421862Y-9774488D02*
X15440910Y-9784012D01*
X15440910Y-9784012D02*
X15450434Y-9793536D01*
X15450434Y-9793536D02*
X15459957Y-9812584D01*
X15459957Y-9812584D02*
X15459957Y-9831631D01*
X15459957Y-9831631D02*
X15450434Y-9860203D01*
X15450434Y-9860203D02*
X15336148Y-9974488D01*
X15336148Y-9974488D02*
X15459957Y-9974488D01*
X15698053Y-9974488D02*
X15698053Y-9774488D01*
X15783767Y-9974488D02*
X15783767Y-9869727D01*
X15783767Y-9869727D02*
X15774243Y-9850679D01*
X15774243Y-9850679D02*
X15755196Y-9841155D01*
X15755196Y-9841155D02*
X15726624Y-9841155D01*
X15726624Y-9841155D02*
X15707576Y-9850679D01*
X15707576Y-9850679D02*
X15698053Y-9860203D01*
X15907576Y-9974488D02*
X15888529Y-9964965D01*
X15888529Y-9964965D02*
X15879005Y-9955441D01*
X15879005Y-9955441D02*
X15869481Y-9936393D01*
X15869481Y-9936393D02*
X15869481Y-9879250D01*
X15869481Y-9879250D02*
X15879005Y-9860203D01*
X15879005Y-9860203D02*
X15888529Y-9850679D01*
X15888529Y-9850679D02*
X15907576Y-9841155D01*
X15907576Y-9841155D02*
X15936148Y-9841155D01*
X15936148Y-9841155D02*
X15955196Y-9850679D01*
X15955196Y-9850679D02*
X15964719Y-9860203D01*
X15964719Y-9860203D02*
X15974243Y-9879250D01*
X15974243Y-9879250D02*
X15974243Y-9936393D01*
X15974243Y-9936393D02*
X15964719Y-9955441D01*
X15964719Y-9955441D02*
X15955196Y-9964965D01*
X15955196Y-9964965D02*
X15936148Y-9974488D01*
X15936148Y-9974488D02*
X15907576Y-9974488D01*
X16088529Y-9974488D02*
X16069481Y-9964965D01*
X16069481Y-9964965D02*
X16059957Y-9945917D01*
X16059957Y-9945917D02*
X16059957Y-9774488D01*
X16240910Y-9964965D02*
X16221862Y-9974488D01*
X16221862Y-9974488D02*
X16183767Y-9974488D01*
X16183767Y-9974488D02*
X16164719Y-9964965D01*
X16164719Y-9964965D02*
X16155196Y-9945917D01*
X16155196Y-9945917D02*
X16155196Y-9869727D01*
X16155196Y-9869727D02*
X16164719Y-9850679D01*
X16164719Y-9850679D02*
X16183767Y-9841155D01*
X16183767Y-9841155D02*
X16221862Y-9841155D01*
X16221862Y-9841155D02*
X16240910Y-9850679D01*
X16240910Y-9850679D02*
X16250434Y-9869727D01*
X16250434Y-9869727D02*
X16250434Y-9888774D01*
X16250434Y-9888774D02*
X16155196Y-9907822D01*
X16326624Y-9964965D02*
X16345672Y-9974488D01*
X16345672Y-9974488D02*
X16383767Y-9974488D01*
X16383767Y-9974488D02*
X16402815Y-9964965D01*
X16402815Y-9964965D02*
X16412338Y-9945917D01*
X16412338Y-9945917D02*
X16412338Y-9936393D01*
X16412338Y-9936393D02*
X16402815Y-9917346D01*
X16402815Y-9917346D02*
X16383767Y-9907822D01*
X16383767Y-9907822D02*
X16355196Y-9907822D01*
X16355196Y-9907822D02*
X16336148Y-9898298D01*
X16336148Y-9898298D02*
X16326624Y-9879250D01*
X16326624Y-9879250D02*
X16326624Y-9869727D01*
X16326624Y-9869727D02*
X16336148Y-9850679D01*
X16336148Y-9850679D02*
X16355196Y-9841155D01*
X16355196Y-9841155D02*
X16383767Y-9841155D01*
X16383767Y-9841155D02*
X16402815Y-9850679D01*
X16479005Y-10050679D02*
X16488529Y-10041155D01*
X16488529Y-10041155D02*
X16507577Y-10012584D01*
X16507577Y-10012584D02*
X16517100Y-9993536D01*
X16517100Y-9993536D02*
X16526624Y-9964965D01*
X16526624Y-9964965D02*
X16536148Y-9917346D01*
X16536148Y-9917346D02*
X16536148Y-9879250D01*
X16536148Y-9879250D02*
X16526624Y-9831631D01*
X16526624Y-9831631D02*
X16517100Y-9803060D01*
X16517100Y-9803060D02*
X16507577Y-9784012D01*
X16507577Y-9784012D02*
X16488529Y-9755441D01*
X16488529Y-9755441D02*
X16479005Y-9745917D01*
X16840910Y-10050679D02*
X16831386Y-10041155D01*
X16831386Y-10041155D02*
X16812339Y-10012584D01*
X16812339Y-10012584D02*
X16802815Y-9993536D01*
X16802815Y-9993536D02*
X16793291Y-9964965D01*
X16793291Y-9964965D02*
X16783767Y-9917346D01*
X16783767Y-9917346D02*
X16783767Y-9879250D01*
X16783767Y-9879250D02*
X16793291Y-9831631D01*
X16793291Y-9831631D02*
X16802815Y-9803060D01*
X16802815Y-9803060D02*
X16812339Y-9784012D01*
X16812339Y-9784012D02*
X16831386Y-9755441D01*
X16831386Y-9755441D02*
X16840910Y-9745917D01*
X16917100Y-9841155D02*
X16917100Y-9974488D01*
X16917100Y-9860203D02*
X16926624Y-9850679D01*
X16926624Y-9850679D02*
X16945672Y-9841155D01*
X16945672Y-9841155D02*
X16974243Y-9841155D01*
X16974243Y-9841155D02*
X16993291Y-9850679D01*
X16993291Y-9850679D02*
X17002815Y-9869727D01*
X17002815Y-9869727D02*
X17002815Y-9974488D01*
X17126624Y-9974488D02*
X17107577Y-9964965D01*
X17107577Y-9964965D02*
X17098053Y-9955441D01*
X17098053Y-9955441D02*
X17088529Y-9936393D01*
X17088529Y-9936393D02*
X17088529Y-9879250D01*
X17088529Y-9879250D02*
X17098053Y-9860203D01*
X17098053Y-9860203D02*
X17107577Y-9850679D01*
X17107577Y-9850679D02*
X17126624Y-9841155D01*
X17126624Y-9841155D02*
X17155196Y-9841155D01*
X17155196Y-9841155D02*
X17174243Y-9850679D01*
X17174243Y-9850679D02*
X17183767Y-9860203D01*
X17183767Y-9860203D02*
X17193291Y-9879250D01*
X17193291Y-9879250D02*
X17193291Y-9936393D01*
X17193291Y-9936393D02*
X17183767Y-9955441D01*
X17183767Y-9955441D02*
X17174243Y-9964965D01*
X17174243Y-9964965D02*
X17155196Y-9974488D01*
X17155196Y-9974488D02*
X17126624Y-9974488D01*
X17250434Y-9841155D02*
X17326624Y-9841155D01*
X17279005Y-9774488D02*
X17279005Y-9945917D01*
X17279005Y-9945917D02*
X17288529Y-9964965D01*
X17288529Y-9964965D02*
X17307577Y-9974488D01*
X17307577Y-9974488D02*
X17326624Y-9974488D01*
X17545672Y-9841155D02*
X17545672Y-10041155D01*
X17545672Y-9850679D02*
X17564720Y-9841155D01*
X17564720Y-9841155D02*
X17602815Y-9841155D01*
X17602815Y-9841155D02*
X17621862Y-9850679D01*
X17621862Y-9850679D02*
X17631386Y-9860203D01*
X17631386Y-9860203D02*
X17640910Y-9879250D01*
X17640910Y-9879250D02*
X17640910Y-9936393D01*
X17640910Y-9936393D02*
X17631386Y-9955441D01*
X17631386Y-9955441D02*
X17621862Y-9964965D01*
X17621862Y-9964965D02*
X17602815Y-9974488D01*
X17602815Y-9974488D02*
X17564720Y-9974488D01*
X17564720Y-9974488D02*
X17545672Y-9964965D01*
X17755196Y-9974488D02*
X17736148Y-9964965D01*
X17736148Y-9964965D02*
X17726624Y-9945917D01*
X17726624Y-9945917D02*
X17726624Y-9774488D01*
X17917101Y-9974488D02*
X17917101Y-9869727D01*
X17917101Y-9869727D02*
X17907577Y-9850679D01*
X17907577Y-9850679D02*
X17888529Y-9841155D01*
X17888529Y-9841155D02*
X17850434Y-9841155D01*
X17850434Y-9841155D02*
X17831386Y-9850679D01*
X17917101Y-9964965D02*
X17898053Y-9974488D01*
X17898053Y-9974488D02*
X17850434Y-9974488D01*
X17850434Y-9974488D02*
X17831386Y-9964965D01*
X17831386Y-9964965D02*
X17821862Y-9945917D01*
X17821862Y-9945917D02*
X17821862Y-9926869D01*
X17821862Y-9926869D02*
X17831386Y-9907822D01*
X17831386Y-9907822D02*
X17850434Y-9898298D01*
X17850434Y-9898298D02*
X17898053Y-9898298D01*
X17898053Y-9898298D02*
X17917101Y-9888774D01*
X17983767Y-9841155D02*
X18059958Y-9841155D01*
X18012339Y-9774488D02*
X18012339Y-9945917D01*
X18012339Y-9945917D02*
X18021862Y-9964965D01*
X18021862Y-9964965D02*
X18040910Y-9974488D01*
X18040910Y-9974488D02*
X18059958Y-9974488D01*
X18202815Y-9964965D02*
X18183767Y-9974488D01*
X18183767Y-9974488D02*
X18145672Y-9974488D01*
X18145672Y-9974488D02*
X18126624Y-9964965D01*
X18126624Y-9964965D02*
X18117101Y-9945917D01*
X18117101Y-9945917D02*
X18117101Y-9869727D01*
X18117101Y-9869727D02*
X18126624Y-9850679D01*
X18126624Y-9850679D02*
X18145672Y-9841155D01*
X18145672Y-9841155D02*
X18183767Y-9841155D01*
X18183767Y-9841155D02*
X18202815Y-9850679D01*
X18202815Y-9850679D02*
X18212339Y-9869727D01*
X18212339Y-9869727D02*
X18212339Y-9888774D01*
X18212339Y-9888774D02*
X18117101Y-9907822D01*
X18383767Y-9974488D02*
X18383767Y-9774488D01*
X18383767Y-9964965D02*
X18364720Y-9974488D01*
X18364720Y-9974488D02*
X18326624Y-9974488D01*
X18326624Y-9974488D02*
X18307577Y-9964965D01*
X18307577Y-9964965D02*
X18298053Y-9955441D01*
X18298053Y-9955441D02*
X18288529Y-9936393D01*
X18288529Y-9936393D02*
X18288529Y-9879250D01*
X18288529Y-9879250D02*
X18298053Y-9860203D01*
X18298053Y-9860203D02*
X18307577Y-9850679D01*
X18307577Y-9850679D02*
X18326624Y-9841155D01*
X18326624Y-9841155D02*
X18364720Y-9841155D01*
X18364720Y-9841155D02*
X18383767Y-9850679D01*
X18459958Y-10050679D02*
X18469482Y-10041155D01*
X18469482Y-10041155D02*
X18488529Y-10012584D01*
X18488529Y-10012584D02*
X18498053Y-9993536D01*
X18498053Y-9993536D02*
X18507577Y-9964965D01*
X18507577Y-9964965D02*
X18517101Y-9917346D01*
X18517101Y-9917346D02*
X18517101Y-9879250D01*
X18517101Y-9879250D02*
X18507577Y-9831631D01*
X18507577Y-9831631D02*
X18498053Y-9803060D01*
X18498053Y-9803060D02*
X18488529Y-9784012D01*
X18488529Y-9784012D02*
X18469482Y-9755441D01*
X18469482Y-9755441D02*
X18459958Y-9745917D01*
M02*
