G04 #@! TF.GenerationSoftware,KiCad,Pcbnew,7.0.2*
G04 #@! TF.CreationDate,2024-01-01T15:40:13-07:00*
G04 #@! TF.ProjectId,Temp Sensor Board 1,54656d70-2053-4656-9e73-6f7220426f61,rev?*
G04 #@! TF.SameCoordinates,Original*
G04 #@! TF.FileFunction,Legend,Top*
G04 #@! TF.FilePolarity,Positive*
%FSLAX46Y46*%
G04 Gerber Fmt 4.6, Leading zero omitted, Abs format (unit mm)*
G04 Created by KiCad (PCBNEW 7.0.2) date 2024-01-01 15:40:13*
%MOMM*%
%LPD*%
G01*
G04 APERTURE LIST*
G04 Aperture macros list*
%AMRoundRect*
0 Rectangle with rounded corners*
0 $1 Rounding radius*
0 $2 $3 $4 $5 $6 $7 $8 $9 X,Y pos of 4 corners*
0 Add a 4 corners polygon primitive as box body*
4,1,4,$2,$3,$4,$5,$6,$7,$8,$9,$2,$3,0*
0 Add four circle primitives for the rounded corners*
1,1,$1+$1,$2,$3*
1,1,$1+$1,$4,$5*
1,1,$1+$1,$6,$7*
1,1,$1+$1,$8,$9*
0 Add four rect primitives between the rounded corners*
20,1,$1+$1,$2,$3,$4,$5,0*
20,1,$1+$1,$4,$5,$6,$7,0*
20,1,$1+$1,$6,$7,$8,$9,0*
20,1,$1+$1,$8,$9,$2,$3,0*%
%AMFreePoly0*
4,1,25,0.333266,0.742596,0.345389,0.732242,0.732242,0.345389,0.760749,0.289441,0.762000,0.273547,0.762000,-0.273547,0.742596,-0.333266,0.732242,-0.345389,0.345389,-0.732242,0.289441,-0.760749,0.273547,-0.762000,-0.273547,-0.762000,-0.333266,-0.742596,-0.345389,-0.732242,-0.732242,-0.345389,-0.760749,-0.289441,-0.762000,-0.273547,-0.762000,0.273547,-0.742596,0.333266,-0.732242,0.345389,
-0.345389,0.732242,-0.289441,0.760749,-0.273547,0.762000,0.273547,0.762000,0.333266,0.742596,0.333266,0.742596,$1*%
G04 Aperture macros list end*
%ADD10C,0.127000*%
%ADD11C,0.101600*%
%ADD12C,2.678200*%
%ADD13C,1.711200*%
%ADD14RoundRect,0.101600X0.754000X-0.754000X0.754000X0.754000X-0.754000X0.754000X-0.754000X-0.754000X0*%
%ADD15C,3.300000*%
%ADD16FreePoly0,270.000000*%
%ADD17RoundRect,0.101600X-0.750000X0.650000X-0.750000X-0.650000X0.750000X-0.650000X0.750000X0.650000X0*%
G04 APERTURE END LIST*
D10*
X140581743Y-73774118D02*
X141234886Y-73774118D01*
X140908314Y-74917118D02*
X140908314Y-73774118D01*
X141615885Y-74318404D02*
X141996885Y-74318404D01*
X142160171Y-74917118D02*
X141615885Y-74917118D01*
X141615885Y-74917118D02*
X141615885Y-73774118D01*
X141615885Y-73774118D02*
X142160171Y-73774118D01*
X142650028Y-74917118D02*
X142650028Y-73774118D01*
X142650028Y-73774118D02*
X143031028Y-74590547D01*
X143031028Y-74590547D02*
X143412028Y-73774118D01*
X143412028Y-73774118D02*
X143412028Y-74917118D01*
X143956314Y-74917118D02*
X143956314Y-73774118D01*
X143956314Y-73774118D02*
X144391743Y-73774118D01*
X144391743Y-73774118D02*
X144500600Y-73828547D01*
X144500600Y-73828547D02*
X144555029Y-73882975D01*
X144555029Y-73882975D02*
X144609457Y-73991832D01*
X144609457Y-73991832D02*
X144609457Y-74155118D01*
X144609457Y-74155118D02*
X144555029Y-74263975D01*
X144555029Y-74263975D02*
X144500600Y-74318404D01*
X144500600Y-74318404D02*
X144391743Y-74372832D01*
X144391743Y-74372832D02*
X143956314Y-74372832D01*
X144827172Y-75025975D02*
X145698029Y-75025975D01*
X145915743Y-74862690D02*
X146079029Y-74917118D01*
X146079029Y-74917118D02*
X146351171Y-74917118D01*
X146351171Y-74917118D02*
X146460029Y-74862690D01*
X146460029Y-74862690D02*
X146514457Y-74808261D01*
X146514457Y-74808261D02*
X146568886Y-74699404D01*
X146568886Y-74699404D02*
X146568886Y-74590547D01*
X146568886Y-74590547D02*
X146514457Y-74481690D01*
X146514457Y-74481690D02*
X146460029Y-74427261D01*
X146460029Y-74427261D02*
X146351171Y-74372832D01*
X146351171Y-74372832D02*
X146133457Y-74318404D01*
X146133457Y-74318404D02*
X146024600Y-74263975D01*
X146024600Y-74263975D02*
X145970171Y-74209547D01*
X145970171Y-74209547D02*
X145915743Y-74100690D01*
X145915743Y-74100690D02*
X145915743Y-73991832D01*
X145915743Y-73991832D02*
X145970171Y-73882975D01*
X145970171Y-73882975D02*
X146024600Y-73828547D01*
X146024600Y-73828547D02*
X146133457Y-73774118D01*
X146133457Y-73774118D02*
X146405600Y-73774118D01*
X146405600Y-73774118D02*
X146568886Y-73828547D01*
X147058742Y-74318404D02*
X147439742Y-74318404D01*
X147603028Y-74917118D02*
X147058742Y-74917118D01*
X147058742Y-74917118D02*
X147058742Y-73774118D01*
X147058742Y-73774118D02*
X147603028Y-73774118D01*
X148092885Y-74917118D02*
X148092885Y-73774118D01*
X148092885Y-73774118D02*
X148746028Y-74917118D01*
X148746028Y-74917118D02*
X148746028Y-73774118D01*
X149235886Y-74862690D02*
X149399172Y-74917118D01*
X149399172Y-74917118D02*
X149671314Y-74917118D01*
X149671314Y-74917118D02*
X149780172Y-74862690D01*
X149780172Y-74862690D02*
X149834600Y-74808261D01*
X149834600Y-74808261D02*
X149889029Y-74699404D01*
X149889029Y-74699404D02*
X149889029Y-74590547D01*
X149889029Y-74590547D02*
X149834600Y-74481690D01*
X149834600Y-74481690D02*
X149780172Y-74427261D01*
X149780172Y-74427261D02*
X149671314Y-74372832D01*
X149671314Y-74372832D02*
X149453600Y-74318404D01*
X149453600Y-74318404D02*
X149344743Y-74263975D01*
X149344743Y-74263975D02*
X149290314Y-74209547D01*
X149290314Y-74209547D02*
X149235886Y-74100690D01*
X149235886Y-74100690D02*
X149235886Y-73991832D01*
X149235886Y-73991832D02*
X149290314Y-73882975D01*
X149290314Y-73882975D02*
X149344743Y-73828547D01*
X149344743Y-73828547D02*
X149453600Y-73774118D01*
X149453600Y-73774118D02*
X149725743Y-73774118D01*
X149725743Y-73774118D02*
X149889029Y-73828547D01*
X150596600Y-73774118D02*
X150814314Y-73774118D01*
X150814314Y-73774118D02*
X150923171Y-73828547D01*
X150923171Y-73828547D02*
X151032028Y-73937404D01*
X151032028Y-73937404D02*
X151086457Y-74155118D01*
X151086457Y-74155118D02*
X151086457Y-74536118D01*
X151086457Y-74536118D02*
X151032028Y-74753832D01*
X151032028Y-74753832D02*
X150923171Y-74862690D01*
X150923171Y-74862690D02*
X150814314Y-74917118D01*
X150814314Y-74917118D02*
X150596600Y-74917118D01*
X150596600Y-74917118D02*
X150487743Y-74862690D01*
X150487743Y-74862690D02*
X150378885Y-74753832D01*
X150378885Y-74753832D02*
X150324457Y-74536118D01*
X150324457Y-74536118D02*
X150324457Y-74155118D01*
X150324457Y-74155118D02*
X150378885Y-73937404D01*
X150378885Y-73937404D02*
X150487743Y-73828547D01*
X150487743Y-73828547D02*
X150596600Y-73774118D01*
X152229457Y-74917118D02*
X151848457Y-74372832D01*
X151576314Y-74917118D02*
X151576314Y-73774118D01*
X151576314Y-73774118D02*
X152011743Y-73774118D01*
X152011743Y-73774118D02*
X152120600Y-73828547D01*
X152120600Y-73828547D02*
X152175029Y-73882975D01*
X152175029Y-73882975D02*
X152229457Y-73991832D01*
X152229457Y-73991832D02*
X152229457Y-74155118D01*
X152229457Y-74155118D02*
X152175029Y-74263975D01*
X152175029Y-74263975D02*
X152120600Y-74318404D01*
X152120600Y-74318404D02*
X152011743Y-74372832D01*
X152011743Y-74372832D02*
X151576314Y-74372832D01*
X152447172Y-75025975D02*
X153318029Y-75025975D01*
X154188886Y-74917118D02*
X153535743Y-74917118D01*
X153862314Y-74917118D02*
X153862314Y-73774118D01*
X153862314Y-73774118D02*
X153753457Y-73937404D01*
X153753457Y-73937404D02*
X153644600Y-74046261D01*
X153644600Y-74046261D02*
X153535743Y-74100690D01*
X125240143Y-79978975D02*
X125294571Y-79924547D01*
X125294571Y-79924547D02*
X125403429Y-79870118D01*
X125403429Y-79870118D02*
X125675571Y-79870118D01*
X125675571Y-79870118D02*
X125784429Y-79924547D01*
X125784429Y-79924547D02*
X125838857Y-79978975D01*
X125838857Y-79978975D02*
X125893286Y-80087832D01*
X125893286Y-80087832D02*
X125893286Y-80196690D01*
X125893286Y-80196690D02*
X125838857Y-80359975D01*
X125838857Y-80359975D02*
X125185714Y-81013118D01*
X125185714Y-81013118D02*
X125893286Y-81013118D01*
X122718286Y-78981118D02*
X122065143Y-78981118D01*
X122391714Y-78981118D02*
X122391714Y-77838118D01*
X122391714Y-77838118D02*
X122282857Y-78001404D01*
X122282857Y-78001404D02*
X122174000Y-78110261D01*
X122174000Y-78110261D02*
X122065143Y-78164690D01*
X121756714Y-86093118D02*
X122464286Y-86093118D01*
X122464286Y-86093118D02*
X122083286Y-86528547D01*
X122083286Y-86528547D02*
X122246571Y-86528547D01*
X122246571Y-86528547D02*
X122355429Y-86582975D01*
X122355429Y-86582975D02*
X122409857Y-86637404D01*
X122409857Y-86637404D02*
X122464286Y-86746261D01*
X122464286Y-86746261D02*
X122464286Y-87018404D01*
X122464286Y-87018404D02*
X122409857Y-87127261D01*
X122409857Y-87127261D02*
X122355429Y-87181690D01*
X122355429Y-87181690D02*
X122246571Y-87236118D01*
X122246571Y-87236118D02*
X121920000Y-87236118D01*
X121920000Y-87236118D02*
X121811143Y-87181690D01*
X121811143Y-87181690D02*
X121756714Y-87127261D01*
D11*
X131036180Y-79342076D02*
X131036180Y-80121010D01*
X130757989Y-78896972D02*
X130479799Y-79731543D01*
X130479799Y-79731543D02*
X131203094Y-79731543D01*
X131648199Y-80009733D02*
X131703837Y-80065372D01*
X131703837Y-80065372D02*
X131648199Y-80121010D01*
X131648199Y-80121010D02*
X131592561Y-80065372D01*
X131592561Y-80065372D02*
X131648199Y-80009733D01*
X131648199Y-80009733D02*
X131648199Y-80121010D01*
X132093304Y-78952610D02*
X132872237Y-78952610D01*
X132872237Y-78952610D02*
X132371494Y-80121010D01*
X133317342Y-80121010D02*
X133317342Y-78952610D01*
X133428618Y-79675905D02*
X133762447Y-80121010D01*
X133762447Y-79342076D02*
X133317342Y-79787181D01*
D10*
X139831000Y-75401000D02*
X158371000Y-75401000D01*
X158371000Y-91731000D02*
X158371000Y-75401000D01*
X139831000Y-91731000D02*
X139831000Y-75401000D01*
X139831000Y-91731000D02*
X158371000Y-91731000D01*
X121920000Y-79895100D02*
X121920000Y-80296300D01*
X120523000Y-80455500D02*
X120523000Y-84644500D01*
X121920000Y-82263700D02*
X121920000Y-82836300D01*
X121920000Y-84803700D02*
X121920000Y-85204900D01*
X124722500Y-81763701D02*
G75*
G03*
X121920000Y-79895101I-2548479J-786298D01*
G01*
X121920000Y-79895099D02*
G75*
G03*
X120523000Y-80455400I253950J-2654895D01*
G01*
X120523001Y-84644498D02*
G75*
G03*
X124722400Y-83336300I1650989J2094488D01*
G01*
%LPC*%
D12*
X153291000Y-76711000D03*
X153291000Y-90431000D03*
D13*
X143891000Y-81661000D03*
X143891000Y-84201000D03*
X143891000Y-86741000D03*
X141351000Y-80391000D03*
X141351000Y-82931000D03*
D14*
X141351000Y-85471000D03*
D15*
X150241000Y-78491000D03*
X150241000Y-88651000D03*
D16*
X122174000Y-81280000D03*
X124079000Y-82550000D03*
X122174000Y-83820000D03*
D17*
X132207000Y-82047000D03*
X132207000Y-83947000D03*
%LPD*%
M02*
