G04 #@! TF.GenerationSoftware,KiCad,Pcbnew,7.0.2*
G04 #@! TF.CreationDate,2024-01-01T15:40:13-07:00*
G04 #@! TF.ProjectId,Temp Sensor Board 1,54656d70-2053-4656-9e73-6f7220426f61,rev?*
G04 #@! TF.SameCoordinates,Original*
G04 #@! TF.FileFunction,Copper,L1,Top*
G04 #@! TF.FilePolarity,Positive*
%FSLAX46Y46*%
G04 Gerber Fmt 4.6, Leading zero omitted, Abs format (unit mm)*
G04 Created by KiCad (PCBNEW 7.0.2) date 2024-01-01 15:40:13*
%MOMM*%
%LPD*%
G01*
G04 APERTURE LIST*
G04 Aperture macros list*
%AMOutline5P*
0 Free polygon, 5 corners , with rotation*
0 The origin of the aperture is its center*
0 number of corners: always 5*
0 $1 to $10 corner X, Y*
0 $11 Rotation angle, in degrees counterclockwise*
0 create outline with 5 corners*
4,1,5,$1,$2,$3,$4,$5,$6,$7,$8,$9,$10,$1,$2,$11*%
%AMOutline6P*
0 Free polygon, 6 corners , with rotation*
0 The origin of the aperture is its center*
0 number of corners: always 6*
0 $1 to $12 corner X, Y*
0 $13 Rotation angle, in degrees counterclockwise*
0 create outline with 6 corners*
4,1,6,$1,$2,$3,$4,$5,$6,$7,$8,$9,$10,$11,$12,$1,$2,$13*%
%AMOutline7P*
0 Free polygon, 7 corners , with rotation*
0 The origin of the aperture is its center*
0 number of corners: always 7*
0 $1 to $14 corner X, Y*
0 $15 Rotation angle, in degrees counterclockwise*
0 create outline with 7 corners*
4,1,7,$1,$2,$3,$4,$5,$6,$7,$8,$9,$10,$11,$12,$13,$14,$1,$2,$15*%
%AMOutline8P*
0 Free polygon, 8 corners , with rotation*
0 The origin of the aperture is its center*
0 number of corners: always 8*
0 $1 to $16 corner X, Y*
0 $17 Rotation angle, in degrees counterclockwise*
0 create outline with 8 corners*
4,1,8,$1,$2,$3,$4,$5,$6,$7,$8,$9,$10,$11,$12,$13,$14,$15,$16,$1,$2,$17*%
G04 Aperture macros list end*
G04 #@! TA.AperFunction,ComponentPad*
%ADD10C,2.475000*%
G04 #@! TD*
G04 #@! TA.AperFunction,ComponentPad*
%ADD11C,1.508000*%
G04 #@! TD*
G04 #@! TA.AperFunction,ComponentPad*
%ADD12R,1.508000X1.508000*%
G04 #@! TD*
G04 #@! TA.AperFunction,ComponentPad*
%ADD13Outline8P,-0.660400X0.273547X-0.273547X0.660400X0.273547X0.660400X0.660400X0.273547X0.660400X-0.273547X0.273547X-0.660400X-0.273547X-0.660400X-0.660400X-0.273547X270.000000*%
G04 #@! TD*
G04 #@! TA.AperFunction,SMDPad,CuDef*
%ADD14R,1.500000X1.300000*%
G04 #@! TD*
G04 #@! TA.AperFunction,ViaPad*
%ADD15C,0.800000*%
G04 #@! TD*
G04 #@! TA.AperFunction,Conductor*
%ADD16C,0.250000*%
G04 #@! TD*
G04 APERTURE END LIST*
D10*
X153291000Y-76711000D03*
X153291000Y-90431000D03*
D11*
X143891000Y-81661000D03*
X143891000Y-84201000D03*
X143891000Y-86741000D03*
X141351000Y-80391000D03*
X141351000Y-82931000D03*
D12*
X141351000Y-85471000D03*
D13*
X122174000Y-81280000D03*
X124079000Y-82550000D03*
X122174000Y-83820000D03*
D14*
X132207000Y-82047000D03*
X132207000Y-83947000D03*
D15*
X139065000Y-82296000D03*
X137287000Y-82296000D03*
X127762000Y-85725000D03*
X137287000Y-85598000D03*
X138938000Y-85598000D03*
X127762000Y-80264000D03*
X135382000Y-82296000D03*
X135509000Y-85598000D03*
D16*
X134297000Y-84137000D02*
X132207000Y-82047000D01*
X124582000Y-82047000D02*
X124079000Y-82550000D01*
X143894000Y-86868000D02*
X142815000Y-85789000D01*
X142176000Y-84137000D02*
X134297000Y-84137000D01*
X142815000Y-85789000D02*
X142815000Y-84776000D01*
X142815000Y-84776000D02*
X142176000Y-84137000D01*
X132207000Y-82047000D02*
X124582000Y-82047000D01*
X137414000Y-89154000D02*
X132207000Y-83947000D01*
X145542000Y-87630000D02*
X144018000Y-89154000D01*
X145542000Y-85852000D02*
X145542000Y-87630000D01*
X132207000Y-83947000D02*
X122301000Y-83947000D01*
X143891000Y-84201000D02*
X145542000Y-85852000D01*
X144018000Y-89154000D02*
X137414000Y-89154000D01*
X122301000Y-83947000D02*
X122174000Y-83820000D01*
G04 #@! TA.AperFunction,Conductor*
G36*
X134257415Y-84764027D02*
G01*
X134277196Y-84767160D01*
X134320674Y-84763050D01*
X134332344Y-84762500D01*
X139972500Y-84762500D01*
X140039539Y-84782185D01*
X140085294Y-84834989D01*
X140096500Y-84886500D01*
X140096500Y-86269560D01*
X140096500Y-86269578D01*
X140096501Y-86272872D01*
X140102909Y-86332483D01*
X140153204Y-86467331D01*
X140239454Y-86582546D01*
X140354669Y-86668796D01*
X140489517Y-86719091D01*
X140549127Y-86725500D01*
X142152872Y-86725499D01*
X142212483Y-86719091D01*
X142347331Y-86668796D01*
X142436389Y-86602126D01*
X142501850Y-86577710D01*
X142570124Y-86592561D01*
X142619530Y-86641966D01*
X142634382Y-86710239D01*
X142634226Y-86712198D01*
X142631707Y-86740996D01*
X142650838Y-86959671D01*
X142699891Y-87142738D01*
X142707653Y-87171703D01*
X142800421Y-87370646D01*
X142926326Y-87550457D01*
X143081543Y-87705674D01*
X143261354Y-87831579D01*
X143460297Y-87924347D01*
X143672326Y-87981161D01*
X143796300Y-87992007D01*
X143890999Y-88000292D01*
X143890999Y-88000291D01*
X143891000Y-88000292D01*
X143911761Y-87998475D01*
X143985704Y-87992007D01*
X144054204Y-88005774D01*
X144104387Y-88054389D01*
X144120320Y-88122418D01*
X144096945Y-88188261D01*
X144084192Y-88203216D01*
X143795228Y-88492181D01*
X143733905Y-88525666D01*
X143707547Y-88528500D01*
X137724452Y-88528500D01*
X137657413Y-88508815D01*
X137636771Y-88492181D01*
X134118772Y-84974181D01*
X134085287Y-84912858D01*
X134090271Y-84843166D01*
X134132143Y-84787233D01*
X134197607Y-84762816D01*
X134206453Y-84762500D01*
X134217981Y-84762500D01*
X134238016Y-84762500D01*
X134257415Y-84764027D01*
G37*
G04 #@! TD.AperFunction*
G04 #@! TA.AperFunction,Conductor*
G36*
X158439039Y-72790685D02*
G01*
X158484794Y-72843489D01*
X158496000Y-72895000D01*
X158496000Y-92150638D01*
X158476315Y-92217677D01*
X158459681Y-92238319D01*
X158405319Y-92292681D01*
X158343996Y-92326166D01*
X158317638Y-92329000D01*
X153855243Y-92329000D01*
X153788204Y-92309315D01*
X153742449Y-92256511D01*
X153732505Y-92187353D01*
X153761530Y-92123797D01*
X153818693Y-92086509D01*
X153927559Y-92052927D01*
X154162183Y-91939938D01*
X154331172Y-91824724D01*
X153671393Y-91164946D01*
X153793213Y-91091650D01*
X153923492Y-90968243D01*
X154024196Y-90819716D01*
X154026780Y-90813228D01*
X154684229Y-91470677D01*
X154684230Y-91470676D01*
X154730615Y-91412512D01*
X154860823Y-91186985D01*
X154955962Y-90944575D01*
X155013911Y-90690684D01*
X155033372Y-90430999D01*
X155013911Y-90171315D01*
X154955962Y-89917424D01*
X154860823Y-89675014D01*
X154730615Y-89449487D01*
X154684230Y-89391321D01*
X154023740Y-90051811D01*
X153977870Y-89965290D01*
X153861698Y-89828522D01*
X153718840Y-89719924D01*
X153670764Y-89697682D01*
X154331172Y-89037274D01*
X154162187Y-88922062D01*
X153927559Y-88809072D01*
X153678713Y-88732312D01*
X153421209Y-88693500D01*
X153160791Y-88693500D01*
X152903286Y-88732312D01*
X152654440Y-88809072D01*
X152419812Y-88922062D01*
X152326731Y-88985524D01*
X152260252Y-89007024D01*
X152192702Y-88989170D01*
X152145528Y-88937629D01*
X152133708Y-88868767D01*
X152134944Y-88860540D01*
X152135152Y-88859416D01*
X152145313Y-88581404D01*
X152114886Y-88304876D01*
X152044520Y-88035724D01*
X151935716Y-87779686D01*
X151790792Y-87542219D01*
X151699107Y-87432048D01*
X151612838Y-87328384D01*
X151505015Y-87231774D01*
X151405643Y-87142737D01*
X151173627Y-86989237D01*
X151173624Y-86989235D01*
X150921731Y-86871152D01*
X150655336Y-86791006D01*
X150655332Y-86791005D01*
X150655331Y-86791005D01*
X150380099Y-86750500D01*
X150171537Y-86750500D01*
X150169288Y-86750664D01*
X150169277Y-86750665D01*
X149963544Y-86765722D01*
X149692003Y-86826211D01*
X149432163Y-86925591D01*
X149189560Y-87061747D01*
X148969366Y-87231774D01*
X148776277Y-87432048D01*
X148614405Y-87658305D01*
X148487205Y-87905711D01*
X148397377Y-88169018D01*
X148346847Y-88442583D01*
X148336686Y-88720595D01*
X148358855Y-88922062D01*
X148367114Y-88997124D01*
X148437480Y-89266276D01*
X148546284Y-89522314D01*
X148691208Y-89759781D01*
X148691211Y-89759785D01*
X148691212Y-89759786D01*
X148709426Y-89781673D01*
X148869163Y-89973617D01*
X149076357Y-90159263D01*
X149284159Y-90296743D01*
X149308375Y-90312764D01*
X149560268Y-90430847D01*
X149768599Y-90493524D01*
X149826669Y-90510995D01*
X150101901Y-90551500D01*
X150101904Y-90551500D01*
X150308201Y-90551500D01*
X150310463Y-90551500D01*
X150518455Y-90536277D01*
X150789997Y-90475788D01*
X151049838Y-90376408D01*
X151292440Y-90240253D01*
X151359303Y-90188622D01*
X151424394Y-90163230D01*
X151492881Y-90177060D01*
X151543020Y-90225721D01*
X151558890Y-90293764D01*
X151558741Y-90296034D01*
X151548627Y-90430999D01*
X151568088Y-90690684D01*
X151626037Y-90944575D01*
X151721176Y-91186984D01*
X151851386Y-91412515D01*
X151897768Y-91470677D01*
X152558258Y-90810187D01*
X152604130Y-90896710D01*
X152720302Y-91033478D01*
X152863160Y-91142076D01*
X152911234Y-91164317D01*
X152250826Y-91824724D01*
X152419813Y-91939937D01*
X152654440Y-92052927D01*
X152763307Y-92086509D01*
X152821566Y-92125079D01*
X152849724Y-92189024D01*
X152838840Y-92258041D01*
X152792371Y-92310218D01*
X152726757Y-92329000D01*
X117399362Y-92329000D01*
X117332323Y-92309315D01*
X117311680Y-92292680D01*
X117257817Y-92238816D01*
X117224333Y-92177493D01*
X117221500Y-92151145D01*
X117221500Y-84134523D01*
X121013100Y-84134523D01*
X121013582Y-84138364D01*
X121013583Y-84138372D01*
X121023659Y-84218596D01*
X121078737Y-84351564D01*
X121128338Y-84415416D01*
X121128346Y-84415425D01*
X121130720Y-84418481D01*
X121575522Y-84863284D01*
X121639340Y-84912858D01*
X121642437Y-84915264D01*
X121775403Y-84970340D01*
X121790539Y-84972241D01*
X121859476Y-84980900D01*
X121863353Y-84980900D01*
X122484646Y-84980900D01*
X122488523Y-84980900D01*
X122572597Y-84970340D01*
X122705564Y-84915263D01*
X122772481Y-84863280D01*
X123026942Y-84608819D01*
X123088266Y-84575334D01*
X123114624Y-84572500D01*
X130837336Y-84572500D01*
X130904375Y-84592185D01*
X130950130Y-84644989D01*
X130960625Y-84683244D01*
X130962909Y-84704483D01*
X131013204Y-84839331D01*
X131099454Y-84954546D01*
X131214669Y-85040796D01*
X131349517Y-85091091D01*
X131409127Y-85097500D01*
X132421547Y-85097499D01*
X132488586Y-85117183D01*
X132509227Y-85133817D01*
X134746052Y-87370643D01*
X136913196Y-89537787D01*
X136926096Y-89553888D01*
X136977223Y-89601900D01*
X136980020Y-89604611D01*
X136999529Y-89624120D01*
X137002709Y-89626587D01*
X137011571Y-89634155D01*
X137043418Y-89664062D01*
X137060972Y-89673712D01*
X137077236Y-89684396D01*
X137088972Y-89693499D01*
X137093064Y-89696673D01*
X137117909Y-89707424D01*
X137133152Y-89714021D01*
X137143631Y-89719154D01*
X137181908Y-89740197D01*
X137201306Y-89745177D01*
X137219708Y-89751477D01*
X137238104Y-89759438D01*
X137281261Y-89766273D01*
X137292664Y-89768634D01*
X137334981Y-89779500D01*
X137355016Y-89779500D01*
X137374413Y-89781026D01*
X137394196Y-89784160D01*
X137437674Y-89780050D01*
X137449344Y-89779500D01*
X143935256Y-89779500D01*
X143955762Y-89781764D01*
X143958665Y-89781672D01*
X143958667Y-89781673D01*
X144025872Y-89779561D01*
X144029768Y-89779500D01*
X144053448Y-89779500D01*
X144057350Y-89779500D01*
X144061313Y-89778999D01*
X144072962Y-89778080D01*
X144116627Y-89776709D01*
X144135859Y-89771120D01*
X144154918Y-89767174D01*
X144162091Y-89766268D01*
X144174792Y-89764664D01*
X144215407Y-89748582D01*
X144226444Y-89744803D01*
X144268390Y-89732618D01*
X144285629Y-89722422D01*
X144303102Y-89713862D01*
X144321732Y-89706486D01*
X144357064Y-89680814D01*
X144366830Y-89674400D01*
X144404418Y-89652171D01*
X144404417Y-89652171D01*
X144404420Y-89652170D01*
X144418585Y-89638004D01*
X144433373Y-89625373D01*
X144449587Y-89613594D01*
X144477438Y-89579926D01*
X144485279Y-89571309D01*
X145925788Y-88130800D01*
X145941885Y-88117906D01*
X145943873Y-88115787D01*
X145943877Y-88115786D01*
X145989949Y-88066723D01*
X145992534Y-88064055D01*
X146012120Y-88044471D01*
X146014585Y-88041292D01*
X146022167Y-88032416D01*
X146052062Y-88000582D01*
X146061717Y-87983018D01*
X146072394Y-87966764D01*
X146084673Y-87950936D01*
X146102018Y-87910852D01*
X146107160Y-87900356D01*
X146128197Y-87862092D01*
X146133179Y-87842684D01*
X146139481Y-87824280D01*
X146147437Y-87805896D01*
X146154269Y-87762752D01*
X146156633Y-87751338D01*
X146167500Y-87709019D01*
X146167500Y-87688983D01*
X146169027Y-87669584D01*
X146172160Y-87649804D01*
X146168050Y-87606324D01*
X146167500Y-87594655D01*
X146167500Y-85934743D01*
X146169764Y-85914239D01*
X146167561Y-85844112D01*
X146167500Y-85840218D01*
X146167500Y-85816541D01*
X146167500Y-85812650D01*
X146166998Y-85808683D01*
X146166081Y-85797027D01*
X146164710Y-85753373D01*
X146159118Y-85734126D01*
X146155174Y-85715085D01*
X146152664Y-85695208D01*
X146136579Y-85654583D01*
X146132808Y-85643568D01*
X146120618Y-85601610D01*
X146110414Y-85584355D01*
X146101861Y-85566895D01*
X146098202Y-85557653D01*
X146094486Y-85548268D01*
X146068808Y-85512925D01*
X146062401Y-85503171D01*
X146040169Y-85465579D01*
X146026006Y-85451416D01*
X146013367Y-85436617D01*
X146001595Y-85420413D01*
X145967941Y-85392573D01*
X145959299Y-85384709D01*
X145152853Y-84578263D01*
X145119368Y-84516940D01*
X145120759Y-84458489D01*
X145131161Y-84419674D01*
X145150292Y-84201000D01*
X145131161Y-83982326D01*
X145074347Y-83770297D01*
X144981579Y-83571354D01*
X144855674Y-83391543D01*
X144700457Y-83236326D01*
X144553243Y-83133246D01*
X144520642Y-83110418D01*
X144376880Y-83043382D01*
X144324440Y-82997210D01*
X144305288Y-82930017D01*
X144325504Y-82863135D01*
X144376880Y-82818618D01*
X144520642Y-82751581D01*
X144520642Y-82751580D01*
X144520646Y-82751579D01*
X144700457Y-82625674D01*
X144855674Y-82470457D01*
X144981579Y-82290646D01*
X145074347Y-82091703D01*
X145131161Y-81879674D01*
X145150292Y-81661000D01*
X145131161Y-81442326D01*
X145074347Y-81230297D01*
X144981579Y-81031354D01*
X144855674Y-80851543D01*
X144700457Y-80696326D01*
X144520646Y-80570421D01*
X144428921Y-80527649D01*
X144321704Y-80477653D01*
X144109671Y-80420838D01*
X143891000Y-80401707D01*
X143672328Y-80420838D01*
X143460295Y-80477653D01*
X143261356Y-80570420D01*
X143261354Y-80570421D01*
X143097841Y-80684914D01*
X143081539Y-80696329D01*
X142926329Y-80851539D01*
X142926326Y-80851542D01*
X142926326Y-80851543D01*
X142843812Y-80969386D01*
X142800420Y-81031356D01*
X142707653Y-81230295D01*
X142650838Y-81442328D01*
X142631707Y-81661000D01*
X142650838Y-81879671D01*
X142707653Y-82091704D01*
X142735492Y-82151404D01*
X142800421Y-82290646D01*
X142926326Y-82470457D01*
X143081543Y-82625674D01*
X143261354Y-82751579D01*
X143357688Y-82796500D01*
X143405120Y-82818618D01*
X143457559Y-82864790D01*
X143476711Y-82931984D01*
X143456495Y-82998865D01*
X143405120Y-83043382D01*
X143261360Y-83110418D01*
X143261354Y-83110421D01*
X143098317Y-83224581D01*
X143081539Y-83236329D01*
X142926329Y-83391539D01*
X142926326Y-83391542D01*
X142926326Y-83391543D01*
X142800421Y-83571354D01*
X142800420Y-83571356D01*
X142800418Y-83571359D01*
X142777585Y-83620323D01*
X142731412Y-83672762D01*
X142664218Y-83691913D01*
X142597337Y-83671696D01*
X142589211Y-83665902D01*
X142587304Y-83664423D01*
X142578422Y-83656837D01*
X142546582Y-83626938D01*
X142546581Y-83626937D01*
X142540083Y-83623365D01*
X142490819Y-83573818D01*
X142476163Y-83505503D01*
X142487439Y-83462298D01*
X142506508Y-83421404D01*
X142534347Y-83361703D01*
X142591161Y-83149674D01*
X142610292Y-82931000D01*
X142607681Y-82901161D01*
X142594395Y-82749288D01*
X142591161Y-82712326D01*
X142534347Y-82500297D01*
X142441579Y-82301354D01*
X142315674Y-82121543D01*
X142160457Y-81966326D01*
X141980646Y-81840421D01*
X141836288Y-81773106D01*
X141783849Y-81726934D01*
X141764697Y-81659740D01*
X141784913Y-81592859D01*
X141836288Y-81548342D01*
X141980392Y-81481144D01*
X142043443Y-81436996D01*
X141483534Y-80877086D01*
X141493315Y-80875680D01*
X141624100Y-80815952D01*
X141732761Y-80721798D01*
X141810493Y-80600844D01*
X141834076Y-80520523D01*
X142396996Y-81083443D01*
X142441144Y-81020392D01*
X142533875Y-80821532D01*
X142590666Y-80609586D01*
X142609790Y-80391000D01*
X142590666Y-80172413D01*
X142533875Y-79960467D01*
X142441143Y-79761604D01*
X142396997Y-79698556D01*
X142396996Y-79698555D01*
X141834076Y-80261475D01*
X141810493Y-80181156D01*
X141732761Y-80060202D01*
X141624100Y-79966048D01*
X141493315Y-79906320D01*
X141483533Y-79904913D01*
X142043443Y-79345003D01*
X142043442Y-79345002D01*
X141980396Y-79300856D01*
X141781532Y-79208124D01*
X141569586Y-79151333D01*
X141351000Y-79132209D01*
X141132413Y-79151333D01*
X140920467Y-79208124D01*
X140721605Y-79300855D01*
X140658555Y-79345001D01*
X141218467Y-79904913D01*
X141208685Y-79906320D01*
X141077900Y-79966048D01*
X140969239Y-80060202D01*
X140891507Y-80181156D01*
X140867922Y-80261476D01*
X140305001Y-79698555D01*
X140260855Y-79761605D01*
X140168124Y-79960467D01*
X140111333Y-80172413D01*
X140092209Y-80390999D01*
X140111333Y-80609586D01*
X140168124Y-80821532D01*
X140260856Y-81020396D01*
X140305002Y-81083442D01*
X140305003Y-81083443D01*
X140867922Y-80520523D01*
X140891507Y-80600844D01*
X140969239Y-80721798D01*
X141077900Y-80815952D01*
X141208685Y-80875680D01*
X141218466Y-80877086D01*
X140658555Y-81436996D01*
X140658556Y-81436997D01*
X140721603Y-81481143D01*
X140865711Y-81548342D01*
X140918150Y-81594515D01*
X140937302Y-81661708D01*
X140917086Y-81728589D01*
X140865711Y-81773106D01*
X140721356Y-81840420D01*
X140721354Y-81840421D01*
X140541543Y-81966326D01*
X140541539Y-81966329D01*
X140386329Y-82121539D01*
X140386326Y-82121542D01*
X140386326Y-82121543D01*
X140306550Y-82235476D01*
X140260420Y-82301356D01*
X140167653Y-82500295D01*
X140110838Y-82712328D01*
X140091707Y-82930999D01*
X140110838Y-83149671D01*
X140121514Y-83189514D01*
X140156880Y-83321500D01*
X140165966Y-83355406D01*
X140164303Y-83425256D01*
X140125141Y-83483118D01*
X140060913Y-83510623D01*
X140046191Y-83511500D01*
X134607453Y-83511500D01*
X134540414Y-83491815D01*
X134519772Y-83475181D01*
X133493818Y-82449227D01*
X133460333Y-82387904D01*
X133457499Y-82361546D01*
X133457499Y-81352439D01*
X133457499Y-81349128D01*
X133451091Y-81289517D01*
X133400796Y-81154669D01*
X133314546Y-81039454D01*
X133199331Y-80953204D01*
X133064483Y-80902909D01*
X133004873Y-80896500D01*
X133001550Y-80896500D01*
X131412439Y-80896500D01*
X131412420Y-80896500D01*
X131409128Y-80896501D01*
X131405848Y-80896853D01*
X131405840Y-80896854D01*
X131349515Y-80902909D01*
X131214669Y-80953204D01*
X131099454Y-81039454D01*
X131013204Y-81154668D01*
X130962909Y-81289516D01*
X130960626Y-81310754D01*
X130933888Y-81375306D01*
X130876496Y-81415154D01*
X130837336Y-81421500D01*
X124664740Y-81421500D01*
X124644236Y-81419236D01*
X124574144Y-81421439D01*
X124570250Y-81421500D01*
X124554987Y-81421500D01*
X124507536Y-81412061D01*
X124477596Y-81399660D01*
X124477595Y-81399659D01*
X124477593Y-81399659D01*
X124397374Y-81389583D01*
X124397364Y-81389582D01*
X124393524Y-81389100D01*
X123764477Y-81389100D01*
X123760636Y-81389582D01*
X123760627Y-81389583D01*
X123680403Y-81399659D01*
X123547434Y-81454737D01*
X123534468Y-81464810D01*
X123469449Y-81490390D01*
X123400922Y-81476757D01*
X123350644Y-81428240D01*
X123334400Y-81366883D01*
X123334400Y-80969386D01*
X123333916Y-80961665D01*
X123323850Y-80881527D01*
X123268829Y-80748693D01*
X123219283Y-80684913D01*
X123214160Y-80679107D01*
X123171303Y-80636250D01*
X122577547Y-81230005D01*
X122565327Y-81152850D01*
X122506883Y-81038146D01*
X122415854Y-80947117D01*
X122301150Y-80888673D01*
X122223994Y-80876452D01*
X122817749Y-80282696D01*
X122774892Y-80239839D01*
X122769086Y-80234716D01*
X122705306Y-80185171D01*
X122572471Y-80130148D01*
X122492334Y-80120083D01*
X122484608Y-80119600D01*
X121863386Y-80119600D01*
X121855665Y-80120083D01*
X121775527Y-80130149D01*
X121642693Y-80185170D01*
X121578914Y-80234716D01*
X121573114Y-80239833D01*
X121530250Y-80282696D01*
X122124006Y-80876452D01*
X122046850Y-80888673D01*
X121932146Y-80947117D01*
X121841117Y-81038146D01*
X121782673Y-81152850D01*
X121770452Y-81230006D01*
X121176696Y-80636250D01*
X121133833Y-80679114D01*
X121128716Y-80684914D01*
X121079171Y-80748693D01*
X121024148Y-80881528D01*
X121014083Y-80961665D01*
X121013600Y-80969391D01*
X121013600Y-81590613D01*
X121014083Y-81598334D01*
X121024149Y-81678472D01*
X121079170Y-81811306D01*
X121128716Y-81875086D01*
X121133832Y-81880884D01*
X121176696Y-81923748D01*
X121770452Y-81329993D01*
X121782673Y-81407150D01*
X121841117Y-81521854D01*
X121932146Y-81612883D01*
X122046850Y-81671327D01*
X122124005Y-81683547D01*
X121530250Y-82277303D01*
X121573107Y-82320160D01*
X121578913Y-82325283D01*
X121642692Y-82374828D01*
X121788365Y-82435168D01*
X121842768Y-82479009D01*
X121864833Y-82545303D01*
X121847554Y-82613003D01*
X121796416Y-82660613D01*
X121788366Y-82664290D01*
X121721023Y-82692185D01*
X121642439Y-82724736D01*
X121642434Y-82724738D01*
X121578583Y-82774338D01*
X121578565Y-82774353D01*
X121575519Y-82776720D01*
X121572785Y-82779453D01*
X121572777Y-82779461D01*
X121133454Y-83218783D01*
X121133446Y-83218791D01*
X121130716Y-83221522D01*
X121128345Y-83224573D01*
X121128339Y-83224581D01*
X121078735Y-83288437D01*
X121023659Y-83421403D01*
X121013583Y-83501627D01*
X121013100Y-83505476D01*
X121013100Y-84134523D01*
X117221500Y-84134523D01*
X117221500Y-78560595D01*
X148336686Y-78560595D01*
X148361081Y-78782300D01*
X148367114Y-78837124D01*
X148437480Y-79106276D01*
X148546284Y-79362314D01*
X148691208Y-79599781D01*
X148691211Y-79599785D01*
X148691212Y-79599786D01*
X148825877Y-79761604D01*
X148869163Y-79813617D01*
X149076357Y-79999263D01*
X149274192Y-80130149D01*
X149308375Y-80152764D01*
X149560268Y-80270847D01*
X149768599Y-80333524D01*
X149826669Y-80350995D01*
X150101901Y-80391500D01*
X150101904Y-80391500D01*
X150308201Y-80391500D01*
X150310463Y-80391500D01*
X150518455Y-80376277D01*
X150789997Y-80315788D01*
X151049838Y-80216408D01*
X151292440Y-80080253D01*
X151512632Y-79910226D01*
X151705722Y-79709951D01*
X151867593Y-79483696D01*
X151994797Y-79236283D01*
X152084621Y-78972986D01*
X152135152Y-78699416D01*
X152145313Y-78421404D01*
X152128546Y-78269026D01*
X152140780Y-78200240D01*
X152188262Y-78148984D01*
X152255918Y-78131535D01*
X152321654Y-78153013D01*
X152419816Y-78219938D01*
X152654440Y-78332927D01*
X152903286Y-78409687D01*
X153160791Y-78448500D01*
X153421209Y-78448500D01*
X153678713Y-78409687D01*
X153927559Y-78332927D01*
X154162183Y-78219938D01*
X154331172Y-78104724D01*
X153671393Y-77444946D01*
X153793213Y-77371650D01*
X153923492Y-77248243D01*
X154024196Y-77099716D01*
X154026780Y-77093228D01*
X154684229Y-77750677D01*
X154684230Y-77750676D01*
X154730615Y-77692512D01*
X154860823Y-77466985D01*
X154955962Y-77224575D01*
X155013911Y-76970684D01*
X155033372Y-76711000D01*
X155013911Y-76451315D01*
X154955962Y-76197424D01*
X154860823Y-75955014D01*
X154730615Y-75729487D01*
X154684230Y-75671321D01*
X154023740Y-76331811D01*
X153977870Y-76245290D01*
X153861698Y-76108522D01*
X153718840Y-75999924D01*
X153670765Y-75977682D01*
X154331172Y-75317274D01*
X154162187Y-75202062D01*
X153927559Y-75089072D01*
X153678713Y-75012312D01*
X153421209Y-74973500D01*
X153160791Y-74973500D01*
X152903286Y-75012312D01*
X152654440Y-75089072D01*
X152419812Y-75202062D01*
X152250827Y-75317274D01*
X152910606Y-75977053D01*
X152788787Y-76050350D01*
X152658508Y-76173757D01*
X152557804Y-76322284D01*
X152555218Y-76328771D01*
X151897769Y-75671322D01*
X151851383Y-75729489D01*
X151721176Y-75955015D01*
X151626037Y-76197424D01*
X151568088Y-76451315D01*
X151548627Y-76711000D01*
X151558608Y-76844181D01*
X151543989Y-76912505D01*
X151494752Y-76962078D01*
X151426530Y-76977161D01*
X151366536Y-76956864D01*
X151173624Y-76829235D01*
X150921731Y-76711152D01*
X150655336Y-76631006D01*
X150655332Y-76631005D01*
X150655331Y-76631005D01*
X150380099Y-76590500D01*
X150171537Y-76590500D01*
X150169288Y-76590664D01*
X150169277Y-76590665D01*
X149963544Y-76605722D01*
X149692003Y-76666211D01*
X149432163Y-76765591D01*
X149189560Y-76901747D01*
X148969366Y-77071774D01*
X148776277Y-77272048D01*
X148614405Y-77498305D01*
X148487205Y-77745711D01*
X148397377Y-78009018D01*
X148346847Y-78282583D01*
X148336686Y-78560595D01*
X117221500Y-78560595D01*
X117221500Y-72948859D01*
X117241184Y-72881824D01*
X117257819Y-72861181D01*
X117311683Y-72807318D01*
X117373006Y-72773834D01*
X117399363Y-72771000D01*
X158372000Y-72771000D01*
X158439039Y-72790685D01*
G37*
G04 #@! TD.AperFunction*
M02*
