G04 #@! TF.GenerationSoftware,KiCad,Pcbnew,7.0.2*
G04 #@! TF.CreationDate,2024-01-01T15:40:13-07:00*
G04 #@! TF.ProjectId,Temp Sensor Board 1,54656d70-2053-4656-9e73-6f7220426f61,rev?*
G04 #@! TF.SameCoordinates,Original*
G04 #@! TF.FileFunction,Copper,L2,Bot*
G04 #@! TF.FilePolarity,Positive*
%FSLAX46Y46*%
G04 Gerber Fmt 4.6, Leading zero omitted, Abs format (unit mm)*
G04 Created by KiCad (PCBNEW 7.0.2) date 2024-01-01 15:40:13*
%MOMM*%
%LPD*%
G01*
G04 APERTURE LIST*
G04 Aperture macros list*
%AMOutline5P*
0 Free polygon, 5 corners , with rotation*
0 The origin of the aperture is its center*
0 number of corners: always 5*
0 $1 to $10 corner X, Y*
0 $11 Rotation angle, in degrees counterclockwise*
0 create outline with 5 corners*
4,1,5,$1,$2,$3,$4,$5,$6,$7,$8,$9,$10,$1,$2,$11*%
%AMOutline6P*
0 Free polygon, 6 corners , with rotation*
0 The origin of the aperture is its center*
0 number of corners: always 6*
0 $1 to $12 corner X, Y*
0 $13 Rotation angle, in degrees counterclockwise*
0 create outline with 6 corners*
4,1,6,$1,$2,$3,$4,$5,$6,$7,$8,$9,$10,$11,$12,$1,$2,$13*%
%AMOutline7P*
0 Free polygon, 7 corners , with rotation*
0 The origin of the aperture is its center*
0 number of corners: always 7*
0 $1 to $14 corner X, Y*
0 $15 Rotation angle, in degrees counterclockwise*
0 create outline with 7 corners*
4,1,7,$1,$2,$3,$4,$5,$6,$7,$8,$9,$10,$11,$12,$13,$14,$1,$2,$15*%
%AMOutline8P*
0 Free polygon, 8 corners , with rotation*
0 The origin of the aperture is its center*
0 number of corners: always 8*
0 $1 to $16 corner X, Y*
0 $17 Rotation angle, in degrees counterclockwise*
0 create outline with 8 corners*
4,1,8,$1,$2,$3,$4,$5,$6,$7,$8,$9,$10,$11,$12,$13,$14,$15,$16,$1,$2,$17*%
G04 Aperture macros list end*
G04 #@! TA.AperFunction,ComponentPad*
%ADD10C,2.475000*%
G04 #@! TD*
G04 #@! TA.AperFunction,ComponentPad*
%ADD11C,1.508000*%
G04 #@! TD*
G04 #@! TA.AperFunction,ComponentPad*
%ADD12R,1.508000X1.508000*%
G04 #@! TD*
G04 #@! TA.AperFunction,ComponentPad*
%ADD13Outline8P,-0.660400X0.273547X-0.273547X0.660400X0.273547X0.660400X0.660400X0.273547X0.660400X-0.273547X0.273547X-0.660400X-0.273547X-0.660400X-0.660400X-0.273547X270.000000*%
G04 #@! TD*
G04 #@! TA.AperFunction,ViaPad*
%ADD14C,0.800000*%
G04 #@! TD*
G04 APERTURE END LIST*
D10*
X153291000Y-76711000D03*
X153291000Y-90431000D03*
D11*
X143891000Y-81661000D03*
X143891000Y-84201000D03*
X143891000Y-86741000D03*
X141351000Y-80391000D03*
X141351000Y-82931000D03*
D12*
X141351000Y-85471000D03*
D13*
X122174000Y-81280000D03*
X124079000Y-82550000D03*
X122174000Y-83820000D03*
D14*
X139065000Y-82296000D03*
X137287000Y-82296000D03*
X127762000Y-85725000D03*
X137287000Y-85598000D03*
X138938000Y-85598000D03*
X127762000Y-80264000D03*
X135382000Y-82296000D03*
X135509000Y-85598000D03*
G04 #@! TA.AperFunction,Conductor*
G36*
X158312039Y-72663685D02*
G01*
X158357794Y-72716489D01*
X158369000Y-72768000D01*
X158369000Y-92078000D01*
X158349315Y-92145039D01*
X158296511Y-92190794D01*
X158245000Y-92202000D01*
X154161288Y-92202000D01*
X154094249Y-92182315D01*
X154048494Y-92129511D01*
X154038550Y-92060353D01*
X154067575Y-91996797D01*
X154107486Y-91966280D01*
X154162183Y-91939939D01*
X154331172Y-91824724D01*
X153671393Y-91164946D01*
X153793213Y-91091650D01*
X153923492Y-90968243D01*
X154024196Y-90819716D01*
X154026780Y-90813228D01*
X154684229Y-91470677D01*
X154684230Y-91470676D01*
X154730615Y-91412512D01*
X154860823Y-91186985D01*
X154955962Y-90944575D01*
X155013911Y-90690684D01*
X155033372Y-90430999D01*
X155013911Y-90171315D01*
X154955962Y-89917424D01*
X154860823Y-89675014D01*
X154730615Y-89449487D01*
X154684230Y-89391321D01*
X154023740Y-90051811D01*
X153977870Y-89965290D01*
X153861698Y-89828522D01*
X153718840Y-89719924D01*
X153670764Y-89697682D01*
X154331172Y-89037274D01*
X154162187Y-88922062D01*
X153927559Y-88809072D01*
X153678713Y-88732312D01*
X153421209Y-88693500D01*
X153160791Y-88693500D01*
X152903286Y-88732312D01*
X152654440Y-88809072D01*
X152419812Y-88922062D01*
X152326731Y-88985524D01*
X152260252Y-89007024D01*
X152192702Y-88989170D01*
X152145528Y-88937629D01*
X152133708Y-88868767D01*
X152134944Y-88860540D01*
X152135152Y-88859416D01*
X152145313Y-88581404D01*
X152114886Y-88304876D01*
X152044520Y-88035724D01*
X151935716Y-87779686D01*
X151790792Y-87542219D01*
X151699107Y-87432048D01*
X151612838Y-87328384D01*
X151505015Y-87231774D01*
X151405643Y-87142737D01*
X151173627Y-86989237D01*
X151173624Y-86989235D01*
X150921731Y-86871152D01*
X150655336Y-86791006D01*
X150655332Y-86791005D01*
X150655331Y-86791005D01*
X150380099Y-86750500D01*
X150171537Y-86750500D01*
X150169288Y-86750664D01*
X150169277Y-86750665D01*
X149963544Y-86765722D01*
X149692003Y-86826211D01*
X149432163Y-86925591D01*
X149189560Y-87061747D01*
X148969366Y-87231774D01*
X148776277Y-87432048D01*
X148614405Y-87658305D01*
X148487205Y-87905711D01*
X148397377Y-88169018D01*
X148346847Y-88442583D01*
X148336686Y-88720595D01*
X148358855Y-88922062D01*
X148367114Y-88997124D01*
X148437480Y-89266276D01*
X148546284Y-89522314D01*
X148691208Y-89759781D01*
X148691211Y-89759785D01*
X148691212Y-89759786D01*
X148700003Y-89770350D01*
X148869163Y-89973617D01*
X149076357Y-90159263D01*
X149284159Y-90296743D01*
X149308375Y-90312764D01*
X149560268Y-90430847D01*
X149768599Y-90493524D01*
X149826669Y-90510995D01*
X150101901Y-90551500D01*
X150101904Y-90551500D01*
X150308201Y-90551500D01*
X150310463Y-90551500D01*
X150518455Y-90536277D01*
X150789997Y-90475788D01*
X151049838Y-90376408D01*
X151292440Y-90240253D01*
X151359303Y-90188622D01*
X151424394Y-90163230D01*
X151492881Y-90177060D01*
X151543020Y-90225721D01*
X151558890Y-90293764D01*
X151558741Y-90296034D01*
X151548627Y-90430999D01*
X151568088Y-90690684D01*
X151626037Y-90944575D01*
X151721176Y-91186984D01*
X151851386Y-91412515D01*
X151897768Y-91470677D01*
X152558258Y-90810187D01*
X152604130Y-90896710D01*
X152720302Y-91033478D01*
X152863160Y-91142076D01*
X152911234Y-91164317D01*
X152250826Y-91824724D01*
X152419813Y-91939937D01*
X152474514Y-91966280D01*
X152526373Y-92013103D01*
X152544686Y-92080530D01*
X152523638Y-92147154D01*
X152469912Y-92191822D01*
X152420712Y-92202000D01*
X117653362Y-92202000D01*
X117586323Y-92182315D01*
X117565681Y-92165681D01*
X117257819Y-91857819D01*
X117224334Y-91796496D01*
X117221500Y-91770138D01*
X117221500Y-84134523D01*
X121013100Y-84134523D01*
X121013582Y-84138364D01*
X121013583Y-84138372D01*
X121023659Y-84218596D01*
X121078737Y-84351564D01*
X121128338Y-84415416D01*
X121128346Y-84415425D01*
X121130720Y-84418481D01*
X121575522Y-84863284D01*
X121578581Y-84865660D01*
X121642437Y-84915264D01*
X121775403Y-84970340D01*
X121790539Y-84972241D01*
X121859476Y-84980900D01*
X121863353Y-84980900D01*
X122484646Y-84980900D01*
X122488523Y-84980900D01*
X122572597Y-84970340D01*
X122705564Y-84915263D01*
X122772481Y-84863280D01*
X123217284Y-84418478D01*
X123269264Y-84351563D01*
X123324340Y-84218596D01*
X123334900Y-84134524D01*
X123334900Y-83733501D01*
X123354583Y-83666466D01*
X123407387Y-83620711D01*
X123476546Y-83610767D01*
X123534967Y-83635578D01*
X123547437Y-83645265D01*
X123680403Y-83700340D01*
X123695539Y-83702241D01*
X123764476Y-83710900D01*
X123768353Y-83710900D01*
X124389646Y-83710900D01*
X124393523Y-83710900D01*
X124477597Y-83700340D01*
X124610564Y-83645263D01*
X124677481Y-83593280D01*
X125122284Y-83148478D01*
X125174264Y-83081563D01*
X125229340Y-82948596D01*
X125231550Y-82930999D01*
X140091707Y-82930999D01*
X140110838Y-83149671D01*
X140167653Y-83361704D01*
X140195491Y-83421403D01*
X140260421Y-83560646D01*
X140386326Y-83740457D01*
X140541543Y-83895674D01*
X140677578Y-83990927D01*
X140721202Y-84045502D01*
X140728396Y-84115000D01*
X140696873Y-84177355D01*
X140636644Y-84212769D01*
X140606456Y-84216500D01*
X140552440Y-84216500D01*
X140552421Y-84216500D01*
X140549128Y-84216501D01*
X140545848Y-84216853D01*
X140545840Y-84216854D01*
X140489515Y-84222909D01*
X140354669Y-84273204D01*
X140239454Y-84359454D01*
X140153204Y-84474668D01*
X140102909Y-84609516D01*
X140100524Y-84631704D01*
X140096500Y-84669127D01*
X140096500Y-84672448D01*
X140096500Y-84672449D01*
X140096500Y-86269560D01*
X140096500Y-86269578D01*
X140096501Y-86272872D01*
X140102909Y-86332483D01*
X140153204Y-86467331D01*
X140239454Y-86582546D01*
X140354669Y-86668796D01*
X140489517Y-86719091D01*
X140549127Y-86725500D01*
X142152872Y-86725499D01*
X142212483Y-86719091D01*
X142347331Y-86668796D01*
X142436389Y-86602126D01*
X142501850Y-86577710D01*
X142570124Y-86592561D01*
X142619530Y-86641966D01*
X142634382Y-86710239D01*
X142634226Y-86712198D01*
X142631707Y-86740996D01*
X142650838Y-86959671D01*
X142699891Y-87142738D01*
X142707653Y-87171703D01*
X142800421Y-87370646D01*
X142926326Y-87550457D01*
X143081543Y-87705674D01*
X143261354Y-87831579D01*
X143460297Y-87924347D01*
X143672326Y-87981161D01*
X143891000Y-88000292D01*
X144109674Y-87981161D01*
X144321703Y-87924347D01*
X144520646Y-87831579D01*
X144700457Y-87705674D01*
X144855674Y-87550457D01*
X144981579Y-87370646D01*
X145074347Y-87171703D01*
X145131161Y-86959674D01*
X145150292Y-86741000D01*
X145131161Y-86522326D01*
X145074347Y-86310297D01*
X144981579Y-86111354D01*
X144855674Y-85931543D01*
X144700457Y-85776326D01*
X144520646Y-85650421D01*
X144520642Y-85650418D01*
X144376880Y-85583382D01*
X144324440Y-85537210D01*
X144305288Y-85470017D01*
X144325504Y-85403135D01*
X144376880Y-85358618D01*
X144520642Y-85291581D01*
X144520642Y-85291580D01*
X144520646Y-85291579D01*
X144700457Y-85165674D01*
X144855674Y-85010457D01*
X144981579Y-84830646D01*
X145074347Y-84631703D01*
X145131161Y-84419674D01*
X145150292Y-84201000D01*
X145147681Y-84171161D01*
X145134595Y-84021579D01*
X145131161Y-83982326D01*
X145074347Y-83770297D01*
X144981579Y-83571354D01*
X144855674Y-83391543D01*
X144700457Y-83236326D01*
X144520646Y-83110421D01*
X144520642Y-83110418D01*
X144376880Y-83043382D01*
X144324440Y-82997210D01*
X144305288Y-82930017D01*
X144325504Y-82863135D01*
X144376880Y-82818618D01*
X144520642Y-82751581D01*
X144520642Y-82751580D01*
X144520646Y-82751579D01*
X144700457Y-82625674D01*
X144855674Y-82470457D01*
X144981579Y-82290646D01*
X145074347Y-82091703D01*
X145131161Y-81879674D01*
X145150292Y-81661000D01*
X145131161Y-81442326D01*
X145074347Y-81230297D01*
X144981579Y-81031354D01*
X144855674Y-80851543D01*
X144700457Y-80696326D01*
X144520646Y-80570421D01*
X144428921Y-80527649D01*
X144321704Y-80477653D01*
X144109671Y-80420838D01*
X143891000Y-80401707D01*
X143672328Y-80420838D01*
X143460295Y-80477653D01*
X143261356Y-80570420D01*
X143261354Y-80570421D01*
X143097841Y-80684914D01*
X143081539Y-80696329D01*
X142926329Y-80851539D01*
X142926326Y-80851542D01*
X142926326Y-80851543D01*
X142843812Y-80969386D01*
X142800420Y-81031356D01*
X142707653Y-81230295D01*
X142650838Y-81442328D01*
X142631707Y-81661000D01*
X142650838Y-81879671D01*
X142707653Y-82091704D01*
X142735491Y-82151403D01*
X142800421Y-82290646D01*
X142926326Y-82470457D01*
X143081543Y-82625674D01*
X143261354Y-82751579D01*
X143321148Y-82779461D01*
X143405120Y-82818618D01*
X143457559Y-82864790D01*
X143476711Y-82931984D01*
X143456495Y-82998865D01*
X143405120Y-83043382D01*
X143261360Y-83110418D01*
X143261354Y-83110421D01*
X143098317Y-83224581D01*
X143081539Y-83236329D01*
X142926329Y-83391539D01*
X142926326Y-83391542D01*
X142926326Y-83391543D01*
X142843836Y-83509352D01*
X142800420Y-83571356D01*
X142707653Y-83770295D01*
X142650838Y-83982328D01*
X142631707Y-84201000D01*
X142634226Y-84229801D01*
X142620458Y-84298300D01*
X142571841Y-84348482D01*
X142503812Y-84364414D01*
X142437969Y-84341037D01*
X142436439Y-84339910D01*
X142347331Y-84273204D01*
X142212483Y-84222909D01*
X142152873Y-84216500D01*
X142149551Y-84216500D01*
X142095547Y-84216500D01*
X142028508Y-84196815D01*
X141982753Y-84144011D01*
X141972809Y-84074853D01*
X142001834Y-84011297D01*
X142024424Y-83990925D01*
X142036705Y-83982326D01*
X142160457Y-83895674D01*
X142315674Y-83740457D01*
X142441579Y-83560646D01*
X142534347Y-83361703D01*
X142591161Y-83149674D01*
X142610292Y-82931000D01*
X142607681Y-82901161D01*
X142592247Y-82724736D01*
X142591161Y-82712326D01*
X142534347Y-82500297D01*
X142441579Y-82301354D01*
X142315674Y-82121543D01*
X142160457Y-81966326D01*
X141980646Y-81840421D01*
X141836288Y-81773106D01*
X141783849Y-81726934D01*
X141764697Y-81659740D01*
X141784913Y-81592859D01*
X141836288Y-81548342D01*
X141980392Y-81481144D01*
X142043443Y-81436996D01*
X141483534Y-80877086D01*
X141493315Y-80875680D01*
X141624100Y-80815952D01*
X141732761Y-80721798D01*
X141810493Y-80600844D01*
X141834076Y-80520523D01*
X142396996Y-81083443D01*
X142441144Y-81020392D01*
X142533875Y-80821532D01*
X142590666Y-80609586D01*
X142609790Y-80391000D01*
X142590666Y-80172413D01*
X142533875Y-79960467D01*
X142441143Y-79761604D01*
X142396997Y-79698556D01*
X142396996Y-79698555D01*
X141834076Y-80261475D01*
X141810493Y-80181156D01*
X141732761Y-80060202D01*
X141624100Y-79966048D01*
X141493315Y-79906320D01*
X141483533Y-79904913D01*
X142043443Y-79345003D01*
X142043442Y-79345002D01*
X141980396Y-79300856D01*
X141781532Y-79208124D01*
X141569586Y-79151333D01*
X141351000Y-79132209D01*
X141132413Y-79151333D01*
X140920467Y-79208124D01*
X140721605Y-79300855D01*
X140658555Y-79345001D01*
X141218467Y-79904913D01*
X141208685Y-79906320D01*
X141077900Y-79966048D01*
X140969239Y-80060202D01*
X140891507Y-80181156D01*
X140867922Y-80261476D01*
X140305001Y-79698555D01*
X140260855Y-79761605D01*
X140168124Y-79960467D01*
X140111333Y-80172413D01*
X140092209Y-80390999D01*
X140111333Y-80609586D01*
X140168124Y-80821532D01*
X140260856Y-81020396D01*
X140305002Y-81083442D01*
X140305003Y-81083443D01*
X140867922Y-80520523D01*
X140891507Y-80600844D01*
X140969239Y-80721798D01*
X141077900Y-80815952D01*
X141208685Y-80875680D01*
X141218466Y-80877086D01*
X140658555Y-81436996D01*
X140658556Y-81436997D01*
X140721603Y-81481143D01*
X140865711Y-81548342D01*
X140918150Y-81594515D01*
X140937302Y-81661708D01*
X140917086Y-81728589D01*
X140865711Y-81773106D01*
X140721356Y-81840420D01*
X140721354Y-81840421D01*
X140558314Y-81954583D01*
X140541539Y-81966329D01*
X140386329Y-82121539D01*
X140386326Y-82121542D01*
X140386326Y-82121543D01*
X140306550Y-82235476D01*
X140260420Y-82301356D01*
X140167653Y-82500295D01*
X140110838Y-82712328D01*
X140091707Y-82930999D01*
X125231550Y-82930999D01*
X125239900Y-82864524D01*
X125239900Y-82235477D01*
X125229340Y-82151403D01*
X125174263Y-82018436D01*
X125133785Y-81966329D01*
X125124661Y-81954583D01*
X125124654Y-81954575D01*
X125122280Y-81951519D01*
X124677478Y-81506716D01*
X124638911Y-81476757D01*
X124610562Y-81454735D01*
X124477596Y-81399659D01*
X124397372Y-81389583D01*
X124397366Y-81389582D01*
X124393524Y-81389100D01*
X123764477Y-81389100D01*
X123760636Y-81389582D01*
X123760627Y-81389583D01*
X123680403Y-81399659D01*
X123547434Y-81454737D01*
X123534468Y-81464810D01*
X123469449Y-81490390D01*
X123400922Y-81476757D01*
X123350644Y-81428240D01*
X123334400Y-81366883D01*
X123334400Y-80969386D01*
X123333916Y-80961665D01*
X123323850Y-80881527D01*
X123268829Y-80748693D01*
X123219283Y-80684913D01*
X123214160Y-80679107D01*
X123171303Y-80636250D01*
X122577547Y-81230005D01*
X122565327Y-81152850D01*
X122506883Y-81038146D01*
X122415854Y-80947117D01*
X122301150Y-80888673D01*
X122223994Y-80876452D01*
X122817749Y-80282696D01*
X122774892Y-80239839D01*
X122769086Y-80234716D01*
X122705306Y-80185171D01*
X122572471Y-80130148D01*
X122492334Y-80120083D01*
X122484608Y-80119600D01*
X121863386Y-80119600D01*
X121855665Y-80120083D01*
X121775527Y-80130149D01*
X121642693Y-80185170D01*
X121578914Y-80234716D01*
X121573114Y-80239833D01*
X121530250Y-80282696D01*
X122124006Y-80876452D01*
X122046850Y-80888673D01*
X121932146Y-80947117D01*
X121841117Y-81038146D01*
X121782673Y-81152850D01*
X121770452Y-81230006D01*
X121176696Y-80636250D01*
X121133833Y-80679114D01*
X121128716Y-80684914D01*
X121079171Y-80748693D01*
X121024148Y-80881528D01*
X121014083Y-80961665D01*
X121013600Y-80969391D01*
X121013600Y-81590613D01*
X121014083Y-81598334D01*
X121024149Y-81678472D01*
X121079170Y-81811306D01*
X121128716Y-81875086D01*
X121133832Y-81880884D01*
X121176696Y-81923748D01*
X121770452Y-81329993D01*
X121782673Y-81407150D01*
X121841117Y-81521854D01*
X121932146Y-81612883D01*
X122046850Y-81671327D01*
X122124005Y-81683547D01*
X121530250Y-82277303D01*
X121573107Y-82320160D01*
X121578913Y-82325283D01*
X121642692Y-82374828D01*
X121788365Y-82435168D01*
X121842768Y-82479009D01*
X121864833Y-82545303D01*
X121847554Y-82613003D01*
X121796416Y-82660613D01*
X121788366Y-82664290D01*
X121693627Y-82703533D01*
X121642439Y-82724736D01*
X121642434Y-82724738D01*
X121578583Y-82774338D01*
X121578565Y-82774353D01*
X121575519Y-82776720D01*
X121572785Y-82779453D01*
X121572777Y-82779461D01*
X121133454Y-83218783D01*
X121133446Y-83218791D01*
X121130716Y-83221522D01*
X121128345Y-83224573D01*
X121128339Y-83224581D01*
X121078735Y-83288437D01*
X121023659Y-83421403D01*
X121013583Y-83501627D01*
X121013100Y-83505476D01*
X121013100Y-84134523D01*
X117221500Y-84134523D01*
X117221500Y-78560595D01*
X148336686Y-78560595D01*
X148361081Y-78782300D01*
X148367114Y-78837124D01*
X148437480Y-79106276D01*
X148546284Y-79362314D01*
X148691208Y-79599781D01*
X148691211Y-79599785D01*
X148691212Y-79599786D01*
X148825877Y-79761604D01*
X148869163Y-79813617D01*
X149076357Y-79999263D01*
X149274192Y-80130149D01*
X149308375Y-80152764D01*
X149560268Y-80270847D01*
X149768599Y-80333524D01*
X149826669Y-80350995D01*
X150101901Y-80391500D01*
X150101904Y-80391500D01*
X150308201Y-80391500D01*
X150310463Y-80391500D01*
X150518455Y-80376277D01*
X150789997Y-80315788D01*
X151049838Y-80216408D01*
X151292440Y-80080253D01*
X151512632Y-79910226D01*
X151705722Y-79709951D01*
X151867593Y-79483696D01*
X151994797Y-79236283D01*
X152084621Y-78972986D01*
X152135152Y-78699416D01*
X152145313Y-78421404D01*
X152128546Y-78269026D01*
X152140780Y-78200240D01*
X152188262Y-78148984D01*
X152255918Y-78131535D01*
X152321654Y-78153013D01*
X152419816Y-78219938D01*
X152654440Y-78332927D01*
X152903286Y-78409687D01*
X153160791Y-78448500D01*
X153421209Y-78448500D01*
X153678713Y-78409687D01*
X153927559Y-78332927D01*
X154162183Y-78219938D01*
X154331172Y-78104724D01*
X153671393Y-77444946D01*
X153793213Y-77371650D01*
X153923492Y-77248243D01*
X154024196Y-77099716D01*
X154026780Y-77093228D01*
X154684229Y-77750677D01*
X154684230Y-77750676D01*
X154730615Y-77692512D01*
X154860823Y-77466985D01*
X154955962Y-77224575D01*
X155013911Y-76970684D01*
X155033372Y-76711000D01*
X155013911Y-76451315D01*
X154955962Y-76197424D01*
X154860823Y-75955014D01*
X154730615Y-75729487D01*
X154684230Y-75671321D01*
X154023740Y-76331811D01*
X153977870Y-76245290D01*
X153861698Y-76108522D01*
X153718840Y-75999924D01*
X153670765Y-75977682D01*
X154331172Y-75317274D01*
X154162187Y-75202062D01*
X153927559Y-75089072D01*
X153678713Y-75012312D01*
X153421209Y-74973500D01*
X153160791Y-74973500D01*
X152903286Y-75012312D01*
X152654440Y-75089072D01*
X152419812Y-75202062D01*
X152250827Y-75317274D01*
X152910606Y-75977053D01*
X152788787Y-76050350D01*
X152658508Y-76173757D01*
X152557804Y-76322284D01*
X152555218Y-76328771D01*
X151897769Y-75671322D01*
X151851383Y-75729489D01*
X151721176Y-75955015D01*
X151626037Y-76197424D01*
X151568088Y-76451315D01*
X151548627Y-76711000D01*
X151558608Y-76844181D01*
X151543989Y-76912505D01*
X151494752Y-76962078D01*
X151426530Y-76977161D01*
X151366536Y-76956864D01*
X151173624Y-76829235D01*
X150921731Y-76711152D01*
X150655336Y-76631006D01*
X150655332Y-76631005D01*
X150655331Y-76631005D01*
X150380099Y-76590500D01*
X150171537Y-76590500D01*
X150169288Y-76590664D01*
X150169277Y-76590665D01*
X149963544Y-76605722D01*
X149692003Y-76666211D01*
X149432163Y-76765591D01*
X149189560Y-76901747D01*
X148969366Y-77071774D01*
X148776277Y-77272048D01*
X148614405Y-77498305D01*
X148487205Y-77745711D01*
X148397377Y-78009018D01*
X148346847Y-78282583D01*
X148336686Y-78560595D01*
X117221500Y-78560595D01*
X117221500Y-72768000D01*
X117241185Y-72700961D01*
X117293989Y-72655206D01*
X117345500Y-72644000D01*
X158245000Y-72644000D01*
X158312039Y-72663685D01*
G37*
G04 #@! TD.AperFunction*
M02*
