%TF.GenerationSoftware,KiCad,Pcbnew,7.0.2*%
%TF.CreationDate,2024-01-01T15:40:30-07:00*%
%TF.ProjectId,Temp Sensor Board 1,54656d70-2053-4656-9e73-6f7220426f61,rev?*%
%TF.SameCoordinates,Original*%
%TF.FileFunction,Drillmap*%
%TF.FilePolarity,Positive*%
%FSLAX45Y45*%
G04 Gerber Fmt 4.5, Leading zero omitted, Abs format (unit mm)*
G04 Created by KiCad (PCBNEW 7.0.2) date 2024-01-01 15:40:30*
%MOMM*%
%LPD*%
G01*
G04 APERTURE LIST*
%ADD10C,0.100000*%
%ADD11C,0.200000*%
%ADD12C,0.040000*%
%ADD13C,0.081280*%
%ADD14C,0.165000*%
G04 APERTURE END LIST*
D10*
X11722100Y-7251700D02*
X15853665Y-7251700D01*
X15853665Y-9236965D01*
X11722100Y-9236965D01*
X11722100Y-7251700D01*
D11*
D12*
X12756200Y-8006400D02*
X12796200Y-8046400D01*
X12796200Y-8006400D02*
X12756200Y-8046400D01*
X12756200Y-8552500D02*
X12796200Y-8592500D01*
X12796200Y-8552500D02*
X12756200Y-8592500D01*
X13518200Y-8209600D02*
X13558200Y-8249600D01*
X13558200Y-8209600D02*
X13518200Y-8249600D01*
X13530900Y-8539800D02*
X13570900Y-8579800D01*
X13570900Y-8539800D02*
X13530900Y-8579800D01*
X13708700Y-8209600D02*
X13748700Y-8249600D01*
X13748700Y-8209600D02*
X13708700Y-8249600D01*
X13708700Y-8539800D02*
X13748700Y-8579800D01*
X13748700Y-8539800D02*
X13708700Y-8579800D01*
X13873800Y-8539800D02*
X13913800Y-8579800D01*
X13913800Y-8539800D02*
X13873800Y-8579800D01*
X13886500Y-8209600D02*
X13926500Y-8249600D01*
X13926500Y-8209600D02*
X13886500Y-8249600D01*
D13*
X12258040Y-8128000D02*
G75*
G03*
X12258040Y-8128000I-40640J0D01*
G01*
X12258040Y-8382000D02*
G75*
G03*
X12258040Y-8382000I-40640J0D01*
G01*
X12448540Y-8255000D02*
G75*
G03*
X12448540Y-8255000I-40640J0D01*
G01*
D10*
X14135100Y-7989100D02*
X14135100Y-8089100D01*
X14085100Y-8039100D02*
X14185100Y-8039100D01*
X14135100Y-8243100D02*
X14135100Y-8343100D01*
X14085100Y-8293100D02*
X14185100Y-8293100D01*
X14135100Y-8497100D02*
X14135100Y-8597100D01*
X14085100Y-8547100D02*
X14185100Y-8547100D01*
X14389100Y-8116100D02*
X14389100Y-8216100D01*
X14339100Y-8166100D02*
X14439100Y-8166100D01*
X14389100Y-8370100D02*
X14389100Y-8470100D01*
X14339100Y-8420100D02*
X14439100Y-8420100D01*
X14389100Y-8624100D02*
X14389100Y-8724100D01*
X14339100Y-8674100D02*
X14439100Y-8674100D01*
D14*
X15387437Y-7729437D02*
X15387437Y-7612763D01*
X15270763Y-7612763D01*
X15270763Y-7729437D01*
X15387437Y-7729437D01*
X15387437Y-9101437D02*
X15387437Y-8984763D01*
X15270763Y-8984763D01*
X15270763Y-9101437D01*
X15387437Y-9101437D01*
D11*
X11964719Y-9554488D02*
X11964719Y-9354488D01*
X11964719Y-9354488D02*
X12012338Y-9354488D01*
X12012338Y-9354488D02*
X12040909Y-9364012D01*
X12040909Y-9364012D02*
X12059957Y-9383060D01*
X12059957Y-9383060D02*
X12069481Y-9402107D01*
X12069481Y-9402107D02*
X12079005Y-9440203D01*
X12079005Y-9440203D02*
X12079005Y-9468774D01*
X12079005Y-9468774D02*
X12069481Y-9506869D01*
X12069481Y-9506869D02*
X12059957Y-9525917D01*
X12059957Y-9525917D02*
X12040909Y-9544965D01*
X12040909Y-9544965D02*
X12012338Y-9554488D01*
X12012338Y-9554488D02*
X11964719Y-9554488D01*
X12164719Y-9554488D02*
X12164719Y-9421155D01*
X12164719Y-9459250D02*
X12174243Y-9440203D01*
X12174243Y-9440203D02*
X12183767Y-9430679D01*
X12183767Y-9430679D02*
X12202814Y-9421155D01*
X12202814Y-9421155D02*
X12221862Y-9421155D01*
X12288528Y-9554488D02*
X12288528Y-9421155D01*
X12288528Y-9354488D02*
X12279005Y-9364012D01*
X12279005Y-9364012D02*
X12288528Y-9373536D01*
X12288528Y-9373536D02*
X12298052Y-9364012D01*
X12298052Y-9364012D02*
X12288528Y-9354488D01*
X12288528Y-9354488D02*
X12288528Y-9373536D01*
X12412338Y-9554488D02*
X12393290Y-9544965D01*
X12393290Y-9544965D02*
X12383767Y-9525917D01*
X12383767Y-9525917D02*
X12383767Y-9354488D01*
X12517100Y-9554488D02*
X12498052Y-9544965D01*
X12498052Y-9544965D02*
X12488528Y-9525917D01*
X12488528Y-9525917D02*
X12488528Y-9354488D01*
X12745671Y-9554488D02*
X12745671Y-9354488D01*
X12745671Y-9354488D02*
X12812338Y-9497346D01*
X12812338Y-9497346D02*
X12879005Y-9354488D01*
X12879005Y-9354488D02*
X12879005Y-9554488D01*
X13059957Y-9554488D02*
X13059957Y-9449727D01*
X13059957Y-9449727D02*
X13050433Y-9430679D01*
X13050433Y-9430679D02*
X13031386Y-9421155D01*
X13031386Y-9421155D02*
X12993290Y-9421155D01*
X12993290Y-9421155D02*
X12974243Y-9430679D01*
X13059957Y-9544965D02*
X13040909Y-9554488D01*
X13040909Y-9554488D02*
X12993290Y-9554488D01*
X12993290Y-9554488D02*
X12974243Y-9544965D01*
X12974243Y-9544965D02*
X12964719Y-9525917D01*
X12964719Y-9525917D02*
X12964719Y-9506869D01*
X12964719Y-9506869D02*
X12974243Y-9487822D01*
X12974243Y-9487822D02*
X12993290Y-9478298D01*
X12993290Y-9478298D02*
X13040909Y-9478298D01*
X13040909Y-9478298D02*
X13059957Y-9468774D01*
X13155195Y-9421155D02*
X13155195Y-9621155D01*
X13155195Y-9430679D02*
X13174243Y-9421155D01*
X13174243Y-9421155D02*
X13212338Y-9421155D01*
X13212338Y-9421155D02*
X13231386Y-9430679D01*
X13231386Y-9430679D02*
X13240909Y-9440203D01*
X13240909Y-9440203D02*
X13250433Y-9459250D01*
X13250433Y-9459250D02*
X13250433Y-9516393D01*
X13250433Y-9516393D02*
X13240909Y-9535441D01*
X13240909Y-9535441D02*
X13231386Y-9544965D01*
X13231386Y-9544965D02*
X13212338Y-9554488D01*
X13212338Y-9554488D02*
X13174243Y-9554488D01*
X13174243Y-9554488D02*
X13155195Y-9544965D01*
X13336148Y-9535441D02*
X13345671Y-9544965D01*
X13345671Y-9544965D02*
X13336148Y-9554488D01*
X13336148Y-9554488D02*
X13326624Y-9544965D01*
X13326624Y-9544965D02*
X13336148Y-9535441D01*
X13336148Y-9535441D02*
X13336148Y-9554488D01*
X13336148Y-9430679D02*
X13345671Y-9440203D01*
X13345671Y-9440203D02*
X13336148Y-9449727D01*
X13336148Y-9449727D02*
X13326624Y-9440203D01*
X13326624Y-9440203D02*
X13336148Y-9430679D01*
X13336148Y-9430679D02*
X13336148Y-9449727D01*
D12*
X11677100Y-9861965D02*
X11717100Y-9901965D01*
X11717100Y-9861965D02*
X11677100Y-9901965D01*
D11*
X12002814Y-9774488D02*
X12021862Y-9774488D01*
X12021862Y-9774488D02*
X12040909Y-9784012D01*
X12040909Y-9784012D02*
X12050433Y-9793536D01*
X12050433Y-9793536D02*
X12059957Y-9812584D01*
X12059957Y-9812584D02*
X12069481Y-9850679D01*
X12069481Y-9850679D02*
X12069481Y-9898298D01*
X12069481Y-9898298D02*
X12059957Y-9936393D01*
X12059957Y-9936393D02*
X12050433Y-9955441D01*
X12050433Y-9955441D02*
X12040909Y-9964965D01*
X12040909Y-9964965D02*
X12021862Y-9974488D01*
X12021862Y-9974488D02*
X12002814Y-9974488D01*
X12002814Y-9974488D02*
X11983767Y-9964965D01*
X11983767Y-9964965D02*
X11974243Y-9955441D01*
X11974243Y-9955441D02*
X11964719Y-9936393D01*
X11964719Y-9936393D02*
X11955195Y-9898298D01*
X11955195Y-9898298D02*
X11955195Y-9850679D01*
X11955195Y-9850679D02*
X11964719Y-9812584D01*
X11964719Y-9812584D02*
X11974243Y-9793536D01*
X11974243Y-9793536D02*
X11983767Y-9784012D01*
X11983767Y-9784012D02*
X12002814Y-9774488D01*
X12155195Y-9955441D02*
X12164719Y-9964965D01*
X12164719Y-9964965D02*
X12155195Y-9974488D01*
X12155195Y-9974488D02*
X12145671Y-9964965D01*
X12145671Y-9964965D02*
X12155195Y-9955441D01*
X12155195Y-9955441D02*
X12155195Y-9974488D01*
X12336148Y-9841155D02*
X12336148Y-9974488D01*
X12288528Y-9764965D02*
X12240909Y-9907822D01*
X12240909Y-9907822D02*
X12364719Y-9907822D01*
X12479005Y-9774488D02*
X12498052Y-9774488D01*
X12498052Y-9774488D02*
X12517100Y-9784012D01*
X12517100Y-9784012D02*
X12526624Y-9793536D01*
X12526624Y-9793536D02*
X12536148Y-9812584D01*
X12536148Y-9812584D02*
X12545671Y-9850679D01*
X12545671Y-9850679D02*
X12545671Y-9898298D01*
X12545671Y-9898298D02*
X12536148Y-9936393D01*
X12536148Y-9936393D02*
X12526624Y-9955441D01*
X12526624Y-9955441D02*
X12517100Y-9964965D01*
X12517100Y-9964965D02*
X12498052Y-9974488D01*
X12498052Y-9974488D02*
X12479005Y-9974488D01*
X12479005Y-9974488D02*
X12459957Y-9964965D01*
X12459957Y-9964965D02*
X12450433Y-9955441D01*
X12450433Y-9955441D02*
X12440909Y-9936393D01*
X12440909Y-9936393D02*
X12431386Y-9898298D01*
X12431386Y-9898298D02*
X12431386Y-9850679D01*
X12431386Y-9850679D02*
X12440909Y-9812584D01*
X12440909Y-9812584D02*
X12450433Y-9793536D01*
X12450433Y-9793536D02*
X12459957Y-9784012D01*
X12459957Y-9784012D02*
X12479005Y-9774488D01*
X12669481Y-9774488D02*
X12688529Y-9774488D01*
X12688529Y-9774488D02*
X12707576Y-9784012D01*
X12707576Y-9784012D02*
X12717100Y-9793536D01*
X12717100Y-9793536D02*
X12726624Y-9812584D01*
X12726624Y-9812584D02*
X12736148Y-9850679D01*
X12736148Y-9850679D02*
X12736148Y-9898298D01*
X12736148Y-9898298D02*
X12726624Y-9936393D01*
X12726624Y-9936393D02*
X12717100Y-9955441D01*
X12717100Y-9955441D02*
X12707576Y-9964965D01*
X12707576Y-9964965D02*
X12688529Y-9974488D01*
X12688529Y-9974488D02*
X12669481Y-9974488D01*
X12669481Y-9974488D02*
X12650433Y-9964965D01*
X12650433Y-9964965D02*
X12640909Y-9955441D01*
X12640909Y-9955441D02*
X12631386Y-9936393D01*
X12631386Y-9936393D02*
X12621862Y-9898298D01*
X12621862Y-9898298D02*
X12621862Y-9850679D01*
X12621862Y-9850679D02*
X12631386Y-9812584D01*
X12631386Y-9812584D02*
X12640909Y-9793536D01*
X12640909Y-9793536D02*
X12650433Y-9784012D01*
X12650433Y-9784012D02*
X12669481Y-9774488D01*
X12821862Y-9974488D02*
X12821862Y-9841155D01*
X12821862Y-9860203D02*
X12831386Y-9850679D01*
X12831386Y-9850679D02*
X12850433Y-9841155D01*
X12850433Y-9841155D02*
X12879005Y-9841155D01*
X12879005Y-9841155D02*
X12898052Y-9850679D01*
X12898052Y-9850679D02*
X12907576Y-9869727D01*
X12907576Y-9869727D02*
X12907576Y-9974488D01*
X12907576Y-9869727D02*
X12917100Y-9850679D01*
X12917100Y-9850679D02*
X12936148Y-9841155D01*
X12936148Y-9841155D02*
X12964719Y-9841155D01*
X12964719Y-9841155D02*
X12983767Y-9850679D01*
X12983767Y-9850679D02*
X12993290Y-9869727D01*
X12993290Y-9869727D02*
X12993290Y-9974488D01*
X13088529Y-9974488D02*
X13088529Y-9841155D01*
X13088529Y-9860203D02*
X13098052Y-9850679D01*
X13098052Y-9850679D02*
X13117100Y-9841155D01*
X13117100Y-9841155D02*
X13145671Y-9841155D01*
X13145671Y-9841155D02*
X13164719Y-9850679D01*
X13164719Y-9850679D02*
X13174243Y-9869727D01*
X13174243Y-9869727D02*
X13174243Y-9974488D01*
X13174243Y-9869727D02*
X13183767Y-9850679D01*
X13183767Y-9850679D02*
X13202814Y-9841155D01*
X13202814Y-9841155D02*
X13231386Y-9841155D01*
X13231386Y-9841155D02*
X13250433Y-9850679D01*
X13250433Y-9850679D02*
X13259957Y-9869727D01*
X13259957Y-9869727D02*
X13259957Y-9974488D01*
X13650433Y-9764965D02*
X13479005Y-10022107D01*
X13907576Y-9774488D02*
X13926624Y-9774488D01*
X13926624Y-9774488D02*
X13945672Y-9784012D01*
X13945672Y-9784012D02*
X13955195Y-9793536D01*
X13955195Y-9793536D02*
X13964719Y-9812584D01*
X13964719Y-9812584D02*
X13974243Y-9850679D01*
X13974243Y-9850679D02*
X13974243Y-9898298D01*
X13974243Y-9898298D02*
X13964719Y-9936393D01*
X13964719Y-9936393D02*
X13955195Y-9955441D01*
X13955195Y-9955441D02*
X13945672Y-9964965D01*
X13945672Y-9964965D02*
X13926624Y-9974488D01*
X13926624Y-9974488D02*
X13907576Y-9974488D01*
X13907576Y-9974488D02*
X13888529Y-9964965D01*
X13888529Y-9964965D02*
X13879005Y-9955441D01*
X13879005Y-9955441D02*
X13869481Y-9936393D01*
X13869481Y-9936393D02*
X13859957Y-9898298D01*
X13859957Y-9898298D02*
X13859957Y-9850679D01*
X13859957Y-9850679D02*
X13869481Y-9812584D01*
X13869481Y-9812584D02*
X13879005Y-9793536D01*
X13879005Y-9793536D02*
X13888529Y-9784012D01*
X13888529Y-9784012D02*
X13907576Y-9774488D01*
X14059957Y-9955441D02*
X14069481Y-9964965D01*
X14069481Y-9964965D02*
X14059957Y-9974488D01*
X14059957Y-9974488D02*
X14050433Y-9964965D01*
X14050433Y-9964965D02*
X14059957Y-9955441D01*
X14059957Y-9955441D02*
X14059957Y-9974488D01*
X14193291Y-9774488D02*
X14212338Y-9774488D01*
X14212338Y-9774488D02*
X14231386Y-9784012D01*
X14231386Y-9784012D02*
X14240910Y-9793536D01*
X14240910Y-9793536D02*
X14250433Y-9812584D01*
X14250433Y-9812584D02*
X14259957Y-9850679D01*
X14259957Y-9850679D02*
X14259957Y-9898298D01*
X14259957Y-9898298D02*
X14250433Y-9936393D01*
X14250433Y-9936393D02*
X14240910Y-9955441D01*
X14240910Y-9955441D02*
X14231386Y-9964965D01*
X14231386Y-9964965D02*
X14212338Y-9974488D01*
X14212338Y-9974488D02*
X14193291Y-9974488D01*
X14193291Y-9974488D02*
X14174243Y-9964965D01*
X14174243Y-9964965D02*
X14164719Y-9955441D01*
X14164719Y-9955441D02*
X14155195Y-9936393D01*
X14155195Y-9936393D02*
X14145672Y-9898298D01*
X14145672Y-9898298D02*
X14145672Y-9850679D01*
X14145672Y-9850679D02*
X14155195Y-9812584D01*
X14155195Y-9812584D02*
X14164719Y-9793536D01*
X14164719Y-9793536D02*
X14174243Y-9784012D01*
X14174243Y-9784012D02*
X14193291Y-9774488D01*
X14450433Y-9974488D02*
X14336148Y-9974488D01*
X14393291Y-9974488D02*
X14393291Y-9774488D01*
X14393291Y-9774488D02*
X14374243Y-9803060D01*
X14374243Y-9803060D02*
X14355195Y-9822107D01*
X14355195Y-9822107D02*
X14336148Y-9831631D01*
X14631386Y-9774488D02*
X14536148Y-9774488D01*
X14536148Y-9774488D02*
X14526624Y-9869727D01*
X14526624Y-9869727D02*
X14536148Y-9860203D01*
X14536148Y-9860203D02*
X14555195Y-9850679D01*
X14555195Y-9850679D02*
X14602814Y-9850679D01*
X14602814Y-9850679D02*
X14621862Y-9860203D01*
X14621862Y-9860203D02*
X14631386Y-9869727D01*
X14631386Y-9869727D02*
X14640910Y-9888774D01*
X14640910Y-9888774D02*
X14640910Y-9936393D01*
X14640910Y-9936393D02*
X14631386Y-9955441D01*
X14631386Y-9955441D02*
X14621862Y-9964965D01*
X14621862Y-9964965D02*
X14602814Y-9974488D01*
X14602814Y-9974488D02*
X14555195Y-9974488D01*
X14555195Y-9974488D02*
X14536148Y-9964965D01*
X14536148Y-9964965D02*
X14526624Y-9955441D01*
X14707576Y-9774488D02*
X14840910Y-9774488D01*
X14840910Y-9774488D02*
X14755195Y-9974488D01*
X14907576Y-9774488D02*
X14907576Y-9812584D01*
X14983767Y-9774488D02*
X14983767Y-9812584D01*
X15279005Y-10050679D02*
X15269481Y-10041155D01*
X15269481Y-10041155D02*
X15250434Y-10012584D01*
X15250434Y-10012584D02*
X15240910Y-9993536D01*
X15240910Y-9993536D02*
X15231386Y-9964965D01*
X15231386Y-9964965D02*
X15221862Y-9917346D01*
X15221862Y-9917346D02*
X15221862Y-9879250D01*
X15221862Y-9879250D02*
X15231386Y-9831631D01*
X15231386Y-9831631D02*
X15240910Y-9803060D01*
X15240910Y-9803060D02*
X15250434Y-9784012D01*
X15250434Y-9784012D02*
X15269481Y-9755441D01*
X15269481Y-9755441D02*
X15279005Y-9745917D01*
X15383767Y-9860203D02*
X15364719Y-9850679D01*
X15364719Y-9850679D02*
X15355195Y-9841155D01*
X15355195Y-9841155D02*
X15345672Y-9822107D01*
X15345672Y-9822107D02*
X15345672Y-9812584D01*
X15345672Y-9812584D02*
X15355195Y-9793536D01*
X15355195Y-9793536D02*
X15364719Y-9784012D01*
X15364719Y-9784012D02*
X15383767Y-9774488D01*
X15383767Y-9774488D02*
X15421862Y-9774488D01*
X15421862Y-9774488D02*
X15440910Y-9784012D01*
X15440910Y-9784012D02*
X15450434Y-9793536D01*
X15450434Y-9793536D02*
X15459957Y-9812584D01*
X15459957Y-9812584D02*
X15459957Y-9822107D01*
X15459957Y-9822107D02*
X15450434Y-9841155D01*
X15450434Y-9841155D02*
X15440910Y-9850679D01*
X15440910Y-9850679D02*
X15421862Y-9860203D01*
X15421862Y-9860203D02*
X15383767Y-9860203D01*
X15383767Y-9860203D02*
X15364719Y-9869727D01*
X15364719Y-9869727D02*
X15355195Y-9879250D01*
X15355195Y-9879250D02*
X15345672Y-9898298D01*
X15345672Y-9898298D02*
X15345672Y-9936393D01*
X15345672Y-9936393D02*
X15355195Y-9955441D01*
X15355195Y-9955441D02*
X15364719Y-9964965D01*
X15364719Y-9964965D02*
X15383767Y-9974488D01*
X15383767Y-9974488D02*
X15421862Y-9974488D01*
X15421862Y-9974488D02*
X15440910Y-9964965D01*
X15440910Y-9964965D02*
X15450434Y-9955441D01*
X15450434Y-9955441D02*
X15459957Y-9936393D01*
X15459957Y-9936393D02*
X15459957Y-9898298D01*
X15459957Y-9898298D02*
X15450434Y-9879250D01*
X15450434Y-9879250D02*
X15440910Y-9869727D01*
X15440910Y-9869727D02*
X15421862Y-9860203D01*
X15698053Y-9974488D02*
X15698053Y-9774488D01*
X15783767Y-9974488D02*
X15783767Y-9869727D01*
X15783767Y-9869727D02*
X15774243Y-9850679D01*
X15774243Y-9850679D02*
X15755196Y-9841155D01*
X15755196Y-9841155D02*
X15726624Y-9841155D01*
X15726624Y-9841155D02*
X15707576Y-9850679D01*
X15707576Y-9850679D02*
X15698053Y-9860203D01*
X15907576Y-9974488D02*
X15888529Y-9964965D01*
X15888529Y-9964965D02*
X15879005Y-9955441D01*
X15879005Y-9955441D02*
X15869481Y-9936393D01*
X15869481Y-9936393D02*
X15869481Y-9879250D01*
X15869481Y-9879250D02*
X15879005Y-9860203D01*
X15879005Y-9860203D02*
X15888529Y-9850679D01*
X15888529Y-9850679D02*
X15907576Y-9841155D01*
X15907576Y-9841155D02*
X15936148Y-9841155D01*
X15936148Y-9841155D02*
X15955196Y-9850679D01*
X15955196Y-9850679D02*
X15964719Y-9860203D01*
X15964719Y-9860203D02*
X15974243Y-9879250D01*
X15974243Y-9879250D02*
X15974243Y-9936393D01*
X15974243Y-9936393D02*
X15964719Y-9955441D01*
X15964719Y-9955441D02*
X15955196Y-9964965D01*
X15955196Y-9964965D02*
X15936148Y-9974488D01*
X15936148Y-9974488D02*
X15907576Y-9974488D01*
X16088529Y-9974488D02*
X16069481Y-9964965D01*
X16069481Y-9964965D02*
X16059957Y-9945917D01*
X16059957Y-9945917D02*
X16059957Y-9774488D01*
X16240910Y-9964965D02*
X16221862Y-9974488D01*
X16221862Y-9974488D02*
X16183767Y-9974488D01*
X16183767Y-9974488D02*
X16164719Y-9964965D01*
X16164719Y-9964965D02*
X16155196Y-9945917D01*
X16155196Y-9945917D02*
X16155196Y-9869727D01*
X16155196Y-9869727D02*
X16164719Y-9850679D01*
X16164719Y-9850679D02*
X16183767Y-9841155D01*
X16183767Y-9841155D02*
X16221862Y-9841155D01*
X16221862Y-9841155D02*
X16240910Y-9850679D01*
X16240910Y-9850679D02*
X16250434Y-9869727D01*
X16250434Y-9869727D02*
X16250434Y-9888774D01*
X16250434Y-9888774D02*
X16155196Y-9907822D01*
X16326624Y-9964965D02*
X16345672Y-9974488D01*
X16345672Y-9974488D02*
X16383767Y-9974488D01*
X16383767Y-9974488D02*
X16402815Y-9964965D01*
X16402815Y-9964965D02*
X16412338Y-9945917D01*
X16412338Y-9945917D02*
X16412338Y-9936393D01*
X16412338Y-9936393D02*
X16402815Y-9917346D01*
X16402815Y-9917346D02*
X16383767Y-9907822D01*
X16383767Y-9907822D02*
X16355196Y-9907822D01*
X16355196Y-9907822D02*
X16336148Y-9898298D01*
X16336148Y-9898298D02*
X16326624Y-9879250D01*
X16326624Y-9879250D02*
X16326624Y-9869727D01*
X16326624Y-9869727D02*
X16336148Y-9850679D01*
X16336148Y-9850679D02*
X16355196Y-9841155D01*
X16355196Y-9841155D02*
X16383767Y-9841155D01*
X16383767Y-9841155D02*
X16402815Y-9850679D01*
X16479005Y-10050679D02*
X16488529Y-10041155D01*
X16488529Y-10041155D02*
X16507577Y-10012584D01*
X16507577Y-10012584D02*
X16517100Y-9993536D01*
X16517100Y-9993536D02*
X16526624Y-9964965D01*
X16526624Y-9964965D02*
X16536148Y-9917346D01*
X16536148Y-9917346D02*
X16536148Y-9879250D01*
X16536148Y-9879250D02*
X16526624Y-9831631D01*
X16526624Y-9831631D02*
X16517100Y-9803060D01*
X16517100Y-9803060D02*
X16507577Y-9784012D01*
X16507577Y-9784012D02*
X16488529Y-9755441D01*
X16488529Y-9755441D02*
X16479005Y-9745917D01*
D13*
X11717100Y-10145965D02*
G75*
G03*
X11717100Y-10145965I-40640J0D01*
G01*
D11*
X12002814Y-10038488D02*
X12021862Y-10038488D01*
X12021862Y-10038488D02*
X12040909Y-10048012D01*
X12040909Y-10048012D02*
X12050433Y-10057536D01*
X12050433Y-10057536D02*
X12059957Y-10076584D01*
X12059957Y-10076584D02*
X12069481Y-10114679D01*
X12069481Y-10114679D02*
X12069481Y-10162298D01*
X12069481Y-10162298D02*
X12059957Y-10200393D01*
X12059957Y-10200393D02*
X12050433Y-10219441D01*
X12050433Y-10219441D02*
X12040909Y-10228965D01*
X12040909Y-10228965D02*
X12021862Y-10238488D01*
X12021862Y-10238488D02*
X12002814Y-10238488D01*
X12002814Y-10238488D02*
X11983767Y-10228965D01*
X11983767Y-10228965D02*
X11974243Y-10219441D01*
X11974243Y-10219441D02*
X11964719Y-10200393D01*
X11964719Y-10200393D02*
X11955195Y-10162298D01*
X11955195Y-10162298D02*
X11955195Y-10114679D01*
X11955195Y-10114679D02*
X11964719Y-10076584D01*
X11964719Y-10076584D02*
X11974243Y-10057536D01*
X11974243Y-10057536D02*
X11983767Y-10048012D01*
X11983767Y-10048012D02*
X12002814Y-10038488D01*
X12155195Y-10219441D02*
X12164719Y-10228965D01*
X12164719Y-10228965D02*
X12155195Y-10238488D01*
X12155195Y-10238488D02*
X12145671Y-10228965D01*
X12145671Y-10228965D02*
X12155195Y-10219441D01*
X12155195Y-10219441D02*
X12155195Y-10238488D01*
X12279005Y-10124203D02*
X12259957Y-10114679D01*
X12259957Y-10114679D02*
X12250433Y-10105155D01*
X12250433Y-10105155D02*
X12240909Y-10086107D01*
X12240909Y-10086107D02*
X12240909Y-10076584D01*
X12240909Y-10076584D02*
X12250433Y-10057536D01*
X12250433Y-10057536D02*
X12259957Y-10048012D01*
X12259957Y-10048012D02*
X12279005Y-10038488D01*
X12279005Y-10038488D02*
X12317100Y-10038488D01*
X12317100Y-10038488D02*
X12336148Y-10048012D01*
X12336148Y-10048012D02*
X12345671Y-10057536D01*
X12345671Y-10057536D02*
X12355195Y-10076584D01*
X12355195Y-10076584D02*
X12355195Y-10086107D01*
X12355195Y-10086107D02*
X12345671Y-10105155D01*
X12345671Y-10105155D02*
X12336148Y-10114679D01*
X12336148Y-10114679D02*
X12317100Y-10124203D01*
X12317100Y-10124203D02*
X12279005Y-10124203D01*
X12279005Y-10124203D02*
X12259957Y-10133727D01*
X12259957Y-10133727D02*
X12250433Y-10143250D01*
X12250433Y-10143250D02*
X12240909Y-10162298D01*
X12240909Y-10162298D02*
X12240909Y-10200393D01*
X12240909Y-10200393D02*
X12250433Y-10219441D01*
X12250433Y-10219441D02*
X12259957Y-10228965D01*
X12259957Y-10228965D02*
X12279005Y-10238488D01*
X12279005Y-10238488D02*
X12317100Y-10238488D01*
X12317100Y-10238488D02*
X12336148Y-10228965D01*
X12336148Y-10228965D02*
X12345671Y-10219441D01*
X12345671Y-10219441D02*
X12355195Y-10200393D01*
X12355195Y-10200393D02*
X12355195Y-10162298D01*
X12355195Y-10162298D02*
X12345671Y-10143250D01*
X12345671Y-10143250D02*
X12336148Y-10133727D01*
X12336148Y-10133727D02*
X12317100Y-10124203D01*
X12545671Y-10238488D02*
X12431386Y-10238488D01*
X12488528Y-10238488D02*
X12488528Y-10038488D01*
X12488528Y-10038488D02*
X12469481Y-10067060D01*
X12469481Y-10067060D02*
X12450433Y-10086107D01*
X12450433Y-10086107D02*
X12431386Y-10095631D01*
X12612338Y-10038488D02*
X12736148Y-10038488D01*
X12736148Y-10038488D02*
X12669481Y-10114679D01*
X12669481Y-10114679D02*
X12698052Y-10114679D01*
X12698052Y-10114679D02*
X12717100Y-10124203D01*
X12717100Y-10124203D02*
X12726624Y-10133727D01*
X12726624Y-10133727D02*
X12736148Y-10152774D01*
X12736148Y-10152774D02*
X12736148Y-10200393D01*
X12736148Y-10200393D02*
X12726624Y-10219441D01*
X12726624Y-10219441D02*
X12717100Y-10228965D01*
X12717100Y-10228965D02*
X12698052Y-10238488D01*
X12698052Y-10238488D02*
X12640909Y-10238488D01*
X12640909Y-10238488D02*
X12621862Y-10228965D01*
X12621862Y-10228965D02*
X12612338Y-10219441D01*
X12821862Y-10238488D02*
X12821862Y-10105155D01*
X12821862Y-10124203D02*
X12831386Y-10114679D01*
X12831386Y-10114679D02*
X12850433Y-10105155D01*
X12850433Y-10105155D02*
X12879005Y-10105155D01*
X12879005Y-10105155D02*
X12898052Y-10114679D01*
X12898052Y-10114679D02*
X12907576Y-10133727D01*
X12907576Y-10133727D02*
X12907576Y-10238488D01*
X12907576Y-10133727D02*
X12917100Y-10114679D01*
X12917100Y-10114679D02*
X12936148Y-10105155D01*
X12936148Y-10105155D02*
X12964719Y-10105155D01*
X12964719Y-10105155D02*
X12983767Y-10114679D01*
X12983767Y-10114679D02*
X12993290Y-10133727D01*
X12993290Y-10133727D02*
X12993290Y-10238488D01*
X13088529Y-10238488D02*
X13088529Y-10105155D01*
X13088529Y-10124203D02*
X13098052Y-10114679D01*
X13098052Y-10114679D02*
X13117100Y-10105155D01*
X13117100Y-10105155D02*
X13145671Y-10105155D01*
X13145671Y-10105155D02*
X13164719Y-10114679D01*
X13164719Y-10114679D02*
X13174243Y-10133727D01*
X13174243Y-10133727D02*
X13174243Y-10238488D01*
X13174243Y-10133727D02*
X13183767Y-10114679D01*
X13183767Y-10114679D02*
X13202814Y-10105155D01*
X13202814Y-10105155D02*
X13231386Y-10105155D01*
X13231386Y-10105155D02*
X13250433Y-10114679D01*
X13250433Y-10114679D02*
X13259957Y-10133727D01*
X13259957Y-10133727D02*
X13259957Y-10238488D01*
X13650433Y-10028965D02*
X13479005Y-10286107D01*
X13907576Y-10038488D02*
X13926624Y-10038488D01*
X13926624Y-10038488D02*
X13945672Y-10048012D01*
X13945672Y-10048012D02*
X13955195Y-10057536D01*
X13955195Y-10057536D02*
X13964719Y-10076584D01*
X13964719Y-10076584D02*
X13974243Y-10114679D01*
X13974243Y-10114679D02*
X13974243Y-10162298D01*
X13974243Y-10162298D02*
X13964719Y-10200393D01*
X13964719Y-10200393D02*
X13955195Y-10219441D01*
X13955195Y-10219441D02*
X13945672Y-10228965D01*
X13945672Y-10228965D02*
X13926624Y-10238488D01*
X13926624Y-10238488D02*
X13907576Y-10238488D01*
X13907576Y-10238488D02*
X13888529Y-10228965D01*
X13888529Y-10228965D02*
X13879005Y-10219441D01*
X13879005Y-10219441D02*
X13869481Y-10200393D01*
X13869481Y-10200393D02*
X13859957Y-10162298D01*
X13859957Y-10162298D02*
X13859957Y-10114679D01*
X13859957Y-10114679D02*
X13869481Y-10076584D01*
X13869481Y-10076584D02*
X13879005Y-10057536D01*
X13879005Y-10057536D02*
X13888529Y-10048012D01*
X13888529Y-10048012D02*
X13907576Y-10038488D01*
X14059957Y-10219441D02*
X14069481Y-10228965D01*
X14069481Y-10228965D02*
X14059957Y-10238488D01*
X14059957Y-10238488D02*
X14050433Y-10228965D01*
X14050433Y-10228965D02*
X14059957Y-10219441D01*
X14059957Y-10219441D02*
X14059957Y-10238488D01*
X14193291Y-10038488D02*
X14212338Y-10038488D01*
X14212338Y-10038488D02*
X14231386Y-10048012D01*
X14231386Y-10048012D02*
X14240910Y-10057536D01*
X14240910Y-10057536D02*
X14250433Y-10076584D01*
X14250433Y-10076584D02*
X14259957Y-10114679D01*
X14259957Y-10114679D02*
X14259957Y-10162298D01*
X14259957Y-10162298D02*
X14250433Y-10200393D01*
X14250433Y-10200393D02*
X14240910Y-10219441D01*
X14240910Y-10219441D02*
X14231386Y-10228965D01*
X14231386Y-10228965D02*
X14212338Y-10238488D01*
X14212338Y-10238488D02*
X14193291Y-10238488D01*
X14193291Y-10238488D02*
X14174243Y-10228965D01*
X14174243Y-10228965D02*
X14164719Y-10219441D01*
X14164719Y-10219441D02*
X14155195Y-10200393D01*
X14155195Y-10200393D02*
X14145672Y-10162298D01*
X14145672Y-10162298D02*
X14145672Y-10114679D01*
X14145672Y-10114679D02*
X14155195Y-10076584D01*
X14155195Y-10076584D02*
X14164719Y-10057536D01*
X14164719Y-10057536D02*
X14174243Y-10048012D01*
X14174243Y-10048012D02*
X14193291Y-10038488D01*
X14326624Y-10038488D02*
X14450433Y-10038488D01*
X14450433Y-10038488D02*
X14383767Y-10114679D01*
X14383767Y-10114679D02*
X14412338Y-10114679D01*
X14412338Y-10114679D02*
X14431386Y-10124203D01*
X14431386Y-10124203D02*
X14440910Y-10133727D01*
X14440910Y-10133727D02*
X14450433Y-10152774D01*
X14450433Y-10152774D02*
X14450433Y-10200393D01*
X14450433Y-10200393D02*
X14440910Y-10219441D01*
X14440910Y-10219441D02*
X14431386Y-10228965D01*
X14431386Y-10228965D02*
X14412338Y-10238488D01*
X14412338Y-10238488D02*
X14355195Y-10238488D01*
X14355195Y-10238488D02*
X14336148Y-10228965D01*
X14336148Y-10228965D02*
X14326624Y-10219441D01*
X14526624Y-10057536D02*
X14536148Y-10048012D01*
X14536148Y-10048012D02*
X14555195Y-10038488D01*
X14555195Y-10038488D02*
X14602814Y-10038488D01*
X14602814Y-10038488D02*
X14621862Y-10048012D01*
X14621862Y-10048012D02*
X14631386Y-10057536D01*
X14631386Y-10057536D02*
X14640910Y-10076584D01*
X14640910Y-10076584D02*
X14640910Y-10095631D01*
X14640910Y-10095631D02*
X14631386Y-10124203D01*
X14631386Y-10124203D02*
X14517100Y-10238488D01*
X14517100Y-10238488D02*
X14640910Y-10238488D01*
X14764719Y-10038488D02*
X14783767Y-10038488D01*
X14783767Y-10038488D02*
X14802814Y-10048012D01*
X14802814Y-10048012D02*
X14812338Y-10057536D01*
X14812338Y-10057536D02*
X14821862Y-10076584D01*
X14821862Y-10076584D02*
X14831386Y-10114679D01*
X14831386Y-10114679D02*
X14831386Y-10162298D01*
X14831386Y-10162298D02*
X14821862Y-10200393D01*
X14821862Y-10200393D02*
X14812338Y-10219441D01*
X14812338Y-10219441D02*
X14802814Y-10228965D01*
X14802814Y-10228965D02*
X14783767Y-10238488D01*
X14783767Y-10238488D02*
X14764719Y-10238488D01*
X14764719Y-10238488D02*
X14745672Y-10228965D01*
X14745672Y-10228965D02*
X14736148Y-10219441D01*
X14736148Y-10219441D02*
X14726624Y-10200393D01*
X14726624Y-10200393D02*
X14717100Y-10162298D01*
X14717100Y-10162298D02*
X14717100Y-10114679D01*
X14717100Y-10114679D02*
X14726624Y-10076584D01*
X14726624Y-10076584D02*
X14736148Y-10057536D01*
X14736148Y-10057536D02*
X14745672Y-10048012D01*
X14745672Y-10048012D02*
X14764719Y-10038488D01*
X14907576Y-10038488D02*
X14907576Y-10076584D01*
X14983767Y-10038488D02*
X14983767Y-10076584D01*
X15279005Y-10314679D02*
X15269481Y-10305155D01*
X15269481Y-10305155D02*
X15250434Y-10276584D01*
X15250434Y-10276584D02*
X15240910Y-10257536D01*
X15240910Y-10257536D02*
X15231386Y-10228965D01*
X15231386Y-10228965D02*
X15221862Y-10181346D01*
X15221862Y-10181346D02*
X15221862Y-10143250D01*
X15221862Y-10143250D02*
X15231386Y-10095631D01*
X15231386Y-10095631D02*
X15240910Y-10067060D01*
X15240910Y-10067060D02*
X15250434Y-10048012D01*
X15250434Y-10048012D02*
X15269481Y-10019441D01*
X15269481Y-10019441D02*
X15279005Y-10009917D01*
X15336148Y-10038488D02*
X15459957Y-10038488D01*
X15459957Y-10038488D02*
X15393291Y-10114679D01*
X15393291Y-10114679D02*
X15421862Y-10114679D01*
X15421862Y-10114679D02*
X15440910Y-10124203D01*
X15440910Y-10124203D02*
X15450434Y-10133727D01*
X15450434Y-10133727D02*
X15459957Y-10152774D01*
X15459957Y-10152774D02*
X15459957Y-10200393D01*
X15459957Y-10200393D02*
X15450434Y-10219441D01*
X15450434Y-10219441D02*
X15440910Y-10228965D01*
X15440910Y-10228965D02*
X15421862Y-10238488D01*
X15421862Y-10238488D02*
X15364719Y-10238488D01*
X15364719Y-10238488D02*
X15345672Y-10228965D01*
X15345672Y-10228965D02*
X15336148Y-10219441D01*
X15698053Y-10238488D02*
X15698053Y-10038488D01*
X15783767Y-10238488D02*
X15783767Y-10133727D01*
X15783767Y-10133727D02*
X15774243Y-10114679D01*
X15774243Y-10114679D02*
X15755196Y-10105155D01*
X15755196Y-10105155D02*
X15726624Y-10105155D01*
X15726624Y-10105155D02*
X15707576Y-10114679D01*
X15707576Y-10114679D02*
X15698053Y-10124203D01*
X15907576Y-10238488D02*
X15888529Y-10228965D01*
X15888529Y-10228965D02*
X15879005Y-10219441D01*
X15879005Y-10219441D02*
X15869481Y-10200393D01*
X15869481Y-10200393D02*
X15869481Y-10143250D01*
X15869481Y-10143250D02*
X15879005Y-10124203D01*
X15879005Y-10124203D02*
X15888529Y-10114679D01*
X15888529Y-10114679D02*
X15907576Y-10105155D01*
X15907576Y-10105155D02*
X15936148Y-10105155D01*
X15936148Y-10105155D02*
X15955196Y-10114679D01*
X15955196Y-10114679D02*
X15964719Y-10124203D01*
X15964719Y-10124203D02*
X15974243Y-10143250D01*
X15974243Y-10143250D02*
X15974243Y-10200393D01*
X15974243Y-10200393D02*
X15964719Y-10219441D01*
X15964719Y-10219441D02*
X15955196Y-10228965D01*
X15955196Y-10228965D02*
X15936148Y-10238488D01*
X15936148Y-10238488D02*
X15907576Y-10238488D01*
X16088529Y-10238488D02*
X16069481Y-10228965D01*
X16069481Y-10228965D02*
X16059957Y-10209917D01*
X16059957Y-10209917D02*
X16059957Y-10038488D01*
X16240910Y-10228965D02*
X16221862Y-10238488D01*
X16221862Y-10238488D02*
X16183767Y-10238488D01*
X16183767Y-10238488D02*
X16164719Y-10228965D01*
X16164719Y-10228965D02*
X16155196Y-10209917D01*
X16155196Y-10209917D02*
X16155196Y-10133727D01*
X16155196Y-10133727D02*
X16164719Y-10114679D01*
X16164719Y-10114679D02*
X16183767Y-10105155D01*
X16183767Y-10105155D02*
X16221862Y-10105155D01*
X16221862Y-10105155D02*
X16240910Y-10114679D01*
X16240910Y-10114679D02*
X16250434Y-10133727D01*
X16250434Y-10133727D02*
X16250434Y-10152774D01*
X16250434Y-10152774D02*
X16155196Y-10171822D01*
X16326624Y-10228965D02*
X16345672Y-10238488D01*
X16345672Y-10238488D02*
X16383767Y-10238488D01*
X16383767Y-10238488D02*
X16402815Y-10228965D01*
X16402815Y-10228965D02*
X16412338Y-10209917D01*
X16412338Y-10209917D02*
X16412338Y-10200393D01*
X16412338Y-10200393D02*
X16402815Y-10181346D01*
X16402815Y-10181346D02*
X16383767Y-10171822D01*
X16383767Y-10171822D02*
X16355196Y-10171822D01*
X16355196Y-10171822D02*
X16336148Y-10162298D01*
X16336148Y-10162298D02*
X16326624Y-10143250D01*
X16326624Y-10143250D02*
X16326624Y-10133727D01*
X16326624Y-10133727D02*
X16336148Y-10114679D01*
X16336148Y-10114679D02*
X16355196Y-10105155D01*
X16355196Y-10105155D02*
X16383767Y-10105155D01*
X16383767Y-10105155D02*
X16402815Y-10114679D01*
X16479005Y-10314679D02*
X16488529Y-10305155D01*
X16488529Y-10305155D02*
X16507577Y-10276584D01*
X16507577Y-10276584D02*
X16517100Y-10257536D01*
X16517100Y-10257536D02*
X16526624Y-10228965D01*
X16526624Y-10228965D02*
X16536148Y-10181346D01*
X16536148Y-10181346D02*
X16536148Y-10143250D01*
X16536148Y-10143250D02*
X16526624Y-10095631D01*
X16526624Y-10095631D02*
X16517100Y-10067060D01*
X16517100Y-10067060D02*
X16507577Y-10048012D01*
X16507577Y-10048012D02*
X16488529Y-10019441D01*
X16488529Y-10019441D02*
X16479005Y-10009917D01*
D10*
X11667100Y-10359965D02*
X11667100Y-10459965D01*
X11617100Y-10409965D02*
X11717100Y-10409965D01*
D11*
X12069481Y-10502488D02*
X11955195Y-10502488D01*
X12012338Y-10502488D02*
X12012338Y-10302488D01*
X12012338Y-10302488D02*
X11993290Y-10331060D01*
X11993290Y-10331060D02*
X11974243Y-10350107D01*
X11974243Y-10350107D02*
X11955195Y-10359631D01*
X12155195Y-10483441D02*
X12164719Y-10492965D01*
X12164719Y-10492965D02*
X12155195Y-10502488D01*
X12155195Y-10502488D02*
X12145671Y-10492965D01*
X12145671Y-10492965D02*
X12155195Y-10483441D01*
X12155195Y-10483441D02*
X12155195Y-10502488D01*
X12288528Y-10302488D02*
X12307576Y-10302488D01*
X12307576Y-10302488D02*
X12326624Y-10312012D01*
X12326624Y-10312012D02*
X12336148Y-10321536D01*
X12336148Y-10321536D02*
X12345671Y-10340584D01*
X12345671Y-10340584D02*
X12355195Y-10378679D01*
X12355195Y-10378679D02*
X12355195Y-10426298D01*
X12355195Y-10426298D02*
X12345671Y-10464393D01*
X12345671Y-10464393D02*
X12336148Y-10483441D01*
X12336148Y-10483441D02*
X12326624Y-10492965D01*
X12326624Y-10492965D02*
X12307576Y-10502488D01*
X12307576Y-10502488D02*
X12288528Y-10502488D01*
X12288528Y-10502488D02*
X12269481Y-10492965D01*
X12269481Y-10492965D02*
X12259957Y-10483441D01*
X12259957Y-10483441D02*
X12250433Y-10464393D01*
X12250433Y-10464393D02*
X12240909Y-10426298D01*
X12240909Y-10426298D02*
X12240909Y-10378679D01*
X12240909Y-10378679D02*
X12250433Y-10340584D01*
X12250433Y-10340584D02*
X12259957Y-10321536D01*
X12259957Y-10321536D02*
X12269481Y-10312012D01*
X12269481Y-10312012D02*
X12288528Y-10302488D01*
X12479005Y-10302488D02*
X12498052Y-10302488D01*
X12498052Y-10302488D02*
X12517100Y-10312012D01*
X12517100Y-10312012D02*
X12526624Y-10321536D01*
X12526624Y-10321536D02*
X12536148Y-10340584D01*
X12536148Y-10340584D02*
X12545671Y-10378679D01*
X12545671Y-10378679D02*
X12545671Y-10426298D01*
X12545671Y-10426298D02*
X12536148Y-10464393D01*
X12536148Y-10464393D02*
X12526624Y-10483441D01*
X12526624Y-10483441D02*
X12517100Y-10492965D01*
X12517100Y-10492965D02*
X12498052Y-10502488D01*
X12498052Y-10502488D02*
X12479005Y-10502488D01*
X12479005Y-10502488D02*
X12459957Y-10492965D01*
X12459957Y-10492965D02*
X12450433Y-10483441D01*
X12450433Y-10483441D02*
X12440909Y-10464393D01*
X12440909Y-10464393D02*
X12431386Y-10426298D01*
X12431386Y-10426298D02*
X12431386Y-10378679D01*
X12431386Y-10378679D02*
X12440909Y-10340584D01*
X12440909Y-10340584D02*
X12450433Y-10321536D01*
X12450433Y-10321536D02*
X12459957Y-10312012D01*
X12459957Y-10312012D02*
X12479005Y-10302488D01*
X12669481Y-10302488D02*
X12688529Y-10302488D01*
X12688529Y-10302488D02*
X12707576Y-10312012D01*
X12707576Y-10312012D02*
X12717100Y-10321536D01*
X12717100Y-10321536D02*
X12726624Y-10340584D01*
X12726624Y-10340584D02*
X12736148Y-10378679D01*
X12736148Y-10378679D02*
X12736148Y-10426298D01*
X12736148Y-10426298D02*
X12726624Y-10464393D01*
X12726624Y-10464393D02*
X12717100Y-10483441D01*
X12717100Y-10483441D02*
X12707576Y-10492965D01*
X12707576Y-10492965D02*
X12688529Y-10502488D01*
X12688529Y-10502488D02*
X12669481Y-10502488D01*
X12669481Y-10502488D02*
X12650433Y-10492965D01*
X12650433Y-10492965D02*
X12640909Y-10483441D01*
X12640909Y-10483441D02*
X12631386Y-10464393D01*
X12631386Y-10464393D02*
X12621862Y-10426298D01*
X12621862Y-10426298D02*
X12621862Y-10378679D01*
X12621862Y-10378679D02*
X12631386Y-10340584D01*
X12631386Y-10340584D02*
X12640909Y-10321536D01*
X12640909Y-10321536D02*
X12650433Y-10312012D01*
X12650433Y-10312012D02*
X12669481Y-10302488D01*
X12821862Y-10502488D02*
X12821862Y-10369155D01*
X12821862Y-10388203D02*
X12831386Y-10378679D01*
X12831386Y-10378679D02*
X12850433Y-10369155D01*
X12850433Y-10369155D02*
X12879005Y-10369155D01*
X12879005Y-10369155D02*
X12898052Y-10378679D01*
X12898052Y-10378679D02*
X12907576Y-10397727D01*
X12907576Y-10397727D02*
X12907576Y-10502488D01*
X12907576Y-10397727D02*
X12917100Y-10378679D01*
X12917100Y-10378679D02*
X12936148Y-10369155D01*
X12936148Y-10369155D02*
X12964719Y-10369155D01*
X12964719Y-10369155D02*
X12983767Y-10378679D01*
X12983767Y-10378679D02*
X12993290Y-10397727D01*
X12993290Y-10397727D02*
X12993290Y-10502488D01*
X13088529Y-10502488D02*
X13088529Y-10369155D01*
X13088529Y-10388203D02*
X13098052Y-10378679D01*
X13098052Y-10378679D02*
X13117100Y-10369155D01*
X13117100Y-10369155D02*
X13145671Y-10369155D01*
X13145671Y-10369155D02*
X13164719Y-10378679D01*
X13164719Y-10378679D02*
X13174243Y-10397727D01*
X13174243Y-10397727D02*
X13174243Y-10502488D01*
X13174243Y-10397727D02*
X13183767Y-10378679D01*
X13183767Y-10378679D02*
X13202814Y-10369155D01*
X13202814Y-10369155D02*
X13231386Y-10369155D01*
X13231386Y-10369155D02*
X13250433Y-10378679D01*
X13250433Y-10378679D02*
X13259957Y-10397727D01*
X13259957Y-10397727D02*
X13259957Y-10502488D01*
X13650433Y-10292965D02*
X13479005Y-10550107D01*
X13907576Y-10302488D02*
X13926624Y-10302488D01*
X13926624Y-10302488D02*
X13945672Y-10312012D01*
X13945672Y-10312012D02*
X13955195Y-10321536D01*
X13955195Y-10321536D02*
X13964719Y-10340584D01*
X13964719Y-10340584D02*
X13974243Y-10378679D01*
X13974243Y-10378679D02*
X13974243Y-10426298D01*
X13974243Y-10426298D02*
X13964719Y-10464393D01*
X13964719Y-10464393D02*
X13955195Y-10483441D01*
X13955195Y-10483441D02*
X13945672Y-10492965D01*
X13945672Y-10492965D02*
X13926624Y-10502488D01*
X13926624Y-10502488D02*
X13907576Y-10502488D01*
X13907576Y-10502488D02*
X13888529Y-10492965D01*
X13888529Y-10492965D02*
X13879005Y-10483441D01*
X13879005Y-10483441D02*
X13869481Y-10464393D01*
X13869481Y-10464393D02*
X13859957Y-10426298D01*
X13859957Y-10426298D02*
X13859957Y-10378679D01*
X13859957Y-10378679D02*
X13869481Y-10340584D01*
X13869481Y-10340584D02*
X13879005Y-10321536D01*
X13879005Y-10321536D02*
X13888529Y-10312012D01*
X13888529Y-10312012D02*
X13907576Y-10302488D01*
X14059957Y-10483441D02*
X14069481Y-10492965D01*
X14069481Y-10492965D02*
X14059957Y-10502488D01*
X14059957Y-10502488D02*
X14050433Y-10492965D01*
X14050433Y-10492965D02*
X14059957Y-10483441D01*
X14059957Y-10483441D02*
X14059957Y-10502488D01*
X14193291Y-10302488D02*
X14212338Y-10302488D01*
X14212338Y-10302488D02*
X14231386Y-10312012D01*
X14231386Y-10312012D02*
X14240910Y-10321536D01*
X14240910Y-10321536D02*
X14250433Y-10340584D01*
X14250433Y-10340584D02*
X14259957Y-10378679D01*
X14259957Y-10378679D02*
X14259957Y-10426298D01*
X14259957Y-10426298D02*
X14250433Y-10464393D01*
X14250433Y-10464393D02*
X14240910Y-10483441D01*
X14240910Y-10483441D02*
X14231386Y-10492965D01*
X14231386Y-10492965D02*
X14212338Y-10502488D01*
X14212338Y-10502488D02*
X14193291Y-10502488D01*
X14193291Y-10502488D02*
X14174243Y-10492965D01*
X14174243Y-10492965D02*
X14164719Y-10483441D01*
X14164719Y-10483441D02*
X14155195Y-10464393D01*
X14155195Y-10464393D02*
X14145672Y-10426298D01*
X14145672Y-10426298D02*
X14145672Y-10378679D01*
X14145672Y-10378679D02*
X14155195Y-10340584D01*
X14155195Y-10340584D02*
X14164719Y-10321536D01*
X14164719Y-10321536D02*
X14174243Y-10312012D01*
X14174243Y-10312012D02*
X14193291Y-10302488D01*
X14326624Y-10302488D02*
X14450433Y-10302488D01*
X14450433Y-10302488D02*
X14383767Y-10378679D01*
X14383767Y-10378679D02*
X14412338Y-10378679D01*
X14412338Y-10378679D02*
X14431386Y-10388203D01*
X14431386Y-10388203D02*
X14440910Y-10397727D01*
X14440910Y-10397727D02*
X14450433Y-10416774D01*
X14450433Y-10416774D02*
X14450433Y-10464393D01*
X14450433Y-10464393D02*
X14440910Y-10483441D01*
X14440910Y-10483441D02*
X14431386Y-10492965D01*
X14431386Y-10492965D02*
X14412338Y-10502488D01*
X14412338Y-10502488D02*
X14355195Y-10502488D01*
X14355195Y-10502488D02*
X14336148Y-10492965D01*
X14336148Y-10492965D02*
X14326624Y-10483441D01*
X14545672Y-10502488D02*
X14583767Y-10502488D01*
X14583767Y-10502488D02*
X14602814Y-10492965D01*
X14602814Y-10492965D02*
X14612338Y-10483441D01*
X14612338Y-10483441D02*
X14631386Y-10454869D01*
X14631386Y-10454869D02*
X14640910Y-10416774D01*
X14640910Y-10416774D02*
X14640910Y-10340584D01*
X14640910Y-10340584D02*
X14631386Y-10321536D01*
X14631386Y-10321536D02*
X14621862Y-10312012D01*
X14621862Y-10312012D02*
X14602814Y-10302488D01*
X14602814Y-10302488D02*
X14564719Y-10302488D01*
X14564719Y-10302488D02*
X14545672Y-10312012D01*
X14545672Y-10312012D02*
X14536148Y-10321536D01*
X14536148Y-10321536D02*
X14526624Y-10340584D01*
X14526624Y-10340584D02*
X14526624Y-10388203D01*
X14526624Y-10388203D02*
X14536148Y-10407250D01*
X14536148Y-10407250D02*
X14545672Y-10416774D01*
X14545672Y-10416774D02*
X14564719Y-10426298D01*
X14564719Y-10426298D02*
X14602814Y-10426298D01*
X14602814Y-10426298D02*
X14621862Y-10416774D01*
X14621862Y-10416774D02*
X14631386Y-10407250D01*
X14631386Y-10407250D02*
X14640910Y-10388203D01*
X14812338Y-10369155D02*
X14812338Y-10502488D01*
X14764719Y-10292965D02*
X14717100Y-10435822D01*
X14717100Y-10435822D02*
X14840910Y-10435822D01*
X14907576Y-10302488D02*
X14907576Y-10340584D01*
X14983767Y-10302488D02*
X14983767Y-10340584D01*
X15279005Y-10578679D02*
X15269481Y-10569155D01*
X15269481Y-10569155D02*
X15250434Y-10540584D01*
X15250434Y-10540584D02*
X15240910Y-10521536D01*
X15240910Y-10521536D02*
X15231386Y-10492965D01*
X15231386Y-10492965D02*
X15221862Y-10445346D01*
X15221862Y-10445346D02*
X15221862Y-10407250D01*
X15221862Y-10407250D02*
X15231386Y-10359631D01*
X15231386Y-10359631D02*
X15240910Y-10331060D01*
X15240910Y-10331060D02*
X15250434Y-10312012D01*
X15250434Y-10312012D02*
X15269481Y-10283441D01*
X15269481Y-10283441D02*
X15279005Y-10273917D01*
X15440910Y-10302488D02*
X15402814Y-10302488D01*
X15402814Y-10302488D02*
X15383767Y-10312012D01*
X15383767Y-10312012D02*
X15374243Y-10321536D01*
X15374243Y-10321536D02*
X15355195Y-10350107D01*
X15355195Y-10350107D02*
X15345672Y-10388203D01*
X15345672Y-10388203D02*
X15345672Y-10464393D01*
X15345672Y-10464393D02*
X15355195Y-10483441D01*
X15355195Y-10483441D02*
X15364719Y-10492965D01*
X15364719Y-10492965D02*
X15383767Y-10502488D01*
X15383767Y-10502488D02*
X15421862Y-10502488D01*
X15421862Y-10502488D02*
X15440910Y-10492965D01*
X15440910Y-10492965D02*
X15450434Y-10483441D01*
X15450434Y-10483441D02*
X15459957Y-10464393D01*
X15459957Y-10464393D02*
X15459957Y-10416774D01*
X15459957Y-10416774D02*
X15450434Y-10397727D01*
X15450434Y-10397727D02*
X15440910Y-10388203D01*
X15440910Y-10388203D02*
X15421862Y-10378679D01*
X15421862Y-10378679D02*
X15383767Y-10378679D01*
X15383767Y-10378679D02*
X15364719Y-10388203D01*
X15364719Y-10388203D02*
X15355195Y-10397727D01*
X15355195Y-10397727D02*
X15345672Y-10416774D01*
X15698053Y-10502488D02*
X15698053Y-10302488D01*
X15783767Y-10502488D02*
X15783767Y-10397727D01*
X15783767Y-10397727D02*
X15774243Y-10378679D01*
X15774243Y-10378679D02*
X15755196Y-10369155D01*
X15755196Y-10369155D02*
X15726624Y-10369155D01*
X15726624Y-10369155D02*
X15707576Y-10378679D01*
X15707576Y-10378679D02*
X15698053Y-10388203D01*
X15907576Y-10502488D02*
X15888529Y-10492965D01*
X15888529Y-10492965D02*
X15879005Y-10483441D01*
X15879005Y-10483441D02*
X15869481Y-10464393D01*
X15869481Y-10464393D02*
X15869481Y-10407250D01*
X15869481Y-10407250D02*
X15879005Y-10388203D01*
X15879005Y-10388203D02*
X15888529Y-10378679D01*
X15888529Y-10378679D02*
X15907576Y-10369155D01*
X15907576Y-10369155D02*
X15936148Y-10369155D01*
X15936148Y-10369155D02*
X15955196Y-10378679D01*
X15955196Y-10378679D02*
X15964719Y-10388203D01*
X15964719Y-10388203D02*
X15974243Y-10407250D01*
X15974243Y-10407250D02*
X15974243Y-10464393D01*
X15974243Y-10464393D02*
X15964719Y-10483441D01*
X15964719Y-10483441D02*
X15955196Y-10492965D01*
X15955196Y-10492965D02*
X15936148Y-10502488D01*
X15936148Y-10502488D02*
X15907576Y-10502488D01*
X16088529Y-10502488D02*
X16069481Y-10492965D01*
X16069481Y-10492965D02*
X16059957Y-10473917D01*
X16059957Y-10473917D02*
X16059957Y-10302488D01*
X16240910Y-10492965D02*
X16221862Y-10502488D01*
X16221862Y-10502488D02*
X16183767Y-10502488D01*
X16183767Y-10502488D02*
X16164719Y-10492965D01*
X16164719Y-10492965D02*
X16155196Y-10473917D01*
X16155196Y-10473917D02*
X16155196Y-10397727D01*
X16155196Y-10397727D02*
X16164719Y-10378679D01*
X16164719Y-10378679D02*
X16183767Y-10369155D01*
X16183767Y-10369155D02*
X16221862Y-10369155D01*
X16221862Y-10369155D02*
X16240910Y-10378679D01*
X16240910Y-10378679D02*
X16250434Y-10397727D01*
X16250434Y-10397727D02*
X16250434Y-10416774D01*
X16250434Y-10416774D02*
X16155196Y-10435822D01*
X16326624Y-10492965D02*
X16345672Y-10502488D01*
X16345672Y-10502488D02*
X16383767Y-10502488D01*
X16383767Y-10502488D02*
X16402815Y-10492965D01*
X16402815Y-10492965D02*
X16412338Y-10473917D01*
X16412338Y-10473917D02*
X16412338Y-10464393D01*
X16412338Y-10464393D02*
X16402815Y-10445346D01*
X16402815Y-10445346D02*
X16383767Y-10435822D01*
X16383767Y-10435822D02*
X16355196Y-10435822D01*
X16355196Y-10435822D02*
X16336148Y-10426298D01*
X16336148Y-10426298D02*
X16326624Y-10407250D01*
X16326624Y-10407250D02*
X16326624Y-10397727D01*
X16326624Y-10397727D02*
X16336148Y-10378679D01*
X16336148Y-10378679D02*
X16355196Y-10369155D01*
X16355196Y-10369155D02*
X16383767Y-10369155D01*
X16383767Y-10369155D02*
X16402815Y-10378679D01*
X16479005Y-10578679D02*
X16488529Y-10569155D01*
X16488529Y-10569155D02*
X16507577Y-10540584D01*
X16507577Y-10540584D02*
X16517100Y-10521536D01*
X16517100Y-10521536D02*
X16526624Y-10492965D01*
X16526624Y-10492965D02*
X16536148Y-10445346D01*
X16536148Y-10445346D02*
X16536148Y-10407250D01*
X16536148Y-10407250D02*
X16526624Y-10359631D01*
X16526624Y-10359631D02*
X16517100Y-10331060D01*
X16517100Y-10331060D02*
X16507577Y-10312012D01*
X16507577Y-10312012D02*
X16488529Y-10283441D01*
X16488529Y-10283441D02*
X16479005Y-10273917D01*
D14*
X11692937Y-10732302D02*
X11692937Y-10615628D01*
X11576263Y-10615628D01*
X11576263Y-10732302D01*
X11692937Y-10732302D01*
D11*
X12069481Y-10766488D02*
X11955195Y-10766488D01*
X12012338Y-10766488D02*
X12012338Y-10566488D01*
X12012338Y-10566488D02*
X11993290Y-10595060D01*
X11993290Y-10595060D02*
X11974243Y-10614107D01*
X11974243Y-10614107D02*
X11955195Y-10623631D01*
X12155195Y-10747441D02*
X12164719Y-10756965D01*
X12164719Y-10756965D02*
X12155195Y-10766488D01*
X12155195Y-10766488D02*
X12145671Y-10756965D01*
X12145671Y-10756965D02*
X12155195Y-10747441D01*
X12155195Y-10747441D02*
X12155195Y-10766488D01*
X12336148Y-10566488D02*
X12298052Y-10566488D01*
X12298052Y-10566488D02*
X12279005Y-10576012D01*
X12279005Y-10576012D02*
X12269481Y-10585536D01*
X12269481Y-10585536D02*
X12250433Y-10614107D01*
X12250433Y-10614107D02*
X12240909Y-10652203D01*
X12240909Y-10652203D02*
X12240909Y-10728393D01*
X12240909Y-10728393D02*
X12250433Y-10747441D01*
X12250433Y-10747441D02*
X12259957Y-10756965D01*
X12259957Y-10756965D02*
X12279005Y-10766488D01*
X12279005Y-10766488D02*
X12317100Y-10766488D01*
X12317100Y-10766488D02*
X12336148Y-10756965D01*
X12336148Y-10756965D02*
X12345671Y-10747441D01*
X12345671Y-10747441D02*
X12355195Y-10728393D01*
X12355195Y-10728393D02*
X12355195Y-10680774D01*
X12355195Y-10680774D02*
X12345671Y-10661727D01*
X12345671Y-10661727D02*
X12336148Y-10652203D01*
X12336148Y-10652203D02*
X12317100Y-10642679D01*
X12317100Y-10642679D02*
X12279005Y-10642679D01*
X12279005Y-10642679D02*
X12259957Y-10652203D01*
X12259957Y-10652203D02*
X12250433Y-10661727D01*
X12250433Y-10661727D02*
X12240909Y-10680774D01*
X12536148Y-10566488D02*
X12440909Y-10566488D01*
X12440909Y-10566488D02*
X12431386Y-10661727D01*
X12431386Y-10661727D02*
X12440909Y-10652203D01*
X12440909Y-10652203D02*
X12459957Y-10642679D01*
X12459957Y-10642679D02*
X12507576Y-10642679D01*
X12507576Y-10642679D02*
X12526624Y-10652203D01*
X12526624Y-10652203D02*
X12536148Y-10661727D01*
X12536148Y-10661727D02*
X12545671Y-10680774D01*
X12545671Y-10680774D02*
X12545671Y-10728393D01*
X12545671Y-10728393D02*
X12536148Y-10747441D01*
X12536148Y-10747441D02*
X12526624Y-10756965D01*
X12526624Y-10756965D02*
X12507576Y-10766488D01*
X12507576Y-10766488D02*
X12459957Y-10766488D01*
X12459957Y-10766488D02*
X12440909Y-10756965D01*
X12440909Y-10756965D02*
X12431386Y-10747441D01*
X12669481Y-10566488D02*
X12688529Y-10566488D01*
X12688529Y-10566488D02*
X12707576Y-10576012D01*
X12707576Y-10576012D02*
X12717100Y-10585536D01*
X12717100Y-10585536D02*
X12726624Y-10604584D01*
X12726624Y-10604584D02*
X12736148Y-10642679D01*
X12736148Y-10642679D02*
X12736148Y-10690298D01*
X12736148Y-10690298D02*
X12726624Y-10728393D01*
X12726624Y-10728393D02*
X12717100Y-10747441D01*
X12717100Y-10747441D02*
X12707576Y-10756965D01*
X12707576Y-10756965D02*
X12688529Y-10766488D01*
X12688529Y-10766488D02*
X12669481Y-10766488D01*
X12669481Y-10766488D02*
X12650433Y-10756965D01*
X12650433Y-10756965D02*
X12640909Y-10747441D01*
X12640909Y-10747441D02*
X12631386Y-10728393D01*
X12631386Y-10728393D02*
X12621862Y-10690298D01*
X12621862Y-10690298D02*
X12621862Y-10642679D01*
X12621862Y-10642679D02*
X12631386Y-10604584D01*
X12631386Y-10604584D02*
X12640909Y-10585536D01*
X12640909Y-10585536D02*
X12650433Y-10576012D01*
X12650433Y-10576012D02*
X12669481Y-10566488D01*
X12821862Y-10766488D02*
X12821862Y-10633155D01*
X12821862Y-10652203D02*
X12831386Y-10642679D01*
X12831386Y-10642679D02*
X12850433Y-10633155D01*
X12850433Y-10633155D02*
X12879005Y-10633155D01*
X12879005Y-10633155D02*
X12898052Y-10642679D01*
X12898052Y-10642679D02*
X12907576Y-10661727D01*
X12907576Y-10661727D02*
X12907576Y-10766488D01*
X12907576Y-10661727D02*
X12917100Y-10642679D01*
X12917100Y-10642679D02*
X12936148Y-10633155D01*
X12936148Y-10633155D02*
X12964719Y-10633155D01*
X12964719Y-10633155D02*
X12983767Y-10642679D01*
X12983767Y-10642679D02*
X12993290Y-10661727D01*
X12993290Y-10661727D02*
X12993290Y-10766488D01*
X13088529Y-10766488D02*
X13088529Y-10633155D01*
X13088529Y-10652203D02*
X13098052Y-10642679D01*
X13098052Y-10642679D02*
X13117100Y-10633155D01*
X13117100Y-10633155D02*
X13145671Y-10633155D01*
X13145671Y-10633155D02*
X13164719Y-10642679D01*
X13164719Y-10642679D02*
X13174243Y-10661727D01*
X13174243Y-10661727D02*
X13174243Y-10766488D01*
X13174243Y-10661727D02*
X13183767Y-10642679D01*
X13183767Y-10642679D02*
X13202814Y-10633155D01*
X13202814Y-10633155D02*
X13231386Y-10633155D01*
X13231386Y-10633155D02*
X13250433Y-10642679D01*
X13250433Y-10642679D02*
X13259957Y-10661727D01*
X13259957Y-10661727D02*
X13259957Y-10766488D01*
X13650433Y-10556965D02*
X13479005Y-10814107D01*
X13907576Y-10566488D02*
X13926624Y-10566488D01*
X13926624Y-10566488D02*
X13945672Y-10576012D01*
X13945672Y-10576012D02*
X13955195Y-10585536D01*
X13955195Y-10585536D02*
X13964719Y-10604584D01*
X13964719Y-10604584D02*
X13974243Y-10642679D01*
X13974243Y-10642679D02*
X13974243Y-10690298D01*
X13974243Y-10690298D02*
X13964719Y-10728393D01*
X13964719Y-10728393D02*
X13955195Y-10747441D01*
X13955195Y-10747441D02*
X13945672Y-10756965D01*
X13945672Y-10756965D02*
X13926624Y-10766488D01*
X13926624Y-10766488D02*
X13907576Y-10766488D01*
X13907576Y-10766488D02*
X13888529Y-10756965D01*
X13888529Y-10756965D02*
X13879005Y-10747441D01*
X13879005Y-10747441D02*
X13869481Y-10728393D01*
X13869481Y-10728393D02*
X13859957Y-10690298D01*
X13859957Y-10690298D02*
X13859957Y-10642679D01*
X13859957Y-10642679D02*
X13869481Y-10604584D01*
X13869481Y-10604584D02*
X13879005Y-10585536D01*
X13879005Y-10585536D02*
X13888529Y-10576012D01*
X13888529Y-10576012D02*
X13907576Y-10566488D01*
X14059957Y-10747441D02*
X14069481Y-10756965D01*
X14069481Y-10756965D02*
X14059957Y-10766488D01*
X14059957Y-10766488D02*
X14050433Y-10756965D01*
X14050433Y-10756965D02*
X14059957Y-10747441D01*
X14059957Y-10747441D02*
X14059957Y-10766488D01*
X14193291Y-10566488D02*
X14212338Y-10566488D01*
X14212338Y-10566488D02*
X14231386Y-10576012D01*
X14231386Y-10576012D02*
X14240910Y-10585536D01*
X14240910Y-10585536D02*
X14250433Y-10604584D01*
X14250433Y-10604584D02*
X14259957Y-10642679D01*
X14259957Y-10642679D02*
X14259957Y-10690298D01*
X14259957Y-10690298D02*
X14250433Y-10728393D01*
X14250433Y-10728393D02*
X14240910Y-10747441D01*
X14240910Y-10747441D02*
X14231386Y-10756965D01*
X14231386Y-10756965D02*
X14212338Y-10766488D01*
X14212338Y-10766488D02*
X14193291Y-10766488D01*
X14193291Y-10766488D02*
X14174243Y-10756965D01*
X14174243Y-10756965D02*
X14164719Y-10747441D01*
X14164719Y-10747441D02*
X14155195Y-10728393D01*
X14155195Y-10728393D02*
X14145672Y-10690298D01*
X14145672Y-10690298D02*
X14145672Y-10642679D01*
X14145672Y-10642679D02*
X14155195Y-10604584D01*
X14155195Y-10604584D02*
X14164719Y-10585536D01*
X14164719Y-10585536D02*
X14174243Y-10576012D01*
X14174243Y-10576012D02*
X14193291Y-10566488D01*
X14431386Y-10566488D02*
X14393291Y-10566488D01*
X14393291Y-10566488D02*
X14374243Y-10576012D01*
X14374243Y-10576012D02*
X14364719Y-10585536D01*
X14364719Y-10585536D02*
X14345672Y-10614107D01*
X14345672Y-10614107D02*
X14336148Y-10652203D01*
X14336148Y-10652203D02*
X14336148Y-10728393D01*
X14336148Y-10728393D02*
X14345672Y-10747441D01*
X14345672Y-10747441D02*
X14355195Y-10756965D01*
X14355195Y-10756965D02*
X14374243Y-10766488D01*
X14374243Y-10766488D02*
X14412338Y-10766488D01*
X14412338Y-10766488D02*
X14431386Y-10756965D01*
X14431386Y-10756965D02*
X14440910Y-10747441D01*
X14440910Y-10747441D02*
X14450433Y-10728393D01*
X14450433Y-10728393D02*
X14450433Y-10680774D01*
X14450433Y-10680774D02*
X14440910Y-10661727D01*
X14440910Y-10661727D02*
X14431386Y-10652203D01*
X14431386Y-10652203D02*
X14412338Y-10642679D01*
X14412338Y-10642679D02*
X14374243Y-10642679D01*
X14374243Y-10642679D02*
X14355195Y-10652203D01*
X14355195Y-10652203D02*
X14345672Y-10661727D01*
X14345672Y-10661727D02*
X14336148Y-10680774D01*
X14631386Y-10566488D02*
X14536148Y-10566488D01*
X14536148Y-10566488D02*
X14526624Y-10661727D01*
X14526624Y-10661727D02*
X14536148Y-10652203D01*
X14536148Y-10652203D02*
X14555195Y-10642679D01*
X14555195Y-10642679D02*
X14602814Y-10642679D01*
X14602814Y-10642679D02*
X14621862Y-10652203D01*
X14621862Y-10652203D02*
X14631386Y-10661727D01*
X14631386Y-10661727D02*
X14640910Y-10680774D01*
X14640910Y-10680774D02*
X14640910Y-10728393D01*
X14640910Y-10728393D02*
X14631386Y-10747441D01*
X14631386Y-10747441D02*
X14621862Y-10756965D01*
X14621862Y-10756965D02*
X14602814Y-10766488D01*
X14602814Y-10766488D02*
X14555195Y-10766488D01*
X14555195Y-10766488D02*
X14536148Y-10756965D01*
X14536148Y-10756965D02*
X14526624Y-10747441D01*
X14764719Y-10566488D02*
X14783767Y-10566488D01*
X14783767Y-10566488D02*
X14802814Y-10576012D01*
X14802814Y-10576012D02*
X14812338Y-10585536D01*
X14812338Y-10585536D02*
X14821862Y-10604584D01*
X14821862Y-10604584D02*
X14831386Y-10642679D01*
X14831386Y-10642679D02*
X14831386Y-10690298D01*
X14831386Y-10690298D02*
X14821862Y-10728393D01*
X14821862Y-10728393D02*
X14812338Y-10747441D01*
X14812338Y-10747441D02*
X14802814Y-10756965D01*
X14802814Y-10756965D02*
X14783767Y-10766488D01*
X14783767Y-10766488D02*
X14764719Y-10766488D01*
X14764719Y-10766488D02*
X14745672Y-10756965D01*
X14745672Y-10756965D02*
X14736148Y-10747441D01*
X14736148Y-10747441D02*
X14726624Y-10728393D01*
X14726624Y-10728393D02*
X14717100Y-10690298D01*
X14717100Y-10690298D02*
X14717100Y-10642679D01*
X14717100Y-10642679D02*
X14726624Y-10604584D01*
X14726624Y-10604584D02*
X14736148Y-10585536D01*
X14736148Y-10585536D02*
X14745672Y-10576012D01*
X14745672Y-10576012D02*
X14764719Y-10566488D01*
X14907576Y-10566488D02*
X14907576Y-10604584D01*
X14983767Y-10566488D02*
X14983767Y-10604584D01*
X15279005Y-10842679D02*
X15269481Y-10833155D01*
X15269481Y-10833155D02*
X15250434Y-10804584D01*
X15250434Y-10804584D02*
X15240910Y-10785536D01*
X15240910Y-10785536D02*
X15231386Y-10756965D01*
X15231386Y-10756965D02*
X15221862Y-10709346D01*
X15221862Y-10709346D02*
X15221862Y-10671250D01*
X15221862Y-10671250D02*
X15231386Y-10623631D01*
X15231386Y-10623631D02*
X15240910Y-10595060D01*
X15240910Y-10595060D02*
X15250434Y-10576012D01*
X15250434Y-10576012D02*
X15269481Y-10547441D01*
X15269481Y-10547441D02*
X15279005Y-10537917D01*
X15345672Y-10585536D02*
X15355195Y-10576012D01*
X15355195Y-10576012D02*
X15374243Y-10566488D01*
X15374243Y-10566488D02*
X15421862Y-10566488D01*
X15421862Y-10566488D02*
X15440910Y-10576012D01*
X15440910Y-10576012D02*
X15450434Y-10585536D01*
X15450434Y-10585536D02*
X15459957Y-10604584D01*
X15459957Y-10604584D02*
X15459957Y-10623631D01*
X15459957Y-10623631D02*
X15450434Y-10652203D01*
X15450434Y-10652203D02*
X15336148Y-10766488D01*
X15336148Y-10766488D02*
X15459957Y-10766488D01*
X15698053Y-10766488D02*
X15698053Y-10566488D01*
X15783767Y-10766488D02*
X15783767Y-10661727D01*
X15783767Y-10661727D02*
X15774243Y-10642679D01*
X15774243Y-10642679D02*
X15755196Y-10633155D01*
X15755196Y-10633155D02*
X15726624Y-10633155D01*
X15726624Y-10633155D02*
X15707576Y-10642679D01*
X15707576Y-10642679D02*
X15698053Y-10652203D01*
X15907576Y-10766488D02*
X15888529Y-10756965D01*
X15888529Y-10756965D02*
X15879005Y-10747441D01*
X15879005Y-10747441D02*
X15869481Y-10728393D01*
X15869481Y-10728393D02*
X15869481Y-10671250D01*
X15869481Y-10671250D02*
X15879005Y-10652203D01*
X15879005Y-10652203D02*
X15888529Y-10642679D01*
X15888529Y-10642679D02*
X15907576Y-10633155D01*
X15907576Y-10633155D02*
X15936148Y-10633155D01*
X15936148Y-10633155D02*
X15955196Y-10642679D01*
X15955196Y-10642679D02*
X15964719Y-10652203D01*
X15964719Y-10652203D02*
X15974243Y-10671250D01*
X15974243Y-10671250D02*
X15974243Y-10728393D01*
X15974243Y-10728393D02*
X15964719Y-10747441D01*
X15964719Y-10747441D02*
X15955196Y-10756965D01*
X15955196Y-10756965D02*
X15936148Y-10766488D01*
X15936148Y-10766488D02*
X15907576Y-10766488D01*
X16088529Y-10766488D02*
X16069481Y-10756965D01*
X16069481Y-10756965D02*
X16059957Y-10737917D01*
X16059957Y-10737917D02*
X16059957Y-10566488D01*
X16240910Y-10756965D02*
X16221862Y-10766488D01*
X16221862Y-10766488D02*
X16183767Y-10766488D01*
X16183767Y-10766488D02*
X16164719Y-10756965D01*
X16164719Y-10756965D02*
X16155196Y-10737917D01*
X16155196Y-10737917D02*
X16155196Y-10661727D01*
X16155196Y-10661727D02*
X16164719Y-10642679D01*
X16164719Y-10642679D02*
X16183767Y-10633155D01*
X16183767Y-10633155D02*
X16221862Y-10633155D01*
X16221862Y-10633155D02*
X16240910Y-10642679D01*
X16240910Y-10642679D02*
X16250434Y-10661727D01*
X16250434Y-10661727D02*
X16250434Y-10680774D01*
X16250434Y-10680774D02*
X16155196Y-10699822D01*
X16326624Y-10756965D02*
X16345672Y-10766488D01*
X16345672Y-10766488D02*
X16383767Y-10766488D01*
X16383767Y-10766488D02*
X16402815Y-10756965D01*
X16402815Y-10756965D02*
X16412338Y-10737917D01*
X16412338Y-10737917D02*
X16412338Y-10728393D01*
X16412338Y-10728393D02*
X16402815Y-10709346D01*
X16402815Y-10709346D02*
X16383767Y-10699822D01*
X16383767Y-10699822D02*
X16355196Y-10699822D01*
X16355196Y-10699822D02*
X16336148Y-10690298D01*
X16336148Y-10690298D02*
X16326624Y-10671250D01*
X16326624Y-10671250D02*
X16326624Y-10661727D01*
X16326624Y-10661727D02*
X16336148Y-10642679D01*
X16336148Y-10642679D02*
X16355196Y-10633155D01*
X16355196Y-10633155D02*
X16383767Y-10633155D01*
X16383767Y-10633155D02*
X16402815Y-10642679D01*
X16479005Y-10842679D02*
X16488529Y-10833155D01*
X16488529Y-10833155D02*
X16507577Y-10804584D01*
X16507577Y-10804584D02*
X16517100Y-10785536D01*
X16517100Y-10785536D02*
X16526624Y-10756965D01*
X16526624Y-10756965D02*
X16536148Y-10709346D01*
X16536148Y-10709346D02*
X16536148Y-10671250D01*
X16536148Y-10671250D02*
X16526624Y-10623631D01*
X16526624Y-10623631D02*
X16517100Y-10595060D01*
X16517100Y-10595060D02*
X16507577Y-10576012D01*
X16507577Y-10576012D02*
X16488529Y-10547441D01*
X16488529Y-10547441D02*
X16479005Y-10537917D01*
M02*
