G04 #@! TF.GenerationSoftware,KiCad,Pcbnew,7.0.2*
G04 #@! TF.CreationDate,2024-01-01T15:40:13-07:00*
G04 #@! TF.ProjectId,Temp Sensor Board 1,54656d70-2053-4656-9e73-6f7220426f61,rev?*
G04 #@! TF.SameCoordinates,Original*
G04 #@! TF.FileFunction,Legend,Bot*
G04 #@! TF.FilePolarity,Positive*
%FSLAX46Y46*%
G04 Gerber Fmt 4.6, Leading zero omitted, Abs format (unit mm)*
G04 Created by KiCad (PCBNEW 7.0.2) date 2024-01-01 15:40:13*
%MOMM*%
%LPD*%
G01*
G04 APERTURE LIST*
G04 Aperture macros list*
%AMRoundRect*
0 Rectangle with rounded corners*
0 $1 Rounding radius*
0 $2 $3 $4 $5 $6 $7 $8 $9 X,Y pos of 4 corners*
0 Add a 4 corners polygon primitive as box body*
4,1,4,$2,$3,$4,$5,$6,$7,$8,$9,$2,$3,0*
0 Add four circle primitives for the rounded corners*
1,1,$1+$1,$2,$3*
1,1,$1+$1,$4,$5*
1,1,$1+$1,$6,$7*
1,1,$1+$1,$8,$9*
0 Add four rect primitives between the rounded corners*
20,1,$1+$1,$2,$3,$4,$5,0*
20,1,$1+$1,$4,$5,$6,$7,0*
20,1,$1+$1,$6,$7,$8,$9,0*
20,1,$1+$1,$8,$9,$2,$3,0*%
%AMFreePoly0*
4,1,25,0.333266,0.742596,0.345389,0.732242,0.732242,0.345389,0.760749,0.289441,0.762000,0.273547,0.762000,-0.273547,0.742596,-0.333266,0.732242,-0.345389,0.345389,-0.732242,0.289441,-0.760749,0.273547,-0.762000,-0.273547,-0.762000,-0.333266,-0.742596,-0.345389,-0.732242,-0.732242,-0.345389,-0.760749,-0.289441,-0.762000,-0.273547,-0.762000,0.273547,-0.742596,0.333266,-0.732242,0.345389,
-0.345389,0.732242,-0.289441,0.760749,-0.273547,0.762000,0.273547,0.762000,0.333266,0.742596,0.333266,0.742596,$1*%
G04 Aperture macros list end*
%ADD10C,0.100000*%
%ADD11C,2.678200*%
%ADD12C,1.711200*%
%ADD13RoundRect,0.101600X0.754000X-0.754000X0.754000X0.754000X-0.754000X0.754000X-0.754000X-0.754000X0*%
%ADD14C,3.300000*%
%ADD15FreePoly0,270.000000*%
G04 APERTURE END LIST*
D10*
X146726304Y-87025019D02*
X146726304Y-86025019D01*
X146726304Y-86025019D02*
X146488209Y-86025019D01*
X146488209Y-86025019D02*
X146345352Y-86072638D01*
X146345352Y-86072638D02*
X146250114Y-86167876D01*
X146250114Y-86167876D02*
X146202495Y-86263114D01*
X146202495Y-86263114D02*
X146154876Y-86453590D01*
X146154876Y-86453590D02*
X146154876Y-86596447D01*
X146154876Y-86596447D02*
X146202495Y-86786923D01*
X146202495Y-86786923D02*
X146250114Y-86882161D01*
X146250114Y-86882161D02*
X146345352Y-86977400D01*
X146345352Y-86977400D02*
X146488209Y-87025019D01*
X146488209Y-87025019D02*
X146726304Y-87025019D01*
X145059638Y-87120257D02*
X145154876Y-87072638D01*
X145154876Y-87072638D02*
X145250114Y-86977400D01*
X145250114Y-86977400D02*
X145392971Y-86834542D01*
X145392971Y-86834542D02*
X145488209Y-86786923D01*
X145488209Y-86786923D02*
X145583447Y-86786923D01*
X145535828Y-87025019D02*
X145631066Y-86977400D01*
X145631066Y-86977400D02*
X145726304Y-86882161D01*
X145726304Y-86882161D02*
X145773923Y-86691685D01*
X145773923Y-86691685D02*
X145773923Y-86358352D01*
X145773923Y-86358352D02*
X145726304Y-86167876D01*
X145726304Y-86167876D02*
X145631066Y-86072638D01*
X145631066Y-86072638D02*
X145535828Y-86025019D01*
X145535828Y-86025019D02*
X145345352Y-86025019D01*
X145345352Y-86025019D02*
X145250114Y-86072638D01*
X145250114Y-86072638D02*
X145154876Y-86167876D01*
X145154876Y-86167876D02*
X145107257Y-86358352D01*
X145107257Y-86358352D02*
X145107257Y-86691685D01*
X145107257Y-86691685D02*
X145154876Y-86882161D01*
X145154876Y-86882161D02*
X145250114Y-86977400D01*
X145250114Y-86977400D02*
X145345352Y-87025019D01*
X145345352Y-87025019D02*
X145535828Y-87025019D01*
X147618104Y-83586619D02*
X147284771Y-84586619D01*
X147284771Y-84586619D02*
X146951438Y-83586619D01*
X146618104Y-84586619D02*
X146618104Y-83586619D01*
X146618104Y-83586619D02*
X146380009Y-83586619D01*
X146380009Y-83586619D02*
X146237152Y-83634238D01*
X146237152Y-83634238D02*
X146141914Y-83729476D01*
X146141914Y-83729476D02*
X146094295Y-83824714D01*
X146094295Y-83824714D02*
X146046676Y-84015190D01*
X146046676Y-84015190D02*
X146046676Y-84158047D01*
X146046676Y-84158047D02*
X146094295Y-84348523D01*
X146094295Y-84348523D02*
X146141914Y-84443761D01*
X146141914Y-84443761D02*
X146237152Y-84539000D01*
X146237152Y-84539000D02*
X146380009Y-84586619D01*
X146380009Y-84586619D02*
X146618104Y-84586619D01*
X145618104Y-84586619D02*
X145618104Y-83586619D01*
X145618104Y-83586619D02*
X145380009Y-83586619D01*
X145380009Y-83586619D02*
X145237152Y-83634238D01*
X145237152Y-83634238D02*
X145141914Y-83729476D01*
X145141914Y-83729476D02*
X145094295Y-83824714D01*
X145094295Y-83824714D02*
X145046676Y-84015190D01*
X145046676Y-84015190D02*
X145046676Y-84158047D01*
X145046676Y-84158047D02*
X145094295Y-84348523D01*
X145094295Y-84348523D02*
X145141914Y-84443761D01*
X145141914Y-84443761D02*
X145237152Y-84539000D01*
X145237152Y-84539000D02*
X145380009Y-84586619D01*
X145380009Y-84586619D02*
X145618104Y-84586619D01*
%LPC*%
D11*
X153291000Y-76711000D03*
X153291000Y-90431000D03*
D12*
X143891000Y-81661000D03*
X143891000Y-84201000D03*
X143891000Y-86741000D03*
X141351000Y-80391000D03*
X141351000Y-82931000D03*
D13*
X141351000Y-85471000D03*
D14*
X150241000Y-78491000D03*
X150241000Y-88651000D03*
D15*
X122174000Y-81280000D03*
X124079000Y-82550000D03*
X122174000Y-83820000D03*
%LPD*%
M02*
