%TF.GenerationSoftware,KiCad,Pcbnew,7.0.6*%
%TF.CreationDate,2023-12-02T19:26:21-07:00*%
%TF.ProjectId,Temp Sensor Board 1,54656d70-2053-4656-9e73-6f7220426f61,rev?*%
%TF.SameCoordinates,Original*%
%TF.FileFunction,Copper,L2,Bot*%
%TF.FilePolarity,Positive*%
%FSLAX46Y46*%
G04 Gerber Fmt 4.6, Leading zero omitted, Abs format (unit mm)*
G04 Created by KiCad (PCBNEW 7.0.6) date 2023-12-02 19:26:21*
%MOMM*%
%LPD*%
G01*
G04 APERTURE LIST*
G04 Aperture macros list*
%AMOutline5P*
0 Free polygon, 5 corners , with rotation*
0 The origin of the aperture is its center*
0 number of corners: always 5*
0 $1 to $10 corner X, Y*
0 $11 Rotation angle, in degrees counterclockwise*
0 create outline with 5 corners*
4,1,5,$1,$2,$3,$4,$5,$6,$7,$8,$9,$10,$1,$2,$11*%
%AMOutline6P*
0 Free polygon, 6 corners , with rotation*
0 The origin of the aperture is its center*
0 number of corners: always 6*
0 $1 to $12 corner X, Y*
0 $13 Rotation angle, in degrees counterclockwise*
0 create outline with 6 corners*
4,1,6,$1,$2,$3,$4,$5,$6,$7,$8,$9,$10,$11,$12,$1,$2,$13*%
%AMOutline7P*
0 Free polygon, 7 corners , with rotation*
0 The origin of the aperture is its center*
0 number of corners: always 7*
0 $1 to $14 corner X, Y*
0 $15 Rotation angle, in degrees counterclockwise*
0 create outline with 7 corners*
4,1,7,$1,$2,$3,$4,$5,$6,$7,$8,$9,$10,$11,$12,$13,$14,$1,$2,$15*%
%AMOutline8P*
0 Free polygon, 8 corners , with rotation*
0 The origin of the aperture is its center*
0 number of corners: always 8*
0 $1 to $16 corner X, Y*
0 $17 Rotation angle, in degrees counterclockwise*
0 create outline with 8 corners*
4,1,8,$1,$2,$3,$4,$5,$6,$7,$8,$9,$10,$11,$12,$13,$14,$15,$16,$1,$2,$17*%
G04 Aperture macros list end*
%TA.AperFunction,ComponentPad*%
%ADD10R,1.508000X1.508000*%
%TD*%
%TA.AperFunction,ComponentPad*%
%ADD11C,1.508000*%
%TD*%
%TA.AperFunction,ComponentPad*%
%ADD12C,2.475000*%
%TD*%
%TA.AperFunction,ComponentPad*%
%ADD13Outline8P,-0.660400X0.273547X-0.273547X0.660400X0.273547X0.660400X0.660400X0.273547X0.660400X-0.273547X0.273547X-0.660400X-0.273547X-0.660400X-0.660400X-0.273547X270.000000*%
%TD*%
%TA.AperFunction,ViaPad*%
%ADD14C,0.800000*%
%TD*%
G04 APERTURE END LIST*
D10*
%TO.P,J1,1*%
%TO.N,unconnected-(J1-Pad1)*%
X141351000Y-85471000D03*
D11*
%TO.P,J1,2*%
%TO.N,unconnected-(J1-Pad2)*%
X141351000Y-82931000D03*
%TO.P,J1,3*%
%TO.N,/GND*%
X141351000Y-80391000D03*
%TO.P,J1,4*%
%TO.N,/DQ*%
X143891000Y-86741000D03*
%TO.P,J1,5*%
%TO.N,/VDD*%
X143891000Y-84201000D03*
%TO.P,J1,6*%
%TO.N,unconnected-(J1-Pad6)*%
X143891000Y-81661000D03*
D12*
%TO.P,J1,SH1*%
%TO.N,/GND*%
X153291000Y-90431000D03*
%TO.P,J1,SH2*%
X153291000Y-76711000D03*
%TD*%
D13*
%TO.P,U$1,1,GND*%
%TO.N,/GND*%
X122174000Y-81280000D03*
%TO.P,U$1,2,DQ*%
%TO.N,/DQ*%
X124079000Y-82550000D03*
%TO.P,U$1,3,VDD*%
%TO.N,/VDD*%
X122174000Y-83820000D03*
%TD*%
D14*
%TO.N,/GND*%
X139065000Y-82296000D03*
X137287000Y-82296000D03*
X127762000Y-85725000D03*
X137287000Y-85598000D03*
X138938000Y-85598000D03*
X127762000Y-80264000D03*
X135382000Y-82296000D03*
X135509000Y-85598000D03*
%TD*%
%TA.AperFunction,Conductor*%
%TO.N,/GND*%
G36*
X158312039Y-72663685D02*
G01*
X158357794Y-72716489D01*
X158369000Y-72768000D01*
X158369000Y-92078000D01*
X158349315Y-92145039D01*
X158296511Y-92190794D01*
X158245000Y-92202000D01*
X154161288Y-92202000D01*
X154094249Y-92182315D01*
X154048494Y-92129511D01*
X154038550Y-92060353D01*
X154067575Y-91996797D01*
X154107487Y-91966280D01*
X154162178Y-91939942D01*
X154162179Y-91939941D01*
X154331172Y-91824724D01*
X153671393Y-91164946D01*
X153793213Y-91091650D01*
X153923492Y-90968243D01*
X154024196Y-90819716D01*
X154026780Y-90813228D01*
X154684229Y-91470677D01*
X154730615Y-91412511D01*
X154860822Y-91186987D01*
X154955960Y-90944578D01*
X154955966Y-90944559D01*
X155013911Y-90690682D01*
X155013912Y-90690677D01*
X155033372Y-90431004D01*
X155033372Y-90430995D01*
X155013912Y-90171322D01*
X155013911Y-90171317D01*
X154955966Y-89917440D01*
X154955960Y-89917421D01*
X154860822Y-89675012D01*
X154730612Y-89449483D01*
X154684230Y-89391321D01*
X154023740Y-90051811D01*
X153977870Y-89965290D01*
X153861698Y-89828522D01*
X153718840Y-89719924D01*
X153670764Y-89697682D01*
X154331172Y-89037274D01*
X154162186Y-88922062D01*
X154162177Y-88922057D01*
X153927562Y-88809073D01*
X153927564Y-88809073D01*
X153678722Y-88732315D01*
X153678716Y-88732314D01*
X153421213Y-88693500D01*
X153160786Y-88693500D01*
X152903283Y-88732314D01*
X152903277Y-88732315D01*
X152654436Y-88809073D01*
X152419822Y-88922057D01*
X152419813Y-88922062D01*
X152326730Y-88985525D01*
X152260251Y-89007025D01*
X152192701Y-88989171D01*
X152145527Y-88937630D01*
X152133707Y-88868768D01*
X152134939Y-88860565D01*
X152135152Y-88859416D01*
X152145313Y-88581404D01*
X152114886Y-88304876D01*
X152044520Y-88035724D01*
X151935716Y-87779686D01*
X151790792Y-87542219D01*
X151699112Y-87432053D01*
X151612838Y-87328383D01*
X151612832Y-87328378D01*
X151405643Y-87142737D01*
X151173629Y-86989238D01*
X151173627Y-86989237D01*
X150921733Y-86871154D01*
X150921728Y-86871152D01*
X150921723Y-86871150D01*
X150655342Y-86791007D01*
X150655328Y-86791004D01*
X150536565Y-86773526D01*
X150380099Y-86750500D01*
X150171537Y-86750500D01*
X150171531Y-86750500D01*
X149963545Y-86765723D01*
X149963535Y-86765724D01*
X149692007Y-86826210D01*
X149691997Y-86826213D01*
X149432161Y-86925592D01*
X149189561Y-87061746D01*
X149189556Y-87061749D01*
X148969369Y-87231772D01*
X148969359Y-87231781D01*
X148776281Y-87432045D01*
X148776274Y-87432053D01*
X148614412Y-87658295D01*
X148614405Y-87658307D01*
X148487209Y-87905701D01*
X148487205Y-87905711D01*
X148397379Y-88169012D01*
X148397378Y-88169018D01*
X148346848Y-88442584D01*
X148346847Y-88442591D01*
X148336686Y-88720594D01*
X148367114Y-88997125D01*
X148437478Y-89266272D01*
X148492726Y-89396283D01*
X148546284Y-89522314D01*
X148641197Y-89677835D01*
X148691205Y-89759776D01*
X148691212Y-89759786D01*
X148869161Y-89973616D01*
X148869167Y-89973621D01*
X149034918Y-90122133D01*
X149076357Y-90159263D01*
X149308373Y-90312763D01*
X149560267Y-90430846D01*
X149560274Y-90430848D01*
X149560276Y-90430849D01*
X149826657Y-90510992D01*
X149826664Y-90510993D01*
X149826669Y-90510995D01*
X150101901Y-90551500D01*
X150101906Y-90551500D01*
X150310469Y-90551500D01*
X150370862Y-90547079D01*
X150518455Y-90536277D01*
X150789997Y-90475788D01*
X151049838Y-90376408D01*
X151292440Y-90240253D01*
X151359303Y-90188622D01*
X151424393Y-90163230D01*
X151492881Y-90177059D01*
X151543019Y-90225720D01*
X151558891Y-90293764D01*
X151558741Y-90296034D01*
X151548628Y-90430995D01*
X151548628Y-90431004D01*
X151568087Y-90690677D01*
X151568088Y-90690682D01*
X151626033Y-90944559D01*
X151626039Y-90944578D01*
X151721177Y-91186987D01*
X151851387Y-91412516D01*
X151897768Y-91470677D01*
X152558258Y-90810187D01*
X152604130Y-90896710D01*
X152720302Y-91033478D01*
X152863160Y-91142076D01*
X152911234Y-91164317D01*
X152250826Y-91824724D01*
X152419813Y-91939937D01*
X152419821Y-91939942D01*
X152474513Y-91966280D01*
X152526373Y-92013102D01*
X152544686Y-92080529D01*
X152523638Y-92147153D01*
X152469912Y-92191822D01*
X152420712Y-92202000D01*
X117653362Y-92202000D01*
X117586323Y-92182315D01*
X117565681Y-92165681D01*
X117257819Y-91857819D01*
X117224334Y-91796496D01*
X117221500Y-91770138D01*
X117221500Y-84134526D01*
X121013100Y-84134526D01*
X121023660Y-84218596D01*
X121078735Y-84351561D01*
X121078736Y-84351562D01*
X121078737Y-84351564D01*
X121130720Y-84418481D01*
X121130726Y-84418487D01*
X121575520Y-84863282D01*
X121575530Y-84863291D01*
X121642436Y-84915263D01*
X121642437Y-84915264D01*
X121775404Y-84970340D01*
X121859476Y-84980900D01*
X121859479Y-84980900D01*
X122488520Y-84980900D01*
X122488523Y-84980900D01*
X122572597Y-84970340D01*
X122705564Y-84915263D01*
X122772481Y-84863280D01*
X123217284Y-84418478D01*
X123269264Y-84351563D01*
X123324340Y-84218596D01*
X123334900Y-84134524D01*
X123334900Y-83733504D01*
X123354585Y-83666466D01*
X123407389Y-83620711D01*
X123476547Y-83610767D01*
X123534969Y-83635579D01*
X123547437Y-83645264D01*
X123680404Y-83700340D01*
X123764476Y-83710900D01*
X123764479Y-83710900D01*
X124393520Y-83710900D01*
X124393523Y-83710900D01*
X124477597Y-83700340D01*
X124610564Y-83645263D01*
X124677481Y-83593280D01*
X125122284Y-83148478D01*
X125174264Y-83081563D01*
X125229340Y-82948596D01*
X125231550Y-82931002D01*
X140091708Y-82931002D01*
X140110733Y-83148469D01*
X140110839Y-83149674D01*
X140167653Y-83361703D01*
X140167654Y-83361706D01*
X140167655Y-83361708D01*
X140260419Y-83560642D01*
X140260423Y-83560650D01*
X140386322Y-83740452D01*
X140386327Y-83740458D01*
X140541541Y-83895672D01*
X140541547Y-83895677D01*
X140677576Y-83990925D01*
X140721201Y-84045502D01*
X140728395Y-84115000D01*
X140696872Y-84177355D01*
X140636643Y-84212769D01*
X140606455Y-84216500D01*
X140549130Y-84216500D01*
X140549123Y-84216501D01*
X140489516Y-84222908D01*
X140354671Y-84273202D01*
X140354664Y-84273206D01*
X140239455Y-84359452D01*
X140239452Y-84359455D01*
X140153206Y-84474664D01*
X140153202Y-84474671D01*
X140102908Y-84609517D01*
X140096501Y-84669116D01*
X140096500Y-84669135D01*
X140096500Y-86272870D01*
X140096501Y-86272876D01*
X140102908Y-86332483D01*
X140153202Y-86467328D01*
X140153206Y-86467335D01*
X140239452Y-86582544D01*
X140239455Y-86582547D01*
X140354664Y-86668793D01*
X140354671Y-86668797D01*
X140489517Y-86719091D01*
X140489516Y-86719091D01*
X140496444Y-86719835D01*
X140549127Y-86725500D01*
X142152872Y-86725499D01*
X142212483Y-86719091D01*
X142347331Y-86668796D01*
X142436388Y-86602127D01*
X142501851Y-86577710D01*
X142570125Y-86592561D01*
X142619530Y-86641966D01*
X142634383Y-86710239D01*
X142634227Y-86712200D01*
X142631708Y-86740996D01*
X142631708Y-86741002D01*
X142650838Y-86959668D01*
X142650839Y-86959675D01*
X142658761Y-86989238D01*
X142707653Y-87171703D01*
X142707654Y-87171706D01*
X142707655Y-87171708D01*
X142800419Y-87370642D01*
X142800423Y-87370650D01*
X142926322Y-87550452D01*
X142926327Y-87550458D01*
X143081541Y-87705672D01*
X143081547Y-87705677D01*
X143261349Y-87831576D01*
X143261351Y-87831577D01*
X143261354Y-87831579D01*
X143460297Y-87924347D01*
X143672326Y-87981161D01*
X143828521Y-87994826D01*
X143890998Y-88000292D01*
X143891000Y-88000292D01*
X143891002Y-88000292D01*
X143945668Y-87995509D01*
X144109674Y-87981161D01*
X144321703Y-87924347D01*
X144520646Y-87831579D01*
X144700457Y-87705674D01*
X144855674Y-87550457D01*
X144981579Y-87370646D01*
X145074347Y-87171703D01*
X145131161Y-86959674D01*
X145150292Y-86741000D01*
X145147772Y-86712200D01*
X145141628Y-86641966D01*
X145131161Y-86522326D01*
X145074347Y-86310297D01*
X144981579Y-86111354D01*
X144981577Y-86111351D01*
X144981576Y-86111349D01*
X144855677Y-85931547D01*
X144855672Y-85931541D01*
X144700458Y-85776327D01*
X144700452Y-85776322D01*
X144520650Y-85650423D01*
X144520642Y-85650419D01*
X144376879Y-85583382D01*
X144324439Y-85537210D01*
X144305287Y-85470017D01*
X144325502Y-85403136D01*
X144376879Y-85358618D01*
X144520646Y-85291579D01*
X144700457Y-85165674D01*
X144855674Y-85010457D01*
X144981579Y-84830646D01*
X145074347Y-84631703D01*
X145131161Y-84419674D01*
X145145509Y-84255668D01*
X145150292Y-84201002D01*
X145150292Y-84200997D01*
X145134595Y-84021579D01*
X145131161Y-83982326D01*
X145074347Y-83770297D01*
X144981579Y-83571354D01*
X144981577Y-83571351D01*
X144981576Y-83571349D01*
X144855677Y-83391547D01*
X144855672Y-83391541D01*
X144700458Y-83236327D01*
X144700452Y-83236322D01*
X144520650Y-83110423D01*
X144520642Y-83110419D01*
X144376879Y-83043382D01*
X144324439Y-82997210D01*
X144305287Y-82930017D01*
X144325502Y-82863136D01*
X144376879Y-82818618D01*
X144520646Y-82751579D01*
X144700457Y-82625674D01*
X144855674Y-82470457D01*
X144981579Y-82290646D01*
X145074347Y-82091703D01*
X145131161Y-81879674D01*
X145145509Y-81715668D01*
X145150292Y-81661002D01*
X145150292Y-81660997D01*
X145140436Y-81548342D01*
X145131161Y-81442326D01*
X145074347Y-81230297D01*
X144981579Y-81031354D01*
X144981577Y-81031351D01*
X144981576Y-81031349D01*
X144855677Y-80851547D01*
X144855672Y-80851541D01*
X144700458Y-80696327D01*
X144700452Y-80696322D01*
X144520650Y-80570423D01*
X144520642Y-80570419D01*
X144321708Y-80477655D01*
X144321706Y-80477654D01*
X144321703Y-80477653D01*
X144170885Y-80437240D01*
X144109675Y-80420839D01*
X144109668Y-80420838D01*
X143891002Y-80401708D01*
X143890998Y-80401708D01*
X143672331Y-80420838D01*
X143672324Y-80420839D01*
X143549902Y-80453642D01*
X143460297Y-80477653D01*
X143460295Y-80477653D01*
X143460291Y-80477655D01*
X143261357Y-80570419D01*
X143261349Y-80570423D01*
X143081547Y-80696322D01*
X143081541Y-80696327D01*
X142926327Y-80851541D01*
X142926322Y-80851547D01*
X142800423Y-81031349D01*
X142800419Y-81031357D01*
X142707655Y-81230291D01*
X142650839Y-81442324D01*
X142650838Y-81442331D01*
X142631708Y-81660997D01*
X142631708Y-81661002D01*
X142647404Y-81840421D01*
X142650839Y-81879674D01*
X142707653Y-82091703D01*
X142707654Y-82091706D01*
X142707655Y-82091708D01*
X142800419Y-82290642D01*
X142800423Y-82290650D01*
X142926322Y-82470452D01*
X142926327Y-82470458D01*
X143081541Y-82625672D01*
X143081547Y-82625677D01*
X143261349Y-82751576D01*
X143261351Y-82751577D01*
X143261354Y-82751579D01*
X143345963Y-82791032D01*
X143405120Y-82818618D01*
X143457560Y-82864790D01*
X143476712Y-82931983D01*
X143456496Y-82998865D01*
X143405120Y-83043382D01*
X143261357Y-83110419D01*
X143261349Y-83110423D01*
X143081547Y-83236322D01*
X143081541Y-83236327D01*
X142926327Y-83391541D01*
X142926322Y-83391547D01*
X142800423Y-83571349D01*
X142800419Y-83571357D01*
X142707655Y-83770291D01*
X142650839Y-83982324D01*
X142650838Y-83982331D01*
X142631708Y-84200997D01*
X142631708Y-84201003D01*
X142634227Y-84229799D01*
X142620460Y-84298299D01*
X142571844Y-84348481D01*
X142503815Y-84364414D01*
X142437972Y-84341038D01*
X142436388Y-84339872D01*
X142425012Y-84331356D01*
X142347331Y-84273204D01*
X142347329Y-84273203D01*
X142347328Y-84273202D01*
X142212482Y-84222908D01*
X142212483Y-84222908D01*
X142152883Y-84216501D01*
X142152881Y-84216500D01*
X142152873Y-84216500D01*
X142152865Y-84216500D01*
X142095547Y-84216500D01*
X142028508Y-84196815D01*
X141982753Y-84144011D01*
X141972809Y-84074853D01*
X142001834Y-84011297D01*
X142024424Y-83990925D01*
X142160457Y-83895674D01*
X142315674Y-83740457D01*
X142441579Y-83560646D01*
X142534347Y-83361703D01*
X142591161Y-83149674D01*
X142605509Y-82985668D01*
X142610292Y-82931002D01*
X142610292Y-82930997D01*
X142596795Y-82776726D01*
X142591161Y-82712326D01*
X142534347Y-82500297D01*
X142441579Y-82301354D01*
X142441577Y-82301351D01*
X142441576Y-82301349D01*
X142315677Y-82121547D01*
X142315672Y-82121541D01*
X142160458Y-81966327D01*
X142160452Y-81966322D01*
X141980650Y-81840423D01*
X141980646Y-81840421D01*
X141836288Y-81773106D01*
X141783849Y-81726934D01*
X141764697Y-81659740D01*
X141784913Y-81592859D01*
X141836289Y-81548342D01*
X141980390Y-81481146D01*
X142043443Y-81436996D01*
X141483534Y-80877086D01*
X141493315Y-80875680D01*
X141624100Y-80815952D01*
X141732761Y-80721798D01*
X141810493Y-80600844D01*
X141834076Y-80520523D01*
X142396996Y-81083443D01*
X142441145Y-81020392D01*
X142533874Y-80821533D01*
X142533878Y-80821524D01*
X142590664Y-80609592D01*
X142590666Y-80609582D01*
X142609790Y-80391000D01*
X142609790Y-80390999D01*
X142590666Y-80172417D01*
X142590664Y-80172407D01*
X142533878Y-79960475D01*
X142533875Y-79960466D01*
X142441144Y-79761606D01*
X142441143Y-79761604D01*
X142396996Y-79698556D01*
X142396996Y-79698555D01*
X141834076Y-80261475D01*
X141810493Y-80181156D01*
X141732761Y-80060202D01*
X141624100Y-79966048D01*
X141493315Y-79906320D01*
X141483533Y-79904913D01*
X142043443Y-79345003D01*
X142043442Y-79345002D01*
X141980395Y-79300856D01*
X141980393Y-79300855D01*
X141781533Y-79208124D01*
X141781524Y-79208121D01*
X141569592Y-79151335D01*
X141569582Y-79151333D01*
X141351001Y-79132210D01*
X141350999Y-79132210D01*
X141132417Y-79151333D01*
X141132407Y-79151335D01*
X140920475Y-79208121D01*
X140920466Y-79208124D01*
X140721602Y-79300857D01*
X140658555Y-79345001D01*
X141218467Y-79904913D01*
X141208685Y-79906320D01*
X141077900Y-79966048D01*
X140969239Y-80060202D01*
X140891507Y-80181156D01*
X140867922Y-80261476D01*
X140305001Y-79698555D01*
X140260857Y-79761602D01*
X140168124Y-79960466D01*
X140168121Y-79960475D01*
X140111335Y-80172407D01*
X140111333Y-80172417D01*
X140092210Y-80390999D01*
X140092210Y-80391000D01*
X140111333Y-80609582D01*
X140111335Y-80609592D01*
X140168121Y-80821524D01*
X140168124Y-80821533D01*
X140260855Y-81020393D01*
X140260856Y-81020395D01*
X140305002Y-81083442D01*
X140305003Y-81083443D01*
X140867922Y-80520523D01*
X140891507Y-80600844D01*
X140969239Y-80721798D01*
X141077900Y-80815952D01*
X141208685Y-80875680D01*
X141218466Y-80877086D01*
X140658555Y-81436996D01*
X140721604Y-81481143D01*
X140721606Y-81481144D01*
X140865711Y-81548342D01*
X140918150Y-81594515D01*
X140937302Y-81661708D01*
X140917086Y-81728589D01*
X140865711Y-81773106D01*
X140721353Y-81840421D01*
X140721349Y-81840423D01*
X140541547Y-81966322D01*
X140541541Y-81966327D01*
X140386327Y-82121541D01*
X140386322Y-82121547D01*
X140260423Y-82301349D01*
X140260419Y-82301357D01*
X140167655Y-82500291D01*
X140167653Y-82500295D01*
X140167653Y-82500297D01*
X140143642Y-82589902D01*
X140110839Y-82712324D01*
X140110838Y-82712331D01*
X140091708Y-82930997D01*
X140091708Y-82931002D01*
X125231550Y-82931002D01*
X125239900Y-82864524D01*
X125239900Y-82235477D01*
X125229340Y-82151403D01*
X125174263Y-82018436D01*
X125122280Y-81951519D01*
X124677478Y-81506716D01*
X124677477Y-81506715D01*
X124677469Y-81506708D01*
X124610562Y-81454735D01*
X124477597Y-81399660D01*
X124393527Y-81389100D01*
X124393524Y-81389100D01*
X123764477Y-81389100D01*
X123764473Y-81389100D01*
X123680403Y-81399660D01*
X123547437Y-81454736D01*
X123534466Y-81464812D01*
X123469447Y-81490391D01*
X123400920Y-81476757D01*
X123350643Y-81428240D01*
X123334399Y-81366884D01*
X123334399Y-80965509D01*
X123323850Y-80881527D01*
X123268829Y-80748694D01*
X123216907Y-80681856D01*
X123216896Y-80681843D01*
X123171303Y-80636250D01*
X122577547Y-81230005D01*
X122565327Y-81152850D01*
X122506883Y-81038146D01*
X122415854Y-80947117D01*
X122301150Y-80888673D01*
X122223994Y-80876452D01*
X122817749Y-80282696D01*
X122772156Y-80237103D01*
X122772143Y-80237092D01*
X122705305Y-80185170D01*
X122572471Y-80130149D01*
X122488488Y-80119600D01*
X121859509Y-80119600D01*
X121775527Y-80130149D01*
X121642694Y-80185170D01*
X121575852Y-80237095D01*
X121575837Y-80237108D01*
X121530250Y-80282694D01*
X121530250Y-80282696D01*
X122124006Y-80876452D01*
X122046850Y-80888673D01*
X121932146Y-80947117D01*
X121841117Y-81038146D01*
X121782673Y-81152850D01*
X121770452Y-81230006D01*
X121176696Y-80636250D01*
X121176695Y-80636250D01*
X121131108Y-80681837D01*
X121131095Y-80681852D01*
X121079170Y-80748694D01*
X121079170Y-80748695D01*
X121024149Y-80881528D01*
X121013600Y-80965511D01*
X121013600Y-81594490D01*
X121024149Y-81678472D01*
X121079170Y-81811305D01*
X121131092Y-81878143D01*
X121131096Y-81878148D01*
X121176696Y-81923748D01*
X121770452Y-81329993D01*
X121782673Y-81407150D01*
X121841117Y-81521854D01*
X121932146Y-81612883D01*
X122046850Y-81671327D01*
X122124005Y-81683547D01*
X121530250Y-82277303D01*
X121575843Y-82322896D01*
X121575856Y-82322907D01*
X121642694Y-82374829D01*
X121775521Y-82429848D01*
X121775585Y-82429865D01*
X121775634Y-82429894D01*
X121783208Y-82433032D01*
X121782728Y-82434189D01*
X121835357Y-82466046D01*
X121866079Y-82528799D01*
X121857998Y-82598199D01*
X121813679Y-82652214D01*
X121782982Y-82666236D01*
X121783083Y-82666479D01*
X121776315Y-82669282D01*
X121775611Y-82669604D01*
X121775410Y-82669657D01*
X121642438Y-82724735D01*
X121575519Y-82776720D01*
X121575512Y-82776726D01*
X121130717Y-83221520D01*
X121130708Y-83221530D01*
X121078735Y-83288437D01*
X121023660Y-83421402D01*
X121023660Y-83421403D01*
X121013100Y-83505472D01*
X121013100Y-84134526D01*
X117221500Y-84134526D01*
X117221500Y-78560594D01*
X148336686Y-78560594D01*
X148367114Y-78837125D01*
X148437478Y-79106272D01*
X148538927Y-79345003D01*
X148546284Y-79362314D01*
X148691205Y-79599776D01*
X148691212Y-79599786D01*
X148869161Y-79813616D01*
X148869167Y-79813621D01*
X149033057Y-79960466D01*
X149076357Y-79999263D01*
X149308373Y-80152763D01*
X149560267Y-80270846D01*
X149560274Y-80270848D01*
X149560276Y-80270849D01*
X149826657Y-80350992D01*
X149826664Y-80350993D01*
X149826669Y-80350995D01*
X150101901Y-80391500D01*
X150101906Y-80391500D01*
X150310469Y-80391500D01*
X150370862Y-80387079D01*
X150518455Y-80376277D01*
X150789997Y-80315788D01*
X151049838Y-80216408D01*
X151292440Y-80080253D01*
X151512632Y-79910226D01*
X151705722Y-79709951D01*
X151867593Y-79483696D01*
X151961598Y-79300855D01*
X151994790Y-79236298D01*
X151994794Y-79236288D01*
X151994797Y-79236283D01*
X152084621Y-78972986D01*
X152135152Y-78699416D01*
X152145313Y-78421404D01*
X152128546Y-78269026D01*
X152140780Y-78200240D01*
X152188262Y-78148984D01*
X152255918Y-78131535D01*
X152321653Y-78153013D01*
X152419813Y-78219937D01*
X152419822Y-78219942D01*
X152654437Y-78332926D01*
X152654435Y-78332926D01*
X152903277Y-78409684D01*
X152903283Y-78409685D01*
X153160786Y-78448499D01*
X153160793Y-78448500D01*
X153421207Y-78448500D01*
X153421213Y-78448499D01*
X153678716Y-78409685D01*
X153678722Y-78409684D01*
X153927563Y-78332926D01*
X154162177Y-78219942D01*
X154162179Y-78219941D01*
X154331172Y-78104724D01*
X153671393Y-77444946D01*
X153793213Y-77371650D01*
X153923492Y-77248243D01*
X154024196Y-77099716D01*
X154026780Y-77093228D01*
X154684229Y-77750677D01*
X154730615Y-77692511D01*
X154860822Y-77466987D01*
X154955960Y-77224578D01*
X154955966Y-77224559D01*
X155013911Y-76970682D01*
X155013912Y-76970677D01*
X155033372Y-76711004D01*
X155033372Y-76710995D01*
X155013912Y-76451322D01*
X155013911Y-76451317D01*
X154955966Y-76197440D01*
X154955960Y-76197421D01*
X154860822Y-75955012D01*
X154730612Y-75729483D01*
X154684230Y-75671321D01*
X154023740Y-76331811D01*
X153977870Y-76245290D01*
X153861698Y-76108522D01*
X153718840Y-75999924D01*
X153670765Y-75977682D01*
X154331172Y-75317274D01*
X154162186Y-75202062D01*
X154162177Y-75202057D01*
X153927562Y-75089073D01*
X153927564Y-75089073D01*
X153678722Y-75012315D01*
X153678716Y-75012314D01*
X153421213Y-74973500D01*
X153160786Y-74973500D01*
X152903283Y-75012314D01*
X152903277Y-75012315D01*
X152654436Y-75089073D01*
X152419819Y-75202059D01*
X152419806Y-75202066D01*
X152250826Y-75317273D01*
X152910606Y-75977053D01*
X152788787Y-76050350D01*
X152658508Y-76173757D01*
X152557804Y-76322284D01*
X152555218Y-76328771D01*
X151897769Y-75671322D01*
X151851385Y-75729486D01*
X151721177Y-75955012D01*
X151626039Y-76197421D01*
X151626033Y-76197440D01*
X151568088Y-76451317D01*
X151568087Y-76451322D01*
X151548628Y-76710995D01*
X151548628Y-76711004D01*
X151558608Y-76844182D01*
X151543988Y-76912505D01*
X151494751Y-76962078D01*
X151426529Y-76977161D01*
X151366536Y-76956864D01*
X151173629Y-76829238D01*
X151173627Y-76829237D01*
X150921733Y-76711154D01*
X150921728Y-76711152D01*
X150921723Y-76711150D01*
X150655342Y-76631007D01*
X150655328Y-76631004D01*
X150536565Y-76613526D01*
X150380099Y-76590500D01*
X150171537Y-76590500D01*
X150171531Y-76590500D01*
X149963545Y-76605723D01*
X149963535Y-76605724D01*
X149692007Y-76666210D01*
X149691997Y-76666213D01*
X149432161Y-76765592D01*
X149189561Y-76901746D01*
X149189556Y-76901749D01*
X148969369Y-77071772D01*
X148969359Y-77071781D01*
X148776281Y-77272045D01*
X148776274Y-77272053D01*
X148614412Y-77498295D01*
X148614405Y-77498307D01*
X148487209Y-77745701D01*
X148487205Y-77745711D01*
X148397379Y-78009012D01*
X148397378Y-78009018D01*
X148346848Y-78282584D01*
X148346847Y-78282591D01*
X148336686Y-78560594D01*
X117221500Y-78560594D01*
X117221500Y-72768000D01*
X117241185Y-72700961D01*
X117293989Y-72655206D01*
X117345500Y-72644000D01*
X158245000Y-72644000D01*
X158312039Y-72663685D01*
G37*
%TD.AperFunction*%
%TD*%
M02*
