%TF.GenerationSoftware,KiCad,Pcbnew,7.0.6*%
%TF.CreationDate,2023-12-02T19:26:21-07:00*%
%TF.ProjectId,Temp Sensor Board 1,54656d70-2053-4656-9e73-6f7220426f61,rev?*%
%TF.SameCoordinates,Original*%
%TF.FileFunction,Legend,Top*%
%TF.FilePolarity,Positive*%
%FSLAX46Y46*%
G04 Gerber Fmt 4.6, Leading zero omitted, Abs format (unit mm)*
G04 Created by KiCad (PCBNEW 7.0.6) date 2023-12-02 19:26:21*
%MOMM*%
%LPD*%
G01*
G04 APERTURE LIST*
%ADD10C,0.127000*%
%ADD11C,0.101600*%
G04 APERTURE END LIST*
D10*
X140904591Y-73259514D02*
X141557734Y-73259514D01*
X141231162Y-74402514D02*
X141231162Y-73259514D01*
X141938733Y-73803800D02*
X142319733Y-73803800D01*
X142483019Y-74402514D02*
X141938733Y-74402514D01*
X141938733Y-74402514D02*
X141938733Y-73259514D01*
X141938733Y-73259514D02*
X142483019Y-73259514D01*
X142972876Y-74402514D02*
X142972876Y-73259514D01*
X142972876Y-73259514D02*
X143353876Y-74075943D01*
X143353876Y-74075943D02*
X143734876Y-73259514D01*
X143734876Y-73259514D02*
X143734876Y-74402514D01*
X144279162Y-74402514D02*
X144279162Y-73259514D01*
X144279162Y-73259514D02*
X144714591Y-73259514D01*
X144714591Y-73259514D02*
X144823448Y-73313943D01*
X144823448Y-73313943D02*
X144877877Y-73368371D01*
X144877877Y-73368371D02*
X144932305Y-73477228D01*
X144932305Y-73477228D02*
X144932305Y-73640514D01*
X144932305Y-73640514D02*
X144877877Y-73749371D01*
X144877877Y-73749371D02*
X144823448Y-73803800D01*
X144823448Y-73803800D02*
X144714591Y-73858228D01*
X144714591Y-73858228D02*
X144279162Y-73858228D01*
X145150020Y-74511371D02*
X146020877Y-74511371D01*
X146238591Y-74348086D02*
X146401877Y-74402514D01*
X146401877Y-74402514D02*
X146674019Y-74402514D01*
X146674019Y-74402514D02*
X146782877Y-74348086D01*
X146782877Y-74348086D02*
X146837305Y-74293657D01*
X146837305Y-74293657D02*
X146891734Y-74184800D01*
X146891734Y-74184800D02*
X146891734Y-74075943D01*
X146891734Y-74075943D02*
X146837305Y-73967086D01*
X146837305Y-73967086D02*
X146782877Y-73912657D01*
X146782877Y-73912657D02*
X146674019Y-73858228D01*
X146674019Y-73858228D02*
X146456305Y-73803800D01*
X146456305Y-73803800D02*
X146347448Y-73749371D01*
X146347448Y-73749371D02*
X146293019Y-73694943D01*
X146293019Y-73694943D02*
X146238591Y-73586086D01*
X146238591Y-73586086D02*
X146238591Y-73477228D01*
X146238591Y-73477228D02*
X146293019Y-73368371D01*
X146293019Y-73368371D02*
X146347448Y-73313943D01*
X146347448Y-73313943D02*
X146456305Y-73259514D01*
X146456305Y-73259514D02*
X146728448Y-73259514D01*
X146728448Y-73259514D02*
X146891734Y-73313943D01*
X147381590Y-73803800D02*
X147762590Y-73803800D01*
X147925876Y-74402514D02*
X147381590Y-74402514D01*
X147381590Y-74402514D02*
X147381590Y-73259514D01*
X147381590Y-73259514D02*
X147925876Y-73259514D01*
X148415733Y-74402514D02*
X148415733Y-73259514D01*
X148415733Y-73259514D02*
X149068876Y-74402514D01*
X149068876Y-74402514D02*
X149068876Y-73259514D01*
X149558734Y-74348086D02*
X149722020Y-74402514D01*
X149722020Y-74402514D02*
X149994162Y-74402514D01*
X149994162Y-74402514D02*
X150103020Y-74348086D01*
X150103020Y-74348086D02*
X150157448Y-74293657D01*
X150157448Y-74293657D02*
X150211877Y-74184800D01*
X150211877Y-74184800D02*
X150211877Y-74075943D01*
X150211877Y-74075943D02*
X150157448Y-73967086D01*
X150157448Y-73967086D02*
X150103020Y-73912657D01*
X150103020Y-73912657D02*
X149994162Y-73858228D01*
X149994162Y-73858228D02*
X149776448Y-73803800D01*
X149776448Y-73803800D02*
X149667591Y-73749371D01*
X149667591Y-73749371D02*
X149613162Y-73694943D01*
X149613162Y-73694943D02*
X149558734Y-73586086D01*
X149558734Y-73586086D02*
X149558734Y-73477228D01*
X149558734Y-73477228D02*
X149613162Y-73368371D01*
X149613162Y-73368371D02*
X149667591Y-73313943D01*
X149667591Y-73313943D02*
X149776448Y-73259514D01*
X149776448Y-73259514D02*
X150048591Y-73259514D01*
X150048591Y-73259514D02*
X150211877Y-73313943D01*
X150919448Y-73259514D02*
X151137162Y-73259514D01*
X151137162Y-73259514D02*
X151246019Y-73313943D01*
X151246019Y-73313943D02*
X151354876Y-73422800D01*
X151354876Y-73422800D02*
X151409305Y-73640514D01*
X151409305Y-73640514D02*
X151409305Y-74021514D01*
X151409305Y-74021514D02*
X151354876Y-74239228D01*
X151354876Y-74239228D02*
X151246019Y-74348086D01*
X151246019Y-74348086D02*
X151137162Y-74402514D01*
X151137162Y-74402514D02*
X150919448Y-74402514D01*
X150919448Y-74402514D02*
X150810591Y-74348086D01*
X150810591Y-74348086D02*
X150701733Y-74239228D01*
X150701733Y-74239228D02*
X150647305Y-74021514D01*
X150647305Y-74021514D02*
X150647305Y-73640514D01*
X150647305Y-73640514D02*
X150701733Y-73422800D01*
X150701733Y-73422800D02*
X150810591Y-73313943D01*
X150810591Y-73313943D02*
X150919448Y-73259514D01*
X152552305Y-74402514D02*
X152171305Y-73858228D01*
X151899162Y-74402514D02*
X151899162Y-73259514D01*
X151899162Y-73259514D02*
X152334591Y-73259514D01*
X152334591Y-73259514D02*
X152443448Y-73313943D01*
X152443448Y-73313943D02*
X152497877Y-73368371D01*
X152497877Y-73368371D02*
X152552305Y-73477228D01*
X152552305Y-73477228D02*
X152552305Y-73640514D01*
X152552305Y-73640514D02*
X152497877Y-73749371D01*
X152497877Y-73749371D02*
X152443448Y-73803800D01*
X152443448Y-73803800D02*
X152334591Y-73858228D01*
X152334591Y-73858228D02*
X151899162Y-73858228D01*
X152770020Y-74511371D02*
X153640877Y-74511371D01*
X154511734Y-74402514D02*
X153858591Y-74402514D01*
X154185162Y-74402514D02*
X154185162Y-73259514D01*
X154185162Y-73259514D02*
X154076305Y-73422800D01*
X154076305Y-73422800D02*
X153967448Y-73531657D01*
X153967448Y-73531657D02*
X153858591Y-73586086D01*
X117836514Y-91723120D02*
X117836514Y-91069978D01*
X118979514Y-91396549D02*
X117836514Y-91396549D01*
X118925086Y-90253549D02*
X118979514Y-90362406D01*
X118979514Y-90362406D02*
X118979514Y-90580121D01*
X118979514Y-90580121D02*
X118925086Y-90688978D01*
X118925086Y-90688978D02*
X118816228Y-90743406D01*
X118816228Y-90743406D02*
X118380800Y-90743406D01*
X118380800Y-90743406D02*
X118271943Y-90688978D01*
X118271943Y-90688978D02*
X118217514Y-90580121D01*
X118217514Y-90580121D02*
X118217514Y-90362406D01*
X118217514Y-90362406D02*
X118271943Y-90253549D01*
X118271943Y-90253549D02*
X118380800Y-90199121D01*
X118380800Y-90199121D02*
X118489657Y-90199121D01*
X118489657Y-90199121D02*
X118598514Y-90743406D01*
X118979514Y-89709264D02*
X118217514Y-89709264D01*
X118326371Y-89709264D02*
X118271943Y-89654835D01*
X118271943Y-89654835D02*
X118217514Y-89545978D01*
X118217514Y-89545978D02*
X118217514Y-89382692D01*
X118217514Y-89382692D02*
X118271943Y-89273835D01*
X118271943Y-89273835D02*
X118380800Y-89219407D01*
X118380800Y-89219407D02*
X118979514Y-89219407D01*
X118380800Y-89219407D02*
X118271943Y-89164978D01*
X118271943Y-89164978D02*
X118217514Y-89056121D01*
X118217514Y-89056121D02*
X118217514Y-88892835D01*
X118217514Y-88892835D02*
X118271943Y-88783978D01*
X118271943Y-88783978D02*
X118380800Y-88729549D01*
X118380800Y-88729549D02*
X118979514Y-88729549D01*
X118217514Y-88185264D02*
X119360514Y-88185264D01*
X118271943Y-88185264D02*
X118217514Y-88076407D01*
X118217514Y-88076407D02*
X118217514Y-87858692D01*
X118217514Y-87858692D02*
X118271943Y-87749835D01*
X118271943Y-87749835D02*
X118326371Y-87695407D01*
X118326371Y-87695407D02*
X118435228Y-87640978D01*
X118435228Y-87640978D02*
X118761800Y-87640978D01*
X118761800Y-87640978D02*
X118870657Y-87695407D01*
X118870657Y-87695407D02*
X118925086Y-87749835D01*
X118925086Y-87749835D02*
X118979514Y-87858692D01*
X118979514Y-87858692D02*
X118979514Y-88076407D01*
X118979514Y-88076407D02*
X118925086Y-88185264D01*
X118925086Y-86715692D02*
X118979514Y-86824549D01*
X118979514Y-86824549D02*
X118979514Y-87042264D01*
X118979514Y-87042264D02*
X118925086Y-87151121D01*
X118925086Y-87151121D02*
X118816228Y-87205549D01*
X118816228Y-87205549D02*
X118380800Y-87205549D01*
X118380800Y-87205549D02*
X118271943Y-87151121D01*
X118271943Y-87151121D02*
X118217514Y-87042264D01*
X118217514Y-87042264D02*
X118217514Y-86824549D01*
X118217514Y-86824549D02*
X118271943Y-86715692D01*
X118271943Y-86715692D02*
X118380800Y-86661264D01*
X118380800Y-86661264D02*
X118489657Y-86661264D01*
X118489657Y-86661264D02*
X118598514Y-87205549D01*
X118979514Y-86171407D02*
X118217514Y-86171407D01*
X118435228Y-86171407D02*
X118326371Y-86116978D01*
X118326371Y-86116978D02*
X118271943Y-86062550D01*
X118271943Y-86062550D02*
X118217514Y-85953692D01*
X118217514Y-85953692D02*
X118217514Y-85844835D01*
X118979514Y-84973979D02*
X118380800Y-84973979D01*
X118380800Y-84973979D02*
X118271943Y-85028407D01*
X118271943Y-85028407D02*
X118217514Y-85137264D01*
X118217514Y-85137264D02*
X118217514Y-85354979D01*
X118217514Y-85354979D02*
X118271943Y-85463836D01*
X118925086Y-84973979D02*
X118979514Y-85082836D01*
X118979514Y-85082836D02*
X118979514Y-85354979D01*
X118979514Y-85354979D02*
X118925086Y-85463836D01*
X118925086Y-85463836D02*
X118816228Y-85518264D01*
X118816228Y-85518264D02*
X118707371Y-85518264D01*
X118707371Y-85518264D02*
X118598514Y-85463836D01*
X118598514Y-85463836D02*
X118544086Y-85354979D01*
X118544086Y-85354979D02*
X118544086Y-85082836D01*
X118544086Y-85082836D02*
X118489657Y-84973979D01*
X118217514Y-84592978D02*
X118217514Y-84157550D01*
X117836514Y-84429693D02*
X118816228Y-84429693D01*
X118816228Y-84429693D02*
X118925086Y-84375264D01*
X118925086Y-84375264D02*
X118979514Y-84266407D01*
X118979514Y-84266407D02*
X118979514Y-84157550D01*
X118217514Y-83286693D02*
X118979514Y-83286693D01*
X118217514Y-83776550D02*
X118816228Y-83776550D01*
X118816228Y-83776550D02*
X118925086Y-83722121D01*
X118925086Y-83722121D02*
X118979514Y-83613264D01*
X118979514Y-83613264D02*
X118979514Y-83449978D01*
X118979514Y-83449978D02*
X118925086Y-83341121D01*
X118925086Y-83341121D02*
X118870657Y-83286693D01*
X118979514Y-82742407D02*
X118217514Y-82742407D01*
X118435228Y-82742407D02*
X118326371Y-82687978D01*
X118326371Y-82687978D02*
X118271943Y-82633550D01*
X118271943Y-82633550D02*
X118217514Y-82524692D01*
X118217514Y-82524692D02*
X118217514Y-82415835D01*
X118925086Y-81599407D02*
X118979514Y-81708264D01*
X118979514Y-81708264D02*
X118979514Y-81925979D01*
X118979514Y-81925979D02*
X118925086Y-82034836D01*
X118925086Y-82034836D02*
X118816228Y-82089264D01*
X118816228Y-82089264D02*
X118380800Y-82089264D01*
X118380800Y-82089264D02*
X118271943Y-82034836D01*
X118271943Y-82034836D02*
X118217514Y-81925979D01*
X118217514Y-81925979D02*
X118217514Y-81708264D01*
X118217514Y-81708264D02*
X118271943Y-81599407D01*
X118271943Y-81599407D02*
X118380800Y-81544979D01*
X118380800Y-81544979D02*
X118489657Y-81544979D01*
X118489657Y-81544979D02*
X118598514Y-82089264D01*
X119088371Y-81327265D02*
X119088371Y-80456407D01*
X118925086Y-80238693D02*
X118979514Y-80075408D01*
X118979514Y-80075408D02*
X118979514Y-79803265D01*
X118979514Y-79803265D02*
X118925086Y-79694408D01*
X118925086Y-79694408D02*
X118870657Y-79639979D01*
X118870657Y-79639979D02*
X118761800Y-79585550D01*
X118761800Y-79585550D02*
X118652943Y-79585550D01*
X118652943Y-79585550D02*
X118544086Y-79639979D01*
X118544086Y-79639979D02*
X118489657Y-79694408D01*
X118489657Y-79694408D02*
X118435228Y-79803265D01*
X118435228Y-79803265D02*
X118380800Y-80020979D01*
X118380800Y-80020979D02*
X118326371Y-80129836D01*
X118326371Y-80129836D02*
X118271943Y-80184265D01*
X118271943Y-80184265D02*
X118163086Y-80238693D01*
X118163086Y-80238693D02*
X118054228Y-80238693D01*
X118054228Y-80238693D02*
X117945371Y-80184265D01*
X117945371Y-80184265D02*
X117890943Y-80129836D01*
X117890943Y-80129836D02*
X117836514Y-80020979D01*
X117836514Y-80020979D02*
X117836514Y-79748836D01*
X117836514Y-79748836D02*
X117890943Y-79585550D01*
X118925086Y-78660265D02*
X118979514Y-78769122D01*
X118979514Y-78769122D02*
X118979514Y-78986837D01*
X118979514Y-78986837D02*
X118925086Y-79095694D01*
X118925086Y-79095694D02*
X118816228Y-79150122D01*
X118816228Y-79150122D02*
X118380800Y-79150122D01*
X118380800Y-79150122D02*
X118271943Y-79095694D01*
X118271943Y-79095694D02*
X118217514Y-78986837D01*
X118217514Y-78986837D02*
X118217514Y-78769122D01*
X118217514Y-78769122D02*
X118271943Y-78660265D01*
X118271943Y-78660265D02*
X118380800Y-78605837D01*
X118380800Y-78605837D02*
X118489657Y-78605837D01*
X118489657Y-78605837D02*
X118598514Y-79150122D01*
X118217514Y-78115980D02*
X118979514Y-78115980D01*
X118326371Y-78115980D02*
X118271943Y-78061551D01*
X118271943Y-78061551D02*
X118217514Y-77952694D01*
X118217514Y-77952694D02*
X118217514Y-77789408D01*
X118217514Y-77789408D02*
X118271943Y-77680551D01*
X118271943Y-77680551D02*
X118380800Y-77626123D01*
X118380800Y-77626123D02*
X118979514Y-77626123D01*
X118925086Y-77136265D02*
X118979514Y-77027408D01*
X118979514Y-77027408D02*
X118979514Y-76809694D01*
X118979514Y-76809694D02*
X118925086Y-76700837D01*
X118925086Y-76700837D02*
X118816228Y-76646408D01*
X118816228Y-76646408D02*
X118761800Y-76646408D01*
X118761800Y-76646408D02*
X118652943Y-76700837D01*
X118652943Y-76700837D02*
X118598514Y-76809694D01*
X118598514Y-76809694D02*
X118598514Y-76972980D01*
X118598514Y-76972980D02*
X118544086Y-77081837D01*
X118544086Y-77081837D02*
X118435228Y-77136265D01*
X118435228Y-77136265D02*
X118380800Y-77136265D01*
X118380800Y-77136265D02*
X118271943Y-77081837D01*
X118271943Y-77081837D02*
X118217514Y-76972980D01*
X118217514Y-76972980D02*
X118217514Y-76809694D01*
X118217514Y-76809694D02*
X118271943Y-76700837D01*
X118979514Y-75993265D02*
X118925086Y-76102122D01*
X118925086Y-76102122D02*
X118870657Y-76156551D01*
X118870657Y-76156551D02*
X118761800Y-76210979D01*
X118761800Y-76210979D02*
X118435228Y-76210979D01*
X118435228Y-76210979D02*
X118326371Y-76156551D01*
X118326371Y-76156551D02*
X118271943Y-76102122D01*
X118271943Y-76102122D02*
X118217514Y-75993265D01*
X118217514Y-75993265D02*
X118217514Y-75829979D01*
X118217514Y-75829979D02*
X118271943Y-75721122D01*
X118271943Y-75721122D02*
X118326371Y-75666694D01*
X118326371Y-75666694D02*
X118435228Y-75612265D01*
X118435228Y-75612265D02*
X118761800Y-75612265D01*
X118761800Y-75612265D02*
X118870657Y-75666694D01*
X118870657Y-75666694D02*
X118925086Y-75721122D01*
X118925086Y-75721122D02*
X118979514Y-75829979D01*
X118979514Y-75829979D02*
X118979514Y-75993265D01*
X118979514Y-75122408D02*
X118217514Y-75122408D01*
X118435228Y-75122408D02*
X118326371Y-75067979D01*
X118326371Y-75067979D02*
X118271943Y-75013551D01*
X118271943Y-75013551D02*
X118217514Y-74904693D01*
X118217514Y-74904693D02*
X118217514Y-74795836D01*
X119088371Y-74686980D02*
X119088371Y-73816122D01*
X118979514Y-72945265D02*
X118979514Y-73598408D01*
X118979514Y-73271837D02*
X117836514Y-73271837D01*
X117836514Y-73271837D02*
X117999800Y-73380694D01*
X117999800Y-73380694D02*
X118108657Y-73489551D01*
X118108657Y-73489551D02*
X118163086Y-73598408D01*
X125156591Y-79972371D02*
X125211019Y-79917943D01*
X125211019Y-79917943D02*
X125319877Y-79863514D01*
X125319877Y-79863514D02*
X125592019Y-79863514D01*
X125592019Y-79863514D02*
X125700877Y-79917943D01*
X125700877Y-79917943D02*
X125755305Y-79972371D01*
X125755305Y-79972371D02*
X125809734Y-80081228D01*
X125809734Y-80081228D02*
X125809734Y-80190086D01*
X125809734Y-80190086D02*
X125755305Y-80353371D01*
X125755305Y-80353371D02*
X125102162Y-81006514D01*
X125102162Y-81006514D02*
X125809734Y-81006514D01*
X122634734Y-78974514D02*
X121981591Y-78974514D01*
X122308162Y-78974514D02*
X122308162Y-77831514D01*
X122308162Y-77831514D02*
X122199305Y-77994800D01*
X122199305Y-77994800D02*
X122090448Y-78103657D01*
X122090448Y-78103657D02*
X121981591Y-78158086D01*
X121673162Y-86086514D02*
X122380734Y-86086514D01*
X122380734Y-86086514D02*
X121999734Y-86521943D01*
X121999734Y-86521943D02*
X122163019Y-86521943D01*
X122163019Y-86521943D02*
X122271877Y-86576371D01*
X122271877Y-86576371D02*
X122326305Y-86630800D01*
X122326305Y-86630800D02*
X122380734Y-86739657D01*
X122380734Y-86739657D02*
X122380734Y-87011800D01*
X122380734Y-87011800D02*
X122326305Y-87120657D01*
X122326305Y-87120657D02*
X122271877Y-87175086D01*
X122271877Y-87175086D02*
X122163019Y-87229514D01*
X122163019Y-87229514D02*
X121836448Y-87229514D01*
X121836448Y-87229514D02*
X121727591Y-87175086D01*
X121727591Y-87175086D02*
X121673162Y-87120657D01*
D11*
X130969338Y-79336792D02*
X130969338Y-80115726D01*
X130691147Y-78891688D02*
X130412957Y-79726259D01*
X130412957Y-79726259D02*
X131136252Y-79726259D01*
X131581357Y-80004449D02*
X131636995Y-80060088D01*
X131636995Y-80060088D02*
X131581357Y-80115726D01*
X131581357Y-80115726D02*
X131525719Y-80060088D01*
X131525719Y-80060088D02*
X131581357Y-80004449D01*
X131581357Y-80004449D02*
X131581357Y-80115726D01*
X132026462Y-78947326D02*
X132805395Y-78947326D01*
X132805395Y-78947326D02*
X132304652Y-80115726D01*
X133250500Y-80115726D02*
X133250500Y-78947326D01*
X133361776Y-79670621D02*
X133695605Y-80115726D01*
X133695605Y-79336792D02*
X133250500Y-79781897D01*
D10*
%TO.C,J1*%
X139831000Y-91731000D02*
X158371000Y-91731000D01*
X139831000Y-91731000D02*
X139831000Y-75401000D01*
X158371000Y-91731000D02*
X158371000Y-75401000D01*
X139831000Y-75401000D02*
X158371000Y-75401000D01*
%TO.C,U$1*%
X121920000Y-79895100D02*
X121920000Y-80296300D01*
X120523000Y-80455500D02*
X120523000Y-84644500D01*
X121920000Y-82263700D02*
X121920000Y-82836300D01*
X121920000Y-84803700D02*
X121920000Y-85204900D01*
X124722500Y-81763701D02*
G75*
G03*
X121920000Y-79895101I-2548479J-786298D01*
G01*
X121920000Y-79895099D02*
G75*
G03*
X120523000Y-80455400I253950J-2654895D01*
G01*
X120523001Y-84644498D02*
G75*
G03*
X124722400Y-83336300I1650989J2094488D01*
G01*
%TD*%
M02*
