%TF.GenerationSoftware,KiCad,Pcbnew,7.0.6*%
%TF.CreationDate,2023-12-02T19:26:26-07:00*%
%TF.ProjectId,Temp Sensor Board 1,54656d70-2053-4656-9e73-6f7220426f61,rev?*%
%TF.SameCoordinates,Original*%
%TF.FileFunction,Drillmap*%
%TF.FilePolarity,Positive*%
%FSLAX45Y45*%
G04 Gerber Fmt 4.5, Leading zero omitted, Abs format (unit mm)*
G04 Created by KiCad (PCBNEW 7.0.6) date 2023-12-02 19:26:26*
%MOMM*%
%LPD*%
G01*
G04 APERTURE LIST*
%ADD10C,0.100000*%
%ADD11C,0.200000*%
%ADD12C,0.330000*%
G04 APERTURE END LIST*
D10*
X11722100Y-7251700D02*
X15853665Y-7251700D01*
X15853665Y-9236965D01*
X11722100Y-9236965D01*
X11722100Y-7251700D01*
D11*
D12*
X14859100Y-7684100D02*
X15189100Y-8014100D01*
X15189100Y-7684100D02*
X14859100Y-8014100D01*
X14859100Y-8700100D02*
X15189100Y-9030100D01*
X15189100Y-8700100D02*
X14859100Y-9030100D01*
D11*
X11977877Y-9553448D02*
X11977877Y-9353448D01*
X11977877Y-9353448D02*
X12025496Y-9353448D01*
X12025496Y-9353448D02*
X12054067Y-9362972D01*
X12054067Y-9362972D02*
X12073115Y-9382020D01*
X12073115Y-9382020D02*
X12082639Y-9401067D01*
X12082639Y-9401067D02*
X12092162Y-9439163D01*
X12092162Y-9439163D02*
X12092162Y-9467734D01*
X12092162Y-9467734D02*
X12082639Y-9505829D01*
X12082639Y-9505829D02*
X12073115Y-9524877D01*
X12073115Y-9524877D02*
X12054067Y-9543925D01*
X12054067Y-9543925D02*
X12025496Y-9553448D01*
X12025496Y-9553448D02*
X11977877Y-9553448D01*
X12177877Y-9553448D02*
X12177877Y-9420115D01*
X12177877Y-9458210D02*
X12187401Y-9439163D01*
X12187401Y-9439163D02*
X12196924Y-9429639D01*
X12196924Y-9429639D02*
X12215972Y-9420115D01*
X12215972Y-9420115D02*
X12235020Y-9420115D01*
X12301686Y-9553448D02*
X12301686Y-9420115D01*
X12301686Y-9353448D02*
X12292162Y-9362972D01*
X12292162Y-9362972D02*
X12301686Y-9372496D01*
X12301686Y-9372496D02*
X12311210Y-9362972D01*
X12311210Y-9362972D02*
X12301686Y-9353448D01*
X12301686Y-9353448D02*
X12301686Y-9372496D01*
X12425496Y-9553448D02*
X12406448Y-9543925D01*
X12406448Y-9543925D02*
X12396924Y-9524877D01*
X12396924Y-9524877D02*
X12396924Y-9353448D01*
X12530258Y-9553448D02*
X12511210Y-9543925D01*
X12511210Y-9543925D02*
X12501686Y-9524877D01*
X12501686Y-9524877D02*
X12501686Y-9353448D01*
X12758829Y-9553448D02*
X12758829Y-9353448D01*
X12758829Y-9353448D02*
X12825496Y-9496306D01*
X12825496Y-9496306D02*
X12892162Y-9353448D01*
X12892162Y-9353448D02*
X12892162Y-9553448D01*
X13073115Y-9553448D02*
X13073115Y-9448687D01*
X13073115Y-9448687D02*
X13063591Y-9429639D01*
X13063591Y-9429639D02*
X13044543Y-9420115D01*
X13044543Y-9420115D02*
X13006448Y-9420115D01*
X13006448Y-9420115D02*
X12987401Y-9429639D01*
X13073115Y-9543925D02*
X13054067Y-9553448D01*
X13054067Y-9553448D02*
X13006448Y-9553448D01*
X13006448Y-9553448D02*
X12987401Y-9543925D01*
X12987401Y-9543925D02*
X12977877Y-9524877D01*
X12977877Y-9524877D02*
X12977877Y-9505829D01*
X12977877Y-9505829D02*
X12987401Y-9486782D01*
X12987401Y-9486782D02*
X13006448Y-9477258D01*
X13006448Y-9477258D02*
X13054067Y-9477258D01*
X13054067Y-9477258D02*
X13073115Y-9467734D01*
X13168353Y-9420115D02*
X13168353Y-9620115D01*
X13168353Y-9429639D02*
X13187401Y-9420115D01*
X13187401Y-9420115D02*
X13225496Y-9420115D01*
X13225496Y-9420115D02*
X13244543Y-9429639D01*
X13244543Y-9429639D02*
X13254067Y-9439163D01*
X13254067Y-9439163D02*
X13263591Y-9458210D01*
X13263591Y-9458210D02*
X13263591Y-9515353D01*
X13263591Y-9515353D02*
X13254067Y-9534401D01*
X13254067Y-9534401D02*
X13244543Y-9543925D01*
X13244543Y-9543925D02*
X13225496Y-9553448D01*
X13225496Y-9553448D02*
X13187401Y-9553448D01*
X13187401Y-9553448D02*
X13168353Y-9543925D01*
X13349305Y-9534401D02*
X13358829Y-9543925D01*
X13358829Y-9543925D02*
X13349305Y-9553448D01*
X13349305Y-9553448D02*
X13339782Y-9543925D01*
X13339782Y-9543925D02*
X13349305Y-9534401D01*
X13349305Y-9534401D02*
X13349305Y-9553448D01*
X13349305Y-9429639D02*
X13358829Y-9439163D01*
X13358829Y-9439163D02*
X13349305Y-9448687D01*
X13349305Y-9448687D02*
X13339782Y-9439163D01*
X13339782Y-9439163D02*
X13349305Y-9429639D01*
X13349305Y-9429639D02*
X13349305Y-9448687D01*
X11517100Y-9781965D02*
X11717100Y-9981965D01*
X11717100Y-9781965D02*
X11517100Y-9981965D01*
X11958829Y-9773448D02*
X12082639Y-9773448D01*
X12082639Y-9773448D02*
X12015972Y-9849639D01*
X12015972Y-9849639D02*
X12044543Y-9849639D01*
X12044543Y-9849639D02*
X12063591Y-9859163D01*
X12063591Y-9859163D02*
X12073115Y-9868687D01*
X12073115Y-9868687D02*
X12082639Y-9887734D01*
X12082639Y-9887734D02*
X12082639Y-9935353D01*
X12082639Y-9935353D02*
X12073115Y-9954401D01*
X12073115Y-9954401D02*
X12063591Y-9963925D01*
X12063591Y-9963925D02*
X12044543Y-9973448D01*
X12044543Y-9973448D02*
X11987401Y-9973448D01*
X11987401Y-9973448D02*
X11968353Y-9963925D01*
X11968353Y-9963925D02*
X11958829Y-9954401D01*
X12168353Y-9954401D02*
X12177877Y-9963925D01*
X12177877Y-9963925D02*
X12168353Y-9973448D01*
X12168353Y-9973448D02*
X12158829Y-9963925D01*
X12158829Y-9963925D02*
X12168353Y-9954401D01*
X12168353Y-9954401D02*
X12168353Y-9973448D01*
X12244543Y-9773448D02*
X12368353Y-9773448D01*
X12368353Y-9773448D02*
X12301686Y-9849639D01*
X12301686Y-9849639D02*
X12330258Y-9849639D01*
X12330258Y-9849639D02*
X12349305Y-9859163D01*
X12349305Y-9859163D02*
X12358829Y-9868687D01*
X12358829Y-9868687D02*
X12368353Y-9887734D01*
X12368353Y-9887734D02*
X12368353Y-9935353D01*
X12368353Y-9935353D02*
X12358829Y-9954401D01*
X12358829Y-9954401D02*
X12349305Y-9963925D01*
X12349305Y-9963925D02*
X12330258Y-9973448D01*
X12330258Y-9973448D02*
X12273115Y-9973448D01*
X12273115Y-9973448D02*
X12254067Y-9963925D01*
X12254067Y-9963925D02*
X12244543Y-9954401D01*
X12492162Y-9773448D02*
X12511210Y-9773448D01*
X12511210Y-9773448D02*
X12530258Y-9782972D01*
X12530258Y-9782972D02*
X12539782Y-9792496D01*
X12539782Y-9792496D02*
X12549305Y-9811544D01*
X12549305Y-9811544D02*
X12558829Y-9849639D01*
X12558829Y-9849639D02*
X12558829Y-9897258D01*
X12558829Y-9897258D02*
X12549305Y-9935353D01*
X12549305Y-9935353D02*
X12539782Y-9954401D01*
X12539782Y-9954401D02*
X12530258Y-9963925D01*
X12530258Y-9963925D02*
X12511210Y-9973448D01*
X12511210Y-9973448D02*
X12492162Y-9973448D01*
X12492162Y-9973448D02*
X12473115Y-9963925D01*
X12473115Y-9963925D02*
X12463591Y-9954401D01*
X12463591Y-9954401D02*
X12454067Y-9935353D01*
X12454067Y-9935353D02*
X12444543Y-9897258D01*
X12444543Y-9897258D02*
X12444543Y-9849639D01*
X12444543Y-9849639D02*
X12454067Y-9811544D01*
X12454067Y-9811544D02*
X12463591Y-9792496D01*
X12463591Y-9792496D02*
X12473115Y-9782972D01*
X12473115Y-9782972D02*
X12492162Y-9773448D01*
X12682639Y-9773448D02*
X12701686Y-9773448D01*
X12701686Y-9773448D02*
X12720734Y-9782972D01*
X12720734Y-9782972D02*
X12730258Y-9792496D01*
X12730258Y-9792496D02*
X12739782Y-9811544D01*
X12739782Y-9811544D02*
X12749305Y-9849639D01*
X12749305Y-9849639D02*
X12749305Y-9897258D01*
X12749305Y-9897258D02*
X12739782Y-9935353D01*
X12739782Y-9935353D02*
X12730258Y-9954401D01*
X12730258Y-9954401D02*
X12720734Y-9963925D01*
X12720734Y-9963925D02*
X12701686Y-9973448D01*
X12701686Y-9973448D02*
X12682639Y-9973448D01*
X12682639Y-9973448D02*
X12663591Y-9963925D01*
X12663591Y-9963925D02*
X12654067Y-9954401D01*
X12654067Y-9954401D02*
X12644543Y-9935353D01*
X12644543Y-9935353D02*
X12635020Y-9897258D01*
X12635020Y-9897258D02*
X12635020Y-9849639D01*
X12635020Y-9849639D02*
X12644543Y-9811544D01*
X12644543Y-9811544D02*
X12654067Y-9792496D01*
X12654067Y-9792496D02*
X12663591Y-9782972D01*
X12663591Y-9782972D02*
X12682639Y-9773448D01*
X12835020Y-9973448D02*
X12835020Y-9840115D01*
X12835020Y-9859163D02*
X12844543Y-9849639D01*
X12844543Y-9849639D02*
X12863591Y-9840115D01*
X12863591Y-9840115D02*
X12892163Y-9840115D01*
X12892163Y-9840115D02*
X12911210Y-9849639D01*
X12911210Y-9849639D02*
X12920734Y-9868687D01*
X12920734Y-9868687D02*
X12920734Y-9973448D01*
X12920734Y-9868687D02*
X12930258Y-9849639D01*
X12930258Y-9849639D02*
X12949305Y-9840115D01*
X12949305Y-9840115D02*
X12977877Y-9840115D01*
X12977877Y-9840115D02*
X12996924Y-9849639D01*
X12996924Y-9849639D02*
X13006448Y-9868687D01*
X13006448Y-9868687D02*
X13006448Y-9973448D01*
X13101686Y-9973448D02*
X13101686Y-9840115D01*
X13101686Y-9859163D02*
X13111210Y-9849639D01*
X13111210Y-9849639D02*
X13130258Y-9840115D01*
X13130258Y-9840115D02*
X13158829Y-9840115D01*
X13158829Y-9840115D02*
X13177877Y-9849639D01*
X13177877Y-9849639D02*
X13187401Y-9868687D01*
X13187401Y-9868687D02*
X13187401Y-9973448D01*
X13187401Y-9868687D02*
X13196924Y-9849639D01*
X13196924Y-9849639D02*
X13215972Y-9840115D01*
X13215972Y-9840115D02*
X13244543Y-9840115D01*
X13244543Y-9840115D02*
X13263591Y-9849639D01*
X13263591Y-9849639D02*
X13273115Y-9868687D01*
X13273115Y-9868687D02*
X13273115Y-9973448D01*
X13663591Y-9763925D02*
X13492163Y-10021067D01*
X13920734Y-9773448D02*
X13939782Y-9773448D01*
X13939782Y-9773448D02*
X13958829Y-9782972D01*
X13958829Y-9782972D02*
X13968353Y-9792496D01*
X13968353Y-9792496D02*
X13977877Y-9811544D01*
X13977877Y-9811544D02*
X13987401Y-9849639D01*
X13987401Y-9849639D02*
X13987401Y-9897258D01*
X13987401Y-9897258D02*
X13977877Y-9935353D01*
X13977877Y-9935353D02*
X13968353Y-9954401D01*
X13968353Y-9954401D02*
X13958829Y-9963925D01*
X13958829Y-9963925D02*
X13939782Y-9973448D01*
X13939782Y-9973448D02*
X13920734Y-9973448D01*
X13920734Y-9973448D02*
X13901686Y-9963925D01*
X13901686Y-9963925D02*
X13892163Y-9954401D01*
X13892163Y-9954401D02*
X13882639Y-9935353D01*
X13882639Y-9935353D02*
X13873115Y-9897258D01*
X13873115Y-9897258D02*
X13873115Y-9849639D01*
X13873115Y-9849639D02*
X13882639Y-9811544D01*
X13882639Y-9811544D02*
X13892163Y-9792496D01*
X13892163Y-9792496D02*
X13901686Y-9782972D01*
X13901686Y-9782972D02*
X13920734Y-9773448D01*
X14073115Y-9954401D02*
X14082639Y-9963925D01*
X14082639Y-9963925D02*
X14073115Y-9973448D01*
X14073115Y-9973448D02*
X14063591Y-9963925D01*
X14063591Y-9963925D02*
X14073115Y-9954401D01*
X14073115Y-9954401D02*
X14073115Y-9973448D01*
X14273115Y-9973448D02*
X14158829Y-9973448D01*
X14215972Y-9973448D02*
X14215972Y-9773448D01*
X14215972Y-9773448D02*
X14196925Y-9802020D01*
X14196925Y-9802020D02*
X14177877Y-9821067D01*
X14177877Y-9821067D02*
X14158829Y-9830591D01*
X14349306Y-9792496D02*
X14358829Y-9782972D01*
X14358829Y-9782972D02*
X14377877Y-9773448D01*
X14377877Y-9773448D02*
X14425496Y-9773448D01*
X14425496Y-9773448D02*
X14444544Y-9782972D01*
X14444544Y-9782972D02*
X14454067Y-9792496D01*
X14454067Y-9792496D02*
X14463591Y-9811544D01*
X14463591Y-9811544D02*
X14463591Y-9830591D01*
X14463591Y-9830591D02*
X14454067Y-9859163D01*
X14454067Y-9859163D02*
X14339782Y-9973448D01*
X14339782Y-9973448D02*
X14463591Y-9973448D01*
X14558829Y-9973448D02*
X14596925Y-9973448D01*
X14596925Y-9973448D02*
X14615972Y-9963925D01*
X14615972Y-9963925D02*
X14625496Y-9954401D01*
X14625496Y-9954401D02*
X14644544Y-9925829D01*
X14644544Y-9925829D02*
X14654067Y-9887734D01*
X14654067Y-9887734D02*
X14654067Y-9811544D01*
X14654067Y-9811544D02*
X14644544Y-9792496D01*
X14644544Y-9792496D02*
X14635020Y-9782972D01*
X14635020Y-9782972D02*
X14615972Y-9773448D01*
X14615972Y-9773448D02*
X14577877Y-9773448D01*
X14577877Y-9773448D02*
X14558829Y-9782972D01*
X14558829Y-9782972D02*
X14549306Y-9792496D01*
X14549306Y-9792496D02*
X14539782Y-9811544D01*
X14539782Y-9811544D02*
X14539782Y-9859163D01*
X14539782Y-9859163D02*
X14549306Y-9878210D01*
X14549306Y-9878210D02*
X14558829Y-9887734D01*
X14558829Y-9887734D02*
X14577877Y-9897258D01*
X14577877Y-9897258D02*
X14615972Y-9897258D01*
X14615972Y-9897258D02*
X14635020Y-9887734D01*
X14635020Y-9887734D02*
X14644544Y-9878210D01*
X14644544Y-9878210D02*
X14654067Y-9859163D01*
X14749306Y-9973448D02*
X14787401Y-9973448D01*
X14787401Y-9973448D02*
X14806448Y-9963925D01*
X14806448Y-9963925D02*
X14815972Y-9954401D01*
X14815972Y-9954401D02*
X14835020Y-9925829D01*
X14835020Y-9925829D02*
X14844544Y-9887734D01*
X14844544Y-9887734D02*
X14844544Y-9811544D01*
X14844544Y-9811544D02*
X14835020Y-9792496D01*
X14835020Y-9792496D02*
X14825496Y-9782972D01*
X14825496Y-9782972D02*
X14806448Y-9773448D01*
X14806448Y-9773448D02*
X14768353Y-9773448D01*
X14768353Y-9773448D02*
X14749306Y-9782972D01*
X14749306Y-9782972D02*
X14739782Y-9792496D01*
X14739782Y-9792496D02*
X14730258Y-9811544D01*
X14730258Y-9811544D02*
X14730258Y-9859163D01*
X14730258Y-9859163D02*
X14739782Y-9878210D01*
X14739782Y-9878210D02*
X14749306Y-9887734D01*
X14749306Y-9887734D02*
X14768353Y-9897258D01*
X14768353Y-9897258D02*
X14806448Y-9897258D01*
X14806448Y-9897258D02*
X14825496Y-9887734D01*
X14825496Y-9887734D02*
X14835020Y-9878210D01*
X14835020Y-9878210D02*
X14844544Y-9859163D01*
X14920734Y-9773448D02*
X14920734Y-9811544D01*
X14996925Y-9773448D02*
X14996925Y-9811544D01*
X15292163Y-10049639D02*
X15282639Y-10040115D01*
X15282639Y-10040115D02*
X15263591Y-10011544D01*
X15263591Y-10011544D02*
X15254068Y-9992496D01*
X15254068Y-9992496D02*
X15244544Y-9963925D01*
X15244544Y-9963925D02*
X15235020Y-9916306D01*
X15235020Y-9916306D02*
X15235020Y-9878210D01*
X15235020Y-9878210D02*
X15244544Y-9830591D01*
X15244544Y-9830591D02*
X15254068Y-9802020D01*
X15254068Y-9802020D02*
X15263591Y-9782972D01*
X15263591Y-9782972D02*
X15282639Y-9754401D01*
X15282639Y-9754401D02*
X15292163Y-9744877D01*
X15358829Y-9792496D02*
X15368353Y-9782972D01*
X15368353Y-9782972D02*
X15387401Y-9773448D01*
X15387401Y-9773448D02*
X15435020Y-9773448D01*
X15435020Y-9773448D02*
X15454068Y-9782972D01*
X15454068Y-9782972D02*
X15463591Y-9792496D01*
X15463591Y-9792496D02*
X15473115Y-9811544D01*
X15473115Y-9811544D02*
X15473115Y-9830591D01*
X15473115Y-9830591D02*
X15463591Y-9859163D01*
X15463591Y-9859163D02*
X15349306Y-9973448D01*
X15349306Y-9973448D02*
X15473115Y-9973448D01*
X15711210Y-9973448D02*
X15711210Y-9773448D01*
X15796925Y-9973448D02*
X15796925Y-9868687D01*
X15796925Y-9868687D02*
X15787401Y-9849639D01*
X15787401Y-9849639D02*
X15768353Y-9840115D01*
X15768353Y-9840115D02*
X15739782Y-9840115D01*
X15739782Y-9840115D02*
X15720734Y-9849639D01*
X15720734Y-9849639D02*
X15711210Y-9859163D01*
X15920734Y-9973448D02*
X15901687Y-9963925D01*
X15901687Y-9963925D02*
X15892163Y-9954401D01*
X15892163Y-9954401D02*
X15882639Y-9935353D01*
X15882639Y-9935353D02*
X15882639Y-9878210D01*
X15882639Y-9878210D02*
X15892163Y-9859163D01*
X15892163Y-9859163D02*
X15901687Y-9849639D01*
X15901687Y-9849639D02*
X15920734Y-9840115D01*
X15920734Y-9840115D02*
X15949306Y-9840115D01*
X15949306Y-9840115D02*
X15968353Y-9849639D01*
X15968353Y-9849639D02*
X15977877Y-9859163D01*
X15977877Y-9859163D02*
X15987401Y-9878210D01*
X15987401Y-9878210D02*
X15987401Y-9935353D01*
X15987401Y-9935353D02*
X15977877Y-9954401D01*
X15977877Y-9954401D02*
X15968353Y-9963925D01*
X15968353Y-9963925D02*
X15949306Y-9973448D01*
X15949306Y-9973448D02*
X15920734Y-9973448D01*
X16101687Y-9973448D02*
X16082639Y-9963925D01*
X16082639Y-9963925D02*
X16073115Y-9944877D01*
X16073115Y-9944877D02*
X16073115Y-9773448D01*
X16254068Y-9963925D02*
X16235020Y-9973448D01*
X16235020Y-9973448D02*
X16196925Y-9973448D01*
X16196925Y-9973448D02*
X16177877Y-9963925D01*
X16177877Y-9963925D02*
X16168353Y-9944877D01*
X16168353Y-9944877D02*
X16168353Y-9868687D01*
X16168353Y-9868687D02*
X16177877Y-9849639D01*
X16177877Y-9849639D02*
X16196925Y-9840115D01*
X16196925Y-9840115D02*
X16235020Y-9840115D01*
X16235020Y-9840115D02*
X16254068Y-9849639D01*
X16254068Y-9849639D02*
X16263591Y-9868687D01*
X16263591Y-9868687D02*
X16263591Y-9887734D01*
X16263591Y-9887734D02*
X16168353Y-9906782D01*
X16339782Y-9963925D02*
X16358830Y-9973448D01*
X16358830Y-9973448D02*
X16396925Y-9973448D01*
X16396925Y-9973448D02*
X16415972Y-9963925D01*
X16415972Y-9963925D02*
X16425496Y-9944877D01*
X16425496Y-9944877D02*
X16425496Y-9935353D01*
X16425496Y-9935353D02*
X16415972Y-9916306D01*
X16415972Y-9916306D02*
X16396925Y-9906782D01*
X16396925Y-9906782D02*
X16368353Y-9906782D01*
X16368353Y-9906782D02*
X16349306Y-9897258D01*
X16349306Y-9897258D02*
X16339782Y-9878210D01*
X16339782Y-9878210D02*
X16339782Y-9868687D01*
X16339782Y-9868687D02*
X16349306Y-9849639D01*
X16349306Y-9849639D02*
X16368353Y-9840115D01*
X16368353Y-9840115D02*
X16396925Y-9840115D01*
X16396925Y-9840115D02*
X16415972Y-9849639D01*
X16492163Y-10049639D02*
X16501687Y-10040115D01*
X16501687Y-10040115D02*
X16520734Y-10011544D01*
X16520734Y-10011544D02*
X16530258Y-9992496D01*
X16530258Y-9992496D02*
X16539782Y-9963925D01*
X16539782Y-9963925D02*
X16549306Y-9916306D01*
X16549306Y-9916306D02*
X16549306Y-9878210D01*
X16549306Y-9878210D02*
X16539782Y-9830591D01*
X16539782Y-9830591D02*
X16530258Y-9802020D01*
X16530258Y-9802020D02*
X16520734Y-9782972D01*
X16520734Y-9782972D02*
X16501687Y-9754401D01*
X16501687Y-9754401D02*
X16492163Y-9744877D01*
X16854068Y-10049639D02*
X16844544Y-10040115D01*
X16844544Y-10040115D02*
X16825496Y-10011544D01*
X16825496Y-10011544D02*
X16815973Y-9992496D01*
X16815973Y-9992496D02*
X16806449Y-9963925D01*
X16806449Y-9963925D02*
X16796925Y-9916306D01*
X16796925Y-9916306D02*
X16796925Y-9878210D01*
X16796925Y-9878210D02*
X16806449Y-9830591D01*
X16806449Y-9830591D02*
X16815973Y-9802020D01*
X16815973Y-9802020D02*
X16825496Y-9782972D01*
X16825496Y-9782972D02*
X16844544Y-9754401D01*
X16844544Y-9754401D02*
X16854068Y-9744877D01*
X16930258Y-9840115D02*
X16930258Y-9973448D01*
X16930258Y-9859163D02*
X16939782Y-9849639D01*
X16939782Y-9849639D02*
X16958830Y-9840115D01*
X16958830Y-9840115D02*
X16987401Y-9840115D01*
X16987401Y-9840115D02*
X17006449Y-9849639D01*
X17006449Y-9849639D02*
X17015973Y-9868687D01*
X17015973Y-9868687D02*
X17015973Y-9973448D01*
X17139782Y-9973448D02*
X17120734Y-9963925D01*
X17120734Y-9963925D02*
X17111211Y-9954401D01*
X17111211Y-9954401D02*
X17101687Y-9935353D01*
X17101687Y-9935353D02*
X17101687Y-9878210D01*
X17101687Y-9878210D02*
X17111211Y-9859163D01*
X17111211Y-9859163D02*
X17120734Y-9849639D01*
X17120734Y-9849639D02*
X17139782Y-9840115D01*
X17139782Y-9840115D02*
X17168354Y-9840115D01*
X17168354Y-9840115D02*
X17187401Y-9849639D01*
X17187401Y-9849639D02*
X17196925Y-9859163D01*
X17196925Y-9859163D02*
X17206449Y-9878210D01*
X17206449Y-9878210D02*
X17206449Y-9935353D01*
X17206449Y-9935353D02*
X17196925Y-9954401D01*
X17196925Y-9954401D02*
X17187401Y-9963925D01*
X17187401Y-9963925D02*
X17168354Y-9973448D01*
X17168354Y-9973448D02*
X17139782Y-9973448D01*
X17263592Y-9840115D02*
X17339782Y-9840115D01*
X17292163Y-9773448D02*
X17292163Y-9944877D01*
X17292163Y-9944877D02*
X17301687Y-9963925D01*
X17301687Y-9963925D02*
X17320734Y-9973448D01*
X17320734Y-9973448D02*
X17339782Y-9973448D01*
X17558830Y-9840115D02*
X17558830Y-10040115D01*
X17558830Y-9849639D02*
X17577877Y-9840115D01*
X17577877Y-9840115D02*
X17615973Y-9840115D01*
X17615973Y-9840115D02*
X17635020Y-9849639D01*
X17635020Y-9849639D02*
X17644544Y-9859163D01*
X17644544Y-9859163D02*
X17654068Y-9878210D01*
X17654068Y-9878210D02*
X17654068Y-9935353D01*
X17654068Y-9935353D02*
X17644544Y-9954401D01*
X17644544Y-9954401D02*
X17635020Y-9963925D01*
X17635020Y-9963925D02*
X17615973Y-9973448D01*
X17615973Y-9973448D02*
X17577877Y-9973448D01*
X17577877Y-9973448D02*
X17558830Y-9963925D01*
X17768354Y-9973448D02*
X17749306Y-9963925D01*
X17749306Y-9963925D02*
X17739782Y-9944877D01*
X17739782Y-9944877D02*
X17739782Y-9773448D01*
X17930258Y-9973448D02*
X17930258Y-9868687D01*
X17930258Y-9868687D02*
X17920735Y-9849639D01*
X17920735Y-9849639D02*
X17901687Y-9840115D01*
X17901687Y-9840115D02*
X17863592Y-9840115D01*
X17863592Y-9840115D02*
X17844544Y-9849639D01*
X17930258Y-9963925D02*
X17911211Y-9973448D01*
X17911211Y-9973448D02*
X17863592Y-9973448D01*
X17863592Y-9973448D02*
X17844544Y-9963925D01*
X17844544Y-9963925D02*
X17835020Y-9944877D01*
X17835020Y-9944877D02*
X17835020Y-9925829D01*
X17835020Y-9925829D02*
X17844544Y-9906782D01*
X17844544Y-9906782D02*
X17863592Y-9897258D01*
X17863592Y-9897258D02*
X17911211Y-9897258D01*
X17911211Y-9897258D02*
X17930258Y-9887734D01*
X17996925Y-9840115D02*
X18073115Y-9840115D01*
X18025496Y-9773448D02*
X18025496Y-9944877D01*
X18025496Y-9944877D02*
X18035020Y-9963925D01*
X18035020Y-9963925D02*
X18054068Y-9973448D01*
X18054068Y-9973448D02*
X18073115Y-9973448D01*
X18215973Y-9963925D02*
X18196925Y-9973448D01*
X18196925Y-9973448D02*
X18158830Y-9973448D01*
X18158830Y-9973448D02*
X18139782Y-9963925D01*
X18139782Y-9963925D02*
X18130258Y-9944877D01*
X18130258Y-9944877D02*
X18130258Y-9868687D01*
X18130258Y-9868687D02*
X18139782Y-9849639D01*
X18139782Y-9849639D02*
X18158830Y-9840115D01*
X18158830Y-9840115D02*
X18196925Y-9840115D01*
X18196925Y-9840115D02*
X18215973Y-9849639D01*
X18215973Y-9849639D02*
X18225496Y-9868687D01*
X18225496Y-9868687D02*
X18225496Y-9887734D01*
X18225496Y-9887734D02*
X18130258Y-9906782D01*
X18396925Y-9973448D02*
X18396925Y-9773448D01*
X18396925Y-9963925D02*
X18377877Y-9973448D01*
X18377877Y-9973448D02*
X18339782Y-9973448D01*
X18339782Y-9973448D02*
X18320735Y-9963925D01*
X18320735Y-9963925D02*
X18311211Y-9954401D01*
X18311211Y-9954401D02*
X18301687Y-9935353D01*
X18301687Y-9935353D02*
X18301687Y-9878210D01*
X18301687Y-9878210D02*
X18311211Y-9859163D01*
X18311211Y-9859163D02*
X18320735Y-9849639D01*
X18320735Y-9849639D02*
X18339782Y-9840115D01*
X18339782Y-9840115D02*
X18377877Y-9840115D01*
X18377877Y-9840115D02*
X18396925Y-9849639D01*
X18473116Y-10049639D02*
X18482639Y-10040115D01*
X18482639Y-10040115D02*
X18501687Y-10011544D01*
X18501687Y-10011544D02*
X18511211Y-9992496D01*
X18511211Y-9992496D02*
X18520735Y-9963925D01*
X18520735Y-9963925D02*
X18530258Y-9916306D01*
X18530258Y-9916306D02*
X18530258Y-9878210D01*
X18530258Y-9878210D02*
X18520735Y-9830591D01*
X18520735Y-9830591D02*
X18511211Y-9802020D01*
X18511211Y-9802020D02*
X18501687Y-9782972D01*
X18501687Y-9782972D02*
X18482639Y-9754401D01*
X18482639Y-9754401D02*
X18473116Y-9744877D01*
M02*
