G04 #@! TF.GenerationSoftware,KiCad,Pcbnew,7.0.2*
G04 #@! TF.CreationDate,2024-01-01T15:48:02-07:00*
G04 #@! TF.ProjectId,Temperature Sensor Board 2,54656d70-6572-4617-9475-72652053656e,rev?*
G04 #@! TF.SameCoordinates,Original*
G04 #@! TF.FileFunction,Copper,L1,Top*
G04 #@! TF.FilePolarity,Positive*
%FSLAX46Y46*%
G04 Gerber Fmt 4.6, Leading zero omitted, Abs format (unit mm)*
G04 Created by KiCad (PCBNEW 7.0.2) date 2024-01-01 15:48:02*
%MOMM*%
%LPD*%
G01*
G04 APERTURE LIST*
G04 Aperture macros list*
%AMOutline5P*
0 Free polygon, 5 corners , with rotation*
0 The origin of the aperture is its center*
0 number of corners: always 5*
0 $1 to $10 corner X, Y*
0 $11 Rotation angle, in degrees counterclockwise*
0 create outline with 5 corners*
4,1,5,$1,$2,$3,$4,$5,$6,$7,$8,$9,$10,$1,$2,$11*%
%AMOutline6P*
0 Free polygon, 6 corners , with rotation*
0 The origin of the aperture is its center*
0 number of corners: always 6*
0 $1 to $12 corner X, Y*
0 $13 Rotation angle, in degrees counterclockwise*
0 create outline with 6 corners*
4,1,6,$1,$2,$3,$4,$5,$6,$7,$8,$9,$10,$11,$12,$1,$2,$13*%
%AMOutline7P*
0 Free polygon, 7 corners , with rotation*
0 The origin of the aperture is its center*
0 number of corners: always 7*
0 $1 to $14 corner X, Y*
0 $15 Rotation angle, in degrees counterclockwise*
0 create outline with 7 corners*
4,1,7,$1,$2,$3,$4,$5,$6,$7,$8,$9,$10,$11,$12,$13,$14,$1,$2,$15*%
%AMOutline8P*
0 Free polygon, 8 corners , with rotation*
0 The origin of the aperture is its center*
0 number of corners: always 8*
0 $1 to $16 corner X, Y*
0 $17 Rotation angle, in degrees counterclockwise*
0 create outline with 8 corners*
4,1,8,$1,$2,$3,$4,$5,$6,$7,$8,$9,$10,$11,$12,$13,$14,$15,$16,$1,$2,$17*%
G04 Aperture macros list end*
G04 #@! TA.AperFunction,ComponentPad*
%ADD10R,1.508000X1.508000*%
G04 #@! TD*
G04 #@! TA.AperFunction,ComponentPad*
%ADD11C,1.508000*%
G04 #@! TD*
G04 #@! TA.AperFunction,ComponentPad*
%ADD12C,2.475000*%
G04 #@! TD*
G04 #@! TA.AperFunction,ComponentPad*
%ADD13Outline8P,-0.660400X0.273547X-0.273547X0.660400X0.273547X0.660400X0.660400X0.273547X0.660400X-0.273547X0.273547X-0.660400X-0.273547X-0.660400X-0.660400X-0.273547X270.000000*%
G04 #@! TD*
G04 #@! TA.AperFunction,SMDPad,CuDef*
%ADD14R,1.500000X1.300000*%
G04 #@! TD*
G04 #@! TA.AperFunction,ViaPad*
%ADD15C,0.800000*%
G04 #@! TD*
G04 #@! TA.AperFunction,Conductor*
%ADD16C,0.250000*%
G04 #@! TD*
G04 APERTURE END LIST*
D10*
X133817354Y-97114354D03*
D11*
X133817354Y-94574354D03*
X133817354Y-92034354D03*
X136357354Y-98384354D03*
X136357354Y-95844354D03*
X136357354Y-93304354D03*
D12*
X145757354Y-102074354D03*
X145757354Y-88354354D03*
D13*
X114640354Y-92923354D03*
X116545354Y-94193354D03*
X114640354Y-95463354D03*
D14*
X124673354Y-93690354D03*
X124673354Y-95590354D03*
D15*
X131531354Y-93939354D03*
X127975354Y-97241354D03*
X120228354Y-97368354D03*
X120228354Y-91907354D03*
X129753354Y-93939354D03*
X129753354Y-97241354D03*
X131404354Y-97241354D03*
X127848354Y-93939354D03*
D16*
X135281354Y-97432354D02*
X135281354Y-96419354D01*
X138008354Y-97495354D02*
X138008354Y-99273354D01*
X136484354Y-100797354D02*
X129880354Y-100797354D01*
X135281354Y-96419354D02*
X134642354Y-95780354D01*
X117048354Y-93690354D02*
X116545354Y-94193354D01*
X126763354Y-95780354D02*
X124673354Y-93690354D01*
X134642354Y-95780354D02*
X126763354Y-95780354D01*
X114767354Y-95590354D02*
X114640354Y-95463354D01*
X129880354Y-100797354D02*
X124673354Y-95590354D01*
X124673354Y-95590354D02*
X114767354Y-95590354D01*
X136357354Y-95844354D02*
X138008354Y-97495354D01*
X136360354Y-98511354D02*
X135281354Y-97432354D01*
X138008354Y-99273354D02*
X136484354Y-100797354D01*
X124673354Y-93690354D02*
X117048354Y-93690354D01*
G04 #@! TA.AperFunction,NonConductor*
G36*
X150905393Y-84434039D02*
G01*
X150951148Y-84486843D01*
X150962354Y-84538354D01*
X150962354Y-103793992D01*
X150942669Y-103861031D01*
X150926035Y-103881673D01*
X150871673Y-103936035D01*
X150810350Y-103969520D01*
X150783992Y-103972354D01*
X146323294Y-103972354D01*
X146256255Y-103952669D01*
X146210500Y-103899865D01*
X146200556Y-103830707D01*
X146229581Y-103767151D01*
X146286744Y-103729863D01*
X146394097Y-103696749D01*
X146628791Y-103583726D01*
X146844018Y-103436987D01*
X147034970Y-103259809D01*
X147197383Y-103056149D01*
X147327628Y-102830558D01*
X147422796Y-102588075D01*
X147480761Y-102334116D01*
X147500227Y-102074354D01*
X147480761Y-101814592D01*
X147422796Y-101560633D01*
X147327628Y-101318150D01*
X147197383Y-101092559D01*
X147034970Y-100888899D01*
X146844018Y-100711721D01*
X146721494Y-100628186D01*
X146628791Y-100564982D01*
X146517585Y-100511428D01*
X146394097Y-100451959D01*
X146317315Y-100428274D01*
X146145179Y-100375177D01*
X145887599Y-100336354D01*
X145627109Y-100336354D01*
X145369528Y-100375177D01*
X145120610Y-100451959D01*
X144885916Y-100564982D01*
X144793213Y-100628186D01*
X144726733Y-100649686D01*
X144659183Y-100631832D01*
X144612010Y-100580291D01*
X144600190Y-100511428D01*
X144601426Y-100503204D01*
X144601506Y-100502768D01*
X144611667Y-100224758D01*
X144603680Y-100152169D01*
X144581240Y-99948230D01*
X144510874Y-99679078D01*
X144402070Y-99423040D01*
X144257146Y-99185573D01*
X144165461Y-99075402D01*
X144079192Y-98971738D01*
X143971369Y-98875128D01*
X143871997Y-98786091D01*
X143639981Y-98632591D01*
X143639978Y-98632589D01*
X143388085Y-98514506D01*
X143121690Y-98434360D01*
X143121686Y-98434359D01*
X143121685Y-98434359D01*
X142846453Y-98393854D01*
X142637891Y-98393854D01*
X142635642Y-98394018D01*
X142635631Y-98394019D01*
X142429898Y-98409076D01*
X142158357Y-98469565D01*
X141898517Y-98568945D01*
X141655914Y-98705101D01*
X141435720Y-98875128D01*
X141242631Y-99075402D01*
X141080759Y-99301659D01*
X140953559Y-99549065D01*
X140863731Y-99812372D01*
X140813201Y-100085937D01*
X140803040Y-100363949D01*
X140818363Y-100503204D01*
X140833468Y-100640478D01*
X140903834Y-100909630D01*
X141012638Y-101165668D01*
X141157562Y-101403135D01*
X141157565Y-101403139D01*
X141157566Y-101403140D01*
X141175780Y-101425027D01*
X141335517Y-101616971D01*
X141542711Y-101802617D01*
X141750061Y-101939798D01*
X141774729Y-101956118D01*
X142026622Y-102074201D01*
X142234953Y-102136878D01*
X142293023Y-102154349D01*
X142568255Y-102194854D01*
X142568258Y-102194854D01*
X142774555Y-102194854D01*
X142776817Y-102194854D01*
X142984809Y-102179631D01*
X143256351Y-102119142D01*
X143516192Y-102019762D01*
X143758794Y-101883607D01*
X143825129Y-101832384D01*
X143890215Y-101806994D01*
X143958703Y-101820823D01*
X144008841Y-101869484D01*
X144024713Y-101937527D01*
X144024563Y-101939798D01*
X144014480Y-102074353D01*
X144033946Y-102334113D01*
X144091912Y-102588077D01*
X144187079Y-102830556D01*
X144187080Y-102830558D01*
X144317325Y-103056149D01*
X144479738Y-103259809D01*
X144670690Y-103436987D01*
X144885918Y-103583726D01*
X145120611Y-103696749D01*
X145227964Y-103729863D01*
X145286223Y-103768433D01*
X145314380Y-103832378D01*
X145303497Y-103901395D01*
X145257029Y-103953571D01*
X145191414Y-103972354D01*
X109865716Y-103972354D01*
X109798677Y-103952669D01*
X109778034Y-103936034D01*
X109724172Y-103882171D01*
X109690688Y-103820848D01*
X109687854Y-103794491D01*
X109687854Y-97368354D01*
X119322894Y-97368354D01*
X119342680Y-97556611D01*
X119401174Y-97736638D01*
X119495820Y-97900570D01*
X119622483Y-98041243D01*
X119775623Y-98152505D01*
X119948551Y-98229498D01*
X120133706Y-98268854D01*
X120133708Y-98268854D01*
X120323002Y-98268854D01*
X120477967Y-98235915D01*
X120508157Y-98229498D01*
X120681084Y-98152505D01*
X120834225Y-98041242D01*
X120960887Y-97900570D01*
X121055533Y-97736638D01*
X121114028Y-97556610D01*
X121133814Y-97368354D01*
X121114028Y-97180098D01*
X121055533Y-97000070D01*
X121055533Y-97000069D01*
X120960887Y-96836137D01*
X120834224Y-96695464D01*
X120681084Y-96584202D01*
X120508156Y-96507209D01*
X120323002Y-96467854D01*
X120323000Y-96467854D01*
X120133708Y-96467854D01*
X120133706Y-96467854D01*
X119948551Y-96507209D01*
X119775623Y-96584202D01*
X119622483Y-96695464D01*
X119495820Y-96836137D01*
X119401174Y-97000069D01*
X119342680Y-97180096D01*
X119322894Y-97368354D01*
X109687854Y-97368354D01*
X109687854Y-95777877D01*
X113479454Y-95777877D01*
X113479936Y-95781718D01*
X113479937Y-95781726D01*
X113490013Y-95861950D01*
X113545091Y-95994918D01*
X113594692Y-96058770D01*
X113594700Y-96058779D01*
X113597074Y-96061835D01*
X114041876Y-96506638D01*
X114105694Y-96556212D01*
X114108791Y-96558618D01*
X114241757Y-96613694D01*
X114256893Y-96615595D01*
X114325830Y-96624254D01*
X114329707Y-96624254D01*
X114951000Y-96624254D01*
X114954877Y-96624254D01*
X115038951Y-96613694D01*
X115171918Y-96558617D01*
X115238835Y-96506634D01*
X115493296Y-96252173D01*
X115554620Y-96218688D01*
X115580978Y-96215854D01*
X123303690Y-96215854D01*
X123370729Y-96235539D01*
X123416484Y-96288343D01*
X123426979Y-96326598D01*
X123429263Y-96347837D01*
X123479558Y-96482685D01*
X123565808Y-96597900D01*
X123681023Y-96684150D01*
X123815871Y-96734445D01*
X123875481Y-96740854D01*
X124887901Y-96740853D01*
X124954940Y-96760537D01*
X124975581Y-96777171D01*
X127212406Y-99013997D01*
X129379550Y-101181141D01*
X129392450Y-101197242D01*
X129443577Y-101245254D01*
X129446374Y-101247965D01*
X129465883Y-101267474D01*
X129469063Y-101269941D01*
X129477925Y-101277509D01*
X129509772Y-101307416D01*
X129527326Y-101317066D01*
X129543590Y-101327750D01*
X129555326Y-101336853D01*
X129559418Y-101340027D01*
X129584263Y-101350778D01*
X129599506Y-101357375D01*
X129609985Y-101362508D01*
X129648262Y-101383551D01*
X129667660Y-101388531D01*
X129686062Y-101394831D01*
X129704458Y-101402792D01*
X129747615Y-101409627D01*
X129759018Y-101411988D01*
X129801335Y-101422854D01*
X129821370Y-101422854D01*
X129840767Y-101424380D01*
X129860550Y-101427514D01*
X129904028Y-101423404D01*
X129915698Y-101422854D01*
X136401610Y-101422854D01*
X136422116Y-101425118D01*
X136425019Y-101425026D01*
X136425021Y-101425027D01*
X136492226Y-101422915D01*
X136496122Y-101422854D01*
X136519802Y-101422854D01*
X136523704Y-101422854D01*
X136527667Y-101422353D01*
X136539316Y-101421434D01*
X136582981Y-101420063D01*
X136602213Y-101414474D01*
X136621272Y-101410528D01*
X136628445Y-101409622D01*
X136641146Y-101408018D01*
X136681761Y-101391936D01*
X136692798Y-101388157D01*
X136734744Y-101375972D01*
X136751983Y-101365776D01*
X136769456Y-101357216D01*
X136788086Y-101349840D01*
X136823418Y-101324168D01*
X136833184Y-101317754D01*
X136870772Y-101295525D01*
X136870771Y-101295525D01*
X136870774Y-101295524D01*
X136884939Y-101281358D01*
X136899727Y-101268727D01*
X136915941Y-101256948D01*
X136943792Y-101223280D01*
X136951633Y-101214663D01*
X138392142Y-99774154D01*
X138408239Y-99761260D01*
X138410227Y-99759141D01*
X138410231Y-99759140D01*
X138456303Y-99710077D01*
X138458888Y-99707409D01*
X138478474Y-99687825D01*
X138480939Y-99684646D01*
X138488521Y-99675770D01*
X138518416Y-99643936D01*
X138528071Y-99626372D01*
X138538748Y-99610118D01*
X138551027Y-99594290D01*
X138568372Y-99554206D01*
X138573514Y-99543710D01*
X138594551Y-99505446D01*
X138599533Y-99486038D01*
X138605835Y-99467634D01*
X138613791Y-99449250D01*
X138620623Y-99406106D01*
X138622987Y-99394692D01*
X138633854Y-99352373D01*
X138633854Y-99332337D01*
X138635381Y-99312938D01*
X138638514Y-99293158D01*
X138634404Y-99249678D01*
X138633854Y-99238009D01*
X138633854Y-97578097D01*
X138636118Y-97557593D01*
X138633915Y-97487466D01*
X138633854Y-97483572D01*
X138633854Y-97459895D01*
X138633854Y-97456004D01*
X138633352Y-97452037D01*
X138632435Y-97440381D01*
X138632097Y-97429611D01*
X138631064Y-97396727D01*
X138625472Y-97377480D01*
X138621528Y-97358439D01*
X138619018Y-97338562D01*
X138602933Y-97297937D01*
X138599162Y-97286922D01*
X138586972Y-97244964D01*
X138576768Y-97227709D01*
X138568215Y-97210249D01*
X138564556Y-97201007D01*
X138560840Y-97191622D01*
X138535162Y-97156279D01*
X138528755Y-97146525D01*
X138506523Y-97108933D01*
X138492360Y-97094770D01*
X138479721Y-97079971D01*
X138467949Y-97063767D01*
X138434295Y-97035927D01*
X138425653Y-97028063D01*
X137619207Y-96221617D01*
X137585722Y-96160294D01*
X137587113Y-96101843D01*
X137597515Y-96063028D01*
X137616646Y-95844354D01*
X137597515Y-95625680D01*
X137540701Y-95413651D01*
X137447933Y-95214708D01*
X137322028Y-95034897D01*
X137166811Y-94879680D01*
X137019597Y-94776600D01*
X136986996Y-94753772D01*
X136843234Y-94686736D01*
X136790794Y-94640564D01*
X136771642Y-94573371D01*
X136791858Y-94506489D01*
X136843234Y-94461972D01*
X136986996Y-94394935D01*
X136986996Y-94394934D01*
X136987000Y-94394933D01*
X137166811Y-94269028D01*
X137322028Y-94113811D01*
X137447933Y-93934000D01*
X137540701Y-93735057D01*
X137597515Y-93523028D01*
X137616646Y-93304354D01*
X137597515Y-93085680D01*
X137540701Y-92873651D01*
X137447933Y-92674708D01*
X137322028Y-92494897D01*
X137166811Y-92339680D01*
X136987000Y-92213775D01*
X136895275Y-92171003D01*
X136788058Y-92121007D01*
X136576025Y-92064192D01*
X136357353Y-92045061D01*
X136138682Y-92064192D01*
X135926649Y-92121007D01*
X135727710Y-92213774D01*
X135727708Y-92213775D01*
X135564671Y-92327935D01*
X135547893Y-92339683D01*
X135392683Y-92494893D01*
X135392680Y-92494896D01*
X135392680Y-92494897D01*
X135310190Y-92612706D01*
X135266774Y-92674710D01*
X135174007Y-92873649D01*
X135117192Y-93085682D01*
X135098061Y-93304354D01*
X135117192Y-93523025D01*
X135174007Y-93735058D01*
X135196243Y-93782743D01*
X135266775Y-93934000D01*
X135392680Y-94113811D01*
X135547897Y-94269028D01*
X135727708Y-94394933D01*
X135824042Y-94439854D01*
X135871474Y-94461972D01*
X135923913Y-94508144D01*
X135943065Y-94575338D01*
X135922849Y-94642219D01*
X135871474Y-94686736D01*
X135727714Y-94753772D01*
X135727708Y-94753775D01*
X135564671Y-94867935D01*
X135547893Y-94879683D01*
X135392683Y-95034893D01*
X135392680Y-95034896D01*
X135392680Y-95034897D01*
X135266775Y-95214708D01*
X135266774Y-95214710D01*
X135266772Y-95214713D01*
X135243939Y-95263677D01*
X135197766Y-95316116D01*
X135130572Y-95335267D01*
X135063691Y-95315050D01*
X135055565Y-95309256D01*
X135053658Y-95307777D01*
X135044776Y-95300191D01*
X135012936Y-95270292D01*
X135012935Y-95270291D01*
X135006437Y-95266719D01*
X134957173Y-95217172D01*
X134942517Y-95148857D01*
X134953793Y-95105652D01*
X134972862Y-95064758D01*
X135000701Y-95005057D01*
X135057515Y-94793028D01*
X135076646Y-94574354D01*
X135057515Y-94355680D01*
X135000701Y-94143651D01*
X134907933Y-93944708D01*
X134782028Y-93764897D01*
X134626811Y-93609680D01*
X134447000Y-93483775D01*
X134446996Y-93483772D01*
X134303234Y-93416736D01*
X134250794Y-93370564D01*
X134231642Y-93303371D01*
X134251858Y-93236489D01*
X134303234Y-93191972D01*
X134446996Y-93124935D01*
X134446996Y-93124934D01*
X134447000Y-93124933D01*
X134626811Y-92999028D01*
X134782028Y-92843811D01*
X134907933Y-92664000D01*
X135000701Y-92465057D01*
X135057515Y-92253028D01*
X135076646Y-92034354D01*
X135057515Y-91815680D01*
X135000701Y-91603651D01*
X134907933Y-91404708D01*
X134782028Y-91224897D01*
X134626811Y-91069680D01*
X134447000Y-90943775D01*
X134355275Y-90901003D01*
X134248058Y-90851007D01*
X134036025Y-90794192D01*
X133817354Y-90775061D01*
X133598682Y-90794192D01*
X133386649Y-90851007D01*
X133187710Y-90943774D01*
X133187708Y-90943775D01*
X133099320Y-91005665D01*
X133007893Y-91069683D01*
X132852683Y-91224893D01*
X132852680Y-91224896D01*
X132852680Y-91224897D01*
X132747481Y-91375138D01*
X132726774Y-91404710D01*
X132634007Y-91603649D01*
X132577192Y-91815682D01*
X132558061Y-92034353D01*
X132577192Y-92253025D01*
X132634007Y-92465058D01*
X132669050Y-92540208D01*
X132726775Y-92664000D01*
X132852680Y-92843811D01*
X133007897Y-92999028D01*
X133187708Y-93124933D01*
X133298376Y-93176538D01*
X133331474Y-93191972D01*
X133383913Y-93238144D01*
X133403065Y-93305338D01*
X133382849Y-93372219D01*
X133331474Y-93416736D01*
X133249592Y-93454918D01*
X133187708Y-93483775D01*
X133007897Y-93609680D01*
X133007893Y-93609683D01*
X132852683Y-93764893D01*
X132852680Y-93764896D01*
X132852680Y-93764897D01*
X132772904Y-93878830D01*
X132726774Y-93944710D01*
X132664871Y-94077461D01*
X132618698Y-94129900D01*
X132551505Y-94149052D01*
X132484624Y-94128836D01*
X132439289Y-94075671D01*
X132429168Y-94012097D01*
X132436814Y-93939354D01*
X132417028Y-93751098D01*
X132358533Y-93571070D01*
X132358533Y-93571069D01*
X132263887Y-93407137D01*
X132137224Y-93266464D01*
X131984084Y-93155202D01*
X131811156Y-93078209D01*
X131626002Y-93038854D01*
X131626000Y-93038854D01*
X131436708Y-93038854D01*
X131436706Y-93038854D01*
X131251551Y-93078209D01*
X131078623Y-93155202D01*
X130925483Y-93266464D01*
X130798820Y-93407138D01*
X130749741Y-93492146D01*
X130699174Y-93540362D01*
X130630567Y-93553585D01*
X130565702Y-93527617D01*
X130534967Y-93492146D01*
X130485887Y-93407138D01*
X130359224Y-93266464D01*
X130206084Y-93155202D01*
X130033156Y-93078209D01*
X129848002Y-93038854D01*
X129848000Y-93038854D01*
X129658708Y-93038854D01*
X129658706Y-93038854D01*
X129473551Y-93078209D01*
X129300623Y-93155202D01*
X129147483Y-93266464D01*
X129020820Y-93407137D01*
X128926174Y-93571069D01*
X128918785Y-93593813D01*
X128879348Y-93651489D01*
X128814989Y-93678687D01*
X128746143Y-93666772D01*
X128694667Y-93619528D01*
X128682923Y-93593813D01*
X128675533Y-93571069D01*
X128580887Y-93407137D01*
X128454224Y-93266464D01*
X128301084Y-93155202D01*
X128128156Y-93078209D01*
X127943002Y-93038854D01*
X127943000Y-93038854D01*
X127753708Y-93038854D01*
X127753706Y-93038854D01*
X127568551Y-93078209D01*
X127395623Y-93155202D01*
X127242483Y-93266464D01*
X127115820Y-93407137D01*
X127021174Y-93571069D01*
X126962680Y-93751096D01*
X126942894Y-93939354D01*
X126962680Y-94127611D01*
X127021174Y-94307638D01*
X127115820Y-94471570D01*
X127242483Y-94612243D01*
X127395623Y-94723505D01*
X127568551Y-94800498D01*
X127753706Y-94839854D01*
X127753708Y-94839854D01*
X127943002Y-94839854D01*
X128066437Y-94813616D01*
X128128157Y-94800498D01*
X128301084Y-94723505D01*
X128336157Y-94698023D01*
X128454224Y-94612243D01*
X128488341Y-94574353D01*
X128580887Y-94471570D01*
X128675533Y-94307638D01*
X128682922Y-94284895D01*
X128722360Y-94227219D01*
X128786718Y-94200020D01*
X128855564Y-94211934D01*
X128907041Y-94259178D01*
X128918785Y-94284895D01*
X128926174Y-94307637D01*
X129020820Y-94471570D01*
X129147483Y-94612243D01*
X129300623Y-94723505D01*
X129473551Y-94800498D01*
X129658706Y-94839854D01*
X129658708Y-94839854D01*
X129848002Y-94839854D01*
X129971437Y-94813616D01*
X130033157Y-94800498D01*
X130206084Y-94723505D01*
X130241157Y-94698023D01*
X130359224Y-94612243D01*
X130393341Y-94574353D01*
X130485887Y-94471570D01*
X130515618Y-94420074D01*
X130534967Y-94386561D01*
X130585533Y-94338346D01*
X130654140Y-94325122D01*
X130719005Y-94351090D01*
X130749741Y-94386561D01*
X130798820Y-94471570D01*
X130925483Y-94612243D01*
X131078623Y-94723505D01*
X131251551Y-94800498D01*
X131436706Y-94839854D01*
X131436708Y-94839854D01*
X131626002Y-94839854D01*
X131749437Y-94813616D01*
X131811157Y-94800498D01*
X131984084Y-94723505D01*
X132019157Y-94698023D01*
X132137224Y-94612243D01*
X132171341Y-94574353D01*
X132263887Y-94471570D01*
X132293618Y-94420074D01*
X132341535Y-94337080D01*
X132392102Y-94288865D01*
X132460709Y-94275641D01*
X132525574Y-94301609D01*
X132566102Y-94358523D01*
X132572450Y-94409887D01*
X132558061Y-94574353D01*
X132577192Y-94793025D01*
X132587868Y-94832868D01*
X132623234Y-94964854D01*
X132632320Y-94998760D01*
X132630657Y-95068610D01*
X132591495Y-95126472D01*
X132527267Y-95153977D01*
X132512545Y-95154854D01*
X127073807Y-95154854D01*
X127006768Y-95135169D01*
X126986126Y-95118535D01*
X125960172Y-94092580D01*
X125926687Y-94031257D01*
X125923853Y-94004899D01*
X125923853Y-92995793D01*
X125923853Y-92995792D01*
X125923853Y-92992482D01*
X125917445Y-92932871D01*
X125867150Y-92798023D01*
X125780900Y-92682808D01*
X125665685Y-92596558D01*
X125530837Y-92546263D01*
X125471227Y-92539854D01*
X125467904Y-92539854D01*
X123878793Y-92539854D01*
X123878774Y-92539854D01*
X123875482Y-92539855D01*
X123872202Y-92540207D01*
X123872194Y-92540208D01*
X123815869Y-92546263D01*
X123681023Y-92596558D01*
X123565808Y-92682808D01*
X123479558Y-92798022D01*
X123429263Y-92932870D01*
X123426980Y-92954108D01*
X123400242Y-93018660D01*
X123342850Y-93058508D01*
X123303690Y-93064854D01*
X117131094Y-93064854D01*
X117110590Y-93062590D01*
X117040498Y-93064793D01*
X117036604Y-93064854D01*
X117021341Y-93064854D01*
X116973890Y-93055415D01*
X116943950Y-93043014D01*
X116943949Y-93043013D01*
X116943947Y-93043013D01*
X116863728Y-93032937D01*
X116863718Y-93032936D01*
X116859878Y-93032454D01*
X116230831Y-93032454D01*
X116226990Y-93032936D01*
X116226981Y-93032937D01*
X116146757Y-93043013D01*
X116013788Y-93098091D01*
X116001323Y-93107775D01*
X115936304Y-93133356D01*
X115867777Y-93119724D01*
X115817499Y-93071207D01*
X115801254Y-93009849D01*
X115801254Y-92843811D01*
X115801254Y-92608831D01*
X115790694Y-92524757D01*
X115735617Y-92391790D01*
X115695139Y-92339683D01*
X115686015Y-92327937D01*
X115686008Y-92327929D01*
X115683634Y-92324873D01*
X115266115Y-91907353D01*
X119322894Y-91907353D01*
X119342680Y-92095611D01*
X119401174Y-92275638D01*
X119495820Y-92439570D01*
X119622483Y-92580243D01*
X119775623Y-92691505D01*
X119948551Y-92768498D01*
X120133706Y-92807854D01*
X120133708Y-92807854D01*
X120323002Y-92807854D01*
X120446437Y-92781616D01*
X120508157Y-92768498D01*
X120681084Y-92691505D01*
X120789542Y-92612706D01*
X120834224Y-92580243D01*
X120960887Y-92439570D01*
X121055533Y-92275638D01*
X121062880Y-92253025D01*
X121114028Y-92095610D01*
X121133814Y-91907354D01*
X121114028Y-91719098D01*
X121060248Y-91553580D01*
X121055533Y-91539069D01*
X120960887Y-91375137D01*
X120834224Y-91234464D01*
X120681084Y-91123202D01*
X120508156Y-91046209D01*
X120323002Y-91006854D01*
X120323000Y-91006854D01*
X120133708Y-91006854D01*
X120133706Y-91006854D01*
X119948551Y-91046209D01*
X119775623Y-91123202D01*
X119622483Y-91234464D01*
X119495820Y-91375137D01*
X119401174Y-91539069D01*
X119342680Y-91719096D01*
X119322894Y-91907353D01*
X115266115Y-91907353D01*
X115238832Y-91880070D01*
X115212689Y-91859762D01*
X115171916Y-91828089D01*
X115038950Y-91773013D01*
X114958726Y-91762937D01*
X114958720Y-91762936D01*
X114954878Y-91762454D01*
X114325831Y-91762454D01*
X114321990Y-91762936D01*
X114321981Y-91762937D01*
X114241757Y-91773013D01*
X114108789Y-91828091D01*
X114044937Y-91877692D01*
X114044919Y-91877707D01*
X114041873Y-91880074D01*
X114039139Y-91882807D01*
X114039131Y-91882815D01*
X113599808Y-92322137D01*
X113599800Y-92322145D01*
X113597070Y-92324876D01*
X113594699Y-92327927D01*
X113594693Y-92327935D01*
X113545089Y-92391791D01*
X113490013Y-92524757D01*
X113480995Y-92596558D01*
X113479454Y-92608830D01*
X113479454Y-93237877D01*
X113479936Y-93241718D01*
X113479937Y-93241726D01*
X113490013Y-93321950D01*
X113545091Y-93454918D01*
X113594692Y-93518770D01*
X113594700Y-93518779D01*
X113597074Y-93521835D01*
X114041876Y-93966638D01*
X114044935Y-93969014D01*
X114100392Y-94012094D01*
X114108791Y-94018618D01*
X114241758Y-94073694D01*
X114241761Y-94073694D01*
X114254066Y-94078791D01*
X114308470Y-94122632D01*
X114330535Y-94188926D01*
X114313256Y-94256625D01*
X114262120Y-94304236D01*
X114254068Y-94307914D01*
X114180600Y-94338346D01*
X114108793Y-94368090D01*
X114108788Y-94368092D01*
X114044937Y-94417692D01*
X114044919Y-94417707D01*
X114041873Y-94420074D01*
X114039139Y-94422807D01*
X114039131Y-94422815D01*
X113599808Y-94862137D01*
X113599800Y-94862145D01*
X113597070Y-94864876D01*
X113594699Y-94867927D01*
X113594693Y-94867935D01*
X113545089Y-94931791D01*
X113490013Y-95064757D01*
X113479937Y-95144981D01*
X113479454Y-95148830D01*
X113479454Y-95777877D01*
X109687854Y-95777877D01*
X109687854Y-90203949D01*
X140803040Y-90203949D01*
X140827435Y-90425654D01*
X140833468Y-90480478D01*
X140903834Y-90749630D01*
X141012638Y-91005668D01*
X141157562Y-91243135D01*
X141157565Y-91243139D01*
X141157566Y-91243140D01*
X141292023Y-91404708D01*
X141335517Y-91456971D01*
X141542711Y-91642617D01*
X141739807Y-91773014D01*
X141774729Y-91796118D01*
X142026622Y-91914201D01*
X142234953Y-91976878D01*
X142293023Y-91994349D01*
X142568255Y-92034854D01*
X142568258Y-92034854D01*
X142774555Y-92034854D01*
X142776817Y-92034854D01*
X142984809Y-92019631D01*
X143256351Y-91959142D01*
X143516192Y-91859762D01*
X143758794Y-91723607D01*
X143978986Y-91553580D01*
X144172076Y-91353305D01*
X144333947Y-91127050D01*
X144461151Y-90879637D01*
X144550975Y-90616340D01*
X144601506Y-90342770D01*
X144611667Y-90064758D01*
X144594972Y-89913034D01*
X144607206Y-89844248D01*
X144654688Y-89792992D01*
X144722344Y-89775543D01*
X144788079Y-89797021D01*
X144885918Y-89863726D01*
X145120611Y-89976749D01*
X145369528Y-90053530D01*
X145627109Y-90092354D01*
X145887599Y-90092354D01*
X146145180Y-90053530D01*
X146394097Y-89976749D01*
X146628791Y-89863726D01*
X146844018Y-89716987D01*
X147034970Y-89539809D01*
X147197383Y-89336149D01*
X147327628Y-89110558D01*
X147422796Y-88868075D01*
X147480761Y-88614116D01*
X147500227Y-88354354D01*
X147480761Y-88094592D01*
X147422796Y-87840633D01*
X147327628Y-87598150D01*
X147197383Y-87372559D01*
X147034970Y-87168899D01*
X146844018Y-86991721D01*
X146628791Y-86844982D01*
X146394097Y-86731959D01*
X146317314Y-86708274D01*
X146145179Y-86655177D01*
X145887599Y-86616354D01*
X145627109Y-86616354D01*
X145369528Y-86655177D01*
X145120610Y-86731959D01*
X144885917Y-86844982D01*
X144670687Y-86991723D01*
X144479741Y-87168895D01*
X144317324Y-87372560D01*
X144187079Y-87598151D01*
X144091912Y-87840630D01*
X144033946Y-88094594D01*
X144014480Y-88354354D01*
X144024434Y-88487187D01*
X144009814Y-88555510D01*
X143960577Y-88605083D01*
X143892355Y-88620166D01*
X143832362Y-88599869D01*
X143639978Y-88472589D01*
X143388085Y-88354506D01*
X143121690Y-88274360D01*
X143121686Y-88274359D01*
X143121685Y-88274359D01*
X142846453Y-88233854D01*
X142637891Y-88233854D01*
X142635642Y-88234018D01*
X142635631Y-88234019D01*
X142429898Y-88249076D01*
X142158357Y-88309565D01*
X141898517Y-88408945D01*
X141655914Y-88545101D01*
X141435720Y-88715128D01*
X141242631Y-88915402D01*
X141080759Y-89141659D01*
X140953559Y-89389065D01*
X140863731Y-89652372D01*
X140813201Y-89925937D01*
X140803040Y-90203949D01*
X109687854Y-90203949D01*
X109687854Y-84592216D01*
X109707539Y-84525177D01*
X109724173Y-84504535D01*
X109778035Y-84450673D01*
X109839358Y-84417188D01*
X109865716Y-84414354D01*
X150838354Y-84414354D01*
X150905393Y-84434039D01*
G37*
G04 #@! TD.AperFunction*
G04 #@! TA.AperFunction,NonConductor*
G36*
X123370729Y-94335539D02*
G01*
X123416484Y-94388343D01*
X123426979Y-94426598D01*
X123429263Y-94447837D01*
X123476450Y-94574353D01*
X123484905Y-94597020D01*
X123489889Y-94666711D01*
X123484905Y-94683686D01*
X123429263Y-94832868D01*
X123426980Y-94854108D01*
X123400242Y-94918660D01*
X123342850Y-94958508D01*
X123303690Y-94964854D01*
X117707574Y-94964854D01*
X117640535Y-94945169D01*
X117594780Y-94892365D01*
X117584836Y-94823207D01*
X117609649Y-94764784D01*
X117640619Y-94724916D01*
X117695694Y-94591950D01*
X117696858Y-94582685D01*
X117706254Y-94507878D01*
X117706254Y-94439853D01*
X117725939Y-94372815D01*
X117778743Y-94327060D01*
X117830254Y-94315854D01*
X123303690Y-94315854D01*
X123370729Y-94335539D01*
G37*
G04 #@! TD.AperFunction*
G04 #@! TA.AperFunction,NonConductor*
G36*
X115317928Y-93996982D02*
G01*
X115368208Y-94045497D01*
X115384454Y-94106858D01*
X115384454Y-94279848D01*
X115364769Y-94346887D01*
X115311965Y-94392642D01*
X115242807Y-94402586D01*
X115184386Y-94377775D01*
X115171916Y-94368089D01*
X115026641Y-94307915D01*
X114972237Y-94264075D01*
X114950172Y-94197781D01*
X114967451Y-94130081D01*
X115018588Y-94082470D01*
X115026640Y-94078793D01*
X115038949Y-94073694D01*
X115038951Y-94073694D01*
X115171918Y-94018617D01*
X115184382Y-94008934D01*
X115249401Y-93983352D01*
X115317928Y-93996982D01*
G37*
G04 #@! TD.AperFunction*
G04 #@! TA.AperFunction,NonConductor*
G36*
X132505893Y-96425539D02*
G01*
X132551648Y-96478343D01*
X132562854Y-96529854D01*
X132562854Y-97912914D01*
X132562854Y-97912932D01*
X132562855Y-97916226D01*
X132563207Y-97919506D01*
X132563208Y-97919513D01*
X132569263Y-97975838D01*
X132587788Y-98025505D01*
X132619558Y-98110685D01*
X132705808Y-98225900D01*
X132821023Y-98312150D01*
X132955871Y-98362445D01*
X133015481Y-98368854D01*
X134619226Y-98368853D01*
X134678837Y-98362445D01*
X134813685Y-98312150D01*
X134902743Y-98245480D01*
X134968204Y-98221064D01*
X135036478Y-98235915D01*
X135085884Y-98285320D01*
X135100736Y-98353593D01*
X135100580Y-98355552D01*
X135098061Y-98384350D01*
X135117192Y-98603025D01*
X135166245Y-98786092D01*
X135174007Y-98815057D01*
X135266775Y-99014000D01*
X135392680Y-99193811D01*
X135547897Y-99349028D01*
X135727708Y-99474933D01*
X135926651Y-99567701D01*
X136138680Y-99624515D01*
X136262654Y-99635361D01*
X136357353Y-99643646D01*
X136357353Y-99643645D01*
X136357354Y-99643646D01*
X136378115Y-99641829D01*
X136452058Y-99635361D01*
X136520558Y-99649128D01*
X136570741Y-99697743D01*
X136586674Y-99765772D01*
X136563299Y-99831615D01*
X136550546Y-99846570D01*
X136261582Y-100135535D01*
X136200259Y-100169020D01*
X136173901Y-100171854D01*
X130190806Y-100171854D01*
X130123767Y-100152169D01*
X130103125Y-100135535D01*
X128254679Y-98287088D01*
X128221194Y-98225765D01*
X128226178Y-98156073D01*
X128268050Y-98100140D01*
X128291920Y-98086129D01*
X128428084Y-98025505D01*
X128428084Y-98025504D01*
X128428086Y-98025504D01*
X128581224Y-97914243D01*
X128707887Y-97773570D01*
X128756967Y-97688561D01*
X128807533Y-97640346D01*
X128876140Y-97627122D01*
X128941005Y-97653090D01*
X128971741Y-97688561D01*
X129020820Y-97773570D01*
X129147483Y-97914243D01*
X129300623Y-98025505D01*
X129473551Y-98102498D01*
X129658706Y-98141854D01*
X129658708Y-98141854D01*
X129848002Y-98141854D01*
X129971438Y-98115616D01*
X130033157Y-98102498D01*
X130206084Y-98025505D01*
X130274445Y-97975838D01*
X130359224Y-97914243D01*
X130486704Y-97772663D01*
X130546191Y-97736014D01*
X130616048Y-97737345D01*
X130671004Y-97772663D01*
X130798483Y-97914243D01*
X130951623Y-98025505D01*
X131124551Y-98102498D01*
X131309706Y-98141854D01*
X131309708Y-98141854D01*
X131499002Y-98141854D01*
X131622438Y-98115616D01*
X131684157Y-98102498D01*
X131857084Y-98025505D01*
X131925445Y-97975838D01*
X132010224Y-97914243D01*
X132136887Y-97773570D01*
X132231533Y-97609638D01*
X132246229Y-97564408D01*
X132290028Y-97429610D01*
X132309814Y-97241354D01*
X132290028Y-97053098D01*
X132231533Y-96873070D01*
X132231533Y-96873069D01*
X132136889Y-96709140D01*
X132114387Y-96684149D01*
X132050165Y-96612824D01*
X132019937Y-96549835D01*
X132028562Y-96480500D01*
X132073303Y-96426834D01*
X132139956Y-96405876D01*
X132142317Y-96405854D01*
X132438854Y-96405854D01*
X132505893Y-96425539D01*
G37*
G04 #@! TD.AperFunction*
G04 #@! TA.AperFunction,NonConductor*
G36*
X130733430Y-96425539D02*
G01*
X130779185Y-96478343D01*
X130789129Y-96547501D01*
X130760104Y-96611057D01*
X130758582Y-96612779D01*
X130726195Y-96648748D01*
X130671002Y-96710046D01*
X130611515Y-96746693D01*
X130541658Y-96745362D01*
X130486703Y-96710044D01*
X130399167Y-96612826D01*
X130368937Y-96549835D01*
X130377562Y-96480500D01*
X130422303Y-96426834D01*
X130488956Y-96405876D01*
X130491317Y-96405854D01*
X130666391Y-96405854D01*
X130733430Y-96425539D01*
G37*
G04 #@! TD.AperFunction*
G04 #@! TA.AperFunction,NonConductor*
G36*
X129082430Y-96425539D02*
G01*
X129128185Y-96478343D01*
X129138129Y-96547501D01*
X129109104Y-96611057D01*
X129107588Y-96612772D01*
X129069477Y-96655099D01*
X129020818Y-96709140D01*
X128971741Y-96794146D01*
X128921174Y-96842362D01*
X128852567Y-96855585D01*
X128787702Y-96829617D01*
X128756967Y-96794146D01*
X128707889Y-96709140D01*
X128685387Y-96684149D01*
X128621165Y-96612824D01*
X128590937Y-96549835D01*
X128599562Y-96480500D01*
X128644303Y-96426834D01*
X128710956Y-96405876D01*
X128713317Y-96405854D01*
X129015391Y-96405854D01*
X129082430Y-96425539D01*
G37*
G04 #@! TD.AperFunction*
G04 #@! TA.AperFunction,NonConductor*
G36*
X126723769Y-96407381D02*
G01*
X126743550Y-96410514D01*
X126787028Y-96406404D01*
X126798698Y-96405854D01*
X127237391Y-96405854D01*
X127304430Y-96425539D01*
X127350185Y-96478343D01*
X127360129Y-96547501D01*
X127331104Y-96611057D01*
X127329588Y-96612772D01*
X127291477Y-96655099D01*
X127242818Y-96709140D01*
X127148175Y-96873068D01*
X127135290Y-96912725D01*
X127095852Y-96970400D01*
X127031493Y-96997598D01*
X126962647Y-96985683D01*
X126929678Y-96962087D01*
X126585126Y-96617535D01*
X126551641Y-96556212D01*
X126556625Y-96486520D01*
X126598497Y-96430587D01*
X126663961Y-96406170D01*
X126672807Y-96405854D01*
X126684335Y-96405854D01*
X126704370Y-96405854D01*
X126723769Y-96407381D01*
G37*
G04 #@! TD.AperFunction*
M02*
